M48
; DRILL file {KiCad 7.0.8} date Wed Jun 12 14:18:22 2024
; FORMAT={-:-/ absolute / metric / decimal}
; #@! TF.CreationDate,2024-06-12T14:18:22+09:00
; #@! TF.GenerationSoftware,Kicad,Pcbnew,7.0.8
; #@! TF.FileFunction,MixedPlating,1,2
FMAT,2
METRIC
; #@! TA.AperFunction,Plated,PTH,ViaDrill
T1C0.300
; #@! TA.AperFunction,Plated,PTH,ComponentDrill
T2C0.800
; #@! TA.AperFunction,Plated,PTH,ComponentDrill
T3C0.900
; #@! TA.AperFunction,Plated,PTH,ComponentDrill
T4C1.000
%
G90
G05
T1
X2.36Y25.11
X4.14Y8.68
X4.45Y4.25
X5.42Y64.05
X10.28Y9.33
X10.39Y27.64
X10.73Y60.05
X10.73Y46.49
X11.07Y17.63
X11.38Y49.06
X11.59Y7.17
X11.65Y30.53
X11.97Y23.16
X11.97Y12.41
X11.99Y9.77
X12.0Y51.53
X12.0Y35.27
X12.58Y54.08
X12.58Y37.81
X12.59Y36.35
X12.61Y20.03
X13.16Y56.68
X13.16Y44.29
X13.16Y40.34
X13.36Y1.47
X13.41Y30.7
X13.41Y26.57
X13.76Y59.23
X13.76Y42.89
X14.19Y27.63
X14.34Y29.88
X14.36Y63.21
X14.36Y31.43
X14.41Y18.08
X14.63Y26.19
X14.63Y22.58
X14.9Y60.67
X14.9Y33.84
X15.94Y40.35
X15.94Y32.72
X15.94Y4.39
X16.97Y41.44
X16.979Y47.08
X17.2Y26.81
X17.2Y20.8
X17.72Y43.62
X17.86Y63.38
X17.89Y56.42
X18.01Y25.1
X18.22Y58.13
X18.46Y20.92
X18.61Y39.17
X18.62Y14.88
X19.15Y55.59
X19.16Y41.32
X19.393Y17.778
X19.63Y28.84
X19.7Y54.27
X19.7Y47.97
X19.84Y30.031
X19.87Y22.78
X20.07Y32.54
X20.14Y35.35
X20.19Y4.65
X20.24Y37.76
X20.25Y46.55
X20.25Y51.53
X20.27Y9.69
X20.27Y7.33
X20.43Y61.7
X20.73Y15.35
X20.73Y12.41
X20.83Y58.83
X20.83Y45.44
X21.47Y25.12
X21.5Y28.65
X21.97Y63.49
X21.97Y30.7
X21.99Y23.55
X21.99Y18.56
X25.639Y1.991
X26.68Y62.0
X27.8Y60.67
X28.1Y63.21
X28.31Y30.19
X28.55Y42.12
X28.85Y35.26
X28.85Y24.77
X29.089Y40.15
X29.62Y42.36
X29.62Y35.28
X29.67Y57.32
X29.67Y49.45
X29.81Y28.61
X30.69Y47.24
X30.69Y37.49
X30.71Y32.73
X30.73Y23.54
X30.89Y5.48
X30.9Y39.07
X31.27Y29.87
X31.27Y27.65
X32.22Y6.34
X32.23Y13.06
X32.36Y15.1
X32.37Y55.17
X32.86Y26.42
X33.27Y23.13
X33.63Y2.95
X33.73Y59.53
X33.84Y62.61
X34.57Y21.46
X34.72Y6.41
X34.721Y18.4
X34.82Y54.12
X34.82Y49.45
X34.89Y46.87
X35.03Y44.37
X35.03Y24.77
X35.51Y48.91
X35.51Y23.99
X36.02Y13.89
X36.28Y22.41
X36.34Y51.29
X36.34Y29.98
X36.76Y28.52
X37.15Y39.29
X37.15Y29.98
X37.16Y46.58
X37.29Y44.52
X37.96Y36.74
X37.96Y9.76
X37.99Y47.81
X38.01Y51.88
X38.59Y41.83
X38.8Y50.32
X38.802Y46.902
X38.88Y7.93
X38.9Y22.64
X38.92Y11.37
X39.84Y24.77
X39.84Y18.92
X39.84Y7.92
X40.06Y59.42
X40.23Y26.07
X40.84Y20.91
X40.91Y17.08
X41.23Y11.23
X41.95Y16.024
X42.49Y44.36
X42.49Y13.7
X42.68Y7.5
X42.69Y47.17
X43.06Y34.2
X43.06Y12.78
X43.4Y51.88
X43.62Y33.61
X43.62Y31.66
X44.08Y28.25
X44.1Y40.36
X44.1Y36.84
X44.33Y22.69
X44.39Y49.44
X44.77Y15.1
X45.36Y54.6
X46.37Y11.19
X47.86Y14.29
X48.03Y30.13
X48.07Y40.36
X48.1Y22.68
X48.67Y17.54
X49.13Y21.16
X49.2Y56.75
X49.24Y44.32
X50.55Y8.56
X51.03Y2.01
X52.08Y28.84
X52.16Y39.22
X52.27Y45.34
X53.22Y22.59
X53.29Y46.87
X53.29Y25.44
X53.42Y17.73
X53.57Y57.29
X54.27Y50.26
X55.46Y39.22
X55.6Y32.7
X55.61Y13.84
X56.709Y55.64
X56.709Y36.7
X57.11Y18.92
X57.11Y9.76
X57.24Y57.23
X57.24Y29.08
X57.84Y20.05
X57.98Y26.29
X58.16Y41.78
X58.16Y35.61
X58.64Y21.46
X58.64Y14.77
X58.81Y32.24
X59.14Y42.87
X59.28Y16.09
X59.37Y51.94
X59.87Y13.35
X62.38Y61.13
X62.86Y10.59
X63.68Y32.73
T2
X2.885Y34.34
X2.885Y31.84
X8.735Y63.21
X8.735Y60.67
X8.735Y58.13
X8.735Y55.59
X8.735Y53.05
X8.735Y50.51
X8.735Y47.97
X8.735Y45.43
X8.735Y42.89
X8.735Y40.35
X8.735Y37.81
X8.735Y35.27
X8.735Y32.73
X8.735Y30.19
X8.735Y27.65
X8.735Y25.11
X8.735Y22.57
X8.735Y20.03
X8.735Y17.49
X8.735Y14.95
X8.735Y12.41
X8.735Y9.87
X8.735Y7.33
X8.735Y4.79
X23.975Y63.21
X23.975Y60.67
X23.975Y58.13
X23.975Y55.59
X23.975Y53.05
X23.975Y50.51
X23.975Y47.97
X23.975Y45.43
X23.975Y42.89
X23.975Y40.35
X23.975Y37.81
X23.975Y35.27
X23.975Y32.73
X23.975Y30.19
X23.975Y27.65
X23.975Y25.11
X23.975Y22.57
X23.975Y20.03
X23.975Y17.49
X23.975Y14.95
X23.975Y12.41
X23.975Y9.87
X23.975Y7.33
X23.975Y4.79
X29.95Y62.63
X29.95Y59.57
X30.061Y20.04
X30.061Y17.5
X30.061Y14.96
X30.061Y12.42
X30.061Y9.88
X32.86Y51.985
X32.86Y49.445
X32.86Y46.905
X32.86Y44.365
X32.86Y41.825
X32.86Y39.285
X32.86Y36.745
X32.86Y34.205
X32.86Y31.665
X32.86Y29.125
X36.02Y16.76
X36.02Y9.14
X37.56Y55.105
X37.57Y62.63
X37.57Y59.57
X40.06Y55.105
X40.48Y51.985
X40.48Y49.445
X40.48Y46.905
X40.48Y44.365
X40.48Y41.825
X40.48Y39.285
X40.48Y36.745
X40.48Y34.205
X40.48Y31.665
X40.48Y29.125
X46.295Y51.94
X46.295Y49.4
X46.295Y46.86
X46.295Y44.32
X46.295Y41.78
X46.295Y39.24
X46.295Y36.7
X46.295Y34.16
X46.295Y31.62
X46.295Y29.08
X46.295Y26.54
X46.295Y24.0
X46.295Y21.46
X46.295Y18.92
X46.295Y16.38
X46.295Y13.84
X50.55Y61.92
X50.55Y59.42
X56.06Y61.96
X56.06Y59.42
X59.03Y55.07
X61.53Y55.07
X61.535Y51.94
X61.535Y49.4
X61.535Y46.86
X61.535Y44.32
X61.535Y41.78
X61.535Y39.24
X61.535Y36.7
X61.535Y34.16
X61.535Y31.62
X61.535Y29.08
X61.535Y26.54
X61.535Y24.0
X61.535Y21.46
X61.535Y18.92
X61.535Y16.38
X61.535Y13.84
T3
X40.815Y62.27
X43.355Y62.27
T4
X6.19Y58.13
X6.19Y55.59
X6.19Y53.05
X6.19Y50.51
X6.19Y47.97
X6.19Y45.43
X6.19Y42.89
X6.19Y40.35
X6.19Y37.81
X6.19Y35.27
X6.19Y32.73
X6.19Y30.19
X6.19Y27.65
X6.19Y25.11
X6.19Y22.57
X6.19Y20.03
X6.19Y17.49
X6.19Y14.95
X6.19Y12.41
X6.19Y9.87
X26.51Y58.13
X26.51Y55.59
X26.51Y53.05
X26.51Y50.51
X26.51Y47.97
X26.51Y45.43
X26.51Y42.89
X26.51Y40.35
X26.51Y37.81
X26.51Y35.27
X26.51Y32.73
X26.51Y30.19
X26.51Y27.65
X26.51Y25.11
X26.51Y22.57
X26.51Y20.03
X26.51Y17.49
X26.51Y14.95
X26.51Y12.41
X26.51Y9.87
X36.61Y5.39
X39.15Y5.39
X41.69Y5.39
X44.23Y5.39
X46.77Y5.39
X49.31Y5.39
T0
M30
