%TF.GenerationSoftware,KiCad,Pcbnew,7.0.8*%
%TF.CreationDate,2024-06-12T14:18:58+09:00*%
%TF.ProjectId,MEZ68K8_RAM,4d455a36-384b-4385-9f52-414d2e6b6963,Rev 1.2*%
%TF.SameCoordinates,PX65317e4PY8319cac*%
%TF.FileFunction,Copper,L2,Bot*%
%TF.FilePolarity,Positive*%
%FSLAX46Y46*%
G04 Gerber Fmt 4.6, Leading zero omitted, Abs format (unit mm)*
G04 Created by KiCad (PCBNEW 7.0.8) date 2024-06-12 14:18:58*
%MOMM*%
%LPD*%
G01*
G04 APERTURE LIST*
%TA.AperFunction,ComponentPad*%
%ADD10C,1.600000*%
%TD*%
%TA.AperFunction,ComponentPad*%
%ADD11O,1.600000X1.600000*%
%TD*%
%TA.AperFunction,ComponentPad*%
%ADD12R,1.600000X1.600000*%
%TD*%
%TA.AperFunction,ComponentPad*%
%ADD13R,1.800000X1.800000*%
%TD*%
%TA.AperFunction,ComponentPad*%
%ADD14C,1.800000*%
%TD*%
%TA.AperFunction,ComponentPad*%
%ADD15C,1.400000*%
%TD*%
%TA.AperFunction,ComponentPad*%
%ADD16R,1.700000X1.700000*%
%TD*%
%TA.AperFunction,ComponentPad*%
%ADD17O,1.700000X1.700000*%
%TD*%
%TA.AperFunction,ViaPad*%
%ADD18C,0.605000*%
%TD*%
%TA.AperFunction,Conductor*%
%ADD19C,0.152400*%
%TD*%
%TA.AperFunction,Conductor*%
%ADD20C,1.000000*%
%TD*%
%TA.AperFunction,Conductor*%
%ADD21C,0.400000*%
%TD*%
G04 APERTURE END LIST*
D10*
X2885000Y34340000D03*
X2885000Y31840000D03*
D11*
X29950000Y62630000D03*
D10*
X37570000Y62630000D03*
X61530000Y55070000D03*
X59030000Y55070000D03*
D12*
X30061000Y20040000D03*
D11*
X30061000Y17500000D03*
X30061000Y14960000D03*
X30061000Y12420000D03*
X30061000Y9880000D03*
D12*
X46295000Y51940000D03*
D11*
X46295000Y49400000D03*
X46295000Y46860000D03*
X46295000Y44320000D03*
X46295000Y41780000D03*
X46295000Y39240000D03*
X46295000Y36700000D03*
X46295000Y34160000D03*
X46295000Y31620000D03*
X46295000Y29080000D03*
X46295000Y26540000D03*
X46295000Y24000000D03*
X46295000Y21460000D03*
X46295000Y18920000D03*
X46295000Y16380000D03*
X46295000Y13840000D03*
X61535000Y13840000D03*
X61535000Y16380000D03*
X61535000Y18920000D03*
X61535000Y21460000D03*
X61535000Y24000000D03*
X61535000Y26540000D03*
X61535000Y29080000D03*
X61535000Y31620000D03*
X61535000Y34160000D03*
X61535000Y36700000D03*
X61535000Y39240000D03*
X61535000Y41780000D03*
X61535000Y44320000D03*
X61535000Y46860000D03*
X61535000Y49400000D03*
X61535000Y51940000D03*
D10*
X40060000Y55105000D03*
X37560000Y55105000D03*
D13*
X40815000Y62270000D03*
D14*
X43355000Y62270000D03*
D12*
X8735000Y63210000D03*
D11*
X8735000Y60670000D03*
X8735000Y58130000D03*
X8735000Y55590000D03*
X8735000Y53050000D03*
X8735000Y50510000D03*
X8735000Y47970000D03*
X8735000Y45430000D03*
X8735000Y42890000D03*
X8735000Y40350000D03*
X8735000Y37810000D03*
X8735000Y35270000D03*
X8735000Y32730000D03*
X8735000Y30190000D03*
X8735000Y27650000D03*
X8735000Y25110000D03*
X8735000Y22570000D03*
X8735000Y20030000D03*
X8735000Y17490000D03*
X8735000Y14950000D03*
X8735000Y12410000D03*
X8735000Y9870000D03*
X8735000Y7330000D03*
X8735000Y4790000D03*
X23975000Y4790000D03*
X23975000Y7330000D03*
X23975000Y9870000D03*
X23975000Y12410000D03*
X23975000Y14950000D03*
X23975000Y17490000D03*
X23975000Y20030000D03*
X23975000Y22570000D03*
X23975000Y25110000D03*
X23975000Y27650000D03*
X23975000Y30190000D03*
X23975000Y32730000D03*
X23975000Y35270000D03*
X23975000Y37810000D03*
X23975000Y40350000D03*
X23975000Y42890000D03*
X23975000Y45430000D03*
X23975000Y47970000D03*
X23975000Y50510000D03*
X23975000Y53050000D03*
X23975000Y55590000D03*
X23975000Y58130000D03*
X23975000Y60670000D03*
X23975000Y63210000D03*
D15*
X56060000Y59420000D03*
X56060000Y61960000D03*
D16*
X49310000Y5390000D03*
D17*
X46770000Y5390000D03*
X44230000Y5390000D03*
X41690000Y5390000D03*
X39150000Y5390000D03*
X36610000Y5390000D03*
D12*
X50550000Y59420000D03*
D10*
X50550000Y61920000D03*
X36020000Y9140000D03*
D11*
X36020000Y16760000D03*
D10*
X29950000Y59570000D03*
D11*
X37570000Y59570000D03*
D12*
X32860000Y51985000D03*
D11*
X32860000Y49445000D03*
X32860000Y46905000D03*
X32860000Y44365000D03*
X32860000Y41825000D03*
X32860000Y39285000D03*
X32860000Y36745000D03*
X32860000Y34205000D03*
X32860000Y31665000D03*
X32860000Y29125000D03*
X40480000Y29125000D03*
X40480000Y31665000D03*
X40480000Y34205000D03*
X40480000Y36745000D03*
X40480000Y39285000D03*
X40480000Y41825000D03*
X40480000Y44365000D03*
X40480000Y46905000D03*
X40480000Y49445000D03*
X40480000Y51985000D03*
D16*
X26510000Y58130000D03*
D17*
X26510000Y55590000D03*
X26510000Y53050000D03*
X26510000Y50510000D03*
X26510000Y47970000D03*
X26510000Y45430000D03*
X26510000Y42890000D03*
X26510000Y40350000D03*
X26510000Y37810000D03*
X26510000Y35270000D03*
X26510000Y32730000D03*
X26510000Y30190000D03*
X26510000Y27650000D03*
X26510000Y25110000D03*
X26510000Y22570000D03*
X26510000Y20030000D03*
X26510000Y17490000D03*
X26510000Y14950000D03*
X26510000Y12410000D03*
X26510000Y9870000D03*
D16*
X6190000Y58130000D03*
D17*
X6190000Y55590000D03*
X6190000Y53050000D03*
X6190000Y50510000D03*
X6190000Y47970000D03*
X6190000Y45430000D03*
X6190000Y42890000D03*
X6190000Y40350000D03*
X6190000Y37810000D03*
X6190000Y35270000D03*
X6190000Y32730000D03*
X6190000Y30190000D03*
X6190000Y27650000D03*
X6190000Y25110000D03*
X6190000Y22570000D03*
X6190000Y20030000D03*
X6190000Y17490000D03*
X6190000Y14950000D03*
X6190000Y12410000D03*
X6190000Y9870000D03*
D18*
X33840000Y62610000D03*
X33730000Y59530000D03*
X13410000Y30700000D03*
X21970000Y30700000D03*
X21970000Y63490000D03*
X15940000Y32720000D03*
X15940000Y4390000D03*
X33630000Y2950000D03*
X40060000Y59420000D03*
X15940000Y40350000D03*
X17860000Y63380000D03*
X50550000Y8560000D03*
X34890000Y46870000D03*
X33270000Y23130000D03*
X46370000Y11190000D03*
X40910000Y17080000D03*
X53570000Y57290000D03*
X18620000Y14880000D03*
X53420000Y17730000D03*
X58810000Y32240000D03*
X20270000Y7330000D03*
X53220000Y22590000D03*
X21470000Y25120000D03*
X20190000Y4650000D03*
X55460000Y39220000D03*
X44330000Y22690000D03*
X51030000Y2010000D03*
X32859998Y26420000D03*
X20430000Y61700000D03*
X20240000Y37760000D03*
X38010000Y51880000D03*
X62860000Y10590000D03*
X57980000Y26290000D03*
X29810000Y28610000D03*
X62380000Y61130000D03*
X21500000Y28650000D03*
X19840000Y30031100D03*
X14410000Y18080000D03*
X32370000Y55170000D03*
X20270000Y9690000D03*
X38920000Y11370000D03*
X11990000Y9770000D03*
X19392874Y17777615D03*
X63680000Y32730000D03*
X4450000Y4250000D03*
X44100000Y40360000D03*
X10390000Y27640000D03*
X48070000Y40360000D03*
X20140000Y35350000D03*
X42690000Y47170000D03*
X41230000Y11230000D03*
X14340000Y29880000D03*
X48100000Y22680000D03*
X48670000Y17540000D03*
X20070000Y32540000D03*
X14190000Y27629998D03*
X43400000Y51880000D03*
X2360000Y25110000D03*
X28310000Y30190000D03*
X52080000Y28840000D03*
X52160000Y39220000D03*
X36760000Y28520000D03*
X54270000Y50260000D03*
X44100000Y36840000D03*
X11590000Y7170000D03*
X52270000Y45340000D03*
X5420000Y64050000D03*
X37160000Y46580000D03*
X44080000Y28250000D03*
X45360000Y54600000D03*
X26680000Y62000000D03*
X36280000Y22410000D03*
X38900000Y22640000D03*
X48030000Y30130000D03*
X13410000Y26570000D03*
X13360000Y1470000D03*
X13160000Y44290000D03*
X13160000Y56680000D03*
X13160000Y40340000D03*
X12580000Y37810000D03*
X58160000Y41780000D03*
X12580000Y54080000D03*
X58160000Y35610000D03*
X12000000Y35270000D03*
X12000000Y51530000D03*
X20249998Y46550000D03*
X20250000Y51530000D03*
X11650000Y30530000D03*
X11380000Y49060004D03*
X30730000Y23540000D03*
X25638576Y1990656D03*
X34570000Y21460000D03*
X30710000Y32730000D03*
X39840000Y18920000D03*
X28850000Y35260000D03*
X39840000Y7920000D03*
X35030000Y44370000D03*
X35030000Y24770000D03*
X42680000Y7500000D03*
X39840000Y24770000D03*
X28850000Y24770000D03*
X34721094Y18400000D03*
X34720000Y6410000D03*
X30690000Y37490000D03*
X55600000Y32700000D03*
X30890000Y5480000D03*
X32360000Y15100000D03*
X47860000Y14290000D03*
X44770000Y15100000D03*
X55610000Y13840000D03*
X30900000Y39070000D03*
X59280000Y16090000D03*
X38802454Y46901870D03*
X41950000Y16023944D03*
X38800000Y50320000D03*
X58640000Y21460000D03*
X42490000Y44360000D03*
X37990000Y47810000D03*
X58640000Y14770000D03*
X42490000Y13700000D03*
X10730001Y46489999D03*
X10730000Y60050000D03*
X11070000Y17630000D03*
X32230000Y13060000D03*
X29620000Y35280000D03*
X59870000Y13350000D03*
X43060000Y12780000D03*
X43060000Y34200000D03*
X32220000Y6340000D03*
X29620000Y42360000D03*
X57110000Y18920000D03*
X37290000Y44520000D03*
X37960000Y36740000D03*
X57110000Y9760000D03*
X37960000Y9760000D03*
X17200000Y26810000D03*
X36340000Y51290000D03*
X36340000Y29980000D03*
X31270000Y27650000D03*
X31270000Y29870000D03*
X17200000Y20800000D03*
X59140000Y42870000D03*
X13760000Y59230002D03*
X13760000Y42890000D03*
X57240000Y57230000D03*
X20830000Y45440000D03*
X57240000Y29080000D03*
X20830000Y58830000D03*
X19700000Y54270000D03*
X56708900Y36700000D03*
X56708900Y55640000D03*
X19700000Y47970000D03*
X59370000Y51940000D03*
X38880000Y7930000D03*
X4140000Y8680000D03*
X12590000Y36350000D03*
X12610000Y20030000D03*
X49240000Y44320000D03*
X17890000Y56420000D03*
X17720000Y43620000D03*
X49200000Y56750000D03*
X16969998Y41439998D03*
X16978900Y47080000D03*
X30690000Y47240000D03*
X19630000Y28840000D03*
X19870000Y22780000D03*
X20730000Y12410000D03*
X11970000Y23160000D03*
X20730000Y15350000D03*
X11970000Y12410000D03*
X57840000Y20050000D03*
X21990000Y23550000D03*
X21990000Y18560000D03*
X53290000Y25440000D03*
X14630000Y26190000D03*
X53290000Y46870000D03*
X14630000Y22580000D03*
X49130000Y21160000D03*
X18460000Y20920000D03*
X18010000Y25100000D03*
X10280000Y9330000D03*
X40840000Y20910000D03*
X36020000Y13890000D03*
X29670000Y49450000D03*
X35510000Y23990000D03*
X35510000Y48910000D03*
X29670000Y57320000D03*
X40230000Y26070000D03*
X27800000Y60670000D03*
X28550000Y42120000D03*
X38590000Y41830000D03*
X28100000Y63210006D03*
X37150000Y29980000D03*
X29088900Y40150000D03*
X37150000Y39290000D03*
X14360000Y31430000D03*
X14360000Y63210000D03*
X14900000Y33840000D03*
X43620000Y31660000D03*
X43620000Y33610000D03*
X14900000Y60670000D03*
X18610000Y39170000D03*
X18220000Y58130000D03*
X19160000Y41320000D03*
X19150000Y55590000D03*
X44390000Y49440000D03*
X34820000Y49450000D03*
X34820000Y54120000D03*
D19*
X13410000Y30700000D02*
X13410000Y26570000D01*
X21970000Y63490000D02*
X21970000Y30700000D01*
X28854800Y61575200D02*
X28100000Y62330000D01*
X28854800Y42566289D02*
X28854800Y61575200D01*
X28100000Y62330000D02*
X28100000Y63210006D01*
X29088900Y42332189D02*
X28854800Y42566289D01*
X29088900Y40150000D02*
X29088900Y42332189D01*
X28550000Y42120000D02*
X28550000Y59920000D01*
X28550000Y59920000D02*
X27800000Y60670000D01*
D20*
X40060000Y60140000D02*
X37570000Y62630000D01*
X40060000Y59420000D02*
X40060000Y60140000D01*
X15940000Y40350000D02*
X15940000Y61460000D01*
X23975000Y45430000D02*
X23975000Y47970000D01*
X23975000Y42890000D02*
X23975000Y45430000D01*
X23975000Y40350000D02*
X23975000Y42890000D01*
X40060000Y52405000D02*
X40480000Y51985000D01*
X30061000Y20040000D02*
X33630000Y16471000D01*
X40060000Y55105000D02*
X40060000Y59420000D01*
X39150000Y6010000D02*
X36020000Y9140000D01*
X39150000Y5390000D02*
X39150000Y6010000D01*
X15940000Y61460000D02*
X17860000Y63380000D01*
X61530000Y55070000D02*
X61530000Y51945000D01*
X50550000Y59420000D02*
X50550000Y8560000D01*
X15940000Y32720000D02*
X15940000Y4390000D01*
X33630000Y16471000D02*
X33630000Y2950000D01*
X61530000Y51945000D02*
X61535000Y51940000D01*
X40060000Y55105000D02*
X40060000Y52405000D01*
X15940000Y32720000D02*
X15940000Y40350000D01*
X37570000Y59570000D02*
X37570000Y55115000D01*
D21*
X32860000Y29125000D02*
X32860000Y26420002D01*
D19*
X37570000Y55115000D02*
X38010000Y54675000D01*
X32860000Y26420002D02*
X32859998Y26420000D01*
X37570000Y55115000D02*
X37560000Y55105000D01*
X38010000Y54675000D02*
X38010000Y51880000D01*
X13410000Y1520000D02*
X13360000Y1470000D01*
X13410000Y26570000D02*
X13410000Y1520000D01*
X13160000Y44290000D02*
X13160000Y40340000D01*
X13160000Y56680000D02*
X13160000Y44290000D01*
X12580000Y54080000D02*
X12580000Y37810000D01*
X58160000Y35610000D02*
X58160000Y41780000D01*
X20250000Y51530000D02*
X20250000Y46550002D01*
X12000000Y51530000D02*
X12000000Y35270000D01*
X20250000Y46550002D02*
X20249998Y46550000D01*
X11380000Y31490000D02*
X11650000Y31220000D01*
X11380000Y49060004D02*
X11380000Y31490000D01*
X11650000Y31220000D02*
X11650000Y30530000D01*
X30710000Y32730000D02*
X30710000Y23560000D01*
X30710000Y23560000D02*
X30730000Y23540000D01*
X23975000Y9870000D02*
X25638576Y8206424D01*
X34498900Y21531100D02*
X34498900Y45266100D01*
X44230000Y5390000D02*
X44230000Y19395000D01*
X34570000Y21460000D02*
X34498900Y21531100D01*
X34498900Y45266100D02*
X32860000Y46905000D01*
X25638576Y8206424D02*
X25638576Y1990656D01*
X44230000Y19395000D02*
X46295000Y21460000D01*
X28850000Y35260000D02*
X28850000Y24770000D01*
X39840000Y24770000D02*
X39840000Y18920000D01*
X35030000Y24770000D02*
X35030000Y44370000D01*
X39840000Y7920000D02*
X39840000Y18920000D01*
X42260000Y7920000D02*
X42680000Y7500000D01*
X39840000Y7920000D02*
X42260000Y7920000D01*
X31831400Y21289694D02*
X34721094Y18400000D01*
X31831400Y32938600D02*
X31831400Y21289694D01*
X30690000Y34080000D02*
X31831400Y32938600D01*
X30690000Y37490000D02*
X30690000Y34080000D01*
X34720000Y6410000D02*
X34720000Y18398906D01*
X34720000Y18398906D02*
X34721094Y18400000D01*
X31089600Y5679600D02*
X31089600Y13829600D01*
X31089600Y13829600D02*
X32360000Y15100000D01*
X47050000Y15100000D02*
X47860000Y14290000D01*
X30890000Y5480000D02*
X31089600Y5679600D01*
X44770000Y15100000D02*
X47050000Y15100000D01*
X31240000Y38730000D02*
X30900000Y39070000D01*
X31240000Y35825000D02*
X31240000Y38730000D01*
X55600000Y13850000D02*
X55610000Y13840000D01*
X55600000Y32700000D02*
X55600000Y13850000D01*
X32860000Y34205000D02*
X31240000Y35825000D01*
X40480000Y46905000D02*
X41950000Y45435000D01*
X61535000Y24000000D02*
X60504800Y22969800D01*
X38800000Y50320000D02*
X38800000Y46904324D01*
X60504800Y22969800D02*
X60504800Y17314800D01*
X38800000Y46904324D02*
X38802454Y46901870D01*
X41950000Y45435000D02*
X41950000Y16023944D01*
X60504800Y17314800D02*
X59280000Y16090000D01*
X40480000Y44365000D02*
X37990000Y46855000D01*
X58640000Y14770000D02*
X58640000Y21460000D01*
X37990000Y46855000D02*
X37990000Y47810000D01*
X42490000Y44360000D02*
X42490000Y13700000D01*
X11270000Y29180000D02*
X11270000Y17830000D01*
X10730001Y46489999D02*
X10730001Y60049999D01*
X10730001Y30039999D02*
X11270000Y29500000D01*
X11270000Y17830000D02*
X11070000Y17630000D01*
X10730001Y60049999D02*
X10730000Y60050000D01*
X11270000Y29180000D02*
X11270000Y29500000D01*
X10730001Y46489999D02*
X10730001Y30039999D01*
X32220000Y6340000D02*
X32220000Y13050000D01*
X59870000Y13350000D02*
X59870000Y14715000D01*
X59870000Y14715000D02*
X61535000Y16380000D01*
X32220000Y13050000D02*
X32230000Y13060000D01*
X29620000Y42360000D02*
X29620000Y35280000D01*
X43060000Y34200000D02*
X43060000Y12780000D01*
X57110000Y9760000D02*
X57110000Y18920000D01*
X37960000Y36740000D02*
X37960000Y43850000D01*
X37960000Y36740000D02*
X37960000Y9760000D01*
X37960000Y43850000D02*
X37290000Y44520000D01*
X25020000Y11360000D02*
X26510000Y9870000D01*
X23975000Y27650000D02*
X25020000Y26605000D01*
X25020000Y26605000D02*
X25020000Y11360000D01*
X36340000Y29980000D02*
X36340000Y51290000D01*
X17200000Y26810000D02*
X17200000Y20800000D01*
X31270000Y27650000D02*
X31270000Y29870000D01*
X61535000Y34160000D02*
X59140000Y36555000D01*
X13760000Y59230002D02*
X13760000Y42890000D01*
X59140000Y36555000D02*
X59140000Y42870000D01*
X20830000Y45440000D02*
X20830000Y58830000D01*
X57240000Y57230000D02*
X57240000Y29080000D01*
X56708900Y55640000D02*
X56710000Y55638900D01*
X56710000Y55638900D02*
X56710000Y36701100D01*
X56710000Y36701100D02*
X56708900Y36700000D01*
X19700000Y47970000D02*
X19700000Y54270000D01*
X59370000Y51940000D02*
X59671100Y51638900D01*
X59671100Y41103900D02*
X61535000Y39240000D01*
X59671100Y51638900D02*
X59671100Y41103900D01*
X4140000Y33220000D02*
X6190000Y35270000D01*
X4140000Y8680000D02*
X4140000Y33220000D01*
X41690000Y5390000D02*
X40840000Y5390000D01*
X40840000Y5390000D02*
X38880000Y7350000D01*
X38880000Y7350000D02*
X38880000Y7930000D01*
X12590000Y20050000D02*
X12610000Y20030000D01*
X12590000Y36350000D02*
X12590000Y20050000D01*
X49240000Y44320000D02*
X49240000Y56710000D01*
X17720000Y43620000D02*
X17720000Y56250000D01*
X17720000Y56250000D02*
X17890000Y56420000D01*
X49240000Y56710000D02*
X49200000Y56750000D01*
X31831400Y50331400D02*
X31831400Y48331400D01*
X31973600Y50473600D02*
X31831400Y50331400D01*
X30740000Y47240000D02*
X30690000Y47240000D01*
X32860000Y50473600D02*
X31973600Y50473600D01*
X16978900Y47080000D02*
X16978900Y41448900D01*
X32860000Y51985000D02*
X32860000Y50473600D01*
X31831400Y48331400D02*
X30740000Y47240000D01*
X16978900Y41448900D02*
X16969998Y41439998D01*
X19630000Y28840000D02*
X19630000Y23020000D01*
X19630000Y23020000D02*
X19870000Y22780000D01*
X20730000Y15350000D02*
X20730000Y12410000D01*
X11970000Y23160000D02*
X11970000Y12410000D01*
X21990000Y18560000D02*
X21990000Y16935000D01*
X57840000Y22845000D02*
X57840000Y20050000D01*
X21990000Y16935000D02*
X23975000Y14950000D01*
X21990000Y23550000D02*
X21990000Y18560000D01*
X61535000Y26540000D02*
X57840000Y22845000D01*
X7350000Y21185000D02*
X7350000Y13570000D01*
X53290000Y28010000D02*
X53290000Y25440000D01*
X7350000Y13570000D02*
X6190000Y12410000D01*
X53290000Y46870000D02*
X53290000Y28010000D01*
X8735000Y22570000D02*
X7350000Y21185000D01*
X14630000Y26190000D02*
X14630000Y22580000D01*
X27770000Y16230000D02*
X27770000Y14711000D01*
X27770000Y14711000D02*
X30061000Y12420000D01*
X26510000Y17490000D02*
X27770000Y16230000D01*
X48590000Y47105000D02*
X48590000Y43450000D01*
X18010000Y25100000D02*
X18460000Y24650000D01*
X48590000Y43450000D02*
X49130000Y42910000D01*
X10280000Y23565000D02*
X8735000Y25110000D01*
X46295000Y49400000D02*
X48590000Y47105000D01*
X18460000Y24650000D02*
X18460000Y20920000D01*
X49130000Y42910000D02*
X49130000Y21160000D01*
X10280000Y9330000D02*
X10280000Y23565000D01*
X40480000Y29125000D02*
X40840000Y28765000D01*
X40840000Y28765000D02*
X40840000Y20910000D01*
X25340000Y31365000D02*
X25340000Y13580000D01*
X23975000Y32730000D02*
X25340000Y31365000D01*
X23975000Y35270000D02*
X23975000Y32730000D01*
X36020000Y13890000D02*
X36020000Y16760000D01*
X25340000Y13580000D02*
X26510000Y12410000D01*
X35561100Y24041100D02*
X35510000Y23990000D01*
X35510000Y48910000D02*
X35561100Y48858900D01*
X29670000Y57320000D02*
X29670000Y49450000D01*
X35561100Y48858900D02*
X35561100Y24041100D01*
X40230000Y26070000D02*
X38590000Y27710000D01*
X38590000Y27710000D02*
X38590000Y41830000D01*
X37150000Y29980000D02*
X37150000Y39290000D01*
X14360000Y63210000D02*
X14360000Y31430000D01*
X14900000Y60670000D02*
X14900000Y33840000D01*
X43620000Y31660000D02*
X43620000Y33610000D01*
X18220000Y58130000D02*
X18610000Y57740000D01*
X18610000Y57740000D02*
X18610000Y39170000D01*
X19150000Y55590000D02*
X19150000Y41330000D01*
X19150000Y41330000D02*
X19160000Y41320000D01*
X34820000Y54120000D02*
X34820000Y49450000D01*
X44390000Y49440000D02*
X44390000Y43685000D01*
X44390000Y43685000D02*
X46295000Y41780000D01*
%TA.AperFunction,Conductor*%
G36*
X35473098Y7960082D02*
G01*
X35573504Y7913261D01*
X35573510Y7913260D01*
X35573511Y7913259D01*
X35652187Y7892178D01*
X35793308Y7854365D01*
X35855091Y7848961D01*
X35920158Y7823510D01*
X35931965Y7813114D01*
X36853064Y6892015D01*
X36886549Y6830692D01*
X36881565Y6761000D01*
X36860000Y6731832D01*
X36860000Y5825502D01*
X36752315Y5874680D01*
X36645763Y5890000D01*
X36574237Y5890000D01*
X36467685Y5874680D01*
X36360000Y5825502D01*
X36360000Y6720636D01*
X36359999Y6720636D01*
X36146513Y6663433D01*
X36146507Y6663430D01*
X35932422Y6563601D01*
X35932420Y6563600D01*
X35738926Y6428114D01*
X35729666Y6418854D01*
X35668341Y6385372D01*
X35598650Y6390359D01*
X35542718Y6432232D01*
X35518768Y6492656D01*
X35507822Y6589808D01*
X35507821Y6589813D01*
X35507821Y6589815D01*
X35448056Y6760613D01*
X35351783Y6913830D01*
X35333019Y6932594D01*
X35299534Y6993917D01*
X35296700Y7020275D01*
X35296700Y7847697D01*
X35316385Y7914736D01*
X35369189Y7960491D01*
X35438347Y7970435D01*
X35473098Y7960082D01*
G37*
%TD.AperFunction*%
%TA.AperFunction,Conductor*%
G36*
X41328567Y20167933D02*
G01*
X41367537Y20109941D01*
X41373300Y20072577D01*
X41373300Y16634219D01*
X41353615Y16567180D01*
X41336981Y16546538D01*
X41318217Y16527775D01*
X41221943Y16374557D01*
X41162178Y16203757D01*
X41162177Y16203751D01*
X41141919Y16023948D01*
X41141919Y16023941D01*
X41162177Y15844138D01*
X41162178Y15844132D01*
X41221943Y15673332D01*
X41275065Y15588789D01*
X41318217Y15520114D01*
X41446170Y15392161D01*
X41571778Y15313236D01*
X41599389Y15295887D01*
X41770177Y15236125D01*
X41770181Y15236124D01*
X41770182Y15236124D01*
X41770185Y15236123D01*
X41803183Y15232406D01*
X41867596Y15205340D01*
X41907152Y15147746D01*
X41913300Y15109185D01*
X41913300Y14310275D01*
X41893615Y14243236D01*
X41876981Y14222594D01*
X41858217Y14203831D01*
X41761943Y14050613D01*
X41702178Y13879813D01*
X41702177Y13879807D01*
X41681919Y13700004D01*
X41681919Y13699997D01*
X41702177Y13520194D01*
X41702178Y13520188D01*
X41761943Y13349388D01*
X41819230Y13258217D01*
X41858217Y13196170D01*
X41986170Y13068217D01*
X42011696Y13052178D01*
X42139386Y12971944D01*
X42139390Y12971943D01*
X42175119Y12959440D01*
X42231895Y12918718D01*
X42257642Y12853766D01*
X42257385Y12828518D01*
X42251919Y12779998D01*
X42251919Y12779997D01*
X42272177Y12600194D01*
X42272178Y12600188D01*
X42331943Y12429388D01*
X42428217Y12276170D01*
X42556170Y12148217D01*
X42709387Y12051944D01*
X42880185Y11992179D01*
X42880191Y11992179D01*
X42880193Y11992178D01*
X43059996Y11971919D01*
X43060000Y11971919D01*
X43060004Y11971919D01*
X43239806Y11992178D01*
X43239805Y11992178D01*
X43239815Y11992179D01*
X43410613Y12051944D01*
X43463329Y12085068D01*
X43530563Y12104068D01*
X43597398Y12083701D01*
X43642613Y12030434D01*
X43653300Y11980074D01*
X43653300Y7879560D01*
X43633615Y7812521D01*
X43580811Y7766766D01*
X43511653Y7756822D01*
X43448097Y7785847D01*
X43412259Y7838604D01*
X43408057Y7850612D01*
X43339015Y7960491D01*
X43311783Y8003830D01*
X43183830Y8131783D01*
X43030612Y8228057D01*
X42859809Y8287823D01*
X42739493Y8301379D01*
X42678313Y8327087D01*
X42677755Y8326359D01*
X42637858Y8356973D01*
X42550835Y8423748D01*
X42410549Y8481856D01*
X42410547Y8481857D01*
X42260001Y8501676D01*
X42259999Y8501676D01*
X42247005Y8499966D01*
X42226234Y8497231D01*
X42218136Y8496700D01*
X40540700Y8496700D01*
X40473661Y8516385D01*
X40427906Y8569189D01*
X40416700Y8620700D01*
X40416700Y18309725D01*
X40436385Y18376764D01*
X40453019Y18397406D01*
X40455617Y18400004D01*
X40471783Y18416170D01*
X40568056Y18569387D01*
X40627821Y18740185D01*
X40636425Y18816548D01*
X40648081Y18919997D01*
X40648081Y18920004D01*
X40627822Y19099807D01*
X40627821Y19099813D01*
X40627821Y19099815D01*
X40568056Y19270613D01*
X40471783Y19423830D01*
X40453019Y19442594D01*
X40419534Y19503917D01*
X40416700Y19530275D01*
X40416700Y20032617D01*
X40436385Y20099656D01*
X40489189Y20145411D01*
X40558347Y20155355D01*
X40581654Y20149659D01*
X40660185Y20122179D01*
X40660191Y20122179D01*
X40660193Y20122178D01*
X40839996Y20101919D01*
X40840000Y20101919D01*
X40840004Y20101919D01*
X41019806Y20122178D01*
X41019805Y20122178D01*
X41019815Y20122179D01*
X41190613Y20181944D01*
X41190619Y20181948D01*
X41195489Y20184293D01*
X41264430Y20195651D01*
X41328567Y20167933D01*
G37*
%TD.AperFunction*%
%TA.AperFunction,Conductor*%
G36*
X38741903Y26742074D02*
G01*
X38748381Y26736042D01*
X39392188Y26092235D01*
X39425673Y26030912D01*
X39427727Y26018438D01*
X39442177Y25890191D01*
X39501944Y25719386D01*
X39532123Y25671357D01*
X39551124Y25604120D01*
X39530757Y25537285D01*
X39493102Y25500390D01*
X39336169Y25401783D01*
X39208217Y25273831D01*
X39111943Y25120613D01*
X39052178Y24949813D01*
X39052177Y24949807D01*
X39031919Y24770004D01*
X39031919Y24769997D01*
X39052177Y24590194D01*
X39052178Y24590188D01*
X39111943Y24419388D01*
X39208217Y24266170D01*
X39226981Y24247406D01*
X39260466Y24186083D01*
X39263300Y24159725D01*
X39263300Y19530275D01*
X39243615Y19463236D01*
X39226981Y19442594D01*
X39208217Y19423831D01*
X39111943Y19270613D01*
X39052178Y19099813D01*
X39052177Y19099807D01*
X39031919Y18920004D01*
X39031919Y18919997D01*
X39052177Y18740194D01*
X39052178Y18740188D01*
X39052178Y18740186D01*
X39052179Y18740185D01*
X39052309Y18739813D01*
X39111943Y18569388D01*
X39208217Y18416170D01*
X39226981Y18397406D01*
X39260466Y18336083D01*
X39263300Y18309725D01*
X39263300Y8821380D01*
X39243615Y8754341D01*
X39190811Y8708586D01*
X39121653Y8698642D01*
X39098349Y8704338D01*
X39059815Y8717821D01*
X39059814Y8717822D01*
X39059812Y8717822D01*
X39059806Y8717823D01*
X38880004Y8738081D01*
X38879996Y8738081D01*
X38700193Y8717823D01*
X38700187Y8717822D01*
X38529387Y8658057D01*
X38376169Y8561783D01*
X38282335Y8467948D01*
X38221012Y8434463D01*
X38151320Y8439447D01*
X38106973Y8467948D01*
X37830788Y8744133D01*
X37797303Y8805456D01*
X37802287Y8875148D01*
X37844159Y8931081D01*
X37909623Y8955498D01*
X37932353Y8955034D01*
X37959998Y8951919D01*
X37960000Y8951919D01*
X37960004Y8951919D01*
X38139806Y8972178D01*
X38139805Y8972178D01*
X38139815Y8972179D01*
X38310613Y9031944D01*
X38463830Y9128217D01*
X38591783Y9256170D01*
X38688056Y9409387D01*
X38747821Y9580185D01*
X38756061Y9653314D01*
X38768081Y9759997D01*
X38768081Y9760004D01*
X38747822Y9939807D01*
X38747821Y9939813D01*
X38747821Y9939815D01*
X38688056Y10110613D01*
X38591783Y10263830D01*
X38573019Y10282594D01*
X38539534Y10343917D01*
X38536700Y10370275D01*
X38536700Y26648361D01*
X38556385Y26715400D01*
X38609189Y26761155D01*
X38678347Y26771099D01*
X38741903Y26742074D01*
G37*
%TD.AperFunction*%
%TA.AperFunction,Conductor*%
G36*
X30078751Y34512987D02*
G01*
X30110979Y34450994D01*
X30113300Y34427112D01*
X30113300Y34121865D01*
X30112769Y34113764D01*
X30108324Y34080002D01*
X30108324Y34079999D01*
X30128143Y33929453D01*
X30128144Y33929451D01*
X30186254Y33789162D01*
X30243103Y33715073D01*
X30278689Y33668697D01*
X30278691Y33668696D01*
X30278693Y33668693D01*
X30297690Y33654117D01*
X30305711Y33647961D01*
X30311806Y33642617D01*
X30333560Y33620863D01*
X30367045Y33559540D01*
X30362061Y33489848D01*
X30320189Y33433915D01*
X30311852Y33428189D01*
X30206172Y33361785D01*
X30206169Y33361783D01*
X30078217Y33233831D01*
X29981943Y33080613D01*
X29922178Y32909813D01*
X29922177Y32909807D01*
X29901919Y32730004D01*
X29901919Y32729997D01*
X29922177Y32550194D01*
X29922178Y32550188D01*
X29981943Y32379388D01*
X30078217Y32226170D01*
X30096981Y32207406D01*
X30130466Y32146083D01*
X30133300Y32119725D01*
X30133300Y24130275D01*
X30113615Y24063236D01*
X30102439Y24049368D01*
X30102558Y24049273D01*
X30098217Y24043831D01*
X30001943Y23890613D01*
X29942178Y23719813D01*
X29942177Y23719807D01*
X29921919Y23540004D01*
X29921919Y23539997D01*
X29942177Y23360194D01*
X29942178Y23360188D01*
X30001943Y23189388D01*
X30084628Y23057797D01*
X30098217Y23036170D01*
X30226170Y22908217D01*
X30379387Y22811944D01*
X30550185Y22752179D01*
X30550191Y22752179D01*
X30550193Y22752178D01*
X30729996Y22731919D01*
X30730000Y22731919D01*
X30730004Y22731919D01*
X30909806Y22752178D01*
X30909805Y22752178D01*
X30909815Y22752179D01*
X31061923Y22805404D01*
X31087187Y22814244D01*
X31087980Y22811976D01*
X31145814Y22821510D01*
X31209955Y22793801D01*
X31248932Y22735814D01*
X31254700Y22698435D01*
X31254700Y21405933D01*
X31235015Y21338894D01*
X31182211Y21293139D01*
X31113053Y21283195D01*
X31087367Y21289751D01*
X30968482Y21334092D01*
X30968483Y21334092D01*
X30908883Y21340499D01*
X30908881Y21340500D01*
X30908873Y21340500D01*
X30908864Y21340500D01*
X29213129Y21340500D01*
X29213123Y21340499D01*
X29153516Y21334092D01*
X29018671Y21283798D01*
X29018664Y21283794D01*
X28903455Y21197548D01*
X28903452Y21197545D01*
X28817206Y21082336D01*
X28817202Y21082329D01*
X28766908Y20947483D01*
X28760501Y20887884D01*
X28760500Y20887865D01*
X28760500Y19192130D01*
X28760501Y19192124D01*
X28766908Y19132517D01*
X28817202Y18997672D01*
X28817206Y18997665D01*
X28903452Y18882456D01*
X28903455Y18882453D01*
X29018664Y18796207D01*
X29018671Y18796203D01*
X29055411Y18782500D01*
X29153517Y18745909D01*
X29188596Y18742138D01*
X29253144Y18715401D01*
X29292993Y18658009D01*
X29295488Y18588184D01*
X29259836Y18528095D01*
X29246464Y18517275D01*
X29221858Y18500046D01*
X29060954Y18339142D01*
X28930432Y18152735D01*
X28930431Y18152733D01*
X28834261Y17946498D01*
X28834258Y17946489D01*
X28775366Y17726698D01*
X28775364Y17726687D01*
X28755532Y17500002D01*
X28755532Y17499999D01*
X28775364Y17273314D01*
X28775366Y17273303D01*
X28834258Y17053512D01*
X28834261Y17053503D01*
X28930431Y16847268D01*
X28930432Y16847266D01*
X29060954Y16660859D01*
X29221858Y16499955D01*
X29236143Y16489953D01*
X29408266Y16369432D01*
X29466275Y16342382D01*
X29518714Y16296209D01*
X29537866Y16229016D01*
X29517650Y16162135D01*
X29466275Y16117619D01*
X29450826Y16110414D01*
X29408267Y16090569D01*
X29408265Y16090568D01*
X29221858Y15960046D01*
X29060954Y15799142D01*
X28930432Y15612735D01*
X28930431Y15612733D01*
X28834261Y15406498D01*
X28834258Y15406489D01*
X28775366Y15186698D01*
X28775364Y15186687D01*
X28755532Y14960002D01*
X28755532Y14959998D01*
X28766007Y14840267D01*
X28752240Y14771767D01*
X28703625Y14721584D01*
X28635596Y14705651D01*
X28569753Y14729026D01*
X28554798Y14741779D01*
X28383019Y14913558D01*
X28349534Y14974881D01*
X28346700Y15001239D01*
X28346700Y16188138D01*
X28347231Y16196239D01*
X28351676Y16230000D01*
X28351676Y16230002D01*
X28333320Y16369430D01*
X28331856Y16380549D01*
X28273746Y16520838D01*
X28268423Y16527775D01*
X28203260Y16612698D01*
X28203252Y16612708D01*
X28198336Y16619114D01*
X28181307Y16641307D01*
X28155827Y16660859D01*
X28154283Y16662044D01*
X28148180Y16667397D01*
X27835653Y16979924D01*
X27802168Y17041247D01*
X27803559Y17099699D01*
X27830410Y17199908D01*
X27845063Y17254592D01*
X27865659Y17490000D01*
X27863859Y17510568D01*
X27855445Y17606739D01*
X27845063Y17725408D01*
X27798626Y17898715D01*
X27783905Y17953656D01*
X27783904Y17953657D01*
X27783903Y17953663D01*
X27684035Y18167829D01*
X27654936Y18209388D01*
X27548494Y18361403D01*
X27381402Y18528494D01*
X27381396Y18528499D01*
X27195842Y18658425D01*
X27152217Y18713002D01*
X27145023Y18782500D01*
X27176546Y18844855D01*
X27195842Y18861575D01*
X27305182Y18938136D01*
X27381401Y18991505D01*
X27548495Y19158599D01*
X27684035Y19352170D01*
X27783903Y19566337D01*
X27845063Y19794592D01*
X27865659Y20030000D01*
X27863859Y20050568D01*
X27855731Y20143473D01*
X27845063Y20265408D01*
X27798626Y20438715D01*
X27783905Y20493656D01*
X27783904Y20493657D01*
X27783903Y20493663D01*
X27684035Y20707829D01*
X27666875Y20732337D01*
X27548494Y20901403D01*
X27381402Y21068494D01*
X27381396Y21068499D01*
X27195842Y21198425D01*
X27152217Y21253002D01*
X27145023Y21322500D01*
X27176546Y21384855D01*
X27195842Y21401575D01*
X27306292Y21478913D01*
X27381401Y21531505D01*
X27548495Y21698599D01*
X27684035Y21892170D01*
X27783903Y22106337D01*
X27845063Y22334592D01*
X27865659Y22570000D01*
X27863859Y22590568D01*
X27854422Y22698435D01*
X27845063Y22805408D01*
X27794116Y22995548D01*
X27783905Y23033656D01*
X27783904Y23033657D01*
X27783903Y23033663D01*
X27684035Y23247829D01*
X27675066Y23260639D01*
X27548494Y23441403D01*
X27381402Y23608494D01*
X27381396Y23608499D01*
X27195842Y23738425D01*
X27152217Y23793002D01*
X27145023Y23862500D01*
X27176546Y23924855D01*
X27195842Y23941575D01*
X27253830Y23982179D01*
X27381401Y24071505D01*
X27548495Y24238599D01*
X27684035Y24432170D01*
X27783903Y24646337D01*
X27805730Y24727799D01*
X27842094Y24787458D01*
X27904941Y24817988D01*
X27974317Y24809694D01*
X28028195Y24765209D01*
X28048725Y24709588D01*
X28062177Y24590194D01*
X28062178Y24590188D01*
X28121943Y24419388D01*
X28215269Y24270861D01*
X28218217Y24266170D01*
X28346170Y24138217D01*
X28499387Y24041944D01*
X28670185Y23982179D01*
X28670191Y23982179D01*
X28670193Y23982178D01*
X28849996Y23961919D01*
X28850000Y23961919D01*
X28850004Y23961919D01*
X29029806Y23982178D01*
X29029805Y23982178D01*
X29029815Y23982179D01*
X29200613Y24041944D01*
X29353830Y24138217D01*
X29481783Y24266170D01*
X29578056Y24419387D01*
X29637821Y24590185D01*
X29644149Y24646345D01*
X29658081Y24769997D01*
X29658081Y24770004D01*
X29637822Y24949807D01*
X29637821Y24949813D01*
X29637821Y24949815D01*
X29578056Y25120613D01*
X29481783Y25273830D01*
X29463019Y25292594D01*
X29429534Y25353917D01*
X29426700Y25380275D01*
X29426700Y34354943D01*
X29446385Y34421982D01*
X29499189Y34467737D01*
X29564583Y34478163D01*
X29590920Y34475196D01*
X29619998Y34471919D01*
X29620000Y34471919D01*
X29620004Y34471919D01*
X29799806Y34492178D01*
X29799805Y34492178D01*
X29799815Y34492179D01*
X29948348Y34544154D01*
X30018123Y34547716D01*
X30078751Y34512987D01*
G37*
%TD.AperFunction*%
%TA.AperFunction,Conductor*%
G36*
X36792731Y29254008D02*
G01*
X36792814Y29254244D01*
X36797442Y29252625D01*
X36798813Y29252222D01*
X36799371Y29251954D01*
X36799387Y29251944D01*
X36970185Y29192179D01*
X36970191Y29192179D01*
X36970193Y29192178D01*
X37149996Y29171919D01*
X37150000Y29171919D01*
X37150002Y29171919D01*
X37187383Y29176132D01*
X37245417Y29182670D01*
X37314238Y29170616D01*
X37365617Y29123267D01*
X37383300Y29059450D01*
X37383300Y17472404D01*
X37363615Y17405365D01*
X37310811Y17359610D01*
X37241653Y17349666D01*
X37178097Y17378691D01*
X37151914Y17410402D01*
X37150567Y17412735D01*
X37096465Y17490001D01*
X37048020Y17559189D01*
X37020045Y17599142D01*
X36859141Y17760046D01*
X36672734Y17890568D01*
X36672732Y17890569D01*
X36466497Y17986739D01*
X36466488Y17986742D01*
X36246697Y18045634D01*
X36246693Y18045635D01*
X36246692Y18045635D01*
X36246691Y18045636D01*
X36246686Y18045636D01*
X36020002Y18065468D01*
X36019998Y18065468D01*
X35793313Y18045636D01*
X35793302Y18045634D01*
X35638719Y18004214D01*
X35568869Y18005877D01*
X35511007Y18045040D01*
X35483503Y18109269D01*
X35489585Y18164944D01*
X35508915Y18220185D01*
X35521191Y18329139D01*
X35529175Y18399997D01*
X35529175Y18400004D01*
X35508916Y18579807D01*
X35508915Y18579813D01*
X35508915Y18579815D01*
X35449150Y18750613D01*
X35352877Y18903830D01*
X35224924Y19031783D01*
X35116665Y19099807D01*
X35071706Y19128057D01*
X34900903Y19187823D01*
X34772656Y19202273D01*
X34708242Y19229340D01*
X34698859Y19237812D01*
X32444419Y21492252D01*
X32410934Y21553575D01*
X32408100Y21579933D01*
X32408100Y27738627D01*
X32427785Y27805666D01*
X32480589Y27851421D01*
X32549747Y27861365D01*
X32564194Y27858402D01*
X32609999Y27846129D01*
X32610000Y27846129D01*
X32610000Y28809314D01*
X32621955Y28797359D01*
X32734852Y28739835D01*
X32828519Y28725000D01*
X32891481Y28725000D01*
X32985148Y28739835D01*
X33098045Y28797359D01*
X33110000Y28809314D01*
X33110000Y27846128D01*
X33306317Y27898731D01*
X33306326Y27898735D01*
X33512482Y27994866D01*
X33698820Y28125343D01*
X33710519Y28137041D01*
X33771842Y28170526D01*
X33841534Y28165542D01*
X33897467Y28123670D01*
X33921884Y28058206D01*
X33922200Y28049360D01*
X33922200Y21974065D01*
X33903194Y21908093D01*
X33841943Y21810614D01*
X33782178Y21639813D01*
X33782177Y21639807D01*
X33761919Y21460004D01*
X33761919Y21459997D01*
X33782177Y21280194D01*
X33782178Y21280188D01*
X33841943Y21109388D01*
X33902192Y21013503D01*
X33938217Y20956170D01*
X34066170Y20828217D01*
X34219387Y20731944D01*
X34390185Y20672179D01*
X34390191Y20672179D01*
X34390193Y20672178D01*
X34569996Y20651919D01*
X34570000Y20651919D01*
X34570004Y20651919D01*
X34749806Y20672178D01*
X34749805Y20672178D01*
X34749815Y20672179D01*
X34920613Y20731944D01*
X35073830Y20828217D01*
X35201783Y20956170D01*
X35298056Y21109387D01*
X35357821Y21280185D01*
X35366425Y21356548D01*
X35378081Y21459997D01*
X35378081Y21460004D01*
X35357822Y21639807D01*
X35357821Y21639813D01*
X35357821Y21639815D01*
X35298056Y21810613D01*
X35201783Y21963830D01*
X35111919Y22053694D01*
X35078434Y22115017D01*
X35075600Y22141375D01*
X35075600Y23116501D01*
X35095285Y23183540D01*
X35148089Y23229295D01*
X35217247Y23239239D01*
X35240555Y23233542D01*
X35271439Y23222735D01*
X35330185Y23202179D01*
X35330191Y23202179D01*
X35330193Y23202178D01*
X35509996Y23181919D01*
X35510000Y23181919D01*
X35510004Y23181919D01*
X35689806Y23202178D01*
X35689805Y23202178D01*
X35689815Y23202179D01*
X35860613Y23261944D01*
X36013830Y23358217D01*
X36141783Y23486170D01*
X36238056Y23639387D01*
X36297821Y23810185D01*
X36315062Y23963203D01*
X36318081Y23989997D01*
X36318081Y23990004D01*
X36297822Y24169807D01*
X36297821Y24169813D01*
X36297821Y24169815D01*
X36238056Y24340613D01*
X36156805Y24469922D01*
X36137800Y24535893D01*
X36137800Y29055946D01*
X36157485Y29122985D01*
X36210289Y29168740D01*
X36275683Y29179166D01*
X36328925Y29173167D01*
X36339999Y29171919D01*
X36340000Y29171919D01*
X36340004Y29171919D01*
X36519806Y29192178D01*
X36519805Y29192178D01*
X36519815Y29192179D01*
X36690613Y29251944D01*
X36690631Y29251956D01*
X36691187Y29252222D01*
X36691603Y29252291D01*
X36697186Y29254244D01*
X36697527Y29253267D01*
X36760127Y29263581D01*
X36792731Y29254008D01*
G37*
%TD.AperFunction*%
%TA.AperFunction,Conductor*%
G36*
X10140599Y29863751D02*
G01*
X10194478Y29819267D01*
X10206349Y29797215D01*
X10226253Y29749163D01*
X10282794Y29675476D01*
X10318690Y29628696D01*
X10318692Y29628695D01*
X10318694Y29628692D01*
X10337691Y29614116D01*
X10345712Y29607960D01*
X10351807Y29602616D01*
X10523810Y29430613D01*
X10656981Y29297442D01*
X10690466Y29236119D01*
X10693300Y29209761D01*
X10693300Y24266639D01*
X10673615Y24199600D01*
X10620811Y24153845D01*
X10551653Y24143901D01*
X10488097Y24172926D01*
X10481619Y24178958D01*
X10019828Y24640749D01*
X9986343Y24702072D01*
X9987733Y24760522D01*
X10020635Y24883308D01*
X10040468Y25110000D01*
X10039539Y25120613D01*
X10030255Y25226739D01*
X10020635Y25336692D01*
X9961739Y25556496D01*
X9865568Y25762734D01*
X9735047Y25949139D01*
X9735045Y25949142D01*
X9574141Y26110046D01*
X9387735Y26240567D01*
X9387736Y26240567D01*
X9387734Y26240568D01*
X9329132Y26267895D01*
X9276694Y26314067D01*
X9257543Y26381261D01*
X9277759Y26448142D01*
X9329135Y26492659D01*
X9387482Y26519867D01*
X9460472Y26570975D01*
X8779401Y27252047D01*
X8860148Y27264835D01*
X8973045Y27322359D01*
X9062641Y27411955D01*
X9120165Y27524852D01*
X9132953Y27605600D01*
X9814025Y26924528D01*
X9865136Y26997522D01*
X9961264Y27203669D01*
X9961269Y27203683D01*
X10020139Y27423390D01*
X10020141Y27423401D01*
X10039966Y27649998D01*
X10039966Y27650003D01*
X10020141Y27876600D01*
X10020139Y27876611D01*
X9961269Y28096318D01*
X9961265Y28096327D01*
X9865133Y28302484D01*
X9865131Y28302488D01*
X9814026Y28375474D01*
X9814025Y28375474D01*
X9132953Y27694402D01*
X9120165Y27775148D01*
X9062641Y27888045D01*
X8973045Y27977641D01*
X8860148Y28035165D01*
X8779400Y28047954D01*
X9460472Y28729026D01*
X9460471Y28729027D01*
X9387483Y28780134D01*
X9387481Y28780135D01*
X9329133Y28807343D01*
X9276694Y28853516D01*
X9257542Y28920709D01*
X9277758Y28987590D01*
X9329129Y29032105D01*
X9387734Y29059432D01*
X9574139Y29189953D01*
X9735047Y29350861D01*
X9865568Y29537266D01*
X9961739Y29743504D01*
X9972014Y29781854D01*
X10008377Y29841513D01*
X10071223Y29872044D01*
X10140599Y29863751D01*
G37*
%TD.AperFunction*%
%TA.AperFunction,Conductor*%
G36*
X28010680Y35105406D02*
G01*
X28064558Y35060921D01*
X28078910Y35032371D01*
X28121943Y34909388D01*
X28218217Y34756170D01*
X28236981Y34737406D01*
X28270466Y34676083D01*
X28273300Y34649725D01*
X28273300Y25380275D01*
X28253615Y25313236D01*
X28236981Y25292594D01*
X28218217Y25273831D01*
X28121942Y25120612D01*
X28106518Y25076532D01*
X28065796Y25019756D01*
X28000843Y24994010D01*
X27932281Y25007467D01*
X27881879Y25055855D01*
X27865949Y25106681D01*
X27865659Y25110000D01*
X27845063Y25345408D01*
X27793650Y25537285D01*
X27783905Y25573656D01*
X27783904Y25573657D01*
X27783903Y25573663D01*
X27684035Y25787829D01*
X27655868Y25828057D01*
X27548494Y25981403D01*
X27381402Y26148494D01*
X27381396Y26148499D01*
X27195842Y26278425D01*
X27152217Y26333002D01*
X27145023Y26402500D01*
X27176546Y26464855D01*
X27195842Y26481575D01*
X27249909Y26519433D01*
X27381401Y26611505D01*
X27548495Y26778599D01*
X27684035Y26972170D01*
X27783903Y27186337D01*
X27845063Y27414592D01*
X27865659Y27650000D01*
X27863859Y27670568D01*
X27854710Y27775148D01*
X27845063Y27885408D01*
X27798626Y28058715D01*
X27783905Y28113656D01*
X27783904Y28113657D01*
X27783903Y28113663D01*
X27684035Y28327829D01*
X27650675Y28375473D01*
X27548494Y28521403D01*
X27381402Y28688494D01*
X27381401Y28688495D01*
X27195405Y28818731D01*
X27151781Y28873308D01*
X27144588Y28942807D01*
X27176110Y29005161D01*
X27195405Y29021881D01*
X27271373Y29075075D01*
X26642534Y29703914D01*
X26652315Y29705320D01*
X26783100Y29765048D01*
X26891761Y29859202D01*
X26969493Y29980156D01*
X26993076Y30060476D01*
X27624925Y29428627D01*
X27624926Y29428627D01*
X27683598Y29512418D01*
X27683600Y29512422D01*
X27783429Y29726508D01*
X27783433Y29726517D01*
X27844567Y29954674D01*
X27844569Y29954685D01*
X27865157Y30189999D01*
X27865157Y30190002D01*
X27844569Y30425316D01*
X27844567Y30425327D01*
X27783433Y30653484D01*
X27783429Y30653493D01*
X27683600Y30867577D01*
X27683599Y30867579D01*
X27624925Y30951374D01*
X27624925Y30951375D01*
X26993076Y30319525D01*
X26969493Y30399844D01*
X26891761Y30520798D01*
X26783100Y30614952D01*
X26652315Y30674680D01*
X26642533Y30676087D01*
X27271373Y31304927D01*
X27271373Y31304928D01*
X27195405Y31358120D01*
X27151780Y31412696D01*
X27144586Y31482195D01*
X27176108Y31544549D01*
X27195399Y31561266D01*
X27381401Y31691505D01*
X27548495Y31858599D01*
X27684035Y32052170D01*
X27783903Y32266337D01*
X27845063Y32494592D01*
X27865659Y32730000D01*
X27863897Y32750134D01*
X27859685Y32798285D01*
X27845063Y32965408D01*
X27794012Y33155936D01*
X27783905Y33193656D01*
X27783904Y33193657D01*
X27783903Y33193663D01*
X27684035Y33407829D01*
X27669872Y33428057D01*
X27548494Y33601403D01*
X27381402Y33768494D01*
X27381396Y33768499D01*
X27195842Y33898425D01*
X27152217Y33953002D01*
X27145023Y34022500D01*
X27176546Y34084855D01*
X27195842Y34101575D01*
X27336437Y34200021D01*
X27381401Y34231505D01*
X27548495Y34398599D01*
X27684035Y34592170D01*
X27783903Y34806337D01*
X27842094Y35023512D01*
X27878457Y35083170D01*
X27941304Y35113700D01*
X28010680Y35105406D01*
G37*
%TD.AperFunction*%
%TA.AperFunction,Conductor*%
G36*
X8349835Y27524852D02*
G01*
X8407359Y27411955D01*
X8496955Y27322359D01*
X8609852Y27264835D01*
X8690599Y27252047D01*
X8009526Y26570975D01*
X8009526Y26570974D01*
X8082512Y26519869D01*
X8082520Y26519865D01*
X8140865Y26492658D01*
X8193305Y26446486D01*
X8212457Y26379293D01*
X8192242Y26312411D01*
X8140867Y26267895D01*
X8104824Y26251087D01*
X8082264Y26240567D01*
X7895858Y26110046D01*
X7734954Y25949142D01*
X7604432Y25762735D01*
X7604428Y25762727D01*
X7602462Y25758511D01*
X7556286Y25706075D01*
X7489091Y25686928D01*
X7422212Y25707149D01*
X7377702Y25758520D01*
X7364035Y25787829D01*
X7335868Y25828057D01*
X7228494Y25981403D01*
X7061402Y26148494D01*
X7061396Y26148499D01*
X6875842Y26278425D01*
X6832217Y26333002D01*
X6825023Y26402500D01*
X6856546Y26464855D01*
X6875842Y26481575D01*
X6929909Y26519433D01*
X7061401Y26611505D01*
X7228495Y26778599D01*
X7364035Y26972170D01*
X7377978Y27002072D01*
X7424150Y27054511D01*
X7491343Y27073663D01*
X7558224Y27053448D01*
X7602741Y27002074D01*
X7604864Y26997521D01*
X7604866Y26997517D01*
X7655973Y26924529D01*
X7655974Y26924528D01*
X8337046Y27605601D01*
X8349835Y27524852D01*
G37*
%TD.AperFunction*%
%TA.AperFunction,Conductor*%
G36*
X14883599Y30725029D02*
G01*
X14928814Y30671761D01*
X14939500Y30621402D01*
X14939500Y27101966D01*
X14919815Y27034927D01*
X14867011Y26989172D01*
X14801617Y26978746D01*
X14630004Y26998081D01*
X14629996Y26998081D01*
X14450193Y26977823D01*
X14450188Y26977822D01*
X14279382Y26918055D01*
X14273115Y26915036D01*
X14271887Y26917584D01*
X14216858Y26902087D01*
X14150041Y26922514D01*
X14113240Y26960107D01*
X14105658Y26972174D01*
X14041783Y27073830D01*
X14023019Y27092594D01*
X13989534Y27153917D01*
X13986700Y27180275D01*
X13986700Y30089725D01*
X14006385Y30156764D01*
X14023019Y30177406D01*
X14041783Y30196170D01*
X14138056Y30349387D01*
X14162018Y30417865D01*
X14197819Y30520178D01*
X14199370Y30526972D01*
X14201883Y30526399D01*
X14224353Y30579877D01*
X14281946Y30619435D01*
X14334394Y30624804D01*
X14359998Y30621919D01*
X14360000Y30621919D01*
X14360004Y30621919D01*
X14539806Y30642178D01*
X14539805Y30642178D01*
X14539815Y30642179D01*
X14710613Y30701944D01*
X14737939Y30719114D01*
X14749527Y30726395D01*
X14816764Y30745396D01*
X14883599Y30725029D01*
G37*
%TD.AperFunction*%
%TA.AperFunction,Conductor*%
G36*
X7557946Y29592859D02*
G01*
X7602464Y29541486D01*
X7604314Y29537519D01*
X7604432Y29537266D01*
X7734954Y29350859D01*
X7895858Y29189955D01*
X7921616Y29171919D01*
X8082266Y29059432D01*
X8140865Y29032107D01*
X8193305Y28985935D01*
X8212457Y28918742D01*
X8192242Y28851861D01*
X8140867Y28807343D01*
X8082511Y28780131D01*
X8009527Y28729028D01*
X8009526Y28729027D01*
X8690600Y28047954D01*
X8609852Y28035165D01*
X8496955Y27977641D01*
X8407359Y27888045D01*
X8349835Y27775148D01*
X8337046Y27694401D01*
X7655973Y28375474D01*
X7655972Y28375473D01*
X7604867Y28302487D01*
X7602739Y28297922D01*
X7556563Y28245486D01*
X7489368Y28226338D01*
X7422489Y28246558D01*
X7377978Y28297929D01*
X7364035Y28327829D01*
X7364034Y28327831D01*
X7228494Y28521403D01*
X7061402Y28688494D01*
X7061396Y28688499D01*
X6875842Y28818425D01*
X6832217Y28873002D01*
X6825023Y28942500D01*
X6856546Y29004855D01*
X6875842Y29021575D01*
X6929933Y29059450D01*
X7061401Y29151505D01*
X7228495Y29318599D01*
X7364035Y29512170D01*
X7377705Y29541485D01*
X7423871Y29593919D01*
X7491064Y29613073D01*
X7557946Y29592859D01*
G37*
%TD.AperFunction*%
%TA.AperFunction,Conductor*%
G36*
X22751903Y32250140D02*
G01*
X22783080Y32208835D01*
X22824633Y32119725D01*
X22844431Y32077268D01*
X22844432Y32077266D01*
X22974954Y31890859D01*
X23135858Y31729955D01*
X23135861Y31729953D01*
X23322266Y31599432D01*
X23380865Y31572107D01*
X23433305Y31525935D01*
X23452457Y31458742D01*
X23432242Y31391861D01*
X23380867Y31347343D01*
X23322511Y31320131D01*
X23249526Y31269027D01*
X23930599Y30587954D01*
X23849852Y30575165D01*
X23736955Y30517641D01*
X23647359Y30428045D01*
X23589835Y30315148D01*
X23577046Y30234401D01*
X22895973Y30915474D01*
X22845833Y30911087D01*
X22777333Y30924854D01*
X22727150Y30973469D01*
X22717984Y30993662D01*
X22698057Y31050612D01*
X22620731Y31173674D01*
X22601783Y31203830D01*
X22583019Y31222594D01*
X22549534Y31283917D01*
X22546700Y31310275D01*
X22546700Y32156427D01*
X22566385Y32223466D01*
X22619189Y32269221D01*
X22688347Y32279165D01*
X22751903Y32250140D01*
G37*
%TD.AperFunction*%
%TA.AperFunction,Conductor*%
G36*
X34207771Y48922899D02*
G01*
X34227588Y48906799D01*
X34316170Y48818217D01*
X34456418Y48730093D01*
X34469389Y48721943D01*
X34640177Y48662181D01*
X34640182Y48662180D01*
X34640185Y48662179D01*
X34672892Y48658495D01*
X34737304Y48631429D01*
X34776049Y48576232D01*
X34781943Y48559389D01*
X34781945Y48559385D01*
X34878217Y48406170D01*
X34948081Y48336306D01*
X34981566Y48274983D01*
X34984400Y48248625D01*
X34984400Y45895539D01*
X34964715Y45828500D01*
X34911911Y45782745D01*
X34842753Y45772801D01*
X34779197Y45801826D01*
X34772719Y45807858D01*
X34144828Y46435749D01*
X34111343Y46497072D01*
X34112733Y46555522D01*
X34145635Y46678308D01*
X34165468Y46905000D01*
X34145635Y47131692D01*
X34097608Y47310931D01*
X34086741Y47351489D01*
X34086738Y47351498D01*
X33990568Y47557734D01*
X33860047Y47744139D01*
X33860045Y47744142D01*
X33699141Y47905046D01*
X33512734Y48035568D01*
X33512728Y48035571D01*
X33454725Y48062618D01*
X33402285Y48108790D01*
X33383133Y48175983D01*
X33403348Y48242865D01*
X33454725Y48287382D01*
X33512734Y48314432D01*
X33699139Y48444953D01*
X33860047Y48605861D01*
X33990568Y48792266D01*
X34027528Y48871527D01*
X34073696Y48923961D01*
X34140890Y48943114D01*
X34207771Y48922899D01*
G37*
%TD.AperFunction*%
%TA.AperFunction,Conductor*%
G36*
X58644835Y54944852D02*
G01*
X58702359Y54831955D01*
X58791955Y54742359D01*
X58904852Y54684835D01*
X58985599Y54672047D01*
X58304526Y53990975D01*
X58304526Y53990974D01*
X58377512Y53939869D01*
X58377516Y53939867D01*
X58583673Y53843735D01*
X58583682Y53843731D01*
X58803389Y53784861D01*
X58803400Y53784859D01*
X59029998Y53765034D01*
X59030002Y53765034D01*
X59256599Y53784859D01*
X59256610Y53784861D01*
X59476317Y53843731D01*
X59476331Y53843736D01*
X59682478Y53939864D01*
X59755472Y53990975D01*
X59074401Y54672047D01*
X59155148Y54684835D01*
X59268045Y54742359D01*
X59357641Y54831955D01*
X59415165Y54944852D01*
X59427953Y55025600D01*
X60109025Y54344528D01*
X60160134Y54417519D01*
X60167340Y54432972D01*
X60213511Y54485413D01*
X60280704Y54504567D01*
X60347585Y54484354D01*
X60392105Y54432978D01*
X60399314Y54417519D01*
X60399432Y54417266D01*
X60497829Y54276739D01*
X60507075Y54263535D01*
X60529402Y54197329D01*
X60529500Y54192412D01*
X60529500Y52810449D01*
X60509815Y52743410D01*
X60507076Y52739327D01*
X60404431Y52592733D01*
X60308261Y52386498D01*
X60308257Y52386486D01*
X60300966Y52359275D01*
X60264600Y52299616D01*
X60201753Y52269088D01*
X60132377Y52277384D01*
X60078500Y52321870D01*
X60076198Y52325399D01*
X60074163Y52328637D01*
X60001783Y52443830D01*
X59873830Y52571783D01*
X59846078Y52589221D01*
X59720612Y52668057D01*
X59549812Y52727822D01*
X59549806Y52727823D01*
X59370004Y52748081D01*
X59369996Y52748081D01*
X59190193Y52727823D01*
X59190187Y52727822D01*
X59019387Y52668057D01*
X58866169Y52571783D01*
X58738217Y52443831D01*
X58641943Y52290613D01*
X58582178Y52119813D01*
X58582177Y52119807D01*
X58561919Y51940004D01*
X58561919Y51939997D01*
X58582177Y51760194D01*
X58582178Y51760188D01*
X58641943Y51589388D01*
X58702192Y51493503D01*
X58738217Y51436170D01*
X58866170Y51308217D01*
X59019387Y51211944D01*
X59019391Y51211943D01*
X59024192Y51209631D01*
X59076056Y51162813D01*
X59094400Y51097906D01*
X59094400Y43783757D01*
X59074715Y43716718D01*
X59021911Y43670963D01*
X58984284Y43660537D01*
X58960190Y43657823D01*
X58789387Y43598057D01*
X58636169Y43501783D01*
X58508217Y43373831D01*
X58411943Y43220613D01*
X58352178Y43049813D01*
X58352177Y43049807D01*
X58331919Y42870004D01*
X58331919Y42869997D01*
X58348892Y42719350D01*
X58336837Y42650528D01*
X58289488Y42599149D01*
X58221878Y42581525D01*
X58211790Y42582246D01*
X58189791Y42584725D01*
X58160000Y42588081D01*
X58159998Y42588081D01*
X58159997Y42588081D01*
X58159996Y42588081D01*
X57980193Y42567823D01*
X57973401Y42566272D01*
X57973031Y42567893D01*
X57911863Y42564777D01*
X57851239Y42599512D01*
X57819019Y42661509D01*
X57816700Y42685377D01*
X57816700Y54220954D01*
X57836385Y54287993D01*
X57889189Y54333748D01*
X57950806Y54344361D01*
X58632046Y55025601D01*
X58644835Y54944852D01*
G37*
%TD.AperFunction*%
%TA.AperFunction,Conductor*%
G36*
X63002208Y66699343D02*
G01*
X63233020Y66682835D01*
X63250529Y66680317D01*
X63470144Y66632542D01*
X63487103Y66627563D01*
X63697694Y66549017D01*
X63713777Y66541673D01*
X63911036Y66433960D01*
X63925919Y66424395D01*
X64105836Y66289711D01*
X64119207Y66278125D01*
X64278124Y66119208D01*
X64289710Y66105837D01*
X64424394Y65925920D01*
X64433959Y65911037D01*
X64541669Y65713783D01*
X64549019Y65697689D01*
X64627559Y65487113D01*
X64632543Y65470138D01*
X64680316Y65250530D01*
X64682834Y65233018D01*
X64699342Y65002211D01*
X64699500Y64997787D01*
X64699500Y2002214D01*
X64699342Y1997790D01*
X64682834Y1766983D01*
X64680316Y1749471D01*
X64632543Y1529863D01*
X64627559Y1512888D01*
X64549019Y1302312D01*
X64541669Y1286218D01*
X64433959Y1088964D01*
X64424394Y1074081D01*
X64289710Y894164D01*
X64278124Y880793D01*
X64119207Y721876D01*
X64105836Y710290D01*
X63925919Y575606D01*
X63911036Y566041D01*
X63713782Y458331D01*
X63697688Y450981D01*
X63487112Y372441D01*
X63470137Y367457D01*
X63250529Y319684D01*
X63233017Y317166D01*
X63019172Y301872D01*
X63002208Y300658D01*
X62997786Y300500D01*
X2002214Y300500D01*
X1997791Y300658D01*
X1979142Y301992D01*
X1766982Y317166D01*
X1749470Y319684D01*
X1529862Y367457D01*
X1512887Y372441D01*
X1302311Y450981D01*
X1286217Y458331D01*
X1088963Y566041D01*
X1074080Y575606D01*
X894163Y710290D01*
X880792Y721876D01*
X721875Y880793D01*
X710289Y894164D01*
X575605Y1074081D01*
X566040Y1088964D01*
X458330Y1286218D01*
X450983Y1302306D01*
X372437Y1512897D01*
X367458Y1529856D01*
X319683Y1749471D01*
X317165Y1766983D01*
X314028Y1810841D01*
X300657Y1997792D01*
X300500Y2002214D01*
X300500Y34339999D01*
X1579532Y34339999D01*
X1599364Y34113314D01*
X1599366Y34113303D01*
X1658258Y33893512D01*
X1658261Y33893503D01*
X1754431Y33687268D01*
X1754432Y33687266D01*
X1884954Y33500859D01*
X2045858Y33339955D01*
X2050607Y33336630D01*
X2232266Y33209432D01*
X2247975Y33202107D01*
X2300414Y33155936D01*
X2319567Y33088743D01*
X2299352Y33021862D01*
X2247979Y32977344D01*
X2232512Y32970132D01*
X2159526Y32919027D01*
X2840599Y32237954D01*
X2759852Y32225165D01*
X2646955Y32167641D01*
X2557359Y32078045D01*
X2499835Y31965148D01*
X2487046Y31884401D01*
X1805973Y32565474D01*
X1805972Y32565473D01*
X1754868Y32492487D01*
X1658734Y32286327D01*
X1658730Y32286318D01*
X1599860Y32066611D01*
X1599858Y32066600D01*
X1580034Y31840003D01*
X1580034Y31839998D01*
X1599858Y31613401D01*
X1599860Y31613390D01*
X1658730Y31393683D01*
X1658734Y31393674D01*
X1754865Y31187519D01*
X1754866Y31187517D01*
X1805973Y31114529D01*
X1805974Y31114528D01*
X2487046Y31795601D01*
X2499835Y31714852D01*
X2557359Y31601955D01*
X2646955Y31512359D01*
X2759852Y31454835D01*
X2840597Y31442047D01*
X2159526Y30760975D01*
X2159526Y30760974D01*
X2232512Y30709869D01*
X2232516Y30709867D01*
X2438673Y30613735D01*
X2438682Y30613731D01*
X2658389Y30554861D01*
X2658400Y30554859D01*
X2884998Y30535034D01*
X2885002Y30535034D01*
X3111599Y30554859D01*
X3111610Y30554861D01*
X3331317Y30613731D01*
X3331326Y30613735D01*
X3386895Y30639646D01*
X3455973Y30650138D01*
X3519757Y30621618D01*
X3557996Y30563142D01*
X3563300Y30527264D01*
X3563300Y9290275D01*
X3543615Y9223236D01*
X3526981Y9202594D01*
X3508217Y9183831D01*
X3411943Y9030613D01*
X3352178Y8859813D01*
X3352177Y8859807D01*
X3331919Y8680004D01*
X3331919Y8679997D01*
X3352177Y8500194D01*
X3352178Y8500188D01*
X3411943Y8329388D01*
X3456206Y8258944D01*
X3508217Y8176170D01*
X3636170Y8048217D01*
X3789387Y7951944D01*
X3960185Y7892179D01*
X3960191Y7892179D01*
X3960193Y7892178D01*
X4139996Y7871919D01*
X4140000Y7871919D01*
X4140004Y7871919D01*
X4319806Y7892178D01*
X4319805Y7892178D01*
X4319815Y7892179D01*
X4490613Y7951944D01*
X4643830Y8048217D01*
X4771783Y8176170D01*
X4868056Y8329387D01*
X4927821Y8500185D01*
X4937657Y8587486D01*
X4948081Y8679997D01*
X4948081Y8680004D01*
X4927822Y8859807D01*
X4927821Y8859813D01*
X4927821Y8859815D01*
X4904078Y8927666D01*
X4900517Y8997444D01*
X4935245Y9058071D01*
X4997239Y9090299D01*
X5066814Y9083894D01*
X5121882Y9040890D01*
X5122689Y9039752D01*
X5151505Y8998599D01*
X5318599Y8831505D01*
X5350944Y8808857D01*
X5512165Y8695968D01*
X5512167Y8695967D01*
X5512170Y8695965D01*
X5726337Y8596097D01*
X5726343Y8596096D01*
X5726344Y8596095D01*
X5758470Y8587487D01*
X5954592Y8534937D01*
X6142918Y8518461D01*
X6189999Y8514341D01*
X6190000Y8514341D01*
X6190001Y8514341D01*
X6229234Y8517774D01*
X6425408Y8534937D01*
X6653663Y8596097D01*
X6867830Y8695965D01*
X7061401Y8831505D01*
X7228495Y8998599D01*
X7364035Y9192170D01*
X7377705Y9221485D01*
X7423871Y9273919D01*
X7491064Y9293073D01*
X7557946Y9272859D01*
X7602464Y9221486D01*
X7604431Y9217268D01*
X7604432Y9217266D01*
X7734954Y9030859D01*
X7895858Y8869955D01*
X7942693Y8837161D01*
X8082266Y8739432D01*
X8128611Y8717821D01*
X8140275Y8712382D01*
X8192714Y8666209D01*
X8211866Y8599016D01*
X8191650Y8532135D01*
X8140275Y8487618D01*
X8082267Y8460569D01*
X8082265Y8460568D01*
X7895858Y8330046D01*
X7734954Y8169142D01*
X7604432Y7982735D01*
X7604431Y7982733D01*
X7508261Y7776498D01*
X7508258Y7776489D01*
X7449366Y7556698D01*
X7449364Y7556687D01*
X7429532Y7330002D01*
X7429532Y7329999D01*
X7449364Y7103314D01*
X7449366Y7103303D01*
X7508258Y6883512D01*
X7508261Y6883503D01*
X7604431Y6677268D01*
X7604432Y6677266D01*
X7734954Y6490859D01*
X7895858Y6329955D01*
X7895861Y6329953D01*
X8082266Y6199432D01*
X8099461Y6191414D01*
X8140275Y6172382D01*
X8192714Y6126209D01*
X8211866Y6059016D01*
X8191650Y5992135D01*
X8140275Y5947618D01*
X8082267Y5920569D01*
X8082265Y5920568D01*
X7895858Y5790046D01*
X7734954Y5629142D01*
X7604432Y5442735D01*
X7604431Y5442733D01*
X7508261Y5236498D01*
X7508258Y5236489D01*
X7449366Y5016698D01*
X7449364Y5016687D01*
X7429532Y4790002D01*
X7429532Y4789999D01*
X7449364Y4563314D01*
X7449366Y4563303D01*
X7508258Y4343512D01*
X7508261Y4343503D01*
X7604431Y4137268D01*
X7604432Y4137266D01*
X7734954Y3950859D01*
X7895858Y3789955D01*
X7895861Y3789953D01*
X8082266Y3659432D01*
X8288504Y3563261D01*
X8508308Y3504365D01*
X8670230Y3490199D01*
X8734998Y3484532D01*
X8735000Y3484532D01*
X8735002Y3484532D01*
X8791673Y3489491D01*
X8961692Y3504365D01*
X9181496Y3563261D01*
X9387734Y3659432D01*
X9574139Y3789953D01*
X9735047Y3950861D01*
X9865568Y4137266D01*
X9961739Y4343504D01*
X10020635Y4563308D01*
X10040468Y4790000D01*
X10020635Y5016692D01*
X9961739Y5236496D01*
X9865568Y5442734D01*
X9755559Y5599844D01*
X9735045Y5629142D01*
X9574141Y5790046D01*
X9387734Y5920568D01*
X9387728Y5920571D01*
X9329725Y5947618D01*
X9277285Y5993790D01*
X9258133Y6060983D01*
X9278348Y6127865D01*
X9329725Y6172382D01*
X9387734Y6199432D01*
X9574139Y6329953D01*
X9735047Y6490861D01*
X9865568Y6677266D01*
X9961739Y6883504D01*
X10020635Y7103308D01*
X10040468Y7330000D01*
X10039304Y7343300D01*
X10025595Y7500000D01*
X10020635Y7556692D01*
X9961739Y7776496D01*
X9865568Y7982734D01*
X9735047Y8169139D01*
X9735045Y8169142D01*
X9574141Y8330046D01*
X9387734Y8460568D01*
X9387728Y8460571D01*
X9329725Y8487618D01*
X9277285Y8533790D01*
X9258133Y8600983D01*
X9278348Y8667865D01*
X9329725Y8712382D01*
X9341389Y8717821D01*
X9387734Y8739432D01*
X9506727Y8822752D01*
X9572932Y8845078D01*
X9640699Y8828068D01*
X9665530Y8808857D01*
X9776170Y8698217D01*
X9929387Y8601944D01*
X10100185Y8542179D01*
X10100191Y8542179D01*
X10100193Y8542178D01*
X10279996Y8521919D01*
X10280000Y8521919D01*
X10280004Y8521919D01*
X10459806Y8542178D01*
X10459805Y8542178D01*
X10459815Y8542179D01*
X10630613Y8601944D01*
X10783830Y8698217D01*
X10911783Y8826170D01*
X11008056Y8979387D01*
X11067821Y9150185D01*
X11075854Y9221479D01*
X11088081Y9329997D01*
X11088081Y9330004D01*
X11067822Y9509807D01*
X11067821Y9509813D01*
X11067821Y9509815D01*
X11008056Y9680613D01*
X10911783Y9833830D01*
X10893019Y9852594D01*
X10859534Y9913917D01*
X10856700Y9940275D01*
X10856700Y16707196D01*
X10876385Y16774235D01*
X10929189Y16819990D01*
X10994584Y16830416D01*
X11069997Y16821919D01*
X11070000Y16821919D01*
X11070003Y16821919D01*
X11255416Y16842810D01*
X11324238Y16830756D01*
X11375618Y16783406D01*
X11393300Y16719590D01*
X11393300Y13020275D01*
X11373615Y12953236D01*
X11356981Y12932594D01*
X11338217Y12913831D01*
X11241943Y12760613D01*
X11182178Y12589813D01*
X11182177Y12589807D01*
X11161919Y12410004D01*
X11161919Y12409997D01*
X11182177Y12230194D01*
X11182178Y12230188D01*
X11241943Y12059388D01*
X11302192Y11963503D01*
X11338217Y11906170D01*
X11466170Y11778217D01*
X11619387Y11681944D01*
X11790185Y11622179D01*
X11790191Y11622179D01*
X11790193Y11622178D01*
X11969996Y11601919D01*
X11970000Y11601919D01*
X11970004Y11601919D01*
X12149806Y11622178D01*
X12149805Y11622178D01*
X12149815Y11622179D01*
X12320613Y11681944D01*
X12473830Y11778217D01*
X12601783Y11906170D01*
X12604306Y11910185D01*
X12656640Y11956477D01*
X12725693Y11967126D01*
X12789542Y11938751D01*
X12827914Y11880362D01*
X12833300Y11844214D01*
X12833300Y2130275D01*
X12813615Y2063236D01*
X12796981Y2042594D01*
X12728217Y1973831D01*
X12631943Y1820613D01*
X12572178Y1649813D01*
X12572177Y1649807D01*
X12551919Y1470004D01*
X12551919Y1469997D01*
X12572177Y1290194D01*
X12572178Y1290188D01*
X12631943Y1119388D01*
X12672954Y1054120D01*
X12728217Y966170D01*
X12856170Y838217D01*
X13009387Y741944D01*
X13180185Y682179D01*
X13180191Y682179D01*
X13180193Y682178D01*
X13359996Y661919D01*
X13360000Y661919D01*
X13360004Y661919D01*
X13539806Y682178D01*
X13539805Y682178D01*
X13539815Y682179D01*
X13710613Y741944D01*
X13863830Y838217D01*
X13991783Y966170D01*
X14088056Y1119387D01*
X14147821Y1290185D01*
X14168081Y1470000D01*
X14166185Y1486826D01*
X14147822Y1649807D01*
X14147821Y1649813D01*
X14147821Y1649815D01*
X14088056Y1820613D01*
X14005706Y1951672D01*
X13986700Y2017644D01*
X13986700Y21811491D01*
X14006385Y21878530D01*
X14059189Y21924285D01*
X14128347Y21934229D01*
X14176671Y21916485D01*
X14279387Y21851944D01*
X14450185Y21792179D01*
X14450191Y21792179D01*
X14450193Y21792178D01*
X14629996Y21771919D01*
X14630000Y21771919D01*
X14630004Y21771919D01*
X14801617Y21791255D01*
X14870438Y21779201D01*
X14921818Y21731851D01*
X14939500Y21668035D01*
X14939500Y4339257D01*
X14954925Y4187561D01*
X15015837Y3993421D01*
X15015844Y3993406D01*
X15114589Y3815501D01*
X15114592Y3815496D01*
X15247132Y3661107D01*
X15247134Y3661105D01*
X15408037Y3536555D01*
X15408038Y3536555D01*
X15408042Y3536552D01*
X15590729Y3446940D01*
X15787715Y3395937D01*
X15990936Y3385631D01*
X16192071Y3416444D01*
X16382887Y3487114D01*
X16555571Y3594748D01*
X16703053Y3734941D01*
X16819295Y3901951D01*
X16899540Y4088942D01*
X16940500Y4288259D01*
X16940500Y12409997D01*
X19921919Y12409997D01*
X19942177Y12230194D01*
X19942178Y12230188D01*
X20001943Y12059388D01*
X20062192Y11963503D01*
X20098217Y11906170D01*
X20226170Y11778217D01*
X20379387Y11681944D01*
X20550185Y11622179D01*
X20550191Y11622179D01*
X20550193Y11622178D01*
X20729996Y11601919D01*
X20730000Y11601919D01*
X20730004Y11601919D01*
X20909806Y11622178D01*
X20909805Y11622178D01*
X20909815Y11622179D01*
X21080613Y11681944D01*
X21233830Y11778217D01*
X21361783Y11906170D01*
X21458056Y12059387D01*
X21517821Y12230185D01*
X21538081Y12410000D01*
X21536954Y12419999D01*
X21517822Y12589807D01*
X21517821Y12589813D01*
X21517821Y12589815D01*
X21458056Y12760613D01*
X21361783Y12913830D01*
X21343019Y12932594D01*
X21309534Y12993917D01*
X21306700Y13020275D01*
X21306700Y14739725D01*
X21326385Y14806764D01*
X21343019Y14827406D01*
X21361783Y14846170D01*
X21458056Y14999387D01*
X21517821Y15170185D01*
X21525250Y15236123D01*
X21538081Y15349997D01*
X21538081Y15350004D01*
X21517822Y15529807D01*
X21517821Y15529813D01*
X21517821Y15529815D01*
X21458056Y15700613D01*
X21361783Y15853830D01*
X21233830Y15981783D01*
X21223148Y15988495D01*
X21080612Y16078057D01*
X20921953Y16133574D01*
X20909815Y16137821D01*
X20909814Y16137822D01*
X20909812Y16137822D01*
X20909806Y16137823D01*
X20730004Y16158081D01*
X20729996Y16158081D01*
X20550193Y16137823D01*
X20550187Y16137822D01*
X20379387Y16078057D01*
X20226169Y15981783D01*
X20098217Y15853831D01*
X20001943Y15700613D01*
X19942178Y15529813D01*
X19942177Y15529807D01*
X19921919Y15350004D01*
X19921919Y15349997D01*
X19942177Y15170194D01*
X19942178Y15170188D01*
X20001943Y14999388D01*
X20098217Y14846170D01*
X20116981Y14827406D01*
X20150466Y14766083D01*
X20153300Y14739725D01*
X20153300Y13020275D01*
X20133615Y12953236D01*
X20116981Y12932594D01*
X20098217Y12913831D01*
X20001943Y12760613D01*
X19942178Y12589813D01*
X19942177Y12589807D01*
X19921919Y12410004D01*
X19921919Y12409997D01*
X16940500Y12409997D01*
X16940500Y19882402D01*
X16960185Y19949441D01*
X17012989Y19995196D01*
X17078382Y20005622D01*
X17153202Y19997192D01*
X17199998Y19991919D01*
X17200000Y19991919D01*
X17200004Y19991919D01*
X17379806Y20012178D01*
X17379805Y20012178D01*
X17379815Y20012179D01*
X17550613Y20071944D01*
X17703830Y20168217D01*
X17804976Y20269364D01*
X17866295Y20302846D01*
X17935987Y20297862D01*
X17958624Y20286675D01*
X18109387Y20191944D01*
X18280185Y20132179D01*
X18280191Y20132179D01*
X18280193Y20132178D01*
X18459996Y20111919D01*
X18460000Y20111919D01*
X18460004Y20111919D01*
X18639806Y20132178D01*
X18639805Y20132178D01*
X18639815Y20132179D01*
X18810613Y20191944D01*
X18963830Y20288217D01*
X19091783Y20416170D01*
X19188056Y20569387D01*
X19247821Y20740185D01*
X19260778Y20855180D01*
X19268081Y20919997D01*
X19268081Y20920004D01*
X19247822Y21099807D01*
X19247821Y21099813D01*
X19247821Y21099815D01*
X19188056Y21270613D01*
X19091783Y21423830D01*
X19073019Y21442594D01*
X19039534Y21503917D01*
X19036700Y21530275D01*
X19036700Y22178325D01*
X19056385Y22245364D01*
X19109189Y22291119D01*
X19178347Y22301063D01*
X19241903Y22272038D01*
X19248381Y22266006D01*
X19366170Y22148217D01*
X19519387Y22051944D01*
X19690185Y21992179D01*
X19690191Y21992179D01*
X19690193Y21992178D01*
X19869996Y21971919D01*
X19870000Y21971919D01*
X19870004Y21971919D01*
X20049806Y21992178D01*
X20049805Y21992178D01*
X20049815Y21992179D01*
X20220613Y22051944D01*
X20373830Y22148217D01*
X20501783Y22276170D01*
X20598056Y22429387D01*
X20657821Y22600185D01*
X20664801Y22662135D01*
X20678081Y22779997D01*
X20678081Y22780004D01*
X20657822Y22959807D01*
X20657821Y22959813D01*
X20657821Y22959815D01*
X20598056Y23130613D01*
X20501783Y23283830D01*
X20373830Y23411783D01*
X20373828Y23411785D01*
X20264727Y23480338D01*
X20218437Y23532672D01*
X20206700Y23585331D01*
X20206700Y28229725D01*
X20226385Y28296764D01*
X20243019Y28317406D01*
X20261783Y28336170D01*
X20358056Y28489387D01*
X20417821Y28660185D01*
X20425124Y28725000D01*
X20438081Y28839997D01*
X20438081Y28840004D01*
X20417822Y29019807D01*
X20417821Y29019813D01*
X20417821Y29019815D01*
X20358056Y29190613D01*
X20261783Y29343830D01*
X20133830Y29471783D01*
X20049136Y29525000D01*
X19980612Y29568057D01*
X19809812Y29627822D01*
X19809806Y29627823D01*
X19630004Y29648081D01*
X19629996Y29648081D01*
X19450193Y29627823D01*
X19450187Y29627822D01*
X19279387Y29568057D01*
X19126169Y29471783D01*
X18998217Y29343831D01*
X18901943Y29190613D01*
X18842178Y29019813D01*
X18842177Y29019807D01*
X18821919Y28840004D01*
X18821919Y28839997D01*
X18842177Y28660194D01*
X18842178Y28660188D01*
X18901943Y28489388D01*
X18998217Y28336170D01*
X19016981Y28317406D01*
X19050466Y28256083D01*
X19053300Y28229725D01*
X19053300Y25220400D01*
X19033615Y25153361D01*
X18980811Y25107606D01*
X18911653Y25097662D01*
X18848097Y25126687D01*
X18810323Y25185465D01*
X18806080Y25206517D01*
X18797822Y25279808D01*
X18797821Y25279813D01*
X18797821Y25279815D01*
X18738056Y25450613D01*
X18641783Y25603830D01*
X18513830Y25731783D01*
X18464572Y25762734D01*
X18360612Y25828057D01*
X18189812Y25887822D01*
X18189806Y25887823D01*
X18010004Y25908081D01*
X18009996Y25908081D01*
X17914583Y25897331D01*
X17845761Y25909386D01*
X17794382Y25956735D01*
X17776700Y26020551D01*
X17776700Y26199725D01*
X17796385Y26266764D01*
X17813019Y26287406D01*
X17820758Y26295145D01*
X17831783Y26306170D01*
X17928056Y26459387D01*
X17987821Y26630185D01*
X18003201Y26766687D01*
X18008081Y26809997D01*
X18008081Y26810004D01*
X17987822Y26989807D01*
X17987821Y26989813D01*
X17987821Y26989815D01*
X17928056Y27160613D01*
X17831783Y27313830D01*
X17703830Y27441783D01*
X17571627Y27524852D01*
X17550612Y27538057D01*
X17379812Y27597822D01*
X17379806Y27597823D01*
X17200004Y27618081D01*
X17199996Y27618081D01*
X17078383Y27604379D01*
X17009561Y27616434D01*
X16958182Y27663783D01*
X16940500Y27727599D01*
X16940500Y40517780D01*
X16960185Y40584819D01*
X17012989Y40630574D01*
X17050617Y40641000D01*
X17149804Y40652176D01*
X17149803Y40652176D01*
X17149813Y40652177D01*
X17320611Y40711942D01*
X17473828Y40808215D01*
X17601781Y40936168D01*
X17698054Y41089385D01*
X17757819Y41260183D01*
X17759048Y41271087D01*
X17778079Y41439995D01*
X17778079Y41440002D01*
X17757820Y41619805D01*
X17757819Y41619811D01*
X17757819Y41619813D01*
X17698054Y41790611D01*
X17601781Y41943828D01*
X17591919Y41953690D01*
X17558434Y42015013D01*
X17555600Y42041371D01*
X17555600Y42691687D01*
X17575285Y42758726D01*
X17628089Y42804481D01*
X17693484Y42814907D01*
X17720000Y42811919D01*
X17720000Y42811920D01*
X17720001Y42811919D01*
X17720003Y42811919D01*
X17895417Y42831683D01*
X17964239Y42819628D01*
X18015618Y42772279D01*
X18033300Y42708463D01*
X18033300Y39780275D01*
X18013615Y39713236D01*
X17996981Y39692594D01*
X17978217Y39673831D01*
X17881943Y39520613D01*
X17822178Y39349813D01*
X17822177Y39349807D01*
X17801919Y39170004D01*
X17801919Y39169997D01*
X17822177Y38990194D01*
X17822178Y38990188D01*
X17881943Y38819388D01*
X17887813Y38810046D01*
X17978217Y38666170D01*
X18106170Y38538217D01*
X18259387Y38441944D01*
X18430185Y38382179D01*
X18430191Y38382179D01*
X18430193Y38382178D01*
X18609996Y38361919D01*
X18610000Y38361919D01*
X18610004Y38361919D01*
X18789806Y38382178D01*
X18789805Y38382178D01*
X18789815Y38382179D01*
X18960613Y38441944D01*
X19113830Y38538217D01*
X19241783Y38666170D01*
X19338056Y38819387D01*
X19397821Y38990185D01*
X19403066Y39036739D01*
X19418081Y39169997D01*
X19418081Y39170004D01*
X19397822Y39349807D01*
X19397821Y39349813D01*
X19397821Y39349815D01*
X19338056Y39520613D01*
X19241783Y39673830D01*
X19223019Y39692594D01*
X19189534Y39753917D01*
X19186700Y39780275D01*
X19186700Y40404115D01*
X19206385Y40471154D01*
X19259189Y40516909D01*
X19296813Y40527335D01*
X19339815Y40532179D01*
X19339819Y40532181D01*
X19339822Y40532181D01*
X19510610Y40591943D01*
X19510609Y40591943D01*
X19510613Y40591944D01*
X19663830Y40688217D01*
X19791783Y40816170D01*
X19888056Y40969387D01*
X19947821Y41140185D01*
X19959510Y41243926D01*
X19968081Y41319997D01*
X19968081Y41320004D01*
X19947822Y41499807D01*
X19947821Y41499813D01*
X19947821Y41499815D01*
X19888056Y41670613D01*
X19791783Y41823830D01*
X19763019Y41852594D01*
X19729534Y41913917D01*
X19726700Y41940275D01*
X19726700Y45707760D01*
X19746385Y45774799D01*
X19799189Y45820554D01*
X19868347Y45830498D01*
X19892428Y45823152D01*
X19892811Y45824244D01*
X19934302Y45809726D01*
X19972572Y45796335D01*
X20029348Y45755614D01*
X20055096Y45690661D01*
X20048660Y45638340D01*
X20042180Y45619822D01*
X20042177Y45619810D01*
X20021919Y45440004D01*
X20021919Y45439997D01*
X20042177Y45260194D01*
X20042178Y45260188D01*
X20101943Y45089388D01*
X20143136Y45023831D01*
X20198217Y44936170D01*
X20326170Y44808217D01*
X20479387Y44711944D01*
X20650185Y44652179D01*
X20650191Y44652179D01*
X20650193Y44652178D01*
X20829996Y44631919D01*
X20830000Y44631919D01*
X20830004Y44631919D01*
X21009806Y44652178D01*
X21009805Y44652178D01*
X21009815Y44652179D01*
X21180613Y44711944D01*
X21203327Y44726216D01*
X21270563Y44745217D01*
X21337399Y44724850D01*
X21382613Y44671583D01*
X21393300Y44621223D01*
X21393300Y31310275D01*
X21373615Y31243236D01*
X21356981Y31222594D01*
X21338217Y31203831D01*
X21241943Y31050613D01*
X21182178Y30879813D01*
X21182177Y30879807D01*
X21161919Y30700004D01*
X21161919Y30699997D01*
X21182177Y30520194D01*
X21182178Y30520188D01*
X21241943Y30349388D01*
X21325531Y30216359D01*
X21338217Y30196170D01*
X21466170Y30068217D01*
X21619387Y29971944D01*
X21790185Y29912179D01*
X21790191Y29912179D01*
X21790193Y29912178D01*
X21969996Y29891919D01*
X21970000Y29891919D01*
X21970004Y29891919D01*
X22149806Y29912178D01*
X22149805Y29912178D01*
X22149815Y29912179D01*
X22320613Y29971944D01*
X22473830Y30068217D01*
X22476009Y30070397D01*
X22477763Y30071355D01*
X22479273Y30072558D01*
X22479483Y30072294D01*
X22537327Y30103884D01*
X22607019Y30098905D01*
X22662956Y30057037D01*
X22687222Y29993530D01*
X22689858Y29963399D01*
X22689860Y29963390D01*
X22748730Y29743683D01*
X22748734Y29743674D01*
X22844865Y29537519D01*
X22844866Y29537517D01*
X22895973Y29464529D01*
X22895974Y29464528D01*
X23577046Y30145601D01*
X23589835Y30064852D01*
X23647359Y29951955D01*
X23736955Y29862359D01*
X23849852Y29804835D01*
X23930597Y29792047D01*
X23249526Y29110975D01*
X23249526Y29110974D01*
X23322512Y29059869D01*
X23322520Y29059865D01*
X23380865Y29032658D01*
X23433305Y28986486D01*
X23452457Y28919293D01*
X23432242Y28852411D01*
X23380867Y28807895D01*
X23322266Y28780568D01*
X23322264Y28780567D01*
X23135858Y28650046D01*
X22974954Y28489142D01*
X22844432Y28302735D01*
X22844431Y28302733D01*
X22748261Y28096498D01*
X22748258Y28096489D01*
X22689366Y27876698D01*
X22689364Y27876687D01*
X22669532Y27650002D01*
X22669532Y27649999D01*
X22689364Y27423314D01*
X22689366Y27423303D01*
X22748258Y27203512D01*
X22748261Y27203503D01*
X22844431Y26997268D01*
X22844432Y26997266D01*
X22974954Y26810859D01*
X23135858Y26649955D01*
X23164080Y26630194D01*
X23322266Y26519432D01*
X23379681Y26492659D01*
X23380275Y26492382D01*
X23432714Y26446209D01*
X23451866Y26379016D01*
X23431650Y26312135D01*
X23380275Y26267619D01*
X23363272Y26259690D01*
X23322267Y26240569D01*
X23322265Y26240568D01*
X23135858Y26110046D01*
X22974954Y25949142D01*
X22844432Y25762735D01*
X22844431Y25762733D01*
X22748261Y25556498D01*
X22748258Y25556489D01*
X22689366Y25336698D01*
X22689364Y25336687D01*
X22669532Y25110002D01*
X22669532Y25109999D01*
X22689364Y24883314D01*
X22689366Y24883303D01*
X22748258Y24663512D01*
X22748261Y24663503D01*
X22844431Y24457268D01*
X22844432Y24457266D01*
X22974954Y24270859D01*
X23135858Y24109955D01*
X23135861Y24109953D01*
X23322266Y23979432D01*
X23380275Y23952382D01*
X23432714Y23906209D01*
X23451866Y23839016D01*
X23431650Y23772135D01*
X23380275Y23727618D01*
X23322267Y23700569D01*
X23322265Y23700568D01*
X23135862Y23570049D01*
X23008313Y23442500D01*
X22946990Y23409016D01*
X22877298Y23414000D01*
X22821365Y23455872D01*
X22796948Y23521336D01*
X22797411Y23544061D01*
X22798081Y23550000D01*
X22777821Y23729815D01*
X22718056Y23900613D01*
X22621783Y24053830D01*
X22493830Y24181783D01*
X22447193Y24211087D01*
X22340612Y24278057D01*
X22169812Y24337822D01*
X22169806Y24337823D01*
X21990004Y24358081D01*
X21989996Y24358081D01*
X21810193Y24337823D01*
X21810187Y24337822D01*
X21639387Y24278057D01*
X21486169Y24181783D01*
X21358217Y24053831D01*
X21261943Y23900613D01*
X21202178Y23729813D01*
X21202177Y23729807D01*
X21181919Y23550004D01*
X21181919Y23549997D01*
X21202177Y23370194D01*
X21202178Y23370188D01*
X21261943Y23199388D01*
X21358217Y23046170D01*
X21376981Y23027406D01*
X21410466Y22966083D01*
X21413300Y22939725D01*
X21413300Y19170275D01*
X21393615Y19103236D01*
X21376981Y19082594D01*
X21358217Y19063831D01*
X21261943Y18910613D01*
X21202178Y18739813D01*
X21202177Y18739807D01*
X21181919Y18560004D01*
X21181919Y18559997D01*
X21202177Y18380194D01*
X21202178Y18380188D01*
X21261943Y18209388D01*
X21358217Y18056170D01*
X21376981Y18037406D01*
X21410466Y17976083D01*
X21413300Y17949725D01*
X21413300Y16976865D01*
X21412769Y16968764D01*
X21408324Y16935002D01*
X21408324Y16934999D01*
X21428143Y16784453D01*
X21428144Y16784451D01*
X21486253Y16644163D01*
X21548357Y16563227D01*
X21578689Y16523697D01*
X21578691Y16523696D01*
X21578693Y16523693D01*
X21597690Y16509117D01*
X21605711Y16502961D01*
X21611806Y16497617D01*
X22159376Y15950047D01*
X22690171Y15419252D01*
X22723656Y15357929D01*
X22722265Y15299478D01*
X22689366Y15176698D01*
X22689364Y15176687D01*
X22669532Y14950002D01*
X22669532Y14949999D01*
X22689364Y14723314D01*
X22689366Y14723303D01*
X22748258Y14503512D01*
X22748261Y14503503D01*
X22844431Y14297268D01*
X22844432Y14297266D01*
X22974954Y14110859D01*
X23135858Y13949955D01*
X23150951Y13939387D01*
X23322266Y13819432D01*
X23380275Y13792382D01*
X23432714Y13746209D01*
X23451866Y13679016D01*
X23431650Y13612135D01*
X23380275Y13567618D01*
X23322267Y13540569D01*
X23322265Y13540568D01*
X23135858Y13410046D01*
X22974954Y13249142D01*
X22844432Y13062735D01*
X22844431Y13062733D01*
X22748261Y12856498D01*
X22748258Y12856489D01*
X22689366Y12636698D01*
X22689364Y12636687D01*
X22669532Y12410002D01*
X22669532Y12409999D01*
X22689364Y12183314D01*
X22689366Y12183303D01*
X22748258Y11963512D01*
X22748261Y11963503D01*
X22844431Y11757268D01*
X22844432Y11757266D01*
X22974954Y11570859D01*
X23135858Y11409955D01*
X23135861Y11409953D01*
X23322266Y11279432D01*
X23380275Y11252382D01*
X23432714Y11206209D01*
X23451866Y11139016D01*
X23431650Y11072135D01*
X23380275Y11027618D01*
X23322267Y11000569D01*
X23322265Y11000568D01*
X23135858Y10870046D01*
X22974954Y10709142D01*
X22844432Y10522735D01*
X22844431Y10522733D01*
X22748261Y10316498D01*
X22748258Y10316489D01*
X22689366Y10096698D01*
X22689364Y10096687D01*
X22669532Y9870002D01*
X22669532Y9869999D01*
X22689364Y9643314D01*
X22689366Y9643303D01*
X22748258Y9423512D01*
X22748261Y9423503D01*
X22844431Y9217268D01*
X22844432Y9217266D01*
X22974954Y9030859D01*
X23135858Y8869955D01*
X23182693Y8837161D01*
X23322266Y8739432D01*
X23368611Y8717821D01*
X23380275Y8712382D01*
X23432714Y8666209D01*
X23451866Y8599016D01*
X23431650Y8532135D01*
X23380275Y8487618D01*
X23322267Y8460569D01*
X23322265Y8460568D01*
X23135858Y8330046D01*
X22974954Y8169142D01*
X22844432Y7982735D01*
X22844431Y7982733D01*
X22748261Y7776498D01*
X22748258Y7776489D01*
X22689366Y7556698D01*
X22689364Y7556687D01*
X22669532Y7330002D01*
X22669532Y7329999D01*
X22689364Y7103314D01*
X22689366Y7103303D01*
X22748258Y6883512D01*
X22748261Y6883503D01*
X22844431Y6677268D01*
X22844432Y6677266D01*
X22974954Y6490859D01*
X23135858Y6329955D01*
X23135861Y6329953D01*
X23322266Y6199432D01*
X23339461Y6191414D01*
X23380275Y6172382D01*
X23432714Y6126209D01*
X23451866Y6059016D01*
X23431650Y5992135D01*
X23380275Y5947618D01*
X23322267Y5920569D01*
X23322265Y5920568D01*
X23135858Y5790046D01*
X22974954Y5629142D01*
X22844432Y5442735D01*
X22844431Y5442733D01*
X22748261Y5236498D01*
X22748258Y5236489D01*
X22689366Y5016698D01*
X22689364Y5016687D01*
X22669532Y4790002D01*
X22669532Y4789999D01*
X22689364Y4563314D01*
X22689366Y4563303D01*
X22748258Y4343512D01*
X22748261Y4343503D01*
X22844431Y4137268D01*
X22844432Y4137266D01*
X22974954Y3950859D01*
X23135858Y3789955D01*
X23135861Y3789953D01*
X23322266Y3659432D01*
X23528504Y3563261D01*
X23748308Y3504365D01*
X23910230Y3490199D01*
X23974998Y3484532D01*
X23975000Y3484532D01*
X23975002Y3484532D01*
X24031673Y3489491D01*
X24201692Y3504365D01*
X24421496Y3563261D01*
X24627734Y3659432D01*
X24814139Y3789953D01*
X24814141Y3789955D01*
X24850195Y3826008D01*
X24911518Y3859493D01*
X24981210Y3854509D01*
X25037143Y3812637D01*
X25061560Y3747173D01*
X25061876Y3738327D01*
X25061876Y2600931D01*
X25042191Y2533892D01*
X25025557Y2513250D01*
X25006793Y2494487D01*
X24910519Y2341269D01*
X24850754Y2170469D01*
X24850753Y2170463D01*
X24830495Y1990660D01*
X24830495Y1990653D01*
X24850753Y1810850D01*
X24850754Y1810844D01*
X24910519Y1640044D01*
X24910520Y1640043D01*
X25006793Y1486826D01*
X25134746Y1358873D01*
X25287963Y1262600D01*
X25458761Y1202835D01*
X25458767Y1202835D01*
X25458769Y1202834D01*
X25638572Y1182575D01*
X25638576Y1182575D01*
X25638580Y1182575D01*
X25818382Y1202834D01*
X25818381Y1202834D01*
X25818391Y1202835D01*
X25989189Y1262600D01*
X26142406Y1358873D01*
X26270359Y1486826D01*
X26366632Y1640043D01*
X26426397Y1810841D01*
X26442745Y1955937D01*
X26446657Y1990653D01*
X26446657Y1990660D01*
X26426398Y2170463D01*
X26426397Y2170469D01*
X26426397Y2170471D01*
X26366632Y2341269D01*
X26270359Y2494486D01*
X26251595Y2513250D01*
X26218110Y2574573D01*
X26215276Y2600931D01*
X26215276Y8164562D01*
X26215807Y8172663D01*
X26220252Y8206424D01*
X26220252Y8206426D01*
X26200432Y8356973D01*
X26200430Y8356977D01*
X26199356Y8359571D01*
X26199101Y8361937D01*
X26198328Y8364824D01*
X26198778Y8364945D01*
X26191887Y8429040D01*
X26223162Y8491519D01*
X26283251Y8527171D01*
X26324724Y8530551D01*
X26423385Y8521919D01*
X26509999Y8514341D01*
X26510000Y8514341D01*
X26510001Y8514341D01*
X26549234Y8517774D01*
X26745408Y8534937D01*
X26973663Y8596097D01*
X27187830Y8695965D01*
X27381401Y8831505D01*
X27548495Y8998599D01*
X27684035Y9192170D01*
X27783903Y9406337D01*
X27845063Y9634592D01*
X27865659Y9870000D01*
X27845063Y10105408D01*
X27783903Y10333663D01*
X27684035Y10547829D01*
X27548495Y10741401D01*
X27548494Y10741403D01*
X27381402Y10908494D01*
X27381396Y10908499D01*
X27195842Y11038425D01*
X27152217Y11093002D01*
X27145023Y11162500D01*
X27176546Y11224855D01*
X27195842Y11241575D01*
X27305182Y11318136D01*
X27381401Y11371505D01*
X27548495Y11538599D01*
X27684035Y11732170D01*
X27783903Y11946337D01*
X27845063Y12174592D01*
X27865659Y12410000D01*
X27845063Y12645408D01*
X27793290Y12838629D01*
X27783905Y12873656D01*
X27783904Y12873657D01*
X27783903Y12873663D01*
X27684035Y13087829D01*
X27665341Y13114528D01*
X27548494Y13281403D01*
X27381402Y13448494D01*
X27381396Y13448499D01*
X27195842Y13578425D01*
X27152217Y13633002D01*
X27145023Y13702500D01*
X27176546Y13764855D01*
X27195842Y13781575D01*
X27290451Y13847821D01*
X27381401Y13911505D01*
X27479981Y14010086D01*
X27541300Y14043568D01*
X27610992Y14038584D01*
X27655340Y14010083D01*
X28776171Y12889252D01*
X28809656Y12827929D01*
X28808265Y12769478D01*
X28775366Y12646698D01*
X28775364Y12646687D01*
X28755532Y12420002D01*
X28755532Y12419999D01*
X28775364Y12193314D01*
X28775366Y12193303D01*
X28834258Y11973512D01*
X28834261Y11973503D01*
X28930431Y11767268D01*
X28930432Y11767266D01*
X29060954Y11580859D01*
X29221858Y11419955D01*
X29221861Y11419953D01*
X29408266Y11289432D01*
X29466275Y11262382D01*
X29518714Y11216209D01*
X29537866Y11149016D01*
X29517650Y11082135D01*
X29466275Y11037618D01*
X29408267Y11010569D01*
X29408265Y11010568D01*
X29221858Y10880046D01*
X29060954Y10719142D01*
X28930432Y10532735D01*
X28930431Y10532733D01*
X28834261Y10326498D01*
X28834258Y10326489D01*
X28775366Y10106698D01*
X28775364Y10106687D01*
X28755532Y9880002D01*
X28755532Y9879999D01*
X28775364Y9653314D01*
X28775366Y9653303D01*
X28834258Y9433512D01*
X28834261Y9433503D01*
X28930431Y9227268D01*
X28930432Y9227266D01*
X29060954Y9040859D01*
X29221858Y8879955D01*
X29221861Y8879953D01*
X29408266Y8749432D01*
X29614504Y8653261D01*
X29834308Y8594365D01*
X29996230Y8580199D01*
X30060998Y8574532D01*
X30061000Y8574532D01*
X30061002Y8574532D01*
X30117673Y8579491D01*
X30287692Y8594365D01*
X30356809Y8612885D01*
X30426655Y8611222D01*
X30484518Y8572060D01*
X30512023Y8507832D01*
X30512900Y8493110D01*
X30512900Y6259946D01*
X30493215Y6192907D01*
X30454873Y6154953D01*
X30386171Y6111784D01*
X30386167Y6111781D01*
X30258217Y5983831D01*
X30161943Y5830613D01*
X30102178Y5659813D01*
X30102177Y5659807D01*
X30081919Y5480004D01*
X30081919Y5479997D01*
X30102177Y5300194D01*
X30102178Y5300188D01*
X30161943Y5129388D01*
X30161944Y5129387D01*
X30258217Y4976170D01*
X30386170Y4848217D01*
X30539387Y4751944D01*
X30710185Y4692179D01*
X30710191Y4692179D01*
X30710193Y4692178D01*
X30889996Y4671919D01*
X30890000Y4671919D01*
X30890004Y4671919D01*
X31069806Y4692178D01*
X31069805Y4692178D01*
X31069815Y4692179D01*
X31240613Y4751944D01*
X31393830Y4848217D01*
X31521783Y4976170D01*
X31618056Y5129387D01*
X31677821Y5300185D01*
X31693882Y5442734D01*
X31698081Y5479997D01*
X31698081Y5480005D01*
X31697654Y5483794D01*
X31698081Y5486232D01*
X31698081Y5486964D01*
X31698209Y5486964D01*
X31709709Y5552616D01*
X31757058Y5603995D01*
X31824669Y5621619D01*
X31862181Y5612440D01*
X31862813Y5614244D01*
X31921194Y5593816D01*
X32040185Y5552179D01*
X32040191Y5552179D01*
X32040193Y5552178D01*
X32219996Y5531919D01*
X32220000Y5531919D01*
X32220004Y5531919D01*
X32399806Y5552178D01*
X32399805Y5552178D01*
X32399815Y5552179D01*
X32464548Y5574831D01*
X32534323Y5578393D01*
X32594950Y5543665D01*
X32627178Y5481672D01*
X32629500Y5457789D01*
X32629500Y2899257D01*
X32644925Y2747561D01*
X32705837Y2553421D01*
X32705844Y2553406D01*
X32804589Y2375501D01*
X32804592Y2375496D01*
X32937132Y2221107D01*
X32937134Y2221105D01*
X33098037Y2096555D01*
X33098038Y2096555D01*
X33098042Y2096552D01*
X33280729Y2006940D01*
X33477715Y1955937D01*
X33680936Y1945631D01*
X33882071Y1976444D01*
X34072887Y2047114D01*
X34245571Y2154748D01*
X34393053Y2294941D01*
X34509295Y2461951D01*
X34589540Y2648942D01*
X34630500Y2848259D01*
X34630500Y5481022D01*
X34650185Y5548061D01*
X34702989Y5593816D01*
X34740617Y5604242D01*
X34899807Y5622178D01*
X34899808Y5622179D01*
X34899815Y5622179D01*
X35070613Y5681944D01*
X35094132Y5696723D01*
X35161368Y5715723D01*
X35228203Y5695356D01*
X35258481Y5667215D01*
X35279364Y5640000D01*
X36176314Y5640000D01*
X36150507Y5599844D01*
X36110000Y5461889D01*
X36110000Y5318111D01*
X36150507Y5180156D01*
X36176314Y5140000D01*
X35279364Y5140000D01*
X35336567Y4926514D01*
X35336570Y4926508D01*
X35436399Y4712422D01*
X35571894Y4518918D01*
X35738917Y4351895D01*
X35932421Y4216400D01*
X36146507Y4116571D01*
X36146516Y4116567D01*
X36360000Y4059366D01*
X36360000Y4954499D01*
X36467685Y4905320D01*
X36574237Y4890000D01*
X36645763Y4890000D01*
X36752315Y4905320D01*
X36860000Y4954499D01*
X36860000Y4059367D01*
X37073483Y4116567D01*
X37073492Y4116571D01*
X37287578Y4216400D01*
X37481082Y4351895D01*
X37648105Y4518918D01*
X37778119Y4704595D01*
X37832696Y4748219D01*
X37902195Y4755412D01*
X37964549Y4723890D01*
X37981269Y4704595D01*
X38111505Y4518599D01*
X38278599Y4351505D01*
X38368924Y4288259D01*
X38472165Y4215968D01*
X38472167Y4215967D01*
X38472170Y4215965D01*
X38686337Y4116097D01*
X38914592Y4054937D01*
X39091034Y4039500D01*
X39149999Y4034341D01*
X39150000Y4034341D01*
X39150001Y4034341D01*
X39208966Y4039500D01*
X39385408Y4054937D01*
X39613663Y4116097D01*
X39827830Y4215965D01*
X40021401Y4351505D01*
X40188495Y4518599D01*
X40318425Y4704158D01*
X40373002Y4747783D01*
X40442500Y4754977D01*
X40504855Y4723454D01*
X40521575Y4704158D01*
X40651281Y4518918D01*
X40651505Y4518599D01*
X40818599Y4351505D01*
X40908924Y4288259D01*
X41012165Y4215968D01*
X41012167Y4215967D01*
X41012170Y4215965D01*
X41226337Y4116097D01*
X41454592Y4054937D01*
X41631034Y4039500D01*
X41689999Y4034341D01*
X41690000Y4034341D01*
X41690001Y4034341D01*
X41748966Y4039500D01*
X41925408Y4054937D01*
X42153663Y4116097D01*
X42367830Y4215965D01*
X42561401Y4351505D01*
X42728495Y4518599D01*
X42858425Y4704158D01*
X42913002Y4747783D01*
X42982500Y4754977D01*
X43044855Y4723454D01*
X43061575Y4704158D01*
X43191281Y4518918D01*
X43191505Y4518599D01*
X43358599Y4351505D01*
X43448924Y4288259D01*
X43552165Y4215968D01*
X43552167Y4215967D01*
X43552170Y4215965D01*
X43766337Y4116097D01*
X43994592Y4054937D01*
X44171034Y4039500D01*
X44229999Y4034341D01*
X44230000Y4034341D01*
X44230001Y4034341D01*
X44288966Y4039500D01*
X44465408Y4054937D01*
X44693663Y4116097D01*
X44907830Y4215965D01*
X45101401Y4351505D01*
X45268495Y4518599D01*
X45398425Y4704158D01*
X45453002Y4747783D01*
X45522500Y4754977D01*
X45584855Y4723454D01*
X45601575Y4704158D01*
X45731281Y4518918D01*
X45731505Y4518599D01*
X45898599Y4351505D01*
X45988924Y4288259D01*
X46092165Y4215968D01*
X46092167Y4215967D01*
X46092170Y4215965D01*
X46306337Y4116097D01*
X46534592Y4054937D01*
X46711034Y4039500D01*
X46769999Y4034341D01*
X46770000Y4034341D01*
X46770001Y4034341D01*
X46828966Y4039500D01*
X47005408Y4054937D01*
X47233663Y4116097D01*
X47447830Y4215965D01*
X47641401Y4351505D01*
X47763329Y4473434D01*
X47824648Y4506916D01*
X47894340Y4501932D01*
X47950274Y4460061D01*
X47967189Y4429083D01*
X48016202Y4297672D01*
X48016206Y4297665D01*
X48102452Y4182456D01*
X48102455Y4182453D01*
X48217664Y4096207D01*
X48217671Y4096203D01*
X48352517Y4045909D01*
X48352516Y4045909D01*
X48359444Y4045165D01*
X48412127Y4039500D01*
X50207872Y4039501D01*
X50267483Y4045909D01*
X50402331Y4096204D01*
X50517546Y4182454D01*
X50603796Y4297669D01*
X50654091Y4432517D01*
X50660500Y4492127D01*
X50660499Y6287872D01*
X50654091Y6347483D01*
X50652810Y6350917D01*
X50603797Y6482329D01*
X50603793Y6482336D01*
X50517547Y6597545D01*
X50517544Y6597548D01*
X50402335Y6683794D01*
X50402328Y6683798D01*
X50267482Y6734092D01*
X50267483Y6734092D01*
X50207883Y6740499D01*
X50207881Y6740500D01*
X50207873Y6740500D01*
X50207864Y6740500D01*
X48412129Y6740500D01*
X48412123Y6740499D01*
X48352516Y6734092D01*
X48217671Y6683798D01*
X48217664Y6683794D01*
X48102455Y6597548D01*
X48102452Y6597545D01*
X48016206Y6482336D01*
X48016203Y6482331D01*
X47967189Y6350917D01*
X47925317Y6294984D01*
X47859853Y6270567D01*
X47791580Y6285419D01*
X47763326Y6306570D01*
X47641402Y6428494D01*
X47641395Y6428499D01*
X47447834Y6564033D01*
X47447830Y6564035D01*
X47418294Y6577808D01*
X47233663Y6663903D01*
X47233659Y6663904D01*
X47233655Y6663906D01*
X47005413Y6725062D01*
X47005403Y6725064D01*
X46770001Y6745659D01*
X46769999Y6745659D01*
X46534596Y6725064D01*
X46534586Y6725062D01*
X46306344Y6663906D01*
X46306335Y6663902D01*
X46092171Y6564036D01*
X46092169Y6564035D01*
X45898597Y6428495D01*
X45731505Y6261403D01*
X45601575Y6075842D01*
X45546998Y6032217D01*
X45477500Y6025023D01*
X45415145Y6056546D01*
X45398425Y6075842D01*
X45268494Y6261403D01*
X45101402Y6428494D01*
X45101395Y6428499D01*
X44907832Y6564034D01*
X44878294Y6577808D01*
X44825855Y6623981D01*
X44806700Y6690190D01*
X44806700Y13429721D01*
X44826385Y13496760D01*
X44879189Y13542515D01*
X44948347Y13552459D01*
X45011903Y13523434D01*
X45049677Y13464656D01*
X45050475Y13461814D01*
X45068730Y13393683D01*
X45068734Y13393674D01*
X45164865Y13187519D01*
X45164866Y13187517D01*
X45215973Y13114529D01*
X45215973Y13114528D01*
X45897045Y13795601D01*
X45909835Y13714852D01*
X45967359Y13601955D01*
X46056955Y13512359D01*
X46169852Y13454835D01*
X46250599Y13442047D01*
X45569526Y12760975D01*
X45569526Y12760974D01*
X45642512Y12709869D01*
X45642516Y12709867D01*
X45848673Y12613735D01*
X45848682Y12613731D01*
X46068389Y12554861D01*
X46068400Y12554859D01*
X46294998Y12535034D01*
X46295002Y12535034D01*
X46521599Y12554859D01*
X46521610Y12554861D01*
X46741317Y12613731D01*
X46741331Y12613736D01*
X46947478Y12709864D01*
X47020472Y12760975D01*
X46339401Y13442047D01*
X46420148Y13454835D01*
X46533045Y13512359D01*
X46622641Y13601955D01*
X46680165Y13714852D01*
X46692953Y13795600D01*
X47374025Y13114528D01*
X47425136Y13187522D01*
X47521264Y13393669D01*
X47521268Y13393682D01*
X47526907Y13414726D01*
X47563270Y13474388D01*
X47626116Y13504919D01*
X47674280Y13503527D01*
X47680183Y13502180D01*
X47680185Y13502179D01*
X47680186Y13502179D01*
X47680190Y13502178D01*
X47859996Y13481919D01*
X47860000Y13481919D01*
X47860004Y13481919D01*
X48039806Y13502178D01*
X48039805Y13502178D01*
X48039815Y13502179D01*
X48210613Y13561944D01*
X48363830Y13658217D01*
X48491783Y13786170D01*
X48588056Y13939387D01*
X48647821Y14110185D01*
X48656883Y14190613D01*
X48668081Y14289997D01*
X48668081Y14290004D01*
X48647822Y14469807D01*
X48647821Y14469813D01*
X48647821Y14469815D01*
X48588056Y14640613D01*
X48491783Y14793830D01*
X48363830Y14921783D01*
X48318920Y14950002D01*
X48210612Y15018057D01*
X48039809Y15077823D01*
X47911562Y15092273D01*
X47847148Y15119340D01*
X47837765Y15127812D01*
X47663398Y15302179D01*
X47487383Y15478194D01*
X47482039Y15484289D01*
X47475372Y15492977D01*
X47461307Y15511307D01*
X47461304Y15511309D01*
X47461303Y15511311D01*
X47433868Y15532362D01*
X47392665Y15588789D01*
X47388510Y15658535D01*
X47407778Y15701861D01*
X47425568Y15727266D01*
X47521739Y15933504D01*
X47580635Y16153308D01*
X47600468Y16380000D01*
X47580635Y16606692D01*
X47523482Y16819990D01*
X47521741Y16826489D01*
X47521738Y16826498D01*
X47519911Y16830416D01*
X47425568Y17032734D01*
X47295047Y17219139D01*
X47295045Y17219142D01*
X47134141Y17380046D01*
X46947734Y17510568D01*
X46947728Y17510571D01*
X46889725Y17537618D01*
X46837285Y17583790D01*
X46818133Y17650983D01*
X46838348Y17717865D01*
X46889725Y17762382D01*
X46947734Y17789432D01*
X47134139Y17919953D01*
X47295047Y18080861D01*
X47425568Y18267266D01*
X47521739Y18473504D01*
X47580635Y18693308D01*
X47600468Y18920000D01*
X47580635Y19146692D01*
X47521739Y19366496D01*
X47425568Y19572734D01*
X47295047Y19759139D01*
X47295045Y19759142D01*
X47134141Y19920046D01*
X46947734Y20050568D01*
X46947728Y20050571D01*
X46889725Y20077618D01*
X46837285Y20123790D01*
X46818133Y20190983D01*
X46838348Y20257865D01*
X46889725Y20302382D01*
X46947734Y20329432D01*
X47134139Y20459953D01*
X47295047Y20620861D01*
X47425568Y20807266D01*
X47521739Y21013504D01*
X47580635Y21233308D01*
X47600468Y21460000D01*
X47580635Y21686692D01*
X47521739Y21906496D01*
X47425568Y22112734D01*
X47295047Y22299139D01*
X47295045Y22299142D01*
X47134141Y22460046D01*
X46947734Y22590568D01*
X46947728Y22590571D01*
X46889725Y22617618D01*
X46837285Y22663790D01*
X46818133Y22730983D01*
X46838348Y22797865D01*
X46889725Y22842382D01*
X46947734Y22869432D01*
X47134139Y22999953D01*
X47295047Y23160861D01*
X47425568Y23347266D01*
X47521739Y23553504D01*
X47580635Y23773308D01*
X47599593Y23990000D01*
X47600468Y23999999D01*
X47600468Y24000002D01*
X47590848Y24109955D01*
X47580635Y24226692D01*
X47521739Y24446496D01*
X47425568Y24652734D01*
X47295047Y24839139D01*
X47295045Y24839142D01*
X47134141Y25000046D01*
X46947734Y25130568D01*
X46947728Y25130571D01*
X46920038Y25143483D01*
X46889724Y25157619D01*
X46837285Y25203790D01*
X46818133Y25270983D01*
X46838348Y25337865D01*
X46889725Y25382382D01*
X46947734Y25409432D01*
X47134139Y25539953D01*
X47295047Y25700861D01*
X47425568Y25887266D01*
X47521739Y26093504D01*
X47580635Y26313308D01*
X47600468Y26540000D01*
X47580635Y26766692D01*
X47525577Y26972174D01*
X47521741Y26986489D01*
X47521738Y26986498D01*
X47497328Y27038845D01*
X47425568Y27192734D01*
X47295047Y27379139D01*
X47295045Y27379142D01*
X47134141Y27540046D01*
X46947734Y27670568D01*
X46947728Y27670571D01*
X46889725Y27697618D01*
X46837285Y27743790D01*
X46818133Y27810983D01*
X46838348Y27877865D01*
X46889725Y27922382D01*
X46947734Y27949432D01*
X47134139Y28079953D01*
X47295047Y28240861D01*
X47425568Y28427266D01*
X47521739Y28633504D01*
X47580635Y28853308D01*
X47600468Y29080000D01*
X47580635Y29306692D01*
X47521739Y29526496D01*
X47425568Y29732734D01*
X47315835Y29889450D01*
X47295045Y29919142D01*
X47134141Y30080046D01*
X46947734Y30210568D01*
X46947728Y30210571D01*
X46889725Y30237618D01*
X46837285Y30283790D01*
X46818133Y30350983D01*
X46838348Y30417865D01*
X46889725Y30462382D01*
X46947734Y30489432D01*
X47134139Y30619953D01*
X47295047Y30780861D01*
X47425568Y30967266D01*
X47521739Y31173504D01*
X47580635Y31393308D01*
X47598982Y31603019D01*
X47600468Y31619999D01*
X47600468Y31620002D01*
X47594212Y31691507D01*
X47580635Y31846692D01*
X47521739Y32066496D01*
X47425568Y32272734D01*
X47295047Y32459139D01*
X47295045Y32459142D01*
X47134141Y32620046D01*
X46947734Y32750568D01*
X46947728Y32750571D01*
X46889725Y32777618D01*
X46837285Y32823790D01*
X46818133Y32890983D01*
X46838348Y32957865D01*
X46889725Y33002382D01*
X46894647Y33004677D01*
X46947734Y33029432D01*
X47134139Y33159953D01*
X47295047Y33320861D01*
X47425568Y33507266D01*
X47521739Y33713504D01*
X47580635Y33933308D01*
X47600468Y34160000D01*
X47580635Y34386692D01*
X47525579Y34592166D01*
X47521741Y34606489D01*
X47521738Y34606498D01*
X47490299Y34673919D01*
X47425568Y34812734D01*
X47302972Y34987821D01*
X47295045Y34999142D01*
X47134141Y35160046D01*
X46947734Y35290568D01*
X46947728Y35290571D01*
X46889725Y35317618D01*
X46837285Y35363790D01*
X46818133Y35430983D01*
X46838348Y35497865D01*
X46889725Y35542382D01*
X46894647Y35544677D01*
X46947734Y35569432D01*
X47134139Y35699953D01*
X47295047Y35860861D01*
X47425568Y36047266D01*
X47521739Y36253504D01*
X47580635Y36473308D01*
X47600468Y36700000D01*
X47600414Y36700613D01*
X47587761Y36845239D01*
X47580635Y36926692D01*
X47525579Y37132166D01*
X47521741Y37146489D01*
X47521738Y37146498D01*
X47498653Y37196004D01*
X47425568Y37352734D01*
X47295047Y37539139D01*
X47295045Y37539142D01*
X47134141Y37700046D01*
X46947734Y37830568D01*
X46947728Y37830571D01*
X46889725Y37857618D01*
X46837285Y37903790D01*
X46818133Y37970983D01*
X46838348Y38037865D01*
X46889725Y38082382D01*
X46894647Y38084677D01*
X46947734Y38109432D01*
X47134139Y38239953D01*
X47295047Y38400861D01*
X47425568Y38587266D01*
X47521739Y38793504D01*
X47580635Y39013308D01*
X47600468Y39240000D01*
X47580635Y39466692D01*
X47525579Y39672166D01*
X47521741Y39686489D01*
X47521738Y39686498D01*
X47514649Y39701701D01*
X47425568Y39892734D01*
X47295047Y40079139D01*
X47295045Y40079142D01*
X47134141Y40240046D01*
X46947734Y40370568D01*
X46947728Y40370571D01*
X46889725Y40397618D01*
X46837285Y40443790D01*
X46818133Y40510983D01*
X46838348Y40577865D01*
X46889725Y40622382D01*
X46894647Y40624677D01*
X46947734Y40649432D01*
X47134139Y40779953D01*
X47295047Y40940861D01*
X47425568Y41127266D01*
X47521739Y41333504D01*
X47580635Y41553308D01*
X47598669Y41759433D01*
X47600468Y41779999D01*
X47600468Y41780002D01*
X47588752Y41913917D01*
X47580635Y42006692D01*
X47525579Y42212166D01*
X47521741Y42226489D01*
X47521738Y42226498D01*
X47489802Y42294984D01*
X47425568Y42432734D01*
X47295969Y42617822D01*
X47295045Y42619142D01*
X47134141Y42780046D01*
X46947734Y42910568D01*
X46947728Y42910571D01*
X46889725Y42937618D01*
X46837285Y42983790D01*
X46818133Y43050983D01*
X46838348Y43117865D01*
X46889725Y43162382D01*
X46894647Y43164677D01*
X46947734Y43189432D01*
X47134139Y43319953D01*
X47295047Y43480861D01*
X47425568Y43667266D01*
X47521739Y43873504D01*
X47580635Y44093308D01*
X47600468Y44320000D01*
X47596968Y44360000D01*
X47581237Y44539807D01*
X47580635Y44546692D01*
X47525579Y44752166D01*
X47521741Y44766489D01*
X47521738Y44766498D01*
X47502284Y44808217D01*
X47425568Y44972734D01*
X47302971Y45147822D01*
X47295045Y45159142D01*
X47134141Y45320046D01*
X46947734Y45450568D01*
X46947728Y45450571D01*
X46889725Y45477618D01*
X46837285Y45523790D01*
X46818133Y45590983D01*
X46838348Y45657865D01*
X46889725Y45702382D01*
X46947734Y45729432D01*
X47134139Y45859953D01*
X47295047Y46020861D01*
X47425568Y46207266D01*
X47521739Y46413504D01*
X47580635Y46633308D01*
X47598816Y46841119D01*
X47600468Y46859999D01*
X47600468Y46860001D01*
X47590848Y46969955D01*
X47589992Y46979736D01*
X47603758Y47048233D01*
X47652373Y47098416D01*
X47720402Y47114350D01*
X47786245Y47090975D01*
X47801201Y47078222D01*
X47976981Y46902442D01*
X48010466Y46841119D01*
X48013300Y46814761D01*
X48013300Y43491865D01*
X48012769Y43483764D01*
X48008324Y43450002D01*
X48008324Y43449997D01*
X48012304Y43419757D01*
X48012307Y43419741D01*
X48013300Y43412204D01*
X48013300Y43412203D01*
X48021007Y43353663D01*
X48024842Y43324530D01*
X48028144Y43299451D01*
X48028144Y43299450D01*
X48086253Y43159163D01*
X48136821Y43093261D01*
X48178690Y43038696D01*
X48178691Y43038695D01*
X48178693Y43038693D01*
X48191599Y43028790D01*
X48205711Y43017961D01*
X48211806Y43012617D01*
X48390113Y42834310D01*
X48516981Y42707442D01*
X48550466Y42646119D01*
X48553300Y42619761D01*
X48553300Y21770275D01*
X48533615Y21703236D01*
X48516981Y21682594D01*
X48498217Y21663831D01*
X48401943Y21510613D01*
X48342178Y21339813D01*
X48342177Y21339807D01*
X48321919Y21160005D01*
X48321919Y21159997D01*
X48342177Y20980194D01*
X48342178Y20980188D01*
X48401943Y20809388D01*
X48446568Y20738369D01*
X48498217Y20656170D01*
X48626170Y20528217D01*
X48779387Y20431944D01*
X48950185Y20372179D01*
X48950191Y20372179D01*
X48950193Y20372178D01*
X49129996Y20351919D01*
X49130000Y20351919D01*
X49130004Y20351919D01*
X49309806Y20372178D01*
X49309805Y20372178D01*
X49309815Y20372179D01*
X49384547Y20398330D01*
X49454323Y20401892D01*
X49514951Y20367163D01*
X49547178Y20305170D01*
X49549500Y20281288D01*
X49549500Y8509257D01*
X49564925Y8357561D01*
X49625837Y8163421D01*
X49625844Y8163406D01*
X49724589Y7985501D01*
X49724592Y7985496D01*
X49857132Y7831107D01*
X49857134Y7831105D01*
X50018037Y7706555D01*
X50018038Y7706555D01*
X50018042Y7706552D01*
X50200729Y7616940D01*
X50397715Y7565937D01*
X50600936Y7555631D01*
X50802071Y7586444D01*
X50992887Y7657114D01*
X51165571Y7764748D01*
X51313053Y7904941D01*
X51429295Y8071951D01*
X51509540Y8258942D01*
X51550500Y8458259D01*
X51550500Y25439997D01*
X52481919Y25439997D01*
X52502177Y25260194D01*
X52502178Y25260188D01*
X52561943Y25089388D01*
X52649648Y24949807D01*
X52658217Y24936170D01*
X52786170Y24808217D01*
X52939387Y24711944D01*
X53110185Y24652179D01*
X53110191Y24652179D01*
X53110193Y24652178D01*
X53289996Y24631919D01*
X53290000Y24631919D01*
X53290004Y24631919D01*
X53469806Y24652178D01*
X53469805Y24652178D01*
X53469815Y24652179D01*
X53640613Y24711944D01*
X53793830Y24808217D01*
X53921783Y24936170D01*
X54018056Y25089387D01*
X54077821Y25260185D01*
X54098081Y25440000D01*
X54096885Y25450613D01*
X54077822Y25619807D01*
X54077821Y25619813D01*
X54077821Y25619815D01*
X54018056Y25790613D01*
X53921783Y25943830D01*
X53903019Y25962594D01*
X53869534Y26023917D01*
X53866700Y26050275D01*
X53866700Y32699997D01*
X54791919Y32699997D01*
X54812177Y32520194D01*
X54812178Y32520188D01*
X54871943Y32349388D01*
X54968217Y32196170D01*
X54986981Y32177406D01*
X55020466Y32116083D01*
X55023300Y32089725D01*
X55023300Y14440275D01*
X55003615Y14373236D01*
X54986981Y14352594D01*
X54978217Y14343831D01*
X54881943Y14190613D01*
X54822178Y14019813D01*
X54822177Y14019807D01*
X54801919Y13840004D01*
X54801919Y13839997D01*
X54822177Y13660194D01*
X54822178Y13660188D01*
X54881943Y13489388D01*
X54942192Y13393503D01*
X54978217Y13336170D01*
X55106170Y13208217D01*
X55259387Y13111944D01*
X55430185Y13052179D01*
X55430191Y13052179D01*
X55430193Y13052178D01*
X55609996Y13031919D01*
X55610000Y13031919D01*
X55610004Y13031919D01*
X55789806Y13052178D01*
X55789805Y13052178D01*
X55789815Y13052179D01*
X55960613Y13111944D01*
X56113830Y13208217D01*
X56241783Y13336170D01*
X56304306Y13435676D01*
X56356641Y13481966D01*
X56425694Y13492614D01*
X56489543Y13464239D01*
X56527915Y13405849D01*
X56533300Y13369703D01*
X56533300Y10370275D01*
X56513615Y10303236D01*
X56496981Y10282594D01*
X56478217Y10263831D01*
X56381943Y10110613D01*
X56322178Y9939813D01*
X56322177Y9939807D01*
X56301919Y9760004D01*
X56301919Y9759997D01*
X56322177Y9580194D01*
X56322178Y9580188D01*
X56381943Y9409388D01*
X56467731Y9272859D01*
X56478217Y9256170D01*
X56606170Y9128217D01*
X56759387Y9031944D01*
X56930185Y8972179D01*
X56930191Y8972179D01*
X56930193Y8972178D01*
X57109996Y8951919D01*
X57110000Y8951919D01*
X57110004Y8951919D01*
X57289806Y8972178D01*
X57289805Y8972178D01*
X57289815Y8972179D01*
X57460613Y9031944D01*
X57613830Y9128217D01*
X57741783Y9256170D01*
X57838056Y9409387D01*
X57897821Y9580185D01*
X57906061Y9653314D01*
X57918081Y9759997D01*
X57918081Y9760004D01*
X57897822Y9939807D01*
X57897821Y9939813D01*
X57897821Y9939815D01*
X57838056Y10110613D01*
X57741783Y10263830D01*
X57723019Y10282594D01*
X57689534Y10343917D01*
X57686700Y10370275D01*
X57686700Y14347447D01*
X57706385Y14414486D01*
X57759189Y14460241D01*
X57828347Y14470185D01*
X57891903Y14441160D01*
X57915693Y14413420D01*
X58008217Y14266170D01*
X58136170Y14138217D01*
X58289387Y14041944D01*
X58460185Y13982179D01*
X58460191Y13982179D01*
X58460193Y13982178D01*
X58639996Y13961919D01*
X58640000Y13961919D01*
X58640004Y13961919D01*
X58819806Y13982178D01*
X58819805Y13982178D01*
X58819815Y13982179D01*
X58990613Y14041944D01*
X58990612Y14041944D01*
X58990616Y14041945D01*
X59103328Y14112767D01*
X59170564Y14131768D01*
X59237399Y14111401D01*
X59282614Y14058133D01*
X59293300Y14007774D01*
X59293300Y13960275D01*
X59273615Y13893236D01*
X59256981Y13872594D01*
X59238217Y13853831D01*
X59141943Y13700613D01*
X59082178Y13529813D01*
X59082177Y13529807D01*
X59061919Y13350004D01*
X59061919Y13349997D01*
X59082177Y13170194D01*
X59082178Y13170188D01*
X59141943Y12999388D01*
X59204055Y12900538D01*
X59238217Y12846170D01*
X59366170Y12718217D01*
X59519387Y12621944D01*
X59690185Y12562179D01*
X59690191Y12562179D01*
X59690193Y12562178D01*
X59869996Y12541919D01*
X59870000Y12541919D01*
X59870004Y12541919D01*
X60049806Y12562178D01*
X60049805Y12562178D01*
X60049815Y12562179D01*
X60220613Y12621944D01*
X60373830Y12718217D01*
X60501783Y12846170D01*
X60501783Y12846171D01*
X60506707Y12851094D01*
X60508603Y12849198D01*
X60555742Y12882320D01*
X60625552Y12885207D01*
X60683244Y12852569D01*
X60695858Y12839955D01*
X60695861Y12839953D01*
X60882266Y12709432D01*
X61088504Y12613261D01*
X61308308Y12554365D01*
X61470230Y12540199D01*
X61534998Y12534532D01*
X61535000Y12534532D01*
X61535002Y12534532D01*
X61591673Y12539491D01*
X61761692Y12554365D01*
X61981496Y12613261D01*
X62187734Y12709432D01*
X62374139Y12839953D01*
X62535047Y13000861D01*
X62665568Y13187266D01*
X62761739Y13393504D01*
X62820635Y13613308D01*
X62840468Y13840000D01*
X62820635Y14066692D01*
X62765578Y14272170D01*
X62761741Y14286489D01*
X62761738Y14286498D01*
X62757459Y14295675D01*
X62665568Y14492734D01*
X62535047Y14679139D01*
X62535045Y14679142D01*
X62374141Y14840046D01*
X62187734Y14970568D01*
X62187728Y14970571D01*
X62129725Y14997618D01*
X62077285Y15043790D01*
X62058133Y15110983D01*
X62078348Y15177865D01*
X62129725Y15222382D01*
X62187734Y15249432D01*
X62374139Y15379953D01*
X62535047Y15540861D01*
X62665568Y15727266D01*
X62761739Y15933504D01*
X62820635Y16153308D01*
X62840468Y16380000D01*
X62820635Y16606692D01*
X62763482Y16819990D01*
X62761741Y16826489D01*
X62761738Y16826498D01*
X62759911Y16830416D01*
X62665568Y17032734D01*
X62535047Y17219139D01*
X62535045Y17219142D01*
X62374141Y17380046D01*
X62187734Y17510568D01*
X62187728Y17510571D01*
X62129725Y17537618D01*
X62077285Y17583790D01*
X62058133Y17650983D01*
X62078348Y17717865D01*
X62129725Y17762382D01*
X62187734Y17789432D01*
X62374139Y17919953D01*
X62535047Y18080861D01*
X62665568Y18267266D01*
X62761739Y18473504D01*
X62820635Y18693308D01*
X62840468Y18920000D01*
X62820635Y19146692D01*
X62761739Y19366496D01*
X62665568Y19572734D01*
X62535047Y19759139D01*
X62535045Y19759142D01*
X62374141Y19920046D01*
X62187734Y20050568D01*
X62187728Y20050571D01*
X62129725Y20077618D01*
X62077285Y20123790D01*
X62058133Y20190983D01*
X62078348Y20257865D01*
X62129725Y20302382D01*
X62187734Y20329432D01*
X62374139Y20459953D01*
X62535047Y20620861D01*
X62665568Y20807266D01*
X62761739Y21013504D01*
X62820635Y21233308D01*
X62840468Y21460000D01*
X62820635Y21686692D01*
X62761739Y21906496D01*
X62665568Y22112734D01*
X62535047Y22299139D01*
X62535045Y22299142D01*
X62374141Y22460046D01*
X62187734Y22590568D01*
X62187728Y22590571D01*
X62129725Y22617618D01*
X62077285Y22663790D01*
X62058133Y22730983D01*
X62078348Y22797865D01*
X62129725Y22842382D01*
X62187734Y22869432D01*
X62374139Y22999953D01*
X62535047Y23160861D01*
X62665568Y23347266D01*
X62761739Y23553504D01*
X62820635Y23773308D01*
X62839593Y23990000D01*
X62840468Y23999999D01*
X62840468Y24000002D01*
X62830848Y24109955D01*
X62820635Y24226692D01*
X62761739Y24446496D01*
X62665568Y24652734D01*
X62535047Y24839139D01*
X62535045Y24839142D01*
X62374141Y25000046D01*
X62187734Y25130568D01*
X62187728Y25130571D01*
X62160038Y25143483D01*
X62129724Y25157619D01*
X62077285Y25203790D01*
X62058133Y25270983D01*
X62078348Y25337865D01*
X62129725Y25382382D01*
X62187734Y25409432D01*
X62374139Y25539953D01*
X62535047Y25700861D01*
X62665568Y25887266D01*
X62761739Y26093504D01*
X62820635Y26313308D01*
X62840468Y26540000D01*
X62820635Y26766692D01*
X62765577Y26972174D01*
X62761741Y26986489D01*
X62761738Y26986498D01*
X62737328Y27038845D01*
X62665568Y27192734D01*
X62535047Y27379139D01*
X62535045Y27379142D01*
X62374141Y27540046D01*
X62187734Y27670568D01*
X62187728Y27670571D01*
X62129725Y27697618D01*
X62077285Y27743790D01*
X62058133Y27810983D01*
X62078348Y27877865D01*
X62129725Y27922382D01*
X62187734Y27949432D01*
X62374139Y28079953D01*
X62535047Y28240861D01*
X62665568Y28427266D01*
X62761739Y28633504D01*
X62820635Y28853308D01*
X62840468Y29080000D01*
X62820635Y29306692D01*
X62761739Y29526496D01*
X62665568Y29732734D01*
X62555835Y29889450D01*
X62535045Y29919142D01*
X62374141Y30080046D01*
X62217107Y30190001D01*
X62187734Y30210568D01*
X62129132Y30237895D01*
X62076694Y30284067D01*
X62057543Y30351261D01*
X62077759Y30418142D01*
X62129135Y30462659D01*
X62187482Y30489867D01*
X62260472Y30540975D01*
X61579401Y31222047D01*
X61660148Y31234835D01*
X61773045Y31292359D01*
X61862641Y31381955D01*
X61920165Y31494852D01*
X61932953Y31575600D01*
X62614025Y30894528D01*
X62665136Y30967522D01*
X62761264Y31173669D01*
X62761269Y31173683D01*
X62820139Y31393390D01*
X62820141Y31393401D01*
X62839966Y31619998D01*
X62839966Y31620003D01*
X62820141Y31846600D01*
X62820139Y31846611D01*
X62761269Y32066318D01*
X62761265Y32066327D01*
X62665133Y32272484D01*
X62665131Y32272488D01*
X62614026Y32345474D01*
X62614025Y32345474D01*
X61932953Y31664402D01*
X61920165Y31745148D01*
X61862641Y31858045D01*
X61773045Y31947641D01*
X61660148Y32005165D01*
X61579400Y32017954D01*
X62260472Y32699026D01*
X62260471Y32699027D01*
X62187483Y32750134D01*
X62187481Y32750135D01*
X62129133Y32777343D01*
X62076694Y32823516D01*
X62057542Y32890709D01*
X62077758Y32957590D01*
X62129129Y33002105D01*
X62187734Y33029432D01*
X62374139Y33159953D01*
X62535047Y33320861D01*
X62665568Y33507266D01*
X62761739Y33713504D01*
X62820635Y33933308D01*
X62840468Y34160000D01*
X62820635Y34386692D01*
X62765579Y34592166D01*
X62761741Y34606489D01*
X62761738Y34606498D01*
X62730299Y34673919D01*
X62665568Y34812734D01*
X62542972Y34987821D01*
X62535045Y34999142D01*
X62374141Y35160046D01*
X62187734Y35290568D01*
X62187728Y35290571D01*
X62129725Y35317618D01*
X62077285Y35363790D01*
X62058133Y35430983D01*
X62078348Y35497865D01*
X62129725Y35542382D01*
X62134647Y35544677D01*
X62187734Y35569432D01*
X62374139Y35699953D01*
X62535047Y35860861D01*
X62665568Y36047266D01*
X62761739Y36253504D01*
X62820635Y36473308D01*
X62840468Y36700000D01*
X62840414Y36700613D01*
X62827761Y36845239D01*
X62820635Y36926692D01*
X62765579Y37132166D01*
X62761741Y37146489D01*
X62761738Y37146498D01*
X62738653Y37196004D01*
X62665568Y37352734D01*
X62535047Y37539139D01*
X62535045Y37539142D01*
X62374141Y37700046D01*
X62187734Y37830568D01*
X62187728Y37830571D01*
X62129725Y37857618D01*
X62077285Y37903790D01*
X62058133Y37970983D01*
X62078348Y38037865D01*
X62129725Y38082382D01*
X62134647Y38084677D01*
X62187734Y38109432D01*
X62374139Y38239953D01*
X62535047Y38400861D01*
X62665568Y38587266D01*
X62761739Y38793504D01*
X62820635Y39013308D01*
X62840468Y39240000D01*
X62820635Y39466692D01*
X62765579Y39672166D01*
X62761741Y39686489D01*
X62761738Y39686498D01*
X62754649Y39701701D01*
X62665568Y39892734D01*
X62535047Y40079139D01*
X62535045Y40079142D01*
X62374141Y40240046D01*
X62187734Y40370568D01*
X62187728Y40370571D01*
X62129725Y40397618D01*
X62077285Y40443790D01*
X62058133Y40510983D01*
X62078348Y40577865D01*
X62129725Y40622382D01*
X62134647Y40624677D01*
X62187734Y40649432D01*
X62374139Y40779953D01*
X62535047Y40940861D01*
X62665568Y41127266D01*
X62761739Y41333504D01*
X62820635Y41553308D01*
X62838669Y41759433D01*
X62840468Y41779999D01*
X62840468Y41780002D01*
X62828752Y41913917D01*
X62820635Y42006692D01*
X62765579Y42212166D01*
X62761741Y42226489D01*
X62761738Y42226498D01*
X62729802Y42294984D01*
X62665568Y42432734D01*
X62535969Y42617822D01*
X62535045Y42619142D01*
X62374141Y42780046D01*
X62187734Y42910568D01*
X62187728Y42910571D01*
X62129725Y42937618D01*
X62077285Y42983790D01*
X62058133Y43050983D01*
X62078348Y43117865D01*
X62129725Y43162382D01*
X62134647Y43164677D01*
X62187734Y43189432D01*
X62374139Y43319953D01*
X62535047Y43480861D01*
X62665568Y43667266D01*
X62761739Y43873504D01*
X62820635Y44093308D01*
X62840468Y44320000D01*
X62836968Y44360000D01*
X62821237Y44539807D01*
X62820635Y44546692D01*
X62765579Y44752166D01*
X62761741Y44766489D01*
X62761738Y44766498D01*
X62742284Y44808217D01*
X62665568Y44972734D01*
X62542971Y45147822D01*
X62535045Y45159142D01*
X62374141Y45320046D01*
X62187734Y45450568D01*
X62187728Y45450571D01*
X62129725Y45477618D01*
X62077285Y45523790D01*
X62058133Y45590983D01*
X62078348Y45657865D01*
X62129725Y45702382D01*
X62187734Y45729432D01*
X62374139Y45859953D01*
X62535047Y46020861D01*
X62665568Y46207266D01*
X62761739Y46413504D01*
X62820635Y46633308D01*
X62838816Y46841119D01*
X62840468Y46859999D01*
X62840468Y46860002D01*
X62825312Y47033235D01*
X62820635Y47086692D01*
X62765579Y47292166D01*
X62761741Y47306489D01*
X62761738Y47306498D01*
X62740754Y47351498D01*
X62665568Y47512734D01*
X62535047Y47699139D01*
X62535045Y47699142D01*
X62374141Y47860046D01*
X62187734Y47990568D01*
X62187728Y47990571D01*
X62129725Y48017618D01*
X62077285Y48063790D01*
X62058133Y48130983D01*
X62078348Y48197865D01*
X62129725Y48242382D01*
X62130761Y48242865D01*
X62187734Y48269432D01*
X62374139Y48399953D01*
X62535047Y48560861D01*
X62665568Y48747266D01*
X62761739Y48953504D01*
X62820635Y49173308D01*
X62840468Y49400000D01*
X62836968Y49440000D01*
X62821237Y49619807D01*
X62820635Y49626692D01*
X62765579Y49832166D01*
X62761741Y49846489D01*
X62761738Y49846498D01*
X62751672Y49868085D01*
X62665568Y50052734D01*
X62542971Y50227822D01*
X62535045Y50239142D01*
X62374141Y50400046D01*
X62187734Y50530568D01*
X62187728Y50530571D01*
X62129725Y50557618D01*
X62077285Y50603790D01*
X62058133Y50670983D01*
X62078348Y50737865D01*
X62129725Y50782382D01*
X62187734Y50809432D01*
X62374139Y50939953D01*
X62535047Y51100861D01*
X62665568Y51287266D01*
X62761739Y51493504D01*
X62820635Y51713308D01*
X62840468Y51940000D01*
X62820635Y52166692D01*
X62765579Y52372166D01*
X62761741Y52386489D01*
X62761738Y52386498D01*
X62740754Y52431498D01*
X62665568Y52592734D01*
X62619145Y52659034D01*
X62552925Y52753607D01*
X62530598Y52819814D01*
X62530500Y52824730D01*
X62530500Y54192412D01*
X62550185Y54259451D01*
X62552925Y54263535D01*
X62559554Y54273002D01*
X62660568Y54417266D01*
X62756739Y54623504D01*
X62815635Y54843308D01*
X62834154Y55054983D01*
X62835468Y55069999D01*
X62835468Y55070002D01*
X62824179Y55199034D01*
X62815635Y55296692D01*
X62756739Y55516496D01*
X62660568Y55722734D01*
X62530047Y55909139D01*
X62530045Y55909142D01*
X62369141Y56070046D01*
X62182734Y56200568D01*
X62182732Y56200569D01*
X61976497Y56296739D01*
X61976488Y56296742D01*
X61756697Y56355634D01*
X61756693Y56355635D01*
X61756692Y56355635D01*
X61756691Y56355636D01*
X61756686Y56355636D01*
X61530002Y56375468D01*
X61529998Y56375468D01*
X61303313Y56355636D01*
X61303302Y56355634D01*
X61083511Y56296742D01*
X61083502Y56296739D01*
X60877267Y56200569D01*
X60877265Y56200568D01*
X60690858Y56070046D01*
X60529954Y55909142D01*
X60399432Y55722735D01*
X60399430Y55722731D01*
X60392105Y55707022D01*
X60345931Y55654583D01*
X60278737Y55635433D01*
X60211857Y55655650D01*
X60167341Y55707026D01*
X60160132Y55722485D01*
X60160131Y55722488D01*
X60109026Y55795474D01*
X60109025Y55795474D01*
X59427953Y55114402D01*
X59415165Y55195148D01*
X59357641Y55308045D01*
X59268045Y55397641D01*
X59155148Y55455165D01*
X59074400Y55467954D01*
X59755472Y56149026D01*
X59755471Y56149027D01*
X59682483Y56200134D01*
X59682481Y56200135D01*
X59476326Y56296266D01*
X59476317Y56296270D01*
X59256610Y56355140D01*
X59256599Y56355142D01*
X59030002Y56374966D01*
X59029998Y56374966D01*
X58803400Y56355142D01*
X58803389Y56355140D01*
X58583682Y56296270D01*
X58583673Y56296266D01*
X58377513Y56200132D01*
X58304527Y56149028D01*
X58304526Y56149027D01*
X58985600Y55467954D01*
X58904852Y55455165D01*
X58791955Y55397641D01*
X58702359Y55308045D01*
X58644835Y55195148D01*
X58632046Y55114401D01*
X57950780Y55795667D01*
X57883008Y55809286D01*
X57832825Y55857902D01*
X57816700Y55919048D01*
X57816700Y56619725D01*
X57836385Y56686764D01*
X57853019Y56707406D01*
X57859954Y56714341D01*
X57871783Y56726170D01*
X57968056Y56879387D01*
X58027821Y57050185D01*
X58033503Y57100613D01*
X58048081Y57229997D01*
X58048081Y57230004D01*
X58027822Y57409807D01*
X58027821Y57409813D01*
X58027821Y57409815D01*
X57968056Y57580613D01*
X57871783Y57733830D01*
X57743830Y57861783D01*
X57698051Y57890548D01*
X57590612Y57958057D01*
X57419812Y58017822D01*
X57419806Y58017823D01*
X57240004Y58038081D01*
X57239996Y58038081D01*
X57060193Y58017823D01*
X57060187Y58017822D01*
X56889387Y57958057D01*
X56736169Y57861783D01*
X56608217Y57733831D01*
X56511943Y57580613D01*
X56452178Y57409813D01*
X56452177Y57409807D01*
X56431919Y57230004D01*
X56431919Y57229997D01*
X56452177Y57050194D01*
X56452178Y57050188D01*
X56511943Y56879388D01*
X56608217Y56726170D01*
X56626981Y56707406D01*
X56660466Y56646083D01*
X56663300Y56619725D01*
X56663300Y56553757D01*
X56643615Y56486718D01*
X56590811Y56440963D01*
X56553184Y56430537D01*
X56529090Y56427823D01*
X56358287Y56368057D01*
X56205069Y56271783D01*
X56077117Y56143831D01*
X55980843Y55990613D01*
X55921078Y55819813D01*
X55921077Y55819807D01*
X55900819Y55640004D01*
X55900819Y55639997D01*
X55921077Y55460194D01*
X55921078Y55460188D01*
X55980843Y55289388D01*
X56077117Y55136170D01*
X56096981Y55116306D01*
X56130466Y55054983D01*
X56133300Y55028625D01*
X56133300Y37311375D01*
X56113615Y37244336D01*
X56096981Y37223694D01*
X56077117Y37203831D01*
X55980843Y37050613D01*
X55921078Y36879813D01*
X55921077Y36879807D01*
X55900819Y36700004D01*
X55900819Y36699997D01*
X55921077Y36520194D01*
X55921078Y36520188D01*
X55980843Y36349388D01*
X56041092Y36253503D01*
X56077117Y36196170D01*
X56205070Y36068217D01*
X56358287Y35971944D01*
X56529085Y35912179D01*
X56553182Y35909464D01*
X56617595Y35882400D01*
X56657152Y35824806D01*
X56663300Y35786244D01*
X56663300Y29690275D01*
X56643615Y29623236D01*
X56626981Y29602594D01*
X56608217Y29583831D01*
X56511943Y29430613D01*
X56452178Y29259813D01*
X56452177Y29259807D01*
X56431919Y29080004D01*
X56431919Y29079997D01*
X56452177Y28900194D01*
X56452178Y28900188D01*
X56511943Y28729388D01*
X56572192Y28633503D01*
X56608217Y28576170D01*
X56736170Y28448217D01*
X56889387Y28351944D01*
X57060185Y28292179D01*
X57060191Y28292179D01*
X57060193Y28292178D01*
X57239996Y28271919D01*
X57240000Y28271919D01*
X57240004Y28271919D01*
X57419806Y28292178D01*
X57419805Y28292178D01*
X57419815Y28292179D01*
X57590613Y28351944D01*
X57743830Y28448217D01*
X57871783Y28576170D01*
X57968056Y28729387D01*
X58027821Y28900185D01*
X58039051Y28999852D01*
X58048081Y29079997D01*
X58048081Y29080004D01*
X58027822Y29259807D01*
X58027821Y29259813D01*
X58027821Y29259815D01*
X57968056Y29430613D01*
X57871783Y29583830D01*
X57853019Y29602594D01*
X57819534Y29663917D01*
X57816700Y29690275D01*
X57816700Y34704624D01*
X57836385Y34771663D01*
X57889189Y34817418D01*
X57958347Y34827362D01*
X57973393Y34823685D01*
X57973403Y34823727D01*
X57980188Y34822178D01*
X58159996Y34801919D01*
X58160000Y34801919D01*
X58160004Y34801919D01*
X58339806Y34822178D01*
X58339805Y34822178D01*
X58339815Y34822179D01*
X58510613Y34881944D01*
X58663830Y34978217D01*
X58791783Y35106170D01*
X58888056Y35259387D01*
X58947821Y35430185D01*
X58952371Y35470569D01*
X58968081Y35609997D01*
X58968081Y35611980D01*
X58968443Y35613216D01*
X58968861Y35616919D01*
X58969509Y35616846D01*
X58987766Y35679019D01*
X59040570Y35724774D01*
X59109728Y35734718D01*
X59173284Y35705693D01*
X59179762Y35699661D01*
X60250171Y34629252D01*
X60283656Y34567929D01*
X60282265Y34509478D01*
X60249366Y34386698D01*
X60249364Y34386687D01*
X60229532Y34160002D01*
X60229532Y34159999D01*
X60249364Y33933314D01*
X60249366Y33933303D01*
X60308258Y33713512D01*
X60308261Y33713503D01*
X60404431Y33507268D01*
X60404432Y33507266D01*
X60534954Y33320859D01*
X60695858Y33159955D01*
X60695861Y33159953D01*
X60882266Y33029432D01*
X60940865Y33002107D01*
X60993305Y32955935D01*
X61012457Y32888742D01*
X60992242Y32821861D01*
X60940867Y32777343D01*
X60882511Y32750131D01*
X60809527Y32699028D01*
X60809526Y32699027D01*
X61490600Y32017954D01*
X61409852Y32005165D01*
X61296955Y31947641D01*
X61207359Y31858045D01*
X61149835Y31745148D01*
X61137046Y31664401D01*
X60455973Y32345474D01*
X60455972Y32345473D01*
X60404868Y32272487D01*
X60308734Y32066327D01*
X60308730Y32066318D01*
X60249860Y31846611D01*
X60249858Y31846600D01*
X60230034Y31620003D01*
X60230034Y31619998D01*
X60249858Y31393401D01*
X60249860Y31393390D01*
X60308730Y31173683D01*
X60308734Y31173674D01*
X60404865Y30967519D01*
X60404866Y30967517D01*
X60455973Y30894529D01*
X60455974Y30894528D01*
X61137046Y31575601D01*
X61149835Y31494852D01*
X61207359Y31381955D01*
X61296955Y31292359D01*
X61409852Y31234835D01*
X61490599Y31222047D01*
X60809526Y30540975D01*
X60809526Y30540974D01*
X60882512Y30489869D01*
X60882520Y30489865D01*
X60940865Y30462658D01*
X60993305Y30416486D01*
X61012457Y30349293D01*
X60992242Y30282411D01*
X60940867Y30237895D01*
X60882268Y30210569D01*
X60882264Y30210567D01*
X60695858Y30080046D01*
X60534954Y29919142D01*
X60404432Y29732735D01*
X60404431Y29732733D01*
X60308261Y29526498D01*
X60308258Y29526489D01*
X60249366Y29306698D01*
X60249364Y29306687D01*
X60229532Y29080002D01*
X60229532Y29079999D01*
X60249364Y28853314D01*
X60249366Y28853303D01*
X60308258Y28633512D01*
X60308261Y28633503D01*
X60404431Y28427268D01*
X60404432Y28427266D01*
X60534954Y28240859D01*
X60695858Y28079955D01*
X60695861Y28079953D01*
X60882266Y27949432D01*
X60940275Y27922382D01*
X60992714Y27876209D01*
X61011866Y27809016D01*
X60991650Y27742135D01*
X60940275Y27697618D01*
X60882267Y27670569D01*
X60882265Y27670568D01*
X60695858Y27540046D01*
X60534954Y27379142D01*
X60404432Y27192735D01*
X60404431Y27192733D01*
X60308261Y26986498D01*
X60308258Y26986489D01*
X60249366Y26766698D01*
X60249364Y26766687D01*
X60229532Y26540002D01*
X60229532Y26539999D01*
X60249364Y26313314D01*
X60249367Y26313300D01*
X60282264Y26190522D01*
X60280601Y26120673D01*
X60250170Y26070749D01*
X57461813Y23282391D01*
X57455710Y23277040D01*
X57428694Y23256308D01*
X57428693Y23256307D01*
X57415596Y23239239D01*
X57393021Y23209820D01*
X57336253Y23135839D01*
X57278144Y22995550D01*
X57278143Y22995548D01*
X57258324Y22845002D01*
X57258324Y22845000D01*
X57262769Y22811239D01*
X57263300Y22803138D01*
X57263300Y20660275D01*
X57243615Y20593236D01*
X57226981Y20572594D01*
X57208217Y20553831D01*
X57111943Y20400613D01*
X57052178Y20229813D01*
X57052177Y20229807D01*
X57031919Y20050004D01*
X57031919Y20049997D01*
X57052177Y19870191D01*
X57053729Y19863393D01*
X57051424Y19862868D01*
X57054410Y19804169D01*
X57019670Y19743548D01*
X56957671Y19711332D01*
X56947697Y19709795D01*
X56930190Y19707823D01*
X56759387Y19648057D01*
X56606169Y19551783D01*
X56478217Y19423831D01*
X56405694Y19308411D01*
X56353359Y19262120D01*
X56284305Y19251472D01*
X56220457Y19279847D01*
X56182085Y19338237D01*
X56176700Y19374383D01*
X56176700Y32089725D01*
X56196385Y32156764D01*
X56213019Y32177406D01*
X56221212Y32185599D01*
X56231783Y32196170D01*
X56328056Y32349387D01*
X56387821Y32520185D01*
X56391201Y32550185D01*
X56408081Y32699997D01*
X56408081Y32700004D01*
X56387822Y32879807D01*
X56387821Y32879813D01*
X56387821Y32879815D01*
X56328056Y33050613D01*
X56231783Y33203830D01*
X56103830Y33331783D01*
X56090824Y33339955D01*
X55950612Y33428057D01*
X55779812Y33487822D01*
X55779806Y33487823D01*
X55600004Y33508081D01*
X55599996Y33508081D01*
X55420193Y33487823D01*
X55420187Y33487822D01*
X55249387Y33428057D01*
X55096169Y33331783D01*
X54968217Y33203831D01*
X54871943Y33050613D01*
X54812178Y32879813D01*
X54812177Y32879807D01*
X54791919Y32700004D01*
X54791919Y32699997D01*
X53866700Y32699997D01*
X53866700Y46259725D01*
X53886385Y46326764D01*
X53903019Y46347406D01*
X53921783Y46366170D01*
X54018056Y46519387D01*
X54077821Y46690185D01*
X54088488Y46784855D01*
X54098081Y46869997D01*
X54098081Y46870004D01*
X54077822Y47049807D01*
X54077821Y47049813D01*
X54077821Y47049815D01*
X54018056Y47220613D01*
X53921783Y47373830D01*
X53793830Y47501783D01*
X53713118Y47552498D01*
X53640612Y47598057D01*
X53469812Y47657822D01*
X53469806Y47657823D01*
X53290004Y47678081D01*
X53289996Y47678081D01*
X53110193Y47657823D01*
X53110187Y47657822D01*
X52939387Y47598057D01*
X52786169Y47501783D01*
X52658217Y47373831D01*
X52561943Y47220613D01*
X52502178Y47049813D01*
X52502177Y47049807D01*
X52481919Y46870004D01*
X52481919Y46869997D01*
X52502177Y46690194D01*
X52502178Y46690188D01*
X52561943Y46519388D01*
X52658217Y46366170D01*
X52676981Y46347406D01*
X52710466Y46286083D01*
X52713300Y46259725D01*
X52713300Y26050275D01*
X52693615Y25983236D01*
X52676981Y25962594D01*
X52658217Y25943831D01*
X52561943Y25790613D01*
X52502178Y25619813D01*
X52502177Y25619807D01*
X52481919Y25440004D01*
X52481919Y25439997D01*
X51550500Y25439997D01*
X51550500Y58082820D01*
X51570185Y58149859D01*
X51600187Y58182086D01*
X51707546Y58262454D01*
X51793796Y58377669D01*
X51844091Y58512517D01*
X51850500Y58572127D01*
X51850499Y59420000D01*
X54854357Y59420000D01*
X54874884Y59198465D01*
X54874885Y59198463D01*
X54935769Y58984477D01*
X54935775Y58984462D01*
X55034938Y58785317D01*
X55034943Y58785309D01*
X55169020Y58607762D01*
X55333437Y58457877D01*
X55333439Y58457875D01*
X55522595Y58340755D01*
X55522596Y58340755D01*
X55522599Y58340753D01*
X55730060Y58260382D01*
X55948757Y58219500D01*
X55948759Y58219500D01*
X56171241Y58219500D01*
X56171243Y58219500D01*
X56389940Y58260382D01*
X56597401Y58340753D01*
X56786562Y58457876D01*
X56950981Y58607764D01*
X57085058Y58785311D01*
X57184229Y58984472D01*
X57245115Y59198464D01*
X57265643Y59420000D01*
X57265291Y59423794D01*
X57245115Y59641536D01*
X57245114Y59641538D01*
X57240965Y59656119D01*
X57184229Y59855528D01*
X57184224Y59855539D01*
X57085061Y60054684D01*
X57085056Y60054692D01*
X56950979Y60232239D01*
X56786562Y60382124D01*
X56786560Y60382126D01*
X56597404Y60499246D01*
X56597398Y60499249D01*
X56456504Y60553831D01*
X56402784Y60574642D01*
X56347385Y60617214D01*
X56323794Y60682981D01*
X56339505Y60751061D01*
X56389529Y60799840D01*
X56402786Y60805895D01*
X56597177Y60881203D01*
X56597181Y60881205D01*
X56713326Y60953121D01*
X56104401Y61562047D01*
X56185148Y61574835D01*
X56298045Y61632359D01*
X56387641Y61721955D01*
X56445165Y61834852D01*
X56457953Y61915600D01*
X57068861Y61304692D01*
X57084631Y61325575D01*
X57084633Y61325578D01*
X57183759Y61524650D01*
X57244621Y61738561D01*
X57265141Y61960000D01*
X57265141Y61960001D01*
X57244621Y62181440D01*
X57183759Y62395351D01*
X57084635Y62594420D01*
X57084630Y62594428D01*
X57068860Y62615310D01*
X56457953Y62004402D01*
X56445165Y62085148D01*
X56387641Y62198045D01*
X56298045Y62287641D01*
X56185148Y62345165D01*
X56104401Y62357954D01*
X56713327Y62966881D01*
X56597178Y63038798D01*
X56597177Y63038799D01*
X56389804Y63119135D01*
X56171193Y63160000D01*
X55948807Y63160000D01*
X55730195Y63119135D01*
X55522824Y63038800D01*
X55522823Y63038799D01*
X55406671Y62966881D01*
X56015599Y62357954D01*
X55934852Y62345165D01*
X55821955Y62287641D01*
X55732359Y62198045D01*
X55674835Y62085148D01*
X55662046Y62004401D01*
X55051138Y62615309D01*
X55051137Y62615309D01*
X55035368Y62594426D01*
X54936240Y62395351D01*
X54875378Y62181440D01*
X54854859Y61960001D01*
X54854859Y61960000D01*
X54875378Y61738561D01*
X54936240Y61524650D01*
X55035369Y61325572D01*
X55051137Y61304692D01*
X55051138Y61304692D01*
X55662046Y61915600D01*
X55674835Y61834852D01*
X55732359Y61721955D01*
X55821955Y61632359D01*
X55934852Y61574835D01*
X56015599Y61562047D01*
X55406672Y60953121D01*
X55406672Y60953120D01*
X55522821Y60881203D01*
X55522822Y60881202D01*
X55717213Y60805895D01*
X55772614Y60763322D01*
X55796205Y60697555D01*
X55780494Y60629475D01*
X55730470Y60580696D01*
X55717213Y60574641D01*
X55522601Y60499249D01*
X55522595Y60499246D01*
X55333439Y60382126D01*
X55333437Y60382124D01*
X55169020Y60232239D01*
X55034943Y60054692D01*
X55034938Y60054684D01*
X54935775Y59855539D01*
X54935769Y59855524D01*
X54874885Y59641538D01*
X54874884Y59641536D01*
X54854357Y59420001D01*
X54854357Y59420000D01*
X51850499Y59420000D01*
X51850499Y60267872D01*
X51844091Y60327483D01*
X51838513Y60342438D01*
X51793797Y60462329D01*
X51793793Y60462336D01*
X51707547Y60577545D01*
X51707544Y60577548D01*
X51592335Y60663794D01*
X51592328Y60663798D01*
X51457482Y60714092D01*
X51457483Y60714092D01*
X51397883Y60720499D01*
X51397881Y60720500D01*
X51397873Y60720500D01*
X51397864Y60720500D01*
X51394548Y60720678D01*
X51394627Y60722153D01*
X51333215Y60740185D01*
X51287460Y60792989D01*
X51279969Y60836478D01*
X50594401Y61522047D01*
X50675148Y61534835D01*
X50788045Y61592359D01*
X50877641Y61681955D01*
X50935165Y61794852D01*
X50947953Y61875600D01*
X51629025Y61194528D01*
X51680136Y61267522D01*
X51776264Y61473669D01*
X51776269Y61473683D01*
X51835139Y61693390D01*
X51835141Y61693401D01*
X51854966Y61919998D01*
X51854966Y61920003D01*
X51835141Y62146600D01*
X51835139Y62146611D01*
X51776269Y62366318D01*
X51776265Y62366327D01*
X51680133Y62572484D01*
X51680131Y62572488D01*
X51629026Y62645474D01*
X51629025Y62645474D01*
X50947953Y61964402D01*
X50935165Y62045148D01*
X50877641Y62158045D01*
X50788045Y62247641D01*
X50675148Y62305165D01*
X50594400Y62317954D01*
X51275472Y62999026D01*
X51275471Y62999027D01*
X51202483Y63050134D01*
X51202481Y63050135D01*
X50996326Y63146266D01*
X50996317Y63146270D01*
X50776610Y63205140D01*
X50776599Y63205142D01*
X50550002Y63224966D01*
X50549998Y63224966D01*
X50323400Y63205142D01*
X50323389Y63205140D01*
X50103682Y63146270D01*
X50103673Y63146266D01*
X49897513Y63050132D01*
X49824527Y62999028D01*
X49824526Y62999027D01*
X50505600Y62317954D01*
X50424852Y62305165D01*
X50311955Y62247641D01*
X50222359Y62158045D01*
X50164835Y62045148D01*
X50152046Y61964401D01*
X49470973Y62645474D01*
X49470972Y62645473D01*
X49419868Y62572487D01*
X49323734Y62366327D01*
X49323730Y62366318D01*
X49264860Y62146611D01*
X49264858Y62146600D01*
X49245034Y61920003D01*
X49245034Y61919998D01*
X49264858Y61693401D01*
X49264860Y61693390D01*
X49323730Y61473683D01*
X49323734Y61473674D01*
X49419865Y61267519D01*
X49419866Y61267517D01*
X49470973Y61194529D01*
X49470974Y61194528D01*
X50152046Y61875601D01*
X50164835Y61794852D01*
X50222359Y61681955D01*
X50311955Y61592359D01*
X50424852Y61534835D01*
X50505599Y61522047D01*
X49819351Y60835800D01*
X49809505Y60786806D01*
X49760889Y60736624D01*
X49705367Y60721952D01*
X49705423Y60720901D01*
X49705429Y60720854D01*
X49705426Y60720854D01*
X49705436Y60720676D01*
X49702123Y60720499D01*
X49642516Y60714092D01*
X49507671Y60663798D01*
X49507664Y60663794D01*
X49392455Y60577548D01*
X49392452Y60577545D01*
X49306206Y60462336D01*
X49306202Y60462329D01*
X49255908Y60327483D01*
X49250454Y60276746D01*
X49249501Y60267877D01*
X49249500Y60267865D01*
X49249500Y58572130D01*
X49249501Y58572124D01*
X49255908Y58512517D01*
X49306202Y58377672D01*
X49306206Y58377665D01*
X49358803Y58307406D01*
X49392454Y58262454D01*
X49499811Y58182086D01*
X49541682Y58126153D01*
X49549500Y58082820D01*
X49549500Y57653208D01*
X49529815Y57586169D01*
X49477011Y57540414D01*
X49407853Y57530470D01*
X49384549Y57536165D01*
X49379813Y57537822D01*
X49200004Y57558081D01*
X49199996Y57558081D01*
X49020193Y57537823D01*
X49020187Y57537822D01*
X48849387Y57478057D01*
X48696169Y57381783D01*
X48568217Y57253831D01*
X48471943Y57100613D01*
X48412178Y56929813D01*
X48412177Y56929807D01*
X48391919Y56750004D01*
X48391919Y56749997D01*
X48412177Y56570194D01*
X48412178Y56570188D01*
X48471943Y56399388D01*
X48568217Y56246170D01*
X48626981Y56187406D01*
X48660466Y56126083D01*
X48663300Y56099725D01*
X48663300Y48146639D01*
X48643615Y48079600D01*
X48590811Y48033845D01*
X48521653Y48023901D01*
X48458097Y48052926D01*
X48451619Y48058958D01*
X47579828Y48930749D01*
X47546343Y48992072D01*
X47547733Y49050522D01*
X47580635Y49173308D01*
X47600468Y49400000D01*
X47596968Y49440000D01*
X47581237Y49619807D01*
X47580635Y49626692D01*
X47525579Y49832166D01*
X47521741Y49846489D01*
X47521738Y49846498D01*
X47511672Y49868085D01*
X47425568Y50052734D01*
X47302971Y50227822D01*
X47295045Y50239142D01*
X47134143Y50400044D01*
X47109536Y50417274D01*
X47065912Y50471851D01*
X47058719Y50541350D01*
X47090241Y50603704D01*
X47150471Y50639118D01*
X47167404Y50642139D01*
X47202483Y50645909D01*
X47337331Y50696204D01*
X47452546Y50782454D01*
X47538796Y50897669D01*
X47589091Y51032517D01*
X47595500Y51092127D01*
X47595499Y52787872D01*
X47589091Y52847483D01*
X47538796Y52982331D01*
X47538795Y52982332D01*
X47538793Y52982336D01*
X47452547Y53097545D01*
X47452544Y53097548D01*
X47337335Y53183794D01*
X47337328Y53183798D01*
X47202482Y53234092D01*
X47202483Y53234092D01*
X47142883Y53240499D01*
X47142881Y53240500D01*
X47142873Y53240500D01*
X47142864Y53240500D01*
X45447129Y53240500D01*
X45447123Y53240499D01*
X45387516Y53234092D01*
X45252671Y53183798D01*
X45252664Y53183794D01*
X45137455Y53097548D01*
X45137452Y53097545D01*
X45051206Y52982336D01*
X45051202Y52982329D01*
X45000908Y52847483D01*
X44997372Y52814587D01*
X44994501Y52787877D01*
X44994500Y52787865D01*
X44994500Y51092130D01*
X44994501Y51092124D01*
X45000908Y51032517D01*
X45051202Y50897672D01*
X45051206Y50897665D01*
X45137452Y50782456D01*
X45137455Y50782453D01*
X45252664Y50696207D01*
X45252671Y50696203D01*
X45284046Y50684501D01*
X45387517Y50645909D01*
X45422596Y50642138D01*
X45487144Y50615401D01*
X45526993Y50558009D01*
X45529488Y50488184D01*
X45493836Y50428095D01*
X45480464Y50417275D01*
X45455858Y50400046D01*
X45294954Y50239142D01*
X45164430Y50052732D01*
X45159273Y50041672D01*
X45113098Y49989235D01*
X45045904Y49970086D01*
X44979023Y49990305D01*
X44959212Y50006401D01*
X44893830Y50071783D01*
X44740612Y50168057D01*
X44569812Y50227822D01*
X44569806Y50227823D01*
X44390004Y50248081D01*
X44389996Y50248081D01*
X44210193Y50227823D01*
X44210187Y50227822D01*
X44039387Y50168057D01*
X43886169Y50071783D01*
X43758217Y49943831D01*
X43661943Y49790613D01*
X43602178Y49619813D01*
X43602177Y49619807D01*
X43581919Y49440004D01*
X43581919Y49439997D01*
X43602177Y49260194D01*
X43602178Y49260188D01*
X43661943Y49089388D01*
X43758217Y48936170D01*
X43776981Y48917406D01*
X43810466Y48856083D01*
X43813300Y48829725D01*
X43813300Y43726865D01*
X43812769Y43718764D01*
X43808324Y43685002D01*
X43808324Y43684998D01*
X43811544Y43660537D01*
X43813300Y43647204D01*
X43813300Y43647203D01*
X43824528Y43561919D01*
X43828144Y43534451D01*
X43841676Y43501783D01*
X43886253Y43394163D01*
X43942157Y43321307D01*
X43978690Y43273696D01*
X43978691Y43273695D01*
X43978693Y43273693D01*
X43993533Y43262306D01*
X44005711Y43252961D01*
X44011806Y43247617D01*
X44540073Y42719350D01*
X45010171Y42249252D01*
X45043656Y42187929D01*
X45042265Y42129478D01*
X45009366Y42006698D01*
X45009364Y42006687D01*
X44989532Y41780002D01*
X44989532Y41779999D01*
X45009364Y41553314D01*
X45009366Y41553303D01*
X45068258Y41333512D01*
X45068261Y41333503D01*
X45164431Y41127268D01*
X45164432Y41127266D01*
X45294954Y40940859D01*
X45455858Y40779955D01*
X45455861Y40779953D01*
X45642266Y40649432D01*
X45679827Y40631917D01*
X45700275Y40622382D01*
X45752714Y40576209D01*
X45771866Y40509016D01*
X45751650Y40442135D01*
X45700275Y40397618D01*
X45642267Y40370569D01*
X45642265Y40370568D01*
X45455858Y40240046D01*
X45294954Y40079142D01*
X45164432Y39892735D01*
X45164431Y39892733D01*
X45068261Y39686498D01*
X45068258Y39686489D01*
X45009366Y39466698D01*
X45009364Y39466687D01*
X44989532Y39240002D01*
X44989532Y39239999D01*
X45009364Y39013314D01*
X45009366Y39013303D01*
X45068258Y38793512D01*
X45068261Y38793503D01*
X45164431Y38587268D01*
X45164432Y38587266D01*
X45294954Y38400859D01*
X45455858Y38239955D01*
X45455861Y38239953D01*
X45642266Y38109432D01*
X45695353Y38084677D01*
X45700275Y38082382D01*
X45752714Y38036209D01*
X45771866Y37969016D01*
X45751650Y37902135D01*
X45700275Y37857618D01*
X45642267Y37830569D01*
X45642265Y37830568D01*
X45455858Y37700046D01*
X45294954Y37539142D01*
X45164432Y37352735D01*
X45164431Y37352733D01*
X45068261Y37146498D01*
X45068258Y37146489D01*
X45009366Y36926698D01*
X45009364Y36926687D01*
X44989532Y36700002D01*
X44989532Y36699999D01*
X45009364Y36473314D01*
X45009366Y36473303D01*
X45068258Y36253512D01*
X45068261Y36253503D01*
X45164431Y36047268D01*
X45164432Y36047266D01*
X45294954Y35860859D01*
X45455858Y35699955D01*
X45455861Y35699953D01*
X45642266Y35569432D01*
X45695353Y35544677D01*
X45700275Y35542382D01*
X45752714Y35496209D01*
X45771866Y35429016D01*
X45751650Y35362135D01*
X45700275Y35317618D01*
X45642267Y35290569D01*
X45642265Y35290568D01*
X45455858Y35160046D01*
X45294954Y34999142D01*
X45164432Y34812735D01*
X45164431Y34812733D01*
X45068261Y34606498D01*
X45068258Y34606489D01*
X45009366Y34386698D01*
X45009364Y34386687D01*
X44989532Y34160002D01*
X44989532Y34159999D01*
X45009364Y33933314D01*
X45009366Y33933303D01*
X45068258Y33713512D01*
X45068261Y33713503D01*
X45164431Y33507268D01*
X45164432Y33507266D01*
X45294954Y33320859D01*
X45455858Y33159955D01*
X45455861Y33159953D01*
X45642266Y33029432D01*
X45695353Y33004677D01*
X45700275Y33002382D01*
X45752714Y32956209D01*
X45771866Y32889016D01*
X45751650Y32822135D01*
X45700275Y32777618D01*
X45642267Y32750569D01*
X45642265Y32750568D01*
X45455858Y32620046D01*
X45294954Y32459142D01*
X45164432Y32272735D01*
X45164431Y32272733D01*
X45068261Y32066498D01*
X45068258Y32066489D01*
X45009366Y31846698D01*
X45009364Y31846687D01*
X44989532Y31620002D01*
X44989532Y31619999D01*
X45009364Y31393314D01*
X45009366Y31393303D01*
X45068258Y31173512D01*
X45068261Y31173503D01*
X45164431Y30967268D01*
X45164432Y30967266D01*
X45294954Y30780859D01*
X45455858Y30619955D01*
X45455861Y30619953D01*
X45642266Y30489432D01*
X45700275Y30462382D01*
X45752714Y30416209D01*
X45771866Y30349016D01*
X45751650Y30282135D01*
X45700275Y30237618D01*
X45642267Y30210569D01*
X45642265Y30210568D01*
X45455858Y30080046D01*
X45294954Y29919142D01*
X45164432Y29732735D01*
X45164431Y29732733D01*
X45068261Y29526498D01*
X45068258Y29526489D01*
X45009366Y29306698D01*
X45009364Y29306687D01*
X44989532Y29080002D01*
X44989532Y29079999D01*
X45009364Y28853314D01*
X45009366Y28853303D01*
X45068258Y28633512D01*
X45068261Y28633503D01*
X45164431Y28427268D01*
X45164432Y28427266D01*
X45294954Y28240859D01*
X45455858Y28079955D01*
X45455861Y28079953D01*
X45642266Y27949432D01*
X45700275Y27922382D01*
X45752714Y27876209D01*
X45771866Y27809016D01*
X45751650Y27742135D01*
X45700275Y27697618D01*
X45642267Y27670569D01*
X45642265Y27670568D01*
X45455858Y27540046D01*
X45294954Y27379142D01*
X45164432Y27192735D01*
X45164431Y27192733D01*
X45068261Y26986498D01*
X45068258Y26986489D01*
X45009366Y26766698D01*
X45009364Y26766687D01*
X44989532Y26540002D01*
X44989532Y26539999D01*
X45009364Y26313314D01*
X45009366Y26313303D01*
X45068258Y26093512D01*
X45068261Y26093503D01*
X45164431Y25887268D01*
X45164432Y25887266D01*
X45294954Y25700859D01*
X45455858Y25539955D01*
X45455861Y25539953D01*
X45642266Y25409432D01*
X45700275Y25382382D01*
X45752714Y25336209D01*
X45771866Y25269016D01*
X45751650Y25202135D01*
X45700275Y25157619D01*
X45683272Y25149690D01*
X45642267Y25130569D01*
X45642265Y25130568D01*
X45455858Y25000046D01*
X45294954Y24839142D01*
X45164432Y24652735D01*
X45164431Y24652733D01*
X45068261Y24446498D01*
X45068258Y24446489D01*
X45009366Y24226698D01*
X45009364Y24226687D01*
X44989532Y24000002D01*
X44989532Y23999999D01*
X45009364Y23773314D01*
X45009366Y23773303D01*
X45068258Y23553512D01*
X45068261Y23553503D01*
X45164431Y23347268D01*
X45164432Y23347266D01*
X45294954Y23160859D01*
X45455858Y22999955D01*
X45462152Y22995548D01*
X45642266Y22869432D01*
X45700275Y22842382D01*
X45752714Y22796209D01*
X45771866Y22729016D01*
X45751650Y22662135D01*
X45700275Y22617618D01*
X45642267Y22590569D01*
X45642265Y22590568D01*
X45455858Y22460046D01*
X45294954Y22299142D01*
X45164432Y22112735D01*
X45164431Y22112733D01*
X45068261Y21906498D01*
X45068258Y21906489D01*
X45009366Y21686698D01*
X45009364Y21686687D01*
X44989532Y21460002D01*
X44989532Y21459999D01*
X45009364Y21233314D01*
X45009367Y21233300D01*
X45042264Y21110522D01*
X45040601Y21040673D01*
X45010170Y20990749D01*
X43851814Y19832393D01*
X43845716Y19827044D01*
X43841542Y19823841D01*
X43836194Y19819738D01*
X43771030Y19794537D01*
X43702584Y19808568D01*
X43652589Y19857377D01*
X43636700Y19918106D01*
X43636700Y30742988D01*
X43656385Y30810027D01*
X43709189Y30855782D01*
X43746812Y30866208D01*
X43799815Y30872179D01*
X43799819Y30872181D01*
X43799822Y30872181D01*
X43970610Y30931943D01*
X43970609Y30931943D01*
X43970613Y30931944D01*
X44123830Y31028217D01*
X44251783Y31156170D01*
X44348056Y31309387D01*
X44407821Y31480185D01*
X44415073Y31544549D01*
X44428081Y31659997D01*
X44428081Y31660004D01*
X44407822Y31839807D01*
X44407821Y31839813D01*
X44407821Y31839815D01*
X44348056Y32010613D01*
X44251783Y32163830D01*
X44233019Y32182594D01*
X44199534Y32243917D01*
X44196700Y32270275D01*
X44196700Y32999725D01*
X44216385Y33066764D01*
X44233019Y33087406D01*
X44234356Y33088743D01*
X44251783Y33106170D01*
X44348056Y33259387D01*
X44407821Y33430185D01*
X44416598Y33508081D01*
X44428081Y33609997D01*
X44428081Y33610004D01*
X44407822Y33789807D01*
X44407821Y33789813D01*
X44407821Y33789815D01*
X44348056Y33960613D01*
X44251783Y34113830D01*
X44123830Y34241783D01*
X43970613Y34338056D01*
X43970614Y34338056D01*
X43970612Y34338057D01*
X43903703Y34361469D01*
X43846927Y34402190D01*
X43827616Y34437556D01*
X43817055Y34467737D01*
X43788056Y34550613D01*
X43691783Y34703830D01*
X43563830Y34831783D01*
X43410612Y34928057D01*
X43239809Y34987823D01*
X43176816Y34994920D01*
X43112402Y35021987D01*
X43072847Y35079581D01*
X43066700Y35118140D01*
X43066700Y43749725D01*
X43086385Y43816764D01*
X43103019Y43837406D01*
X43121783Y43856170D01*
X43218056Y44009387D01*
X43277821Y44180185D01*
X43283553Y44231062D01*
X43298081Y44359997D01*
X43298081Y44360004D01*
X43277822Y44539807D01*
X43277821Y44539813D01*
X43277821Y44539815D01*
X43218056Y44710613D01*
X43121783Y44863830D01*
X42993830Y44991783D01*
X42991573Y44993201D01*
X42840612Y45088057D01*
X42669812Y45147822D01*
X42669808Y45147823D01*
X42636815Y45151540D01*
X42572402Y45178607D01*
X42532847Y45236202D01*
X42526700Y45274760D01*
X42526700Y45393138D01*
X42527231Y45401239D01*
X42531676Y45435000D01*
X42531676Y45435002D01*
X42511856Y45585548D01*
X42511856Y45585549D01*
X42453746Y45725838D01*
X42395439Y45801826D01*
X42383260Y45817698D01*
X42383252Y45817708D01*
X42379074Y45823152D01*
X42361307Y45846307D01*
X42352062Y45853401D01*
X42334283Y45867044D01*
X42328180Y45872397D01*
X41764828Y46435749D01*
X41731343Y46497072D01*
X41732733Y46555522D01*
X41765635Y46678308D01*
X41785468Y46905000D01*
X41765635Y47131692D01*
X41717608Y47310931D01*
X41706741Y47351489D01*
X41706738Y47351498D01*
X41610568Y47557734D01*
X41480047Y47744139D01*
X41480045Y47744142D01*
X41319141Y47905046D01*
X41132734Y48035568D01*
X41132728Y48035571D01*
X41074725Y48062618D01*
X41022285Y48108790D01*
X41003133Y48175983D01*
X41023348Y48242865D01*
X41074725Y48287382D01*
X41132734Y48314432D01*
X41319139Y48444953D01*
X41480047Y48605861D01*
X41610568Y48792266D01*
X41706739Y48998504D01*
X41765635Y49218308D01*
X41785468Y49445000D01*
X41765635Y49671692D01*
X41717608Y49850931D01*
X41706741Y49891489D01*
X41706738Y49891498D01*
X41610568Y50097734D01*
X41480047Y50284139D01*
X41480045Y50284142D01*
X41319141Y50445046D01*
X41132734Y50575568D01*
X41132728Y50575571D01*
X41074725Y50602618D01*
X41022285Y50648790D01*
X41003133Y50715983D01*
X41023348Y50782865D01*
X41074725Y50827382D01*
X41132734Y50854432D01*
X41319139Y50984953D01*
X41480047Y51145861D01*
X41610568Y51332266D01*
X41706739Y51538504D01*
X41765635Y51758308D01*
X41785468Y51985000D01*
X41765635Y52211692D01*
X41717608Y52390931D01*
X41706741Y52431489D01*
X41706738Y52431498D01*
X41610568Y52637734D01*
X41505441Y52787872D01*
X41480045Y52824142D01*
X41319141Y52985046D01*
X41132731Y53115570D01*
X41132730Y53115571D01*
X41132081Y53115873D01*
X41131843Y53116083D01*
X41128039Y53118279D01*
X41128480Y53119044D01*
X41079648Y53162053D01*
X41060500Y53228249D01*
X41060500Y54227412D01*
X41080185Y54294451D01*
X41082925Y54298535D01*
X41083820Y54299813D01*
X41190568Y54452266D01*
X41286739Y54658504D01*
X41345635Y54878308D01*
X41363821Y55086170D01*
X41365468Y55104999D01*
X41365468Y55105002D01*
X41355608Y55217695D01*
X41345635Y55331692D01*
X41286739Y55551496D01*
X41190568Y55757734D01*
X41084555Y55909139D01*
X41082924Y55911468D01*
X41060597Y55977674D01*
X41060500Y55982590D01*
X41060500Y60127285D01*
X41062757Y60216359D01*
X41062756Y60216360D01*
X41062757Y60216363D01*
X41051933Y60276751D01*
X41051280Y60281413D01*
X41045074Y60342437D01*
X41045074Y60342438D01*
X41034784Y60375232D01*
X41032917Y60382845D01*
X41026858Y60416652D01*
X41025228Y60420733D01*
X41004095Y60473639D01*
X41002527Y60478045D01*
X40993367Y60507240D01*
X40984161Y60536584D01*
X40984160Y60536586D01*
X40974588Y60553830D01*
X40967491Y60566617D01*
X40964124Y60573705D01*
X40951378Y60605617D01*
X40917612Y60656850D01*
X40915183Y60660858D01*
X40901602Y60685327D01*
X40886281Y60753494D01*
X40910246Y60819125D01*
X40965890Y60861381D01*
X41010023Y60869501D01*
X41762871Y60869501D01*
X41762872Y60869501D01*
X41822483Y60875909D01*
X41957331Y60926204D01*
X42072546Y61012454D01*
X42158796Y61127669D01*
X42158798Y61127674D01*
X42187455Y61204507D01*
X42229326Y61260441D01*
X42294790Y61284859D01*
X42363063Y61270008D01*
X42394866Y61245157D01*
X42396324Y61243574D01*
X42403215Y61236088D01*
X42403222Y61236082D01*
X42586365Y61093536D01*
X42586371Y61093532D01*
X42586374Y61093530D01*
X42790497Y60983064D01*
X42877718Y60953121D01*
X43010015Y60907703D01*
X43010017Y60907703D01*
X43010019Y60907702D01*
X43238951Y60869500D01*
X43238952Y60869500D01*
X43471048Y60869500D01*
X43471049Y60869500D01*
X43699981Y60907702D01*
X43919503Y60983064D01*
X44123626Y61093530D01*
X44153136Y61116498D01*
X44251373Y61192959D01*
X44306784Y61236087D01*
X44463979Y61406847D01*
X44590924Y61601151D01*
X44684157Y61813700D01*
X44741134Y62038695D01*
X44741669Y62045148D01*
X44760300Y62269994D01*
X44760300Y62270007D01*
X44741135Y62501298D01*
X44741133Y62501309D01*
X44684157Y62726301D01*
X44590924Y62938849D01*
X44463983Y63133148D01*
X44463980Y63133151D01*
X44463979Y63133153D01*
X44306784Y63303913D01*
X44306779Y63303917D01*
X44306777Y63303919D01*
X44123634Y63446465D01*
X44123628Y63446469D01*
X43919504Y63556936D01*
X43919495Y63556939D01*
X43699984Y63632298D01*
X43509450Y63664092D01*
X43471049Y63670500D01*
X43238951Y63670500D01*
X43200550Y63664092D01*
X43010015Y63632298D01*
X42790504Y63556939D01*
X42790495Y63556936D01*
X42586371Y63446469D01*
X42586365Y63446465D01*
X42403222Y63303919D01*
X42403218Y63303915D01*
X42394866Y63294842D01*
X42334979Y63258852D01*
X42265141Y63260953D01*
X42207525Y63300478D01*
X42187455Y63335493D01*
X42158797Y63412329D01*
X42158793Y63412336D01*
X42072547Y63527545D01*
X42072544Y63527548D01*
X41957335Y63613794D01*
X41957328Y63613798D01*
X41822482Y63664092D01*
X41822483Y63664092D01*
X41762883Y63670499D01*
X41762881Y63670500D01*
X41762873Y63670500D01*
X41762864Y63670500D01*
X39867129Y63670500D01*
X39867123Y63670499D01*
X39807516Y63664092D01*
X39672671Y63613798D01*
X39672664Y63613794D01*
X39557455Y63527548D01*
X39557452Y63527545D01*
X39471206Y63412336D01*
X39471202Y63412329D01*
X39420908Y63277483D01*
X39414501Y63217884D01*
X39414500Y63217865D01*
X39414500Y62499782D01*
X39394815Y62432743D01*
X39342011Y62386988D01*
X39272853Y62377044D01*
X39209297Y62406069D01*
X39202819Y62412101D01*
X38896887Y62718033D01*
X38863402Y62779356D01*
X38861040Y62794907D01*
X38855635Y62856688D01*
X38855635Y62856692D01*
X38796739Y63076496D01*
X38700568Y63282734D01*
X38570047Y63469139D01*
X38570045Y63469142D01*
X38409141Y63630046D01*
X38222734Y63760568D01*
X38222732Y63760569D01*
X38016497Y63856739D01*
X38016488Y63856742D01*
X37796697Y63915634D01*
X37796693Y63915635D01*
X37796692Y63915635D01*
X37796691Y63915636D01*
X37796686Y63915636D01*
X37570002Y63935468D01*
X37569998Y63935468D01*
X37343313Y63915636D01*
X37343302Y63915634D01*
X37123511Y63856742D01*
X37123502Y63856739D01*
X36917267Y63760569D01*
X36917265Y63760568D01*
X36730858Y63630046D01*
X36569954Y63469142D01*
X36439432Y63282735D01*
X36439431Y63282733D01*
X36343261Y63076498D01*
X36343258Y63076489D01*
X36284366Y62856698D01*
X36284364Y62856687D01*
X36264532Y62630002D01*
X36264532Y62629999D01*
X36284364Y62403314D01*
X36284366Y62403303D01*
X36343258Y62183512D01*
X36343261Y62183503D01*
X36439431Y61977268D01*
X36439432Y61977266D01*
X36569954Y61790859D01*
X36730858Y61629955D01*
X36730861Y61629953D01*
X36917266Y61499432D01*
X37123504Y61403261D01*
X37123509Y61403260D01*
X37123511Y61403259D01*
X37142929Y61398056D01*
X37343308Y61344365D01*
X37405091Y61338961D01*
X37470158Y61313510D01*
X37481965Y61303114D01*
X37701819Y61083260D01*
X37735304Y61021937D01*
X37730320Y60952245D01*
X37688448Y60896312D01*
X37622984Y60871895D01*
X37603334Y60872051D01*
X37570006Y60874966D01*
X37569998Y60874966D01*
X37343400Y60855142D01*
X37343389Y60855140D01*
X37123682Y60796270D01*
X37123673Y60796266D01*
X36917513Y60700132D01*
X36844526Y60649027D01*
X37525599Y59967954D01*
X37444852Y59955165D01*
X37331955Y59897641D01*
X37242359Y59808045D01*
X37184835Y59695148D01*
X37172046Y59614401D01*
X36490973Y60295474D01*
X36490972Y60295473D01*
X36439868Y60222487D01*
X36343734Y60016327D01*
X36343730Y60016318D01*
X36284860Y59796611D01*
X36284858Y59796600D01*
X36265034Y59570003D01*
X36265034Y59569998D01*
X36284858Y59343401D01*
X36284860Y59343390D01*
X36343730Y59123683D01*
X36343734Y59123674D01*
X36439865Y58917519D01*
X36439866Y58917517D01*
X36490973Y58844529D01*
X36490974Y58844528D01*
X37172046Y59525601D01*
X37184835Y59444852D01*
X37242359Y59331955D01*
X37331955Y59242359D01*
X37444852Y59184835D01*
X37525599Y59172047D01*
X36844526Y58490975D01*
X36844526Y58490974D01*
X36917512Y58439869D01*
X36917516Y58439867D01*
X37123673Y58343735D01*
X37123682Y58343731D01*
X37343389Y58284861D01*
X37343400Y58284859D01*
X37569998Y58265034D01*
X37570002Y58265034D01*
X37796599Y58284859D01*
X37796610Y58284861D01*
X38016317Y58343731D01*
X38016331Y58343736D01*
X38222478Y58439864D01*
X38295472Y58490975D01*
X37614401Y59172047D01*
X37695148Y59184835D01*
X37808045Y59242359D01*
X37897641Y59331955D01*
X37955165Y59444852D01*
X37967953Y59525600D01*
X38649025Y58844528D01*
X38700136Y58917522D01*
X38796264Y59123669D01*
X38796269Y59123683D01*
X38815725Y59196293D01*
X38852090Y59255954D01*
X38914937Y59286483D01*
X38984312Y59278188D01*
X39038190Y59233703D01*
X39059465Y59167151D01*
X39059500Y59164200D01*
X39059500Y55982590D01*
X39039815Y55915551D01*
X39037076Y55911468D01*
X38929431Y55757733D01*
X38929430Y55757731D01*
X38922105Y55742022D01*
X38875931Y55689583D01*
X38808737Y55670433D01*
X38741857Y55690650D01*
X38697341Y55742026D01*
X38690132Y55757485D01*
X38690131Y55757488D01*
X38639026Y55830474D01*
X38639025Y55830474D01*
X37957953Y55149402D01*
X37945165Y55230148D01*
X37887641Y55343045D01*
X37798045Y55432641D01*
X37685148Y55490165D01*
X37604400Y55502954D01*
X38285472Y56184026D01*
X38285471Y56184027D01*
X38212483Y56235134D01*
X38212481Y56235135D01*
X38006326Y56331266D01*
X38006317Y56331270D01*
X37786610Y56390140D01*
X37786599Y56390142D01*
X37560002Y56409966D01*
X37559998Y56409966D01*
X37333400Y56390142D01*
X37333389Y56390140D01*
X37113682Y56331270D01*
X37113673Y56331266D01*
X36907513Y56235132D01*
X36834527Y56184028D01*
X36834526Y56184027D01*
X37515600Y55502954D01*
X37434852Y55490165D01*
X37321955Y55432641D01*
X37232359Y55343045D01*
X37174835Y55230148D01*
X37162046Y55149401D01*
X36480973Y55830474D01*
X36480972Y55830473D01*
X36429868Y55757487D01*
X36333734Y55551327D01*
X36333730Y55551318D01*
X36274860Y55331611D01*
X36274858Y55331600D01*
X36255034Y55105003D01*
X36255034Y55104998D01*
X36274858Y54878401D01*
X36274860Y54878390D01*
X36333730Y54658683D01*
X36333734Y54658674D01*
X36429865Y54452519D01*
X36429866Y54452517D01*
X36480973Y54379529D01*
X36480974Y54379528D01*
X37162046Y55060601D01*
X37174835Y54979852D01*
X37232359Y54866955D01*
X37321955Y54777359D01*
X37434852Y54719835D01*
X37515599Y54707047D01*
X36834526Y54025975D01*
X36834526Y54025974D01*
X36907512Y53974869D01*
X36907516Y53974867D01*
X37113673Y53878735D01*
X37113682Y53878731D01*
X37333389Y53819861D01*
X37333400Y53819859D01*
X37559998Y53800034D01*
X37560002Y53800034D01*
X37786599Y53819859D01*
X37786610Y53819861D01*
X38006317Y53878731D01*
X38006331Y53878736D01*
X38212478Y53974864D01*
X38285472Y54025975D01*
X37604401Y54707047D01*
X37685148Y54719835D01*
X37798045Y54777359D01*
X37887641Y54866955D01*
X37945165Y54979852D01*
X37957953Y55060600D01*
X38639025Y54379528D01*
X38690134Y54452519D01*
X38697340Y54467972D01*
X38743511Y54520413D01*
X38810704Y54539567D01*
X38877585Y54519354D01*
X38922105Y54467978D01*
X38929432Y54452266D01*
X39036178Y54299815D01*
X39037075Y54298535D01*
X39059402Y54232329D01*
X39059500Y54227412D01*
X39059500Y52417717D01*
X39057243Y52328638D01*
X39057243Y52328630D01*
X39068064Y52268261D01*
X39068718Y52263596D01*
X39074925Y52202570D01*
X39074927Y52202556D01*
X39085208Y52169787D01*
X39087079Y52162163D01*
X39093142Y52128348D01*
X39093142Y52128345D01*
X39115894Y52071388D01*
X39117474Y52066949D01*
X39135841Y52008412D01*
X39135844Y52008405D01*
X39152509Y51978381D01*
X39155879Y51971285D01*
X39168619Y51939392D01*
X39168623Y51939383D01*
X39168626Y51939378D01*
X39169053Y51938561D01*
X39169331Y51937609D01*
X39170955Y51933544D01*
X39170564Y51933389D01*
X39182672Y51891957D01*
X39194364Y51758313D01*
X39194366Y51758303D01*
X39253258Y51538512D01*
X39253261Y51538503D01*
X39349431Y51332268D01*
X39349432Y51332266D01*
X39479954Y51145859D01*
X39640858Y50984955D01*
X39640861Y50984953D01*
X39827266Y50854432D01*
X39885275Y50827382D01*
X39937714Y50781209D01*
X39956866Y50714016D01*
X39936650Y50647135D01*
X39885275Y50602618D01*
X39827267Y50575569D01*
X39747748Y50519890D01*
X39681542Y50497563D01*
X39613774Y50514575D01*
X39565962Y50565524D01*
X39559584Y50580511D01*
X39557541Y50586350D01*
X39528056Y50670613D01*
X39431783Y50823830D01*
X39303830Y50951783D01*
X39273108Y50971087D01*
X39150612Y51048057D01*
X38979812Y51107822D01*
X38979806Y51107823D01*
X38800004Y51128081D01*
X38799996Y51128081D01*
X38620193Y51107823D01*
X38620187Y51107822D01*
X38449387Y51048057D01*
X38296169Y50951783D01*
X38168217Y50823831D01*
X38071943Y50670613D01*
X38012178Y50499813D01*
X38012177Y50499807D01*
X37991919Y50320004D01*
X37991919Y50319997D01*
X38012177Y50140194D01*
X38012178Y50140188D01*
X38071943Y49969388D01*
X38168217Y49816170D01*
X38186981Y49797406D01*
X38220466Y49736083D01*
X38223300Y49709725D01*
X38223300Y48730551D01*
X38203615Y48663512D01*
X38150811Y48617757D01*
X38085417Y48607331D01*
X37990004Y48618081D01*
X37989996Y48618081D01*
X37810193Y48597823D01*
X37810187Y48597822D01*
X37639387Y48538057D01*
X37486169Y48441783D01*
X37358217Y48313831D01*
X37261943Y48160613D01*
X37202178Y47989813D01*
X37202177Y47989807D01*
X37181919Y47810004D01*
X37181919Y47809997D01*
X37202177Y47630194D01*
X37202178Y47630188D01*
X37261943Y47459388D01*
X37358217Y47306170D01*
X37376981Y47287406D01*
X37410466Y47226083D01*
X37413300Y47199725D01*
X37413300Y46896865D01*
X37412769Y46888764D01*
X37408324Y46855002D01*
X37408324Y46854999D01*
X37428143Y46704453D01*
X37428144Y46704451D01*
X37486254Y46564161D01*
X37514158Y46527796D01*
X37578690Y46443696D01*
X37578691Y46443695D01*
X37578693Y46443693D01*
X37589046Y46435749D01*
X37605711Y46422961D01*
X37611806Y46417617D01*
X38409601Y45619822D01*
X39195171Y44834252D01*
X39228656Y44772929D01*
X39227265Y44714478D01*
X39194366Y44591698D01*
X39194364Y44591687D01*
X39174532Y44365002D01*
X39174532Y44364999D01*
X39194364Y44138314D01*
X39194366Y44138303D01*
X39253258Y43918512D01*
X39253261Y43918503D01*
X39349431Y43712268D01*
X39349432Y43712266D01*
X39479954Y43525859D01*
X39640858Y43364955D01*
X39640861Y43364953D01*
X39827266Y43234432D01*
X39854390Y43221784D01*
X39885275Y43207382D01*
X39937714Y43161209D01*
X39956866Y43094016D01*
X39936650Y43027135D01*
X39885275Y42982618D01*
X39827267Y42955569D01*
X39827265Y42955568D01*
X39640858Y42825046D01*
X39479954Y42664142D01*
X39349431Y42477734D01*
X39337915Y42453036D01*
X39291742Y42400597D01*
X39224548Y42381446D01*
X39157667Y42401662D01*
X39137852Y42417761D01*
X39093830Y42461783D01*
X38940612Y42558057D01*
X38769812Y42617822D01*
X38769806Y42617823D01*
X38646817Y42631680D01*
X38582403Y42658746D01*
X38542847Y42716341D01*
X38536700Y42754900D01*
X38536700Y43808138D01*
X38537231Y43816239D01*
X38541676Y43850000D01*
X38541676Y43850002D01*
X38521856Y44000548D01*
X38521856Y44000549D01*
X38463746Y44140838D01*
X38431778Y44182500D01*
X38393260Y44232698D01*
X38393252Y44232708D01*
X38383931Y44244855D01*
X38371307Y44261307D01*
X38356874Y44272382D01*
X38344283Y44282044D01*
X38338180Y44287397D01*
X38127810Y44497767D01*
X38094325Y44559090D01*
X38092271Y44571565D01*
X38077822Y44699808D01*
X38077821Y44699813D01*
X38077821Y44699815D01*
X38018056Y44870613D01*
X37921783Y45023830D01*
X37793830Y45151783D01*
X37711829Y45203308D01*
X37640612Y45248057D01*
X37469812Y45307822D01*
X37469806Y45307823D01*
X37290004Y45328081D01*
X37289996Y45328081D01*
X37110193Y45307823D01*
X37110186Y45307822D01*
X37081651Y45297837D01*
X37011872Y45294277D01*
X36951246Y45329008D01*
X36919021Y45391002D01*
X36916700Y45414880D01*
X36916700Y50679725D01*
X36936385Y50746764D01*
X36953019Y50767406D01*
X36954404Y50768791D01*
X36971783Y50786170D01*
X37068056Y50939387D01*
X37127821Y51110185D01*
X37128666Y51117682D01*
X37148081Y51289997D01*
X37148081Y51290004D01*
X37127822Y51469807D01*
X37127821Y51469813D01*
X37127821Y51469815D01*
X37068056Y51640613D01*
X36971783Y51793830D01*
X36843830Y51921783D01*
X36814832Y51940004D01*
X36690612Y52018057D01*
X36519812Y52077822D01*
X36519806Y52077823D01*
X36340004Y52098081D01*
X36339996Y52098081D01*
X36160193Y52077823D01*
X36160187Y52077822D01*
X35989387Y52018057D01*
X35836169Y51921783D01*
X35708215Y51793829D01*
X35625693Y51662496D01*
X35573358Y51616206D01*
X35504305Y51605558D01*
X35440457Y51633933D01*
X35402085Y51692323D01*
X35396700Y51728469D01*
X35396700Y53509725D01*
X35416385Y53576764D01*
X35433019Y53597406D01*
X35435401Y53599788D01*
X35451783Y53616170D01*
X35548056Y53769387D01*
X35607821Y53940185D01*
X35611729Y53974869D01*
X35628081Y54119997D01*
X35628081Y54120004D01*
X35607822Y54299807D01*
X35607821Y54299813D01*
X35607821Y54299815D01*
X35548056Y54470613D01*
X35451783Y54623830D01*
X35323830Y54751783D01*
X35283126Y54777359D01*
X35170612Y54848057D01*
X34999812Y54907822D01*
X34999806Y54907823D01*
X34820004Y54928081D01*
X34819996Y54928081D01*
X34640193Y54907823D01*
X34640187Y54907822D01*
X34469387Y54848057D01*
X34316169Y54751783D01*
X34188217Y54623831D01*
X34091943Y54470613D01*
X34032178Y54299813D01*
X34032177Y54299807D01*
X34011919Y54120004D01*
X34011919Y54119997D01*
X34032177Y53940194D01*
X34032178Y53940188D01*
X34091943Y53769388D01*
X34188217Y53616170D01*
X34206981Y53597406D01*
X34240466Y53536083D01*
X34243300Y53509725D01*
X34243300Y53213534D01*
X34223615Y53146495D01*
X34170811Y53100740D01*
X34101653Y53090796D01*
X34038097Y53119821D01*
X34020034Y53139222D01*
X34017546Y53142546D01*
X34017544Y53142547D01*
X34017544Y53142548D01*
X33902335Y53228794D01*
X33902328Y53228798D01*
X33767482Y53279092D01*
X33767483Y53279092D01*
X33707883Y53285499D01*
X33707881Y53285500D01*
X33707873Y53285500D01*
X33707864Y53285500D01*
X32012129Y53285500D01*
X32012123Y53285499D01*
X31952516Y53279092D01*
X31817671Y53228798D01*
X31817664Y53228794D01*
X31702455Y53142548D01*
X31702452Y53142545D01*
X31616206Y53027336D01*
X31616202Y53027329D01*
X31565908Y52892483D01*
X31559501Y52832884D01*
X31559500Y52832865D01*
X31559500Y51137130D01*
X31559501Y51137124D01*
X31565909Y51077516D01*
X31589401Y51014529D01*
X31594385Y50944838D01*
X31565790Y50892466D01*
X31567240Y50891354D01*
X31541560Y50857889D01*
X31536208Y50851787D01*
X31453213Y50768791D01*
X31447110Y50763440D01*
X31420094Y50742708D01*
X31420093Y50742707D01*
X31396885Y50712463D01*
X31384421Y50696220D01*
X31327653Y50622239D01*
X31269544Y50481950D01*
X31269543Y50481948D01*
X31249724Y50331402D01*
X31249724Y50331400D01*
X31254169Y50297639D01*
X31254700Y50289538D01*
X31254700Y48621640D01*
X31235015Y48554601D01*
X31218381Y48533959D01*
X30768581Y48084160D01*
X30707258Y48050675D01*
X30694784Y48048621D01*
X30510192Y48027823D01*
X30510187Y48027822D01*
X30339387Y47968057D01*
X30186169Y47871783D01*
X30058217Y47743831D01*
X29961943Y47590613D01*
X29902178Y47419813D01*
X29902177Y47419807D01*
X29881919Y47240004D01*
X29881919Y47239997D01*
X29902177Y47060194D01*
X29902178Y47060188D01*
X29961943Y46889388D01*
X30017120Y46801575D01*
X30058217Y46736170D01*
X30186170Y46608217D01*
X30339387Y46511944D01*
X30510185Y46452179D01*
X30510191Y46452179D01*
X30510193Y46452178D01*
X30689996Y46431919D01*
X30690000Y46431919D01*
X30690004Y46431919D01*
X30869806Y46452178D01*
X30869805Y46452178D01*
X30869815Y46452179D01*
X31040613Y46511944D01*
X31193830Y46608217D01*
X31321783Y46736170D01*
X31342696Y46769454D01*
X31395029Y46815743D01*
X31464083Y46826392D01*
X31527931Y46798017D01*
X31566303Y46739627D01*
X31571217Y46714288D01*
X31574364Y46678313D01*
X31574366Y46678303D01*
X31633258Y46458512D01*
X31633261Y46458503D01*
X31729431Y46252268D01*
X31729432Y46252266D01*
X31859954Y46065859D01*
X32020858Y45904955D01*
X32020861Y45904953D01*
X32207266Y45774432D01*
X32265275Y45747382D01*
X32317714Y45701209D01*
X32336866Y45634016D01*
X32316650Y45567135D01*
X32265275Y45522618D01*
X32207267Y45495569D01*
X32207265Y45495568D01*
X32020858Y45365046D01*
X31859954Y45204142D01*
X31729432Y45017735D01*
X31729431Y45017733D01*
X31633261Y44811498D01*
X31633258Y44811489D01*
X31574366Y44591698D01*
X31574364Y44591687D01*
X31554532Y44365002D01*
X31554532Y44364999D01*
X31574364Y44138314D01*
X31574366Y44138303D01*
X31633258Y43918512D01*
X31633261Y43918503D01*
X31729431Y43712268D01*
X31729432Y43712266D01*
X31859954Y43525859D01*
X32020858Y43364955D01*
X32020861Y43364953D01*
X32207266Y43234432D01*
X32234390Y43221784D01*
X32265275Y43207382D01*
X32317714Y43161209D01*
X32336866Y43094016D01*
X32316650Y43027135D01*
X32265275Y42982618D01*
X32207267Y42955569D01*
X32207265Y42955568D01*
X32020858Y42825046D01*
X31859954Y42664142D01*
X31729432Y42477735D01*
X31729431Y42477733D01*
X31633261Y42271498D01*
X31633258Y42271489D01*
X31574366Y42051698D01*
X31574364Y42051687D01*
X31554532Y41825002D01*
X31554532Y41824999D01*
X31574364Y41598314D01*
X31574366Y41598303D01*
X31633258Y41378512D01*
X31633261Y41378503D01*
X31729431Y41172268D01*
X31729432Y41172266D01*
X31859954Y40985859D01*
X32020858Y40824955D01*
X32057101Y40799578D01*
X32207266Y40694432D01*
X32265275Y40667382D01*
X32317714Y40621209D01*
X32336866Y40554016D01*
X32316650Y40487135D01*
X32265275Y40442618D01*
X32207267Y40415569D01*
X32207265Y40415568D01*
X32020858Y40285046D01*
X31859954Y40124142D01*
X31729432Y39937735D01*
X31729431Y39937733D01*
X31633261Y39731498D01*
X31631407Y39726402D01*
X31629533Y39727084D01*
X31597675Y39674872D01*
X31534813Y39644373D01*
X31465442Y39652701D01*
X31426628Y39678985D01*
X31403830Y39701783D01*
X31250612Y39798057D01*
X31079812Y39857822D01*
X31079806Y39857823D01*
X30900004Y39878081D01*
X30899996Y39878081D01*
X30720193Y39857823D01*
X30720187Y39857822D01*
X30549387Y39798057D01*
X30390274Y39698078D01*
X30389267Y39699680D01*
X30333316Y39676843D01*
X30264621Y39689605D01*
X30213732Y39737480D01*
X30196700Y39800200D01*
X30196700Y41749725D01*
X30216385Y41816764D01*
X30233019Y41837406D01*
X30251783Y41856170D01*
X30348056Y42009387D01*
X30407821Y42180185D01*
X30411424Y42212166D01*
X30428081Y42359997D01*
X30428081Y42360004D01*
X30407822Y42539807D01*
X30407821Y42539813D01*
X30407821Y42539815D01*
X30348056Y42710613D01*
X30251783Y42863830D01*
X30123830Y42991783D01*
X30064934Y43028790D01*
X29970612Y43088057D01*
X29799812Y43147822D01*
X29799806Y43147823D01*
X29620004Y43168081D01*
X29619995Y43168081D01*
X29569382Y43162379D01*
X29500560Y43174434D01*
X29449181Y43221784D01*
X29431500Y43285599D01*
X29431500Y48530036D01*
X29451185Y48597075D01*
X29503989Y48642830D01*
X29569382Y48653256D01*
X29636856Y48645654D01*
X29669998Y48641919D01*
X29670000Y48641919D01*
X29670004Y48641919D01*
X29849806Y48662178D01*
X29849805Y48662178D01*
X29849815Y48662179D01*
X30020613Y48721944D01*
X30173830Y48818217D01*
X30301783Y48946170D01*
X30398056Y49099387D01*
X30457821Y49270185D01*
X30461880Y49306209D01*
X30478081Y49449997D01*
X30478081Y49450004D01*
X30457822Y49629807D01*
X30457821Y49629813D01*
X30457821Y49629815D01*
X30398056Y49800613D01*
X30301783Y49953830D01*
X30283019Y49972594D01*
X30249534Y50033917D01*
X30246700Y50060275D01*
X30246700Y56709725D01*
X30266385Y56776764D01*
X30283019Y56797406D01*
X30301783Y56816170D01*
X30398056Y56969387D01*
X30457821Y57140185D01*
X30466530Y57217477D01*
X30478081Y57319997D01*
X30478081Y57320004D01*
X30457822Y57499807D01*
X30457821Y57499813D01*
X30457821Y57499815D01*
X30398056Y57670613D01*
X30301783Y57823830D01*
X30173830Y57951783D01*
X30068730Y58017822D01*
X30022068Y58047142D01*
X29975777Y58099477D01*
X29965129Y58168531D01*
X29993504Y58232379D01*
X30051894Y58270751D01*
X30077227Y58275664D01*
X30176692Y58284365D01*
X30396496Y58343261D01*
X30602734Y58439432D01*
X30789139Y58569953D01*
X30950047Y58730861D01*
X31080568Y58917266D01*
X31176739Y59123504D01*
X31235635Y59343308D01*
X31255468Y59570000D01*
X31235635Y59796692D01*
X31176739Y60016496D01*
X31080568Y60222734D01*
X30950047Y60409139D01*
X30950045Y60409142D01*
X30789141Y60570046D01*
X30602734Y60700568D01*
X30602732Y60700569D01*
X30396497Y60796739D01*
X30396488Y60796742D01*
X30176697Y60855634D01*
X30176693Y60855635D01*
X30176692Y60855635D01*
X30176691Y60855636D01*
X30176686Y60855636D01*
X29950002Y60875468D01*
X29949998Y60875468D01*
X29723313Y60855636D01*
X29723302Y60855634D01*
X29587593Y60819271D01*
X29517743Y60820934D01*
X29459881Y60860097D01*
X29432377Y60924326D01*
X29431500Y60939046D01*
X29431500Y61260955D01*
X29451185Y61327994D01*
X29503989Y61373749D01*
X29573147Y61383693D01*
X29587582Y61380733D01*
X29723308Y61344365D01*
X29885230Y61330199D01*
X29949998Y61324532D01*
X29950000Y61324532D01*
X29950002Y61324532D01*
X30006673Y61329491D01*
X30176692Y61344365D01*
X30396496Y61403261D01*
X30602734Y61499432D01*
X30789139Y61629953D01*
X30950047Y61790861D01*
X31080568Y61977266D01*
X31176739Y62183504D01*
X31235635Y62403308D01*
X31255468Y62630000D01*
X31235635Y62856692D01*
X31176739Y63076496D01*
X31080568Y63282734D01*
X30950047Y63469139D01*
X30950045Y63469142D01*
X30789141Y63630046D01*
X30602734Y63760568D01*
X30602732Y63760569D01*
X30396497Y63856739D01*
X30396488Y63856742D01*
X30176697Y63915634D01*
X30176693Y63915635D01*
X30176692Y63915635D01*
X30176691Y63915636D01*
X30176686Y63915636D01*
X29950002Y63935468D01*
X29949998Y63935468D01*
X29723313Y63915636D01*
X29723302Y63915634D01*
X29503511Y63856742D01*
X29503502Y63856739D01*
X29297267Y63760569D01*
X29297265Y63760568D01*
X29110858Y63630046D01*
X29020342Y63539529D01*
X28959019Y63506044D01*
X28889327Y63511028D01*
X28833394Y63552900D01*
X28827667Y63561238D01*
X28794644Y63613794D01*
X28731783Y63713836D01*
X28603830Y63841789D01*
X28599796Y63844324D01*
X28450612Y63938063D01*
X28279812Y63997828D01*
X28279806Y63997829D01*
X28100004Y64018087D01*
X28099996Y64018087D01*
X27920193Y63997829D01*
X27920187Y63997828D01*
X27749387Y63938063D01*
X27596169Y63841789D01*
X27468217Y63713837D01*
X27371943Y63560619D01*
X27312178Y63389819D01*
X27312177Y63389813D01*
X27291919Y63210010D01*
X27291919Y63210003D01*
X27312177Y63030200D01*
X27312178Y63030194D01*
X27371943Y62859394D01*
X27468217Y62706176D01*
X27486981Y62687412D01*
X27520466Y62626089D01*
X27523300Y62599731D01*
X27523300Y62371865D01*
X27522769Y62363764D01*
X27518324Y62330002D01*
X27518324Y62329999D01*
X27538143Y62179453D01*
X27538144Y62179451D01*
X27596253Y62039163D01*
X27652236Y61966204D01*
X27688690Y61918696D01*
X27688691Y61918695D01*
X27688693Y61918693D01*
X27705979Y61905429D01*
X27715711Y61897961D01*
X27721806Y61892617D01*
X27853365Y61761058D01*
X27928472Y61685951D01*
X27961957Y61624628D01*
X27956973Y61554936D01*
X27915101Y61499003D01*
X27849637Y61474586D01*
X27826909Y61475050D01*
X27800005Y61478081D01*
X27799996Y61478081D01*
X27620193Y61457823D01*
X27620187Y61457822D01*
X27449387Y61398057D01*
X27296169Y61301783D01*
X27168217Y61173831D01*
X27071943Y61020613D01*
X27012178Y60849813D01*
X27012177Y60849807D01*
X26991919Y60670004D01*
X26991919Y60669997D01*
X27012177Y60490194D01*
X27012178Y60490188D01*
X27071943Y60319388D01*
X27136681Y60216359D01*
X27168217Y60166170D01*
X27296170Y60038217D01*
X27449387Y59941944D01*
X27620185Y59882179D01*
X27620189Y59882179D01*
X27620192Y59882178D01*
X27748435Y59867729D01*
X27812849Y59840663D01*
X27822233Y59832190D01*
X27936981Y59717442D01*
X27970466Y59656119D01*
X27973300Y59629761D01*
X27973300Y59368460D01*
X27953615Y59301421D01*
X27900811Y59255666D01*
X27831653Y59245722D01*
X27768097Y59274747D01*
X27750034Y59294148D01*
X27721731Y59331955D01*
X27717546Y59337546D01*
X27717544Y59337547D01*
X27717544Y59337548D01*
X27602335Y59423794D01*
X27602328Y59423798D01*
X27467482Y59474092D01*
X27467483Y59474092D01*
X27407883Y59480499D01*
X27407881Y59480500D01*
X27407873Y59480500D01*
X27407864Y59480500D01*
X25612129Y59480500D01*
X25612123Y59480499D01*
X25552516Y59474092D01*
X25417671Y59423798D01*
X25417664Y59423794D01*
X25302455Y59337548D01*
X25302452Y59337545D01*
X25216206Y59222336D01*
X25216202Y59222329D01*
X25165908Y59087484D01*
X25163597Y59065984D01*
X25136858Y59001433D01*
X25079465Y58961586D01*
X25009640Y58959093D01*
X24952627Y58991560D01*
X24814141Y59130046D01*
X24627734Y59260568D01*
X24627728Y59260571D01*
X24569725Y59287618D01*
X24517285Y59333790D01*
X24498133Y59400983D01*
X24518348Y59467865D01*
X24569725Y59512382D01*
X24627734Y59539432D01*
X24814139Y59669953D01*
X24975047Y59830861D01*
X25105568Y60017266D01*
X25201739Y60223504D01*
X25260635Y60443308D01*
X25280468Y60670000D01*
X25276610Y60714092D01*
X25269380Y60796739D01*
X25260635Y60896692D01*
X25201739Y61116496D01*
X25105568Y61322734D01*
X24975047Y61509139D01*
X24975045Y61509142D01*
X24814141Y61670046D01*
X24627734Y61800568D01*
X24627728Y61800571D01*
X24569725Y61827618D01*
X24517285Y61873790D01*
X24498133Y61940983D01*
X24518348Y62007865D01*
X24569725Y62052382D01*
X24627734Y62079432D01*
X24814139Y62209953D01*
X24975047Y62370861D01*
X25105568Y62557266D01*
X25201739Y62763504D01*
X25260635Y62983308D01*
X25280468Y63210000D01*
X25280467Y63210006D01*
X25274105Y63282734D01*
X25260635Y63436692D01*
X25201739Y63656496D01*
X25105568Y63862734D01*
X24975047Y64049139D01*
X24975045Y64049142D01*
X24814141Y64210046D01*
X24627734Y64340568D01*
X24627732Y64340569D01*
X24421497Y64436739D01*
X24421488Y64436742D01*
X24201697Y64495634D01*
X24201693Y64495635D01*
X24201692Y64495635D01*
X24201691Y64495636D01*
X24201686Y64495636D01*
X23975002Y64515468D01*
X23974998Y64515468D01*
X23748313Y64495636D01*
X23748302Y64495634D01*
X23528511Y64436742D01*
X23528502Y64436739D01*
X23322267Y64340569D01*
X23322265Y64340568D01*
X23135858Y64210046D01*
X22974953Y64049141D01*
X22867124Y63895143D01*
X22812547Y63851518D01*
X22743049Y63844324D01*
X22680694Y63875847D01*
X22660558Y63900290D01*
X22601783Y63993830D01*
X22473830Y64121783D01*
X22333361Y64210046D01*
X22320612Y64218057D01*
X22149812Y64277822D01*
X22149806Y64277823D01*
X21970004Y64298081D01*
X21969996Y64298081D01*
X21790193Y64277823D01*
X21790187Y64277822D01*
X21619387Y64218057D01*
X21466169Y64121783D01*
X21338217Y63993831D01*
X21241943Y63840613D01*
X21182178Y63669813D01*
X21182177Y63669807D01*
X21161919Y63490004D01*
X21161919Y63489997D01*
X21182177Y63310194D01*
X21182178Y63310188D01*
X21241943Y63139388D01*
X21338217Y62986170D01*
X21356981Y62967406D01*
X21390466Y62906083D01*
X21393300Y62879725D01*
X21393300Y59648778D01*
X21373615Y59581739D01*
X21320811Y59535984D01*
X21251653Y59526040D01*
X21203329Y59543783D01*
X21180611Y59558057D01*
X21009812Y59617822D01*
X21009806Y59617823D01*
X20830004Y59638081D01*
X20829996Y59638081D01*
X20650193Y59617823D01*
X20650187Y59617822D01*
X20479387Y59558057D01*
X20326169Y59461783D01*
X20198217Y59333831D01*
X20101943Y59180613D01*
X20042178Y59009813D01*
X20042177Y59009807D01*
X20021919Y58830004D01*
X20021919Y58829997D01*
X20042177Y58650194D01*
X20042178Y58650188D01*
X20101943Y58479388D01*
X20198217Y58326170D01*
X20216981Y58307406D01*
X20250466Y58246083D01*
X20253300Y58219725D01*
X20253300Y55095061D01*
X20233615Y55028022D01*
X20180811Y54982267D01*
X20111653Y54972323D01*
X20063328Y54990067D01*
X20050612Y54998057D01*
X19931616Y55039695D01*
X19874839Y55080417D01*
X19849092Y55145370D01*
X19862548Y55213931D01*
X19867578Y55222712D01*
X19878056Y55239387D01*
X19937821Y55410185D01*
X19943456Y55460194D01*
X19958081Y55589997D01*
X19958081Y55590004D01*
X19937822Y55769807D01*
X19937821Y55769813D01*
X19937821Y55769815D01*
X19878056Y55940613D01*
X19781783Y56093830D01*
X19653830Y56221783D01*
X19632582Y56235134D01*
X19500612Y56318057D01*
X19329812Y56377822D01*
X19329808Y56377823D01*
X19296815Y56381540D01*
X19232402Y56408607D01*
X19192847Y56466202D01*
X19186700Y56504760D01*
X19186700Y57698138D01*
X19187231Y57706239D01*
X19191676Y57740000D01*
X19191676Y57740002D01*
X19171856Y57890548D01*
X19171856Y57890549D01*
X19113746Y58030838D01*
X19073859Y58082820D01*
X19047416Y58117282D01*
X19022572Y58178882D01*
X19007821Y58309815D01*
X19007820Y58309819D01*
X19007819Y58309823D01*
X18948057Y58480611D01*
X18948056Y58480613D01*
X18851783Y58633830D01*
X18723830Y58761783D01*
X18570612Y58858057D01*
X18399812Y58917822D01*
X18399806Y58917823D01*
X18220004Y58938081D01*
X18219996Y58938081D01*
X18040193Y58917823D01*
X18040187Y58917822D01*
X17869387Y58858057D01*
X17716169Y58761783D01*
X17588217Y58633831D01*
X17491943Y58480613D01*
X17432178Y58309813D01*
X17432177Y58309807D01*
X17411919Y58130004D01*
X17411919Y58129997D01*
X17432177Y57950194D01*
X17432178Y57950188D01*
X17491943Y57779388D01*
X17561166Y57669221D01*
X17588217Y57626170D01*
X17716170Y57498217D01*
X17764542Y57467823D01*
X17807093Y57441086D01*
X17853384Y57388751D01*
X17864032Y57319697D01*
X17835657Y57255849D01*
X17777267Y57217477D01*
X17755006Y57212872D01*
X17710191Y57207823D01*
X17710187Y57207822D01*
X17539387Y57148057D01*
X17386169Y57051783D01*
X17258215Y56923829D01*
X17169493Y56782629D01*
X17117158Y56736339D01*
X17048105Y56725691D01*
X16984257Y56754066D01*
X16945885Y56812456D01*
X16940500Y56848602D01*
X16940500Y60994218D01*
X16960185Y61061257D01*
X16976819Y61081899D01*
X17787529Y61892609D01*
X18603340Y62708420D01*
X18699698Y62826593D01*
X18793909Y63006951D01*
X18849887Y63202582D01*
X18865337Y63405476D01*
X18864463Y63412336D01*
X18839631Y63607322D01*
X18839630Y63607324D01*
X18839630Y63607328D01*
X18773816Y63799872D01*
X18749144Y63841783D01*
X18670593Y63975222D01*
X18670592Y63975223D01*
X18670590Y63975227D01*
X18534179Y64126213D01*
X18488979Y64159404D01*
X18370171Y64246647D01*
X18370164Y64246651D01*
X18185274Y64331603D01*
X18185261Y64331608D01*
X17987054Y64377603D01*
X17783642Y64382758D01*
X17583351Y64346860D01*
X17583345Y64346858D01*
X17394383Y64271377D01*
X17394371Y64271371D01*
X17224482Y64159404D01*
X15241531Y62176453D01*
X15176946Y62115058D01*
X15162474Y62094265D01*
X15108019Y62050488D01*
X15038541Y62043100D01*
X14976099Y62074448D01*
X14940516Y62134578D01*
X14936700Y62165104D01*
X14936700Y62599725D01*
X14956385Y62666764D01*
X14973019Y62687406D01*
X14974445Y62688832D01*
X14991783Y62706170D01*
X15088056Y62859387D01*
X15147821Y63030185D01*
X15160900Y63146266D01*
X15168081Y63209997D01*
X15168081Y63210004D01*
X15147822Y63389807D01*
X15147821Y63389813D01*
X15147821Y63389815D01*
X15088056Y63560613D01*
X14991783Y63713830D01*
X14863830Y63841783D01*
X14840023Y63856742D01*
X14710612Y63938057D01*
X14539812Y63997822D01*
X14539806Y63997823D01*
X14360004Y64018081D01*
X14359996Y64018081D01*
X14180193Y63997823D01*
X14180187Y63997822D01*
X14009387Y63938057D01*
X13856169Y63841783D01*
X13728217Y63713831D01*
X13631943Y63560613D01*
X13572178Y63389813D01*
X13572177Y63389807D01*
X13551919Y63210004D01*
X13551919Y63209997D01*
X13572177Y63030194D01*
X13572178Y63030188D01*
X13631943Y62859388D01*
X13728217Y62706170D01*
X13746981Y62687406D01*
X13780466Y62626083D01*
X13783300Y62599725D01*
X13783300Y60151522D01*
X13763615Y60084483D01*
X13710811Y60038728D01*
X13673184Y60028302D01*
X13580192Y60017825D01*
X13580187Y60017824D01*
X13409387Y59958059D01*
X13256169Y59861785D01*
X13128217Y59733833D01*
X13031943Y59580615D01*
X12972178Y59409815D01*
X12972177Y59409809D01*
X12951919Y59230006D01*
X12951919Y59229999D01*
X12972177Y59050196D01*
X12972178Y59050190D01*
X13031943Y58879390D01*
X13128217Y58726172D01*
X13146981Y58707408D01*
X13180466Y58646085D01*
X13183300Y58619727D01*
X13183300Y57601520D01*
X13163615Y57534481D01*
X13110811Y57488726D01*
X13073184Y57478300D01*
X12980192Y57467823D01*
X12980187Y57467822D01*
X12809387Y57408057D01*
X12656169Y57311783D01*
X12528217Y57183831D01*
X12431943Y57030613D01*
X12372178Y56859813D01*
X12372177Y56859807D01*
X12351919Y56680004D01*
X12351919Y56679997D01*
X12372177Y56500194D01*
X12372178Y56500188D01*
X12431943Y56329388D01*
X12528217Y56176170D01*
X12546981Y56157406D01*
X12580466Y56096083D01*
X12583300Y56069725D01*
X12583300Y54999267D01*
X12563615Y54932228D01*
X12510811Y54886473D01*
X12473184Y54876047D01*
X12400192Y54867823D01*
X12400187Y54867822D01*
X12229387Y54808057D01*
X12076169Y54711783D01*
X11948217Y54583831D01*
X11851943Y54430613D01*
X11792178Y54259813D01*
X11792177Y54259807D01*
X11771919Y54080004D01*
X11771919Y54079997D01*
X11792177Y53900194D01*
X11792178Y53900188D01*
X11851943Y53729388D01*
X11948217Y53576170D01*
X11966981Y53557406D01*
X12000466Y53496083D01*
X12003300Y53469725D01*
X12003300Y52449267D01*
X11983615Y52382228D01*
X11930811Y52336473D01*
X11893184Y52326047D01*
X11820192Y52317823D01*
X11820187Y52317822D01*
X11649387Y52258057D01*
X11496673Y52162099D01*
X11429437Y52143099D01*
X11362601Y52163467D01*
X11317387Y52216734D01*
X11306701Y52267093D01*
X11306701Y59439726D01*
X11326386Y59506765D01*
X11343020Y59527407D01*
X11351597Y59535984D01*
X11361783Y59546170D01*
X11458056Y59699387D01*
X11517821Y59870185D01*
X11534287Y60016327D01*
X11538081Y60049997D01*
X11538081Y60050004D01*
X11517822Y60229807D01*
X11517821Y60229813D01*
X11517821Y60229815D01*
X11458056Y60400613D01*
X11361783Y60553830D01*
X11233830Y60681783D01*
X11203932Y60700569D01*
X11080612Y60778057D01*
X10909812Y60837822D01*
X10909806Y60837823D01*
X10730004Y60858081D01*
X10729996Y60858081D01*
X10550193Y60837823D01*
X10550187Y60837822D01*
X10379387Y60778057D01*
X10220982Y60678523D01*
X10153746Y60659523D01*
X10086910Y60679891D01*
X10041696Y60733158D01*
X10031482Y60772710D01*
X10029380Y60796739D01*
X10020635Y60896692D01*
X9961739Y61116496D01*
X9865568Y61322734D01*
X9735047Y61509139D01*
X9735045Y61509142D01*
X9574143Y61670044D01*
X9551425Y61685951D01*
X9549535Y61687275D01*
X9505912Y61741851D01*
X9498719Y61811350D01*
X9530241Y61873704D01*
X9590471Y61909118D01*
X9607404Y61912139D01*
X9642483Y61915909D01*
X9777331Y61966204D01*
X9892546Y62052454D01*
X9978796Y62167669D01*
X10029091Y62302517D01*
X10035500Y62362127D01*
X10035499Y64057872D01*
X10029091Y64117483D01*
X10027487Y64121783D01*
X9978797Y64252329D01*
X9978793Y64252336D01*
X9892547Y64367545D01*
X9892544Y64367548D01*
X9777335Y64453794D01*
X9777328Y64453798D01*
X9642482Y64504092D01*
X9642483Y64504092D01*
X9582883Y64510499D01*
X9582881Y64510500D01*
X9582873Y64510500D01*
X9582864Y64510500D01*
X7887129Y64510500D01*
X7887123Y64510499D01*
X7827516Y64504092D01*
X7692671Y64453798D01*
X7692664Y64453794D01*
X7577455Y64367548D01*
X7577452Y64367545D01*
X7491206Y64252336D01*
X7491202Y64252329D01*
X7440908Y64117483D01*
X7434501Y64057884D01*
X7434501Y64057877D01*
X7434500Y64057865D01*
X7434500Y62362130D01*
X7434501Y62362124D01*
X7440908Y62302517D01*
X7491202Y62167672D01*
X7491206Y62167665D01*
X7577452Y62052456D01*
X7577455Y62052453D01*
X7692664Y61966207D01*
X7692671Y61966203D01*
X7737618Y61949439D01*
X7827517Y61915909D01*
X7862596Y61912138D01*
X7927144Y61885401D01*
X7966993Y61828009D01*
X7969488Y61758184D01*
X7933836Y61698095D01*
X7920464Y61687275D01*
X7895858Y61670046D01*
X7734954Y61509142D01*
X7604432Y61322735D01*
X7604431Y61322733D01*
X7508261Y61116498D01*
X7508258Y61116489D01*
X7449366Y60896698D01*
X7449364Y60896687D01*
X7429532Y60670002D01*
X7429532Y60669999D01*
X7449364Y60443314D01*
X7449366Y60443303D01*
X7508258Y60223512D01*
X7508261Y60223503D01*
X7604431Y60017268D01*
X7604432Y60017266D01*
X7734954Y59830859D01*
X7895858Y59669955D01*
X7895861Y59669953D01*
X8082266Y59539432D01*
X8140275Y59512382D01*
X8192714Y59466209D01*
X8211866Y59399016D01*
X8191650Y59332135D01*
X8140275Y59287618D01*
X8082267Y59260569D01*
X8082265Y59260568D01*
X7895862Y59130049D01*
X7748343Y58982530D01*
X7687020Y58949046D01*
X7617328Y58954030D01*
X7561395Y58995902D01*
X7537372Y59056960D01*
X7534091Y59087484D01*
X7483797Y59222329D01*
X7483793Y59222336D01*
X7397547Y59337545D01*
X7397544Y59337548D01*
X7282335Y59423794D01*
X7282328Y59423798D01*
X7147482Y59474092D01*
X7147483Y59474092D01*
X7087883Y59480499D01*
X7087881Y59480500D01*
X7087873Y59480500D01*
X7087864Y59480500D01*
X5292129Y59480500D01*
X5292123Y59480499D01*
X5232516Y59474092D01*
X5097671Y59423798D01*
X5097664Y59423794D01*
X4982455Y59337548D01*
X4982452Y59337545D01*
X4896206Y59222336D01*
X4896202Y59222329D01*
X4845908Y59087483D01*
X4839501Y59027884D01*
X4839500Y59027865D01*
X4839500Y57232130D01*
X4839501Y57232124D01*
X4845908Y57172517D01*
X4896202Y57037672D01*
X4896206Y57037665D01*
X4982452Y56922456D01*
X4982455Y56922453D01*
X5097664Y56836207D01*
X5097671Y56836203D01*
X5229081Y56787190D01*
X5285015Y56745319D01*
X5309432Y56679855D01*
X5294580Y56611582D01*
X5273430Y56583327D01*
X5151503Y56461400D01*
X5015965Y56267831D01*
X5015964Y56267829D01*
X4916098Y56053665D01*
X4916094Y56053656D01*
X4854938Y55825414D01*
X4854936Y55825404D01*
X4834341Y55590001D01*
X4834341Y55590000D01*
X4854936Y55354597D01*
X4854938Y55354587D01*
X4916094Y55126345D01*
X4916096Y55126341D01*
X4916097Y55126337D01*
X5002197Y54941696D01*
X5015965Y54912170D01*
X5015967Y54912166D01*
X5151501Y54718605D01*
X5151506Y54718598D01*
X5318597Y54551507D01*
X5318603Y54551502D01*
X5504158Y54421575D01*
X5547783Y54366998D01*
X5554977Y54297500D01*
X5523454Y54235145D01*
X5504158Y54218425D01*
X5318597Y54088495D01*
X5151505Y53921403D01*
X5015965Y53727831D01*
X5015964Y53727829D01*
X4916098Y53513665D01*
X4916094Y53513656D01*
X4854938Y53285414D01*
X4854936Y53285404D01*
X4834341Y53050001D01*
X4834341Y53050000D01*
X4854936Y52814597D01*
X4854938Y52814587D01*
X4916094Y52586345D01*
X4916096Y52586341D01*
X4916097Y52586337D01*
X5002197Y52401696D01*
X5015965Y52372170D01*
X5015967Y52372166D01*
X5151501Y52178605D01*
X5151506Y52178598D01*
X5318597Y52011507D01*
X5318603Y52011502D01*
X5504158Y51881575D01*
X5547783Y51826998D01*
X5554977Y51757500D01*
X5523454Y51695145D01*
X5504158Y51678425D01*
X5318597Y51548495D01*
X5151505Y51381403D01*
X5015965Y51187831D01*
X5015964Y51187829D01*
X4916098Y50973665D01*
X4916094Y50973656D01*
X4854938Y50745414D01*
X4854936Y50745404D01*
X4834341Y50510001D01*
X4834341Y50510000D01*
X4854936Y50274597D01*
X4854938Y50274587D01*
X4916094Y50046345D01*
X4916096Y50046341D01*
X4916097Y50046337D01*
X5002197Y49861696D01*
X5015965Y49832170D01*
X5015967Y49832166D01*
X5151501Y49638605D01*
X5151506Y49638598D01*
X5318597Y49471507D01*
X5318603Y49471502D01*
X5504158Y49341575D01*
X5547783Y49286998D01*
X5554977Y49217500D01*
X5523454Y49155145D01*
X5504158Y49138425D01*
X5318597Y49008495D01*
X5151505Y48841403D01*
X5015965Y48647831D01*
X5015964Y48647829D01*
X4916098Y48433665D01*
X4916094Y48433656D01*
X4854938Y48205414D01*
X4854936Y48205404D01*
X4834341Y47970001D01*
X4834341Y47970000D01*
X4854936Y47734597D01*
X4854938Y47734587D01*
X4916094Y47506345D01*
X4916096Y47506341D01*
X4916097Y47506337D01*
X5002197Y47321696D01*
X5015965Y47292170D01*
X5015967Y47292166D01*
X5151501Y47098605D01*
X5151506Y47098598D01*
X5318597Y46931507D01*
X5318603Y46931502D01*
X5504158Y46801575D01*
X5547783Y46746998D01*
X5554977Y46677500D01*
X5523454Y46615145D01*
X5504158Y46598425D01*
X5318597Y46468495D01*
X5151505Y46301403D01*
X5015965Y46107831D01*
X5015964Y46107829D01*
X4916098Y45893665D01*
X4916094Y45893656D01*
X4854938Y45665414D01*
X4854936Y45665404D01*
X4834341Y45430001D01*
X4834341Y45430000D01*
X4854936Y45194597D01*
X4854938Y45194587D01*
X4916094Y44966345D01*
X4916096Y44966341D01*
X4916097Y44966337D01*
X5002197Y44781696D01*
X5015965Y44752170D01*
X5015967Y44752166D01*
X5151501Y44558605D01*
X5151506Y44558598D01*
X5318597Y44391507D01*
X5318603Y44391502D01*
X5504158Y44261575D01*
X5547783Y44206998D01*
X5554977Y44137500D01*
X5523454Y44075145D01*
X5504158Y44058425D01*
X5318597Y43928495D01*
X5151505Y43761403D01*
X5015965Y43567831D01*
X5015964Y43567829D01*
X4916098Y43353665D01*
X4916094Y43353656D01*
X4854938Y43125414D01*
X4854936Y43125404D01*
X4834341Y42890001D01*
X4834341Y42890000D01*
X4854936Y42654597D01*
X4854938Y42654587D01*
X4916094Y42426345D01*
X4916096Y42426341D01*
X4916097Y42426337D01*
X5002197Y42241696D01*
X5015965Y42212170D01*
X5015967Y42212166D01*
X5151501Y42018605D01*
X5151506Y42018598D01*
X5318597Y41851507D01*
X5318603Y41851502D01*
X5504158Y41721575D01*
X5547783Y41666998D01*
X5554977Y41597500D01*
X5523454Y41535145D01*
X5504158Y41518425D01*
X5318597Y41388495D01*
X5151505Y41221403D01*
X5015965Y41027831D01*
X5015964Y41027829D01*
X4916098Y40813665D01*
X4916094Y40813656D01*
X4854938Y40585414D01*
X4854936Y40585404D01*
X4834341Y40350001D01*
X4834341Y40350000D01*
X4854936Y40114597D01*
X4854938Y40114587D01*
X4916094Y39886345D01*
X4916096Y39886341D01*
X4916097Y39886337D01*
X5002197Y39701696D01*
X5015965Y39672170D01*
X5015967Y39672166D01*
X5151501Y39478605D01*
X5151506Y39478598D01*
X5318597Y39311507D01*
X5318603Y39311502D01*
X5504158Y39181575D01*
X5547783Y39126998D01*
X5554977Y39057500D01*
X5523454Y38995145D01*
X5504158Y38978425D01*
X5318597Y38848495D01*
X5151505Y38681403D01*
X5015965Y38487831D01*
X5015964Y38487829D01*
X4916098Y38273665D01*
X4916094Y38273656D01*
X4854938Y38045414D01*
X4854936Y38045404D01*
X4834341Y37810001D01*
X4834341Y37810000D01*
X4854936Y37574597D01*
X4854938Y37574587D01*
X4916094Y37346345D01*
X4916096Y37346341D01*
X4916097Y37346337D01*
X5002197Y37161696D01*
X5015965Y37132170D01*
X5015967Y37132166D01*
X5151501Y36938605D01*
X5151506Y36938598D01*
X5318597Y36771507D01*
X5318603Y36771502D01*
X5504158Y36641575D01*
X5547783Y36586998D01*
X5554977Y36517500D01*
X5523454Y36455145D01*
X5504158Y36438425D01*
X5318597Y36308495D01*
X5151505Y36141403D01*
X5015965Y35947831D01*
X5015964Y35947829D01*
X4916098Y35733665D01*
X4916094Y35733656D01*
X4854938Y35505414D01*
X4854936Y35505404D01*
X4834341Y35270001D01*
X4834341Y35270000D01*
X4854936Y35034597D01*
X4854938Y35034587D01*
X4896440Y34879699D01*
X4894777Y34809849D01*
X4864346Y34759925D01*
X4398931Y34294510D01*
X4337608Y34261025D01*
X4267916Y34266009D01*
X4211983Y34307881D01*
X4187722Y34371384D01*
X4185341Y34398599D01*
X4170635Y34566692D01*
X4115880Y34771042D01*
X4111741Y34786489D01*
X4111738Y34786498D01*
X4107235Y34796155D01*
X4015568Y34992734D01*
X3885047Y35179139D01*
X3885045Y35179142D01*
X3724141Y35340046D01*
X3537734Y35470568D01*
X3537732Y35470569D01*
X3331497Y35566739D01*
X3331488Y35566742D01*
X3111697Y35625634D01*
X3111693Y35625635D01*
X3111692Y35625635D01*
X3111691Y35625636D01*
X3111686Y35625636D01*
X2885002Y35645468D01*
X2884998Y35645468D01*
X2658313Y35625636D01*
X2658302Y35625634D01*
X2438511Y35566742D01*
X2438502Y35566739D01*
X2232267Y35470569D01*
X2232265Y35470568D01*
X2045858Y35340046D01*
X1884954Y35179142D01*
X1754432Y34992735D01*
X1754431Y34992733D01*
X1658261Y34786498D01*
X1658258Y34786489D01*
X1599366Y34566698D01*
X1599364Y34566687D01*
X1579532Y34340002D01*
X1579532Y34339999D01*
X300500Y34339999D01*
X300500Y64997787D01*
X300658Y65002211D01*
X317165Y65233018D01*
X319683Y65250530D01*
X367459Y65470149D01*
X372436Y65487100D01*
X450985Y65697701D01*
X458325Y65713773D01*
X566044Y65911044D01*
X575600Y65925914D01*
X710294Y66105844D01*
X721868Y66119201D01*
X880799Y66278132D01*
X894156Y66289706D01*
X1074086Y66424400D01*
X1088956Y66433956D01*
X1286227Y66541675D01*
X1302299Y66549015D01*
X1512900Y66627564D01*
X1529851Y66632541D01*
X1749472Y66680318D01*
X1766977Y66682835D01*
X1997791Y66699343D01*
X2002214Y66699500D01*
X2047595Y66699500D01*
X62952405Y66699500D01*
X62997786Y66699500D01*
X63002208Y66699343D01*
G37*
%TD.AperFunction*%
M02*
