%TF.GenerationSoftware,KiCad,Pcbnew,7.0.8*%
%TF.CreationDate,2024-06-12T14:18:57+09:00*%
%TF.ProjectId,MEZ68K8_RAM,4d455a36-384b-4385-9f52-414d2e6b6963,Rev 1.2*%
%TF.SameCoordinates,PX65317e4PY8319cac*%
%TF.FileFunction,Copper,L1,Top*%
%TF.FilePolarity,Positive*%
%FSLAX46Y46*%
G04 Gerber Fmt 4.6, Leading zero omitted, Abs format (unit mm)*
G04 Created by KiCad (PCBNEW 7.0.8) date 2024-06-12 14:18:57*
%MOMM*%
%LPD*%
G01*
G04 APERTURE LIST*
%TA.AperFunction,ComponentPad*%
%ADD10C,1.600000*%
%TD*%
%TA.AperFunction,ComponentPad*%
%ADD11O,1.600000X1.600000*%
%TD*%
%TA.AperFunction,ComponentPad*%
%ADD12R,1.600000X1.600000*%
%TD*%
%TA.AperFunction,ComponentPad*%
%ADD13R,1.800000X1.800000*%
%TD*%
%TA.AperFunction,ComponentPad*%
%ADD14C,1.800000*%
%TD*%
%TA.AperFunction,ComponentPad*%
%ADD15C,1.400000*%
%TD*%
%TA.AperFunction,ComponentPad*%
%ADD16R,1.700000X1.700000*%
%TD*%
%TA.AperFunction,ComponentPad*%
%ADD17O,1.700000X1.700000*%
%TD*%
%TA.AperFunction,ViaPad*%
%ADD18C,0.605000*%
%TD*%
%TA.AperFunction,Conductor*%
%ADD19C,0.152400*%
%TD*%
%TA.AperFunction,Conductor*%
%ADD20C,1.000000*%
%TD*%
%TA.AperFunction,Conductor*%
%ADD21C,0.400000*%
%TD*%
G04 APERTURE END LIST*
D10*
X2885000Y34340000D03*
X2885000Y31840000D03*
D11*
X29950000Y62630000D03*
D10*
X37570000Y62630000D03*
X61530000Y55070000D03*
X59030000Y55070000D03*
D12*
X30061000Y20040000D03*
D11*
X30061000Y17500000D03*
X30061000Y14960000D03*
X30061000Y12420000D03*
X30061000Y9880000D03*
D12*
X46295000Y51940000D03*
D11*
X46295000Y49400000D03*
X46295000Y46860000D03*
X46295000Y44320000D03*
X46295000Y41780000D03*
X46295000Y39240000D03*
X46295000Y36700000D03*
X46295000Y34160000D03*
X46295000Y31620000D03*
X46295000Y29080000D03*
X46295000Y26540000D03*
X46295000Y24000000D03*
X46295000Y21460000D03*
X46295000Y18920000D03*
X46295000Y16380000D03*
X46295000Y13840000D03*
X61535000Y13840000D03*
X61535000Y16380000D03*
X61535000Y18920000D03*
X61535000Y21460000D03*
X61535000Y24000000D03*
X61535000Y26540000D03*
X61535000Y29080000D03*
X61535000Y31620000D03*
X61535000Y34160000D03*
X61535000Y36700000D03*
X61535000Y39240000D03*
X61535000Y41780000D03*
X61535000Y44320000D03*
X61535000Y46860000D03*
X61535000Y49400000D03*
X61535000Y51940000D03*
D10*
X40060000Y55105000D03*
X37560000Y55105000D03*
D13*
X40815000Y62270000D03*
D14*
X43355000Y62270000D03*
D12*
X8735000Y63210000D03*
D11*
X8735000Y60670000D03*
X8735000Y58130000D03*
X8735000Y55590000D03*
X8735000Y53050000D03*
X8735000Y50510000D03*
X8735000Y47970000D03*
X8735000Y45430000D03*
X8735000Y42890000D03*
X8735000Y40350000D03*
X8735000Y37810000D03*
X8735000Y35270000D03*
X8735000Y32730000D03*
X8735000Y30190000D03*
X8735000Y27650000D03*
X8735000Y25110000D03*
X8735000Y22570000D03*
X8735000Y20030000D03*
X8735000Y17490000D03*
X8735000Y14950000D03*
X8735000Y12410000D03*
X8735000Y9870000D03*
X8735000Y7330000D03*
X8735000Y4790000D03*
X23975000Y4790000D03*
X23975000Y7330000D03*
X23975000Y9870000D03*
X23975000Y12410000D03*
X23975000Y14950000D03*
X23975000Y17490000D03*
X23975000Y20030000D03*
X23975000Y22570000D03*
X23975000Y25110000D03*
X23975000Y27650000D03*
X23975000Y30190000D03*
X23975000Y32730000D03*
X23975000Y35270000D03*
X23975000Y37810000D03*
X23975000Y40350000D03*
X23975000Y42890000D03*
X23975000Y45430000D03*
X23975000Y47970000D03*
X23975000Y50510000D03*
X23975000Y53050000D03*
X23975000Y55590000D03*
X23975000Y58130000D03*
X23975000Y60670000D03*
X23975000Y63210000D03*
D15*
X56060000Y59420000D03*
X56060000Y61960000D03*
D16*
X49310000Y5390000D03*
D17*
X46770000Y5390000D03*
X44230000Y5390000D03*
X41690000Y5390000D03*
X39150000Y5390000D03*
X36610000Y5390000D03*
D12*
X50550000Y59420000D03*
D10*
X50550000Y61920000D03*
X36020000Y9140000D03*
D11*
X36020000Y16760000D03*
D10*
X29950000Y59570000D03*
D11*
X37570000Y59570000D03*
D12*
X32860000Y51985000D03*
D11*
X32860000Y49445000D03*
X32860000Y46905000D03*
X32860000Y44365000D03*
X32860000Y41825000D03*
X32860000Y39285000D03*
X32860000Y36745000D03*
X32860000Y34205000D03*
X32860000Y31665000D03*
X32860000Y29125000D03*
X40480000Y29125000D03*
X40480000Y31665000D03*
X40480000Y34205000D03*
X40480000Y36745000D03*
X40480000Y39285000D03*
X40480000Y41825000D03*
X40480000Y44365000D03*
X40480000Y46905000D03*
X40480000Y49445000D03*
X40480000Y51985000D03*
D16*
X26510000Y58130000D03*
D17*
X26510000Y55590000D03*
X26510000Y53050000D03*
X26510000Y50510000D03*
X26510000Y47970000D03*
X26510000Y45430000D03*
X26510000Y42890000D03*
X26510000Y40350000D03*
X26510000Y37810000D03*
X26510000Y35270000D03*
X26510000Y32730000D03*
X26510000Y30190000D03*
X26510000Y27650000D03*
X26510000Y25110000D03*
X26510000Y22570000D03*
X26510000Y20030000D03*
X26510000Y17490000D03*
X26510000Y14950000D03*
X26510000Y12410000D03*
X26510000Y9870000D03*
D16*
X6190000Y58130000D03*
D17*
X6190000Y55590000D03*
X6190000Y53050000D03*
X6190000Y50510000D03*
X6190000Y47970000D03*
X6190000Y45430000D03*
X6190000Y42890000D03*
X6190000Y40350000D03*
X6190000Y37810000D03*
X6190000Y35270000D03*
X6190000Y32730000D03*
X6190000Y30190000D03*
X6190000Y27650000D03*
X6190000Y25110000D03*
X6190000Y22570000D03*
X6190000Y20030000D03*
X6190000Y17490000D03*
X6190000Y14950000D03*
X6190000Y12410000D03*
X6190000Y9870000D03*
D18*
X33840000Y62610000D03*
X33730000Y59530000D03*
X13410000Y30700000D03*
X21970000Y30700000D03*
X21970000Y63490000D03*
X15940000Y32720000D03*
X15940000Y4390000D03*
X33630000Y2950000D03*
X40060000Y59420000D03*
X15940000Y40350000D03*
X17860000Y63380000D03*
X50550000Y8560000D03*
X34890000Y46870000D03*
X33270000Y23130000D03*
X46370000Y11190000D03*
X40910000Y17080000D03*
X53570000Y57290000D03*
X18620000Y14880000D03*
X53420000Y17730000D03*
X58810000Y32240000D03*
X20270000Y7330000D03*
X53220000Y22590000D03*
X21470000Y25120000D03*
X20190000Y4650000D03*
X55460000Y39220000D03*
X44330000Y22690000D03*
X51030000Y2010000D03*
X32859998Y26420000D03*
X20430000Y61700000D03*
X20240000Y37760000D03*
X38010000Y51880000D03*
X62860000Y10590000D03*
X57980000Y26290000D03*
X29810000Y28610000D03*
X62380000Y61130000D03*
X21500000Y28650000D03*
X19840000Y30031100D03*
X14410000Y18080000D03*
X32370000Y55170000D03*
X20270000Y9690000D03*
X38920000Y11370000D03*
X11990000Y9770000D03*
X19392874Y17777615D03*
X63680000Y32730000D03*
X4450000Y4250000D03*
X44100000Y40360000D03*
X10390000Y27640000D03*
X48070000Y40360000D03*
X20140000Y35350000D03*
X42690000Y47170000D03*
X41230000Y11230000D03*
X14340000Y29880000D03*
X48100000Y22680000D03*
X48670000Y17540000D03*
X20070000Y32540000D03*
X14190000Y27629998D03*
X43400000Y51880000D03*
X2360000Y25110000D03*
X28310000Y30190000D03*
X52080000Y28840000D03*
X52160000Y39220000D03*
X36760000Y28520000D03*
X54270000Y50260000D03*
X44100000Y36840000D03*
X11590000Y7170000D03*
X52270000Y45340000D03*
X5420000Y64050000D03*
X37160000Y46580000D03*
X44080000Y28250000D03*
X45360000Y54600000D03*
X26680000Y62000000D03*
X36280000Y22410000D03*
X38900000Y22640000D03*
X48030000Y30130000D03*
X13410000Y26570000D03*
X13360000Y1470000D03*
X13160000Y44290000D03*
X13160000Y56680000D03*
X13160000Y40340000D03*
X12580000Y37810000D03*
X58160000Y41780000D03*
X12580000Y54080000D03*
X58160000Y35610000D03*
X12000000Y35270000D03*
X12000000Y51530000D03*
X20249998Y46550000D03*
X20250000Y51530000D03*
X11650000Y30530000D03*
X11380000Y49060004D03*
X30730000Y23540000D03*
X25638576Y1990656D03*
X34570000Y21460000D03*
X30710000Y32730000D03*
X39840000Y18920000D03*
X28850000Y35260000D03*
X39840000Y7920000D03*
X35030000Y44370000D03*
X35030000Y24770000D03*
X42680000Y7500000D03*
X39840000Y24770000D03*
X28850000Y24770000D03*
X34721094Y18400000D03*
X34720000Y6410000D03*
X30690000Y37490000D03*
X55600000Y32700000D03*
X30890000Y5480000D03*
X32360000Y15100000D03*
X47860000Y14290000D03*
X44770000Y15100000D03*
X55610000Y13840000D03*
X30900000Y39070000D03*
X59280000Y16090000D03*
X38802454Y46901870D03*
X41950000Y16023944D03*
X38800000Y50320000D03*
X58640000Y21460000D03*
X42490000Y44360000D03*
X37990000Y47810000D03*
X58640000Y14770000D03*
X42490000Y13700000D03*
X10730001Y46489999D03*
X10730000Y60050000D03*
X11070000Y17630000D03*
X32230000Y13060000D03*
X29620000Y35280000D03*
X59870000Y13350000D03*
X43060000Y12780000D03*
X43060000Y34200000D03*
X32220000Y6340000D03*
X29620000Y42360000D03*
X57110000Y18920000D03*
X37290000Y44520000D03*
X37960000Y36740000D03*
X57110000Y9760000D03*
X37960000Y9760000D03*
X17200000Y26810000D03*
X36340000Y51290000D03*
X36340000Y29980000D03*
X31270000Y27650000D03*
X31270000Y29870000D03*
X17200000Y20800000D03*
X59140000Y42870000D03*
X13760000Y59230002D03*
X13760000Y42890000D03*
X57240000Y57230000D03*
X20830000Y45440000D03*
X57240000Y29080000D03*
X20830000Y58830000D03*
X19700000Y54270000D03*
X56708900Y36700000D03*
X56708900Y55640000D03*
X19700000Y47970000D03*
X59370000Y51940000D03*
X38880000Y7930000D03*
X4140000Y8680000D03*
X12590000Y36350000D03*
X12610000Y20030000D03*
X49240000Y44320000D03*
X17890000Y56420000D03*
X17720000Y43620000D03*
X49200000Y56750000D03*
X16969998Y41439998D03*
X16978900Y47080000D03*
X30690000Y47240000D03*
X19630000Y28840000D03*
X19870000Y22780000D03*
X20730000Y12410000D03*
X11970000Y23160000D03*
X20730000Y15350000D03*
X11970000Y12410000D03*
X57840000Y20050000D03*
X21990000Y23550000D03*
X21990000Y18560000D03*
X53290000Y25440000D03*
X14630000Y26190000D03*
X53290000Y46870000D03*
X14630000Y22580000D03*
X49130000Y21160000D03*
X18460000Y20920000D03*
X18010000Y25100000D03*
X10280000Y9330000D03*
X40840000Y20910000D03*
X36020000Y13890000D03*
X29670000Y49450000D03*
X35510000Y23990000D03*
X35510000Y48910000D03*
X29670000Y57320000D03*
X40230000Y26070000D03*
X27800000Y60670000D03*
X28550000Y42120000D03*
X38590000Y41830000D03*
X28100000Y63210006D03*
X37150000Y29980000D03*
X29088900Y40150000D03*
X37150000Y39290000D03*
X14360000Y31430000D03*
X14360000Y63210000D03*
X14900000Y33840000D03*
X43620000Y31660000D03*
X43620000Y33610000D03*
X14900000Y60670000D03*
X18610000Y39170000D03*
X18220000Y58130000D03*
X19160000Y41320000D03*
X19150000Y55590000D03*
X44390000Y49440000D03*
X34820000Y49450000D03*
X34820000Y54120000D03*
D19*
X22718600Y64238600D02*
X21970000Y63490000D01*
X29931400Y64238600D02*
X22718600Y64238600D01*
X32568600Y61601400D02*
X29931400Y64238600D01*
X40146400Y61601400D02*
X32568600Y61601400D01*
X40815000Y62270000D02*
X40146400Y61601400D01*
D20*
X23975000Y30190000D02*
X23040000Y30190000D01*
X23040000Y30190000D02*
X21500000Y28650000D01*
D21*
X14169998Y27650000D02*
X14190000Y27629998D01*
X8735000Y27650000D02*
X14169998Y27650000D01*
D19*
X21970000Y30700000D02*
X13410000Y30700000D01*
X42065000Y60980000D02*
X43355000Y62270000D01*
X31600000Y60980000D02*
X42065000Y60980000D01*
X29950000Y62630000D02*
X31600000Y60980000D01*
X23975000Y60670000D02*
X27800000Y60670000D01*
X28099994Y63210000D02*
X28100000Y63210006D01*
X23975000Y63210000D02*
X28099994Y63210000D01*
D20*
X19660000Y65220000D02*
X34980000Y65220000D01*
X18900000Y64420000D02*
X18900000Y64460000D01*
X18900000Y64460000D02*
X19660000Y65220000D01*
X17860000Y63380000D02*
X18900000Y64420000D01*
X34980000Y65220000D02*
X37570000Y62630000D01*
D21*
X3620000Y28880000D02*
X7020000Y28880000D01*
X2885000Y29615000D02*
X3620000Y28880000D01*
X7020000Y28880000D02*
X8250000Y27650000D01*
X2885000Y31840000D02*
X2885000Y29615000D01*
X8250000Y27650000D02*
X8735000Y27650000D01*
D20*
X4495000Y32730000D02*
X2885000Y34340000D01*
X6190000Y32730000D02*
X8735000Y32730000D01*
X36710000Y2950000D02*
X17380000Y2950000D01*
X42320000Y8560000D02*
X39150000Y5390000D01*
X50550000Y8560000D02*
X42320000Y8560000D01*
X50550000Y59420000D02*
X40060000Y59420000D01*
X56060000Y59420000D02*
X50550000Y59420000D01*
X57180000Y59420000D02*
X61530000Y55070000D01*
X56060000Y59420000D02*
X57180000Y59420000D01*
X8735000Y32730000D02*
X15930000Y32730000D01*
X6190000Y32730000D02*
X4495000Y32730000D01*
X39150000Y5390000D02*
X36710000Y2950000D01*
X15940000Y40350000D02*
X23975000Y40350000D01*
X15930000Y32730000D02*
X15940000Y32720000D01*
X17380000Y2950000D02*
X15940000Y4390000D01*
D21*
X32860000Y29125000D02*
X30685000Y29125000D01*
X36155000Y29125000D02*
X36760000Y28520000D01*
X32860000Y29125000D02*
X36155000Y29125000D01*
X30685000Y29125000D02*
X29620000Y30190000D01*
X28310000Y30190000D02*
X26510000Y30190000D01*
D20*
X23975000Y30190000D02*
X26510000Y30190000D01*
D21*
X29620000Y30190000D02*
X28310000Y30190000D01*
D19*
X45379556Y1459556D02*
X13370444Y1459556D01*
X6190000Y27650000D02*
X7270000Y26570000D01*
X13370444Y1459556D02*
X13360000Y1470000D01*
X49310000Y5390000D02*
X45379556Y1459556D01*
X7270000Y26570000D02*
X13410000Y26570000D01*
X31940000Y43300000D02*
X30925200Y44314800D01*
X13184800Y44314800D02*
X13160000Y44290000D01*
X13160000Y40340000D02*
X13150000Y40350000D01*
X45275000Y43300000D02*
X31940000Y43300000D01*
X13150000Y40350000D02*
X8735000Y40350000D01*
X30925200Y44314800D02*
X13184800Y44314800D01*
X46295000Y44320000D02*
X45275000Y43300000D01*
X6190000Y55590000D02*
X7280000Y56680000D01*
X11190000Y56680000D02*
X13160000Y56680000D01*
X7280000Y56680000D02*
X11190000Y56680000D01*
X13750000Y36640000D02*
X31499566Y36640000D01*
X7220000Y54080000D02*
X11400000Y54080000D01*
X6190000Y53050000D02*
X7220000Y54080000D01*
X32529566Y35610000D02*
X58160000Y35610000D01*
X12580000Y37810000D02*
X13750000Y36640000D01*
X58160000Y41780000D02*
X61535000Y41780000D01*
X31499566Y36640000D02*
X32529566Y35610000D01*
X12580000Y37810000D02*
X8735000Y37810000D01*
X11400000Y54080000D02*
X12580000Y54080000D01*
X20254798Y46545200D02*
X20249998Y46550000D01*
X7350000Y51680000D02*
X11850000Y51680000D01*
X31131452Y45840000D02*
X30426252Y46545200D01*
X6190000Y50510000D02*
X7210000Y51530000D01*
X11850000Y51680000D02*
X12000000Y51530000D01*
X46295000Y46860000D02*
X45275000Y45840000D01*
X45275000Y45840000D02*
X31131452Y45840000D01*
X7210000Y51540000D02*
X7350000Y51680000D01*
X30426252Y46545200D02*
X20254798Y46545200D01*
X12000000Y35270000D02*
X8735000Y35270000D01*
X7210000Y51530000D02*
X7210000Y51540000D01*
X12000000Y51530000D02*
X20250000Y51530000D01*
X7280004Y49060004D02*
X11380000Y49060004D01*
X27190000Y49100000D02*
X27918600Y48371400D01*
X11380000Y30190000D02*
X11650000Y30460000D01*
X11650000Y30460000D02*
X11650000Y30530000D01*
X60506400Y48371400D02*
X61535000Y49400000D01*
X8735000Y30190000D02*
X11380000Y30190000D01*
X27918600Y48371400D02*
X60506400Y48371400D01*
X6190000Y47970000D02*
X7280004Y49060004D01*
X11419996Y49100000D02*
X27190000Y49100000D01*
X11380000Y49060004D02*
X11419996Y49100000D01*
X32810000Y21460000D02*
X46295000Y21460000D01*
X30730000Y23540000D02*
X32810000Y21460000D01*
X44230000Y5390000D02*
X40830656Y1990656D01*
X40830656Y1990656D02*
X25638576Y1990656D01*
X26510000Y32730000D02*
X30710000Y32730000D01*
X28850000Y24770000D02*
X35030000Y24770000D01*
X35030000Y44370000D02*
X35025000Y44365000D01*
X23975000Y7330000D02*
X39250000Y7330000D01*
X44660000Y7500000D02*
X46770000Y5390000D01*
X28840000Y35270000D02*
X28850000Y35260000D01*
X42680000Y7500000D02*
X44660000Y7500000D01*
X35025000Y44365000D02*
X32860000Y44365000D01*
X26510000Y35270000D02*
X28840000Y35270000D01*
X39250000Y7330000D02*
X39840000Y7920000D01*
X39840000Y18920000D02*
X46295000Y18920000D01*
X35030000Y24770000D02*
X39840000Y24770000D01*
X33100000Y4790000D02*
X23975000Y4790000D01*
X30690000Y37490000D02*
X32115000Y37490000D01*
X46295000Y16380000D02*
X44675000Y18000000D01*
X34720000Y6410000D02*
X33100000Y4790000D01*
X38480000Y18000000D02*
X38080000Y18400000D01*
X30370000Y37810000D02*
X26510000Y37810000D01*
X44675000Y18000000D02*
X38480000Y18000000D01*
X32115000Y37490000D02*
X32860000Y36745000D01*
X38080000Y18400000D02*
X34721094Y18400000D01*
X30690000Y37490000D02*
X30370000Y37810000D01*
X9805000Y5860000D02*
X30510000Y5860000D01*
X27630000Y40350000D02*
X28910000Y39070000D01*
X55651100Y13881100D02*
X61493900Y13881100D01*
X34365000Y32700000D02*
X55600000Y32700000D01*
X32794800Y15534800D02*
X38615726Y15534800D01*
X32360000Y15100000D02*
X32794800Y15534800D01*
X55610000Y13840000D02*
X55651100Y13881100D01*
X38615726Y15534800D02*
X39050526Y15100000D01*
X28910000Y39070000D02*
X30900000Y39070000D01*
X39050526Y15100000D02*
X44770000Y15100000D01*
X26510000Y40350000D02*
X27630000Y40350000D01*
X8735000Y4790000D02*
X9805000Y5860000D01*
X32860000Y34205000D02*
X34365000Y32700000D01*
X55160000Y14290000D02*
X55610000Y13840000D01*
X47860000Y14290000D02*
X55160000Y14290000D01*
X30510000Y5860000D02*
X30890000Y5480000D01*
X61493900Y13881100D02*
X61535000Y13840000D01*
X38800000Y50320000D02*
X38610000Y50510000D01*
X38020000Y17870000D02*
X39866056Y16023944D01*
X44976056Y16023944D02*
X45730000Y15270000D01*
X38805584Y46905000D02*
X38802454Y46901870D01*
X35141089Y17870000D02*
X38020000Y17870000D01*
X58460000Y15270000D02*
X59280000Y16090000D01*
X33661089Y16390000D02*
X35141089Y17870000D01*
X39866056Y16023944D02*
X41950000Y16023944D01*
X45730000Y15270000D02*
X58460000Y15270000D01*
X41950000Y16023944D02*
X44976056Y16023944D01*
X38610000Y50510000D02*
X26510000Y50510000D01*
X8735000Y14950000D02*
X10175000Y16390000D01*
X10175000Y16390000D02*
X33661089Y16390000D01*
X40480000Y46905000D02*
X38805584Y46905000D01*
X58500000Y14910000D02*
X58640000Y14770000D01*
X35348550Y15121800D02*
X38368200Y15121800D01*
X44560000Y13700000D02*
X45770000Y14910000D01*
X37990000Y47810000D02*
X37830000Y47970000D01*
X58640000Y21460000D02*
X61535000Y21460000D01*
X45770000Y14910000D02*
X58500000Y14910000D01*
X39790000Y13700000D02*
X42490000Y13700000D01*
X38368200Y15121800D02*
X39790000Y13700000D01*
X37830000Y47970000D02*
X26510000Y47970000D01*
X40480000Y44365000D02*
X42485000Y44365000D01*
X8735000Y12410000D02*
X10165000Y13840000D01*
X34606750Y14380000D02*
X35348550Y15121800D01*
X10165000Y13840000D02*
X30560000Y13840000D01*
X42485000Y44365000D02*
X42490000Y44360000D01*
X42490000Y13700000D02*
X44560000Y13700000D01*
X30560000Y13840000D02*
X31100000Y14380000D01*
X31100000Y14380000D02*
X34606750Y14380000D01*
X7249999Y46489999D02*
X10730001Y46489999D01*
X10791100Y60111100D02*
X22858900Y60111100D01*
X22858900Y60111100D02*
X23400000Y59570000D01*
X10730000Y60050000D02*
X10791100Y60111100D01*
X6190000Y45430000D02*
X7249999Y46489999D01*
X10930000Y17490000D02*
X11070000Y17630000D01*
X8735000Y17490000D02*
X10930000Y17490000D01*
X23400000Y59570000D02*
X29950000Y59570000D01*
X8735000Y7330000D02*
X9815000Y6250000D01*
X40480000Y34205000D02*
X43055000Y34205000D01*
X29090000Y42890000D02*
X29620000Y42360000D01*
X29620000Y35280000D02*
X39405000Y35280000D01*
X47850000Y13500000D02*
X55198911Y13500000D01*
X59820000Y13300000D02*
X59870000Y13350000D01*
X55398911Y13300000D02*
X59820000Y13300000D01*
X47130000Y12780000D02*
X47850000Y13500000D01*
X32510000Y12780000D02*
X43060000Y12780000D01*
X39405000Y35280000D02*
X40480000Y34205000D01*
X43060000Y12780000D02*
X47130000Y12780000D01*
X32130000Y6250000D02*
X32220000Y6340000D01*
X43055000Y34205000D02*
X43060000Y34200000D01*
X55198911Y13500000D02*
X55398911Y13300000D01*
X26510000Y42890000D02*
X29090000Y42890000D01*
X9815000Y6250000D02*
X32130000Y6250000D01*
X32230000Y13060000D02*
X32510000Y12780000D01*
X57110000Y18920000D02*
X61535000Y18920000D01*
X37965000Y36745000D02*
X37960000Y36740000D01*
X36730000Y10990000D02*
X37960000Y9760000D01*
X40480000Y36745000D02*
X37965000Y36745000D01*
X37290000Y44520000D02*
X36380000Y45430000D01*
X36380000Y45430000D02*
X26510000Y45430000D01*
X9855000Y10990000D02*
X36730000Y10990000D01*
X8735000Y9870000D02*
X9855000Y10990000D01*
X37960000Y9760000D02*
X57110000Y9760000D01*
X26510000Y27650000D02*
X27108568Y27051432D01*
X27108568Y27051432D02*
X30671432Y27051432D01*
X17500000Y26510000D02*
X17200000Y26810000D01*
X26510000Y27650000D02*
X25370000Y26510000D01*
X31270000Y29870000D02*
X31580000Y30180000D01*
X17200000Y20800000D02*
X9505000Y20800000D01*
X31580000Y30180000D02*
X36140000Y30180000D01*
X36140000Y30180000D02*
X36340000Y29980000D01*
X46295000Y51940000D02*
X45215000Y50860000D01*
X45215000Y50860000D02*
X36770000Y50860000D01*
X36770000Y50860000D02*
X36340000Y51290000D01*
X30671432Y27051432D02*
X31270000Y27650000D01*
X9505000Y20800000D02*
X8735000Y20030000D01*
X25370000Y26510000D02*
X17500000Y26510000D01*
X7290002Y59230002D02*
X13760000Y59230002D01*
X23480000Y44010000D02*
X30540000Y44010000D01*
X30540000Y44010000D02*
X31658900Y42891100D01*
X31658900Y42891100D02*
X59118900Y42891100D01*
X6190000Y58130000D02*
X7290002Y59230002D01*
X22360000Y42890000D02*
X23480000Y44010000D01*
X13760000Y42890000D02*
X22360000Y42890000D01*
X59118900Y42891100D02*
X59140000Y42870000D01*
X13760000Y42890000D02*
X8735000Y42890000D01*
X21180000Y59180000D02*
X25460000Y59180000D01*
X26510000Y58130000D02*
X56340000Y58130000D01*
X20830000Y58830000D02*
X21180000Y59180000D01*
X20820000Y45430000D02*
X20830000Y45440000D01*
X25460000Y59180000D02*
X26510000Y58130000D01*
X8735000Y45430000D02*
X20820000Y45430000D01*
X57240000Y29080000D02*
X61535000Y29080000D01*
X56340000Y58130000D02*
X57240000Y57230000D01*
X27108568Y56188568D02*
X56160332Y56188568D01*
X25374800Y54454800D02*
X26510000Y55590000D01*
X19884800Y54454800D02*
X25374800Y54454800D01*
X26510000Y55590000D02*
X27108568Y56188568D01*
X19700000Y54270000D02*
X19884800Y54454800D01*
X61535000Y36700000D02*
X56708900Y36700000D01*
X8735000Y47970000D02*
X19700000Y47970000D01*
X56160332Y56188568D02*
X56708900Y55640000D01*
X25380000Y51920000D02*
X26510000Y53050000D01*
X23810000Y51920000D02*
X25380000Y51920000D01*
X22400000Y50510000D02*
X23810000Y51920000D01*
X8735000Y50510000D02*
X22400000Y50510000D01*
X58260000Y53050000D02*
X59370000Y51940000D01*
X26510000Y53050000D02*
X58260000Y53050000D01*
X35054800Y8465200D02*
X4354800Y8465200D01*
X38880000Y7930000D02*
X38800000Y8010000D01*
X38800000Y8010000D02*
X35510000Y8010000D01*
X4354800Y8465200D02*
X4140000Y8680000D01*
X35510000Y8010000D02*
X35054800Y8465200D01*
X6190000Y37810000D02*
X7650000Y36350000D01*
X7650000Y36350000D02*
X12590000Y36350000D01*
X12610000Y20030000D02*
X23975000Y20030000D01*
X7350000Y44050000D02*
X12648911Y44050000D01*
X13078911Y43620000D02*
X17720000Y43620000D01*
X18216600Y56746600D02*
X17890000Y56420000D01*
X49196600Y56746600D02*
X18216600Y56746600D01*
X12648911Y44050000D02*
X13078911Y43620000D01*
X49200000Y56750000D02*
X49196600Y56746600D01*
X6190000Y42890000D02*
X7350000Y44050000D01*
X61535000Y44320000D02*
X49240000Y44320000D01*
X30690000Y47240000D02*
X30300000Y46850000D01*
X7279998Y41439998D02*
X16969998Y41439998D01*
X6190000Y40350000D02*
X7279998Y41439998D01*
X21730000Y46850000D02*
X21498900Y47081100D01*
X21498900Y47081100D02*
X16980000Y47081100D01*
X16980000Y47081100D02*
X16978900Y47080000D01*
X30300000Y46850000D02*
X21730000Y46850000D01*
X6540000Y30190000D02*
X7890000Y28840000D01*
X20080000Y22570000D02*
X19870000Y22780000D01*
X7890000Y28840000D02*
X19630000Y28840000D01*
X6190000Y30190000D02*
X6540000Y30190000D01*
X23975000Y22570000D02*
X20080000Y22570000D01*
X30061000Y14960000D02*
X28961000Y16060000D01*
X21440000Y16060000D02*
X20730000Y15350000D01*
X7300000Y23680000D02*
X11450000Y23680000D01*
X11970000Y12410000D02*
X23975000Y12410000D01*
X11450000Y23680000D02*
X11970000Y23160000D01*
X28961000Y16060000D02*
X21440000Y16060000D01*
X6190000Y22570000D02*
X7300000Y23680000D01*
X6190000Y25110000D02*
X7315200Y23984800D01*
X22110000Y18680000D02*
X21993944Y18563944D01*
X28881000Y18680000D02*
X22110000Y18680000D01*
X21555200Y23984800D02*
X21990000Y23550000D01*
X32591002Y20030002D02*
X57820002Y20030002D01*
X30061000Y17500000D02*
X28881000Y18680000D01*
X7315200Y23984800D02*
X21555200Y23984800D01*
X30061000Y17500000D02*
X32591002Y20030002D01*
X14620000Y22570000D02*
X8735000Y22570000D01*
X28300000Y25440000D02*
X27550000Y26190000D01*
X27550000Y26190000D02*
X14630000Y26190000D01*
X53290000Y25440000D02*
X28300000Y25440000D01*
X61535000Y46860000D02*
X53300000Y46860000D01*
X14630000Y22580000D02*
X14620000Y22570000D01*
X53300000Y46860000D02*
X53290000Y46870000D01*
X23975000Y17490000D02*
X26510000Y17490000D01*
X31894800Y21155200D02*
X32710000Y20340000D01*
X9720000Y8770000D02*
X10280000Y9330000D01*
X8735000Y25110000D02*
X18000000Y25110000D01*
X7290000Y8770000D02*
X9720000Y8770000D01*
X32710000Y20340000D02*
X48310000Y20340000D01*
X48310000Y20340000D02*
X49130000Y21160000D01*
X18695200Y21155200D02*
X31894800Y21155200D01*
X6190000Y9870000D02*
X7290000Y8770000D01*
X18000000Y25110000D02*
X18010000Y25100000D01*
X18460000Y20920000D02*
X18695200Y21155200D01*
X6190000Y20030000D02*
X7650000Y21490000D01*
X7650000Y21490000D02*
X32230000Y21490000D01*
X32230000Y21490000D02*
X32810000Y20910000D01*
X32810000Y20910000D02*
X40840000Y20910000D01*
X23975000Y25105000D02*
X23975000Y25110000D01*
X26510000Y22570000D02*
X23975000Y25105000D01*
X31290000Y13890000D02*
X35690000Y13890000D01*
X27620000Y13520000D02*
X30920000Y13520000D01*
X30920000Y13520000D02*
X31290000Y13890000D01*
X26510000Y12410000D02*
X27620000Y13520000D01*
X35690000Y13890000D02*
X36020000Y13890000D01*
X29401400Y57051400D02*
X29670000Y57320000D01*
X35510000Y23990000D02*
X35520000Y24000000D01*
X29670000Y49450000D02*
X29675000Y49445000D01*
X33395000Y48910000D02*
X35510000Y48910000D01*
X35520000Y24000000D02*
X46295000Y24000000D01*
X29675000Y49445000D02*
X32860000Y49445000D01*
X23975000Y58130000D02*
X25053600Y57051400D01*
X25053600Y57051400D02*
X29401400Y57051400D01*
X32860000Y49445000D02*
X33395000Y48910000D01*
X28845000Y41825000D02*
X32860000Y41825000D01*
X38585000Y41825000D02*
X38590000Y41830000D01*
X46295000Y26540000D02*
X40700000Y26540000D01*
X40700000Y26540000D02*
X40230000Y26070000D01*
X32860000Y41825000D02*
X38585000Y41825000D01*
X28550000Y42120000D02*
X28845000Y41825000D01*
X45221400Y30153600D02*
X37323600Y30153600D01*
X37145000Y39285000D02*
X32860000Y39285000D01*
X37150000Y39290000D02*
X37145000Y39285000D01*
X32860000Y39285000D02*
X31995000Y40150000D01*
X31995000Y40150000D02*
X29088900Y40150000D01*
X46295000Y29080000D02*
X45221400Y30153600D01*
X37323600Y30153600D02*
X37150000Y29980000D01*
X14360000Y31430000D02*
X32625000Y31430000D01*
X8735000Y63210000D02*
X14360000Y63210000D01*
X33965000Y30560000D02*
X45235000Y30560000D01*
X45235000Y30560000D02*
X46295000Y31620000D01*
X32625000Y31430000D02*
X32860000Y31665000D01*
X32860000Y31665000D02*
X33965000Y30560000D01*
X14900000Y33840000D02*
X31500000Y33840000D01*
X33908748Y32725200D02*
X34968948Y31665000D01*
X43620000Y33610000D02*
X44170000Y34160000D01*
X40480000Y31665000D02*
X43615000Y31665000D01*
X43615000Y31665000D02*
X43620000Y31660000D01*
X8735000Y60670000D02*
X14900000Y60670000D01*
X44170000Y34160000D02*
X46295000Y34160000D01*
X34968948Y31665000D02*
X40480000Y31665000D01*
X31500000Y33840000D02*
X32614800Y32725200D01*
X32614800Y32725200D02*
X33908748Y32725200D01*
X8735000Y58130000D02*
X18220000Y58130000D01*
X40480000Y39285000D02*
X43710000Y39285000D01*
X18610000Y39170000D02*
X27910000Y39170000D01*
X39355000Y38160000D02*
X40480000Y39285000D01*
X27910000Y39170000D02*
X28920000Y38160000D01*
X28920000Y38160000D02*
X39355000Y38160000D01*
X43710000Y39285000D02*
X46295000Y36700000D01*
X31020000Y41500000D02*
X31760000Y40760000D01*
X31760000Y40760000D02*
X39415000Y40760000D01*
X39415000Y40760000D02*
X40480000Y41825000D01*
X43710000Y41825000D02*
X46295000Y39240000D01*
X40480000Y41825000D02*
X43710000Y41825000D01*
X19340000Y41500000D02*
X31020000Y41500000D01*
X8735000Y55590000D02*
X19150000Y55590000D01*
X19160000Y41320000D02*
X19340000Y41500000D01*
X34825000Y49445000D02*
X40480000Y49445000D01*
X22370000Y53050000D02*
X23470000Y54150000D01*
X40480000Y49445000D02*
X44385000Y49445000D01*
X23470000Y54150000D02*
X34790000Y54150000D01*
X34820000Y49450000D02*
X34825000Y49445000D01*
X34790000Y54150000D02*
X34820000Y54120000D01*
X8735000Y53050000D02*
X22370000Y53050000D01*
%TA.AperFunction,Conductor*%
G36*
X22666241Y5263615D02*
G01*
X22711996Y5210811D01*
X22721940Y5141653D01*
X22718977Y5127207D01*
X22689366Y5016698D01*
X22689364Y5016687D01*
X22669532Y4790002D01*
X22669532Y4789999D01*
X22689364Y4563314D01*
X22689366Y4563303D01*
X22748258Y4343512D01*
X22748261Y4343504D01*
X22844432Y4137266D01*
X22844433Y4137265D01*
X22844870Y4136508D01*
X22844961Y4136132D01*
X22846720Y4132360D01*
X22845962Y4132007D01*
X22861348Y4068609D01*
X22838501Y4002581D01*
X22783583Y3959386D01*
X22737488Y3950500D01*
X17845782Y3950500D01*
X17778743Y3970185D01*
X17758101Y3986819D01*
X16673301Y5071619D01*
X16639816Y5132942D01*
X16644800Y5202634D01*
X16686672Y5258567D01*
X16752136Y5282984D01*
X16760982Y5283300D01*
X22599202Y5283300D01*
X22666241Y5263615D01*
G37*
%TD.AperFunction*%
%TA.AperFunction,Conductor*%
G36*
X35228203Y5695356D02*
G01*
X35258481Y5667215D01*
X35279364Y5640000D01*
X36176314Y5640000D01*
X36150507Y5599844D01*
X36110000Y5461889D01*
X36110000Y5318111D01*
X36150507Y5180156D01*
X36176314Y5140000D01*
X35279364Y5140000D01*
X35336567Y4926514D01*
X35336570Y4926508D01*
X35436399Y4712422D01*
X35571894Y4518918D01*
X35738917Y4351895D01*
X35932421Y4216400D01*
X35995723Y4186882D01*
X36048162Y4140710D01*
X36067314Y4073516D01*
X36047098Y4006635D01*
X35993933Y3961300D01*
X35943318Y3950500D01*
X25212512Y3950500D01*
X25145473Y3970185D01*
X25099718Y4022989D01*
X25089774Y4092147D01*
X25103637Y4132197D01*
X25103281Y4132363D01*
X25104888Y4135810D01*
X25105130Y4136508D01*
X25105559Y4137255D01*
X25105568Y4137266D01*
X25107639Y4141709D01*
X25153813Y4194146D01*
X25220020Y4213300D01*
X33058136Y4213300D01*
X33066234Y4212770D01*
X33087005Y4210035D01*
X33099999Y4208324D01*
X33100000Y4208324D01*
X33100001Y4208324D01*
X33150183Y4214931D01*
X33250549Y4228144D01*
X33390838Y4286254D01*
X33481062Y4355485D01*
X33481062Y4355486D01*
X33504000Y4373086D01*
X33504005Y4373090D01*
X33511305Y4378691D01*
X33511307Y4378693D01*
X33532043Y4405719D01*
X33537385Y4411810D01*
X34697767Y5572192D01*
X34759088Y5605675D01*
X34771564Y5607729D01*
X34771680Y5607742D01*
X34777528Y5608401D01*
X34899809Y5622178D01*
X34899811Y5622179D01*
X34899815Y5622179D01*
X34899818Y5622181D01*
X34899822Y5622181D01*
X35070609Y5681942D01*
X35070611Y5681944D01*
X35070613Y5681944D01*
X35094132Y5696723D01*
X35161368Y5715723D01*
X35228203Y5695356D01*
G37*
%TD.AperFunction*%
%TA.AperFunction,Conductor*%
G36*
X22683711Y7868815D02*
G01*
X22729466Y7816011D01*
X22739410Y7746853D01*
X22736447Y7732407D01*
X22689366Y7556698D01*
X22689364Y7556687D01*
X22669532Y7330002D01*
X22669532Y7329999D01*
X22689364Y7103314D01*
X22689365Y7103306D01*
X22689366Y7103303D01*
X22721656Y6982793D01*
X22719994Y6912944D01*
X22680832Y6855081D01*
X22616603Y6827577D01*
X22601882Y6826700D01*
X10108118Y6826700D01*
X10041079Y6846385D01*
X9995324Y6899189D01*
X9985380Y6968347D01*
X9988343Y6982794D01*
X9997946Y7018637D01*
X10020635Y7103308D01*
X10040468Y7330000D01*
X10020635Y7556692D01*
X9973553Y7732407D01*
X9975216Y7802257D01*
X10014379Y7860119D01*
X10078607Y7887623D01*
X10093328Y7888500D01*
X22616672Y7888500D01*
X22683711Y7868815D01*
G37*
%TD.AperFunction*%
%TA.AperFunction,Conductor*%
G36*
X22679638Y10393615D02*
G01*
X22725393Y10340811D01*
X22735337Y10271653D01*
X22732374Y10257207D01*
X22689366Y10096698D01*
X22689364Y10096687D01*
X22669532Y9870002D01*
X22669532Y9869999D01*
X22689364Y9643314D01*
X22689366Y9643303D01*
X22748258Y9423512D01*
X22748261Y9423503D01*
X22791861Y9330004D01*
X22842312Y9221812D01*
X22843948Y9218305D01*
X22854440Y9149228D01*
X22825921Y9085444D01*
X22767444Y9047204D01*
X22731566Y9041900D01*
X11194376Y9041900D01*
X11127337Y9061585D01*
X11081582Y9114389D01*
X11071156Y9179784D01*
X11088081Y9329998D01*
X11088081Y9330004D01*
X11067822Y9509807D01*
X11067821Y9509813D01*
X11067821Y9509815D01*
X11008056Y9680613D01*
X10911783Y9833830D01*
X10783830Y9961783D01*
X10756208Y9979139D01*
X10630612Y10058057D01*
X10459812Y10117822D01*
X10459806Y10117823D01*
X10280004Y10138081D01*
X10279996Y10138081D01*
X10123509Y10120450D01*
X10054687Y10132505D01*
X10003308Y10179854D01*
X9989851Y10211577D01*
X9987734Y10219478D01*
X9989397Y10289328D01*
X10019827Y10339252D01*
X10057561Y10376984D01*
X10118885Y10410467D01*
X10145240Y10413300D01*
X22612599Y10413300D01*
X22679638Y10393615D01*
G37*
%TD.AperFunction*%
%TA.AperFunction,Conductor*%
G36*
X19933652Y15793615D02*
G01*
X19979407Y15740811D01*
X19989351Y15671653D01*
X19983655Y15648346D01*
X19942178Y15529813D01*
X19942177Y15529807D01*
X19921919Y15350004D01*
X19921919Y15349997D01*
X19942177Y15170194D01*
X19942178Y15170188D01*
X20001943Y14999388D01*
X20033090Y14949818D01*
X20098217Y14846170D01*
X20226170Y14718217D01*
X20288357Y14679142D01*
X20341589Y14645694D01*
X20387880Y14593359D01*
X20398528Y14524305D01*
X20370153Y14460457D01*
X20311763Y14422085D01*
X20275617Y14416700D01*
X10206862Y14416700D01*
X10198762Y14417231D01*
X10165000Y14421676D01*
X10164996Y14421676D01*
X10133282Y14417502D01*
X10133270Y14417499D01*
X10115568Y14415169D01*
X10046533Y14425936D01*
X9994278Y14472316D01*
X9975394Y14539586D01*
X9979609Y14570198D01*
X10020635Y14723308D01*
X10040468Y14950000D01*
X10038668Y14970569D01*
X10030255Y15066739D01*
X10020635Y15176692D01*
X9987734Y15299479D01*
X9989397Y15369328D01*
X10019826Y15419251D01*
X10377558Y15776981D01*
X10438881Y15810466D01*
X10465239Y15813300D01*
X19866613Y15813300D01*
X19933652Y15793615D01*
G37*
%TD.AperFunction*%
%TA.AperFunction,Conductor*%
G36*
X56339616Y19433617D02*
G01*
X56385371Y19380813D01*
X56395315Y19311655D01*
X56384297Y19275499D01*
X56381942Y19270611D01*
X56322178Y19099813D01*
X56322177Y19099807D01*
X56301919Y18920004D01*
X56301919Y18919997D01*
X56322177Y18740194D01*
X56322178Y18740188D01*
X56322178Y18740186D01*
X56322179Y18740185D01*
X56322309Y18739813D01*
X56381943Y18569388D01*
X56442192Y18473503D01*
X56478217Y18416170D01*
X56606170Y18288217D01*
X56759387Y18191944D01*
X56930185Y18132179D01*
X56930191Y18132179D01*
X56930193Y18132178D01*
X57109996Y18111919D01*
X57110000Y18111919D01*
X57110004Y18111919D01*
X57289806Y18132178D01*
X57289805Y18132178D01*
X57289815Y18132179D01*
X57460613Y18191944D01*
X57613830Y18288217D01*
X57632594Y18306981D01*
X57693917Y18340466D01*
X57720275Y18343300D01*
X60289980Y18343300D01*
X60357019Y18323615D01*
X60402361Y18271708D01*
X60404432Y18267266D01*
X60534954Y18080859D01*
X60695858Y17919955D01*
X60697752Y17918629D01*
X60882266Y17789432D01*
X60933110Y17765723D01*
X60940275Y17762382D01*
X60992714Y17716209D01*
X61011866Y17649016D01*
X60991650Y17582135D01*
X60940275Y17537618D01*
X60882267Y17510569D01*
X60882265Y17510568D01*
X60695858Y17380046D01*
X60534954Y17219142D01*
X60404432Y17032735D01*
X60404431Y17032733D01*
X60308261Y16826498D01*
X60308258Y16826489D01*
X60249366Y16606698D01*
X60249364Y16606688D01*
X60239284Y16491471D01*
X60213831Y16426402D01*
X60157240Y16385424D01*
X60087478Y16381546D01*
X60026694Y16416000D01*
X60010762Y16436307D01*
X59911782Y16593831D01*
X59783830Y16721783D01*
X59630612Y16818057D01*
X59459812Y16877822D01*
X59459806Y16877823D01*
X59280004Y16898081D01*
X59279996Y16898081D01*
X59100193Y16877823D01*
X59100187Y16877822D01*
X58929387Y16818057D01*
X58776169Y16721783D01*
X58648217Y16593831D01*
X58551943Y16440613D01*
X58492177Y16269810D01*
X58477727Y16141564D01*
X58450660Y16077150D01*
X58442189Y16067767D01*
X58257440Y15883018D01*
X58196120Y15849534D01*
X58169761Y15846700D01*
X47660080Y15846700D01*
X47593041Y15866385D01*
X47547286Y15919189D01*
X47537342Y15988347D01*
X47540305Y16002793D01*
X47557714Y16067767D01*
X47580635Y16153308D01*
X47600468Y16380000D01*
X47599993Y16385424D01*
X47590848Y16489955D01*
X47580635Y16606692D01*
X47525578Y16812170D01*
X47521741Y16826489D01*
X47521738Y16826498D01*
X47511128Y16849252D01*
X47425568Y17032734D01*
X47295047Y17219139D01*
X47295045Y17219142D01*
X47134141Y17380046D01*
X46947734Y17510568D01*
X46947728Y17510571D01*
X46889725Y17537618D01*
X46837285Y17583790D01*
X46818133Y17650983D01*
X46838348Y17717865D01*
X46889725Y17762382D01*
X46896890Y17765723D01*
X46947734Y17789432D01*
X47134139Y17919953D01*
X47295047Y18080861D01*
X47425568Y18267266D01*
X47521739Y18473504D01*
X47580635Y18693308D01*
X47600468Y18920000D01*
X47580635Y19146692D01*
X47560478Y19221919D01*
X47540305Y19297209D01*
X47541968Y19367059D01*
X47581131Y19424921D01*
X47645360Y19452425D01*
X47660080Y19453302D01*
X56272577Y19453302D01*
X56339616Y19433617D01*
G37*
%TD.AperFunction*%
%TA.AperFunction,Conductor*%
G36*
X44451800Y17403615D02*
G01*
X44472442Y17386981D01*
X45010171Y16849252D01*
X45043656Y16787929D01*
X45042265Y16729479D01*
X45032371Y16692552D01*
X44996007Y16632891D01*
X44933161Y16602361D01*
X44912596Y16600644D01*
X42560275Y16600644D01*
X42493236Y16620329D01*
X42472594Y16636963D01*
X42453830Y16655727D01*
X42300612Y16752001D01*
X42129812Y16811766D01*
X42129806Y16811767D01*
X41950004Y16832025D01*
X41949996Y16832025D01*
X41770193Y16811767D01*
X41770187Y16811766D01*
X41599387Y16752001D01*
X41446169Y16655727D01*
X41427406Y16636963D01*
X41366083Y16603478D01*
X41339725Y16600644D01*
X40156295Y16600644D01*
X40089256Y16620329D01*
X40068614Y16636963D01*
X39493958Y17211619D01*
X39460473Y17272942D01*
X39465457Y17342634D01*
X39507329Y17398567D01*
X39572793Y17422984D01*
X39581639Y17423300D01*
X44384761Y17423300D01*
X44451800Y17403615D01*
G37*
%TD.AperFunction*%
%TA.AperFunction,Conductor*%
G36*
X11751981Y20203615D02*
G01*
X11797736Y20150811D01*
X11808162Y20085418D01*
X11801919Y20030006D01*
X11801919Y20029997D01*
X11822177Y19850194D01*
X11822178Y19850188D01*
X11881943Y19679388D01*
X11942192Y19583503D01*
X11978217Y19526170D01*
X12106170Y19398217D01*
X12259387Y19301944D01*
X12430185Y19242179D01*
X12430191Y19242179D01*
X12430193Y19242178D01*
X12609996Y19221919D01*
X12610000Y19221919D01*
X12610004Y19221919D01*
X12789806Y19242178D01*
X12789805Y19242178D01*
X12789815Y19242179D01*
X12960613Y19301944D01*
X13113830Y19398217D01*
X13132594Y19416981D01*
X13193917Y19450466D01*
X13220275Y19453300D01*
X21471958Y19453300D01*
X21538997Y19433615D01*
X21584752Y19380811D01*
X21594696Y19311653D01*
X21565671Y19248097D01*
X21537930Y19224306D01*
X21486169Y19191783D01*
X21358217Y19063831D01*
X21261943Y18910613D01*
X21202178Y18739813D01*
X21202177Y18739807D01*
X21181919Y18560004D01*
X21181919Y18559997D01*
X21202177Y18380194D01*
X21202178Y18380188D01*
X21261943Y18209388D01*
X21342704Y18080859D01*
X21358217Y18056170D01*
X21486170Y17928217D01*
X21639387Y17831944D01*
X21810185Y17772179D01*
X21810191Y17772179D01*
X21810193Y17772178D01*
X21989996Y17751919D01*
X21990000Y17751919D01*
X21990004Y17751919D01*
X22169806Y17772178D01*
X22169805Y17772178D01*
X22169815Y17772179D01*
X22340613Y17831944D01*
X22493830Y17928217D01*
X22511128Y17945516D01*
X22572448Y17979001D01*
X22642140Y17974018D01*
X22698074Y17932148D01*
X22722493Y17866684D01*
X22718584Y17825742D01*
X22689366Y17716698D01*
X22689364Y17716687D01*
X22669532Y17490002D01*
X22669532Y17489999D01*
X22689364Y17263314D01*
X22689366Y17263303D01*
X22727015Y17122793D01*
X22725352Y17052943D01*
X22686189Y16995081D01*
X22621960Y16967577D01*
X22607240Y16966700D01*
X11825943Y16966700D01*
X11758904Y16986385D01*
X11713149Y17039189D01*
X11703205Y17108347D01*
X11720949Y17156672D01*
X11755474Y17211619D01*
X11798056Y17279387D01*
X11857821Y17450185D01*
X11863434Y17500002D01*
X11878081Y17629997D01*
X11878081Y17630004D01*
X11857822Y17809807D01*
X11857821Y17809813D01*
X11857821Y17809815D01*
X11798056Y17980613D01*
X11701783Y18133830D01*
X11573830Y18261783D01*
X11501898Y18306981D01*
X11420612Y18358057D01*
X11249812Y18417822D01*
X11249806Y18417823D01*
X11070004Y18438081D01*
X11069996Y18438081D01*
X10890193Y18417823D01*
X10890187Y18417822D01*
X10719387Y18358057D01*
X10566169Y18261783D01*
X10438214Y18133828D01*
X10432495Y18124725D01*
X10380160Y18078436D01*
X10327503Y18066700D01*
X9980020Y18066700D01*
X9912981Y18086385D01*
X9867639Y18138292D01*
X9867537Y18138511D01*
X9865568Y18142734D01*
X9735047Y18329139D01*
X9735045Y18329142D01*
X9574141Y18490046D01*
X9387734Y18620568D01*
X9387728Y18620571D01*
X9329725Y18647618D01*
X9277285Y18693790D01*
X9258133Y18760983D01*
X9278348Y18827865D01*
X9329725Y18872382D01*
X9387734Y18899432D01*
X9574139Y19029953D01*
X9735047Y19190861D01*
X9865568Y19377266D01*
X9961739Y19583504D01*
X10020635Y19803308D01*
X10040468Y20030000D01*
X10040468Y20030003D01*
X10035351Y20088493D01*
X10049118Y20156993D01*
X10097733Y20207176D01*
X10158879Y20223300D01*
X11684942Y20223300D01*
X11751981Y20203615D01*
G37*
%TD.AperFunction*%
%TA.AperFunction,Conductor*%
G36*
X60357019Y36103615D02*
G01*
X60402361Y36051708D01*
X60404432Y36047266D01*
X60534954Y35860859D01*
X60695858Y35699955D01*
X60695861Y35699953D01*
X60882266Y35569432D01*
X60940275Y35542382D01*
X60992714Y35496209D01*
X61011866Y35429016D01*
X60991650Y35362135D01*
X60940275Y35317618D01*
X60882267Y35290569D01*
X60882265Y35290568D01*
X60695858Y35160046D01*
X60534954Y34999142D01*
X60404432Y34812735D01*
X60404431Y34812733D01*
X60308261Y34606498D01*
X60308258Y34606489D01*
X60249366Y34386698D01*
X60249364Y34386687D01*
X60229532Y34160002D01*
X60229532Y34159999D01*
X60249364Y33933314D01*
X60249366Y33933303D01*
X60308258Y33713512D01*
X60308261Y33713503D01*
X60404431Y33507268D01*
X60404432Y33507266D01*
X60534954Y33320859D01*
X60695858Y33159955D01*
X60695861Y33159953D01*
X60882266Y33029432D01*
X60940865Y33002107D01*
X60993305Y32955935D01*
X61012457Y32888742D01*
X60992242Y32821861D01*
X60940867Y32777343D01*
X60882511Y32750131D01*
X60809527Y32699028D01*
X60809526Y32699027D01*
X61490600Y32017954D01*
X61409852Y32005165D01*
X61296955Y31947641D01*
X61207359Y31858045D01*
X61149835Y31745148D01*
X61137046Y31664401D01*
X60455973Y32345474D01*
X60455972Y32345473D01*
X60404868Y32272487D01*
X60308734Y32066327D01*
X60308730Y32066318D01*
X60249860Y31846611D01*
X60249858Y31846600D01*
X60230034Y31620003D01*
X60230034Y31619998D01*
X60249858Y31393401D01*
X60249860Y31393390D01*
X60308730Y31173683D01*
X60308734Y31173674D01*
X60404865Y30967519D01*
X60404866Y30967517D01*
X60455973Y30894529D01*
X60455974Y30894528D01*
X61137046Y31575601D01*
X61149835Y31494852D01*
X61207359Y31381955D01*
X61296955Y31292359D01*
X61409852Y31234835D01*
X61490599Y31222047D01*
X60809526Y30540975D01*
X60809526Y30540974D01*
X60882512Y30489869D01*
X60882520Y30489865D01*
X60940865Y30462658D01*
X60993305Y30416486D01*
X61012457Y30349293D01*
X60992242Y30282411D01*
X60940867Y30237895D01*
X60882266Y30210568D01*
X60882264Y30210567D01*
X60695858Y30080046D01*
X60534954Y29919142D01*
X60404432Y29732735D01*
X60402361Y29728292D01*
X60356187Y29675854D01*
X60289980Y29656700D01*
X57850275Y29656700D01*
X57783236Y29676385D01*
X57762594Y29693019D01*
X57743830Y29711783D01*
X57590612Y29808057D01*
X57419812Y29867822D01*
X57419806Y29867823D01*
X57240004Y29888081D01*
X57239996Y29888081D01*
X57060193Y29867823D01*
X57060187Y29867822D01*
X56889387Y29808057D01*
X56736169Y29711783D01*
X56608217Y29583831D01*
X56511943Y29430613D01*
X56452178Y29259813D01*
X56452177Y29259807D01*
X56431919Y29080004D01*
X56431919Y29079997D01*
X56452177Y28900194D01*
X56452178Y28900188D01*
X56511943Y28729388D01*
X56572192Y28633503D01*
X56608217Y28576170D01*
X56736170Y28448217D01*
X56889387Y28351944D01*
X57060185Y28292179D01*
X57060191Y28292179D01*
X57060193Y28292178D01*
X57239996Y28271919D01*
X57240000Y28271919D01*
X57240004Y28271919D01*
X57419806Y28292178D01*
X57419805Y28292178D01*
X57419815Y28292179D01*
X57590613Y28351944D01*
X57743830Y28448217D01*
X57762594Y28466981D01*
X57823917Y28500466D01*
X57850275Y28503300D01*
X60289980Y28503300D01*
X60357019Y28483615D01*
X60402361Y28431708D01*
X60404432Y28427266D01*
X60534954Y28240859D01*
X60695858Y28079955D01*
X60695861Y28079953D01*
X60882266Y27949432D01*
X60940275Y27922382D01*
X60992714Y27876209D01*
X61011866Y27809016D01*
X60991650Y27742135D01*
X60940275Y27697618D01*
X60882267Y27670569D01*
X60882265Y27670568D01*
X60695858Y27540046D01*
X60534954Y27379142D01*
X60404432Y27192735D01*
X60404431Y27192733D01*
X60308261Y26986498D01*
X60308258Y26986489D01*
X60249367Y26766700D01*
X60249364Y26766687D01*
X60229532Y26540002D01*
X60229532Y26539999D01*
X60249364Y26313314D01*
X60249366Y26313303D01*
X60308258Y26093512D01*
X60308261Y26093503D01*
X60404431Y25887268D01*
X60404432Y25887266D01*
X60534954Y25700859D01*
X60695858Y25539955D01*
X60695861Y25539953D01*
X60882266Y25409432D01*
X60940275Y25382382D01*
X60992714Y25336209D01*
X61011866Y25269016D01*
X60991650Y25202135D01*
X60940275Y25157618D01*
X60882267Y25130569D01*
X60882265Y25130568D01*
X60695858Y25000046D01*
X60534954Y24839142D01*
X60404432Y24652735D01*
X60404431Y24652733D01*
X60308261Y24446498D01*
X60308258Y24446489D01*
X60249366Y24226698D01*
X60249364Y24226687D01*
X60229532Y24000002D01*
X60229532Y23999999D01*
X60249364Y23773314D01*
X60249366Y23773303D01*
X60308258Y23553512D01*
X60308261Y23553503D01*
X60404431Y23347268D01*
X60404432Y23347266D01*
X60534954Y23160859D01*
X60695858Y22999955D01*
X60695861Y22999953D01*
X60882266Y22869432D01*
X60940275Y22842382D01*
X60992714Y22796209D01*
X61011866Y22729016D01*
X60991650Y22662135D01*
X60940275Y22617618D01*
X60882267Y22590569D01*
X60882265Y22590568D01*
X60695858Y22460046D01*
X60534954Y22299142D01*
X60404432Y22112735D01*
X60402361Y22108292D01*
X60356187Y22055854D01*
X60289980Y22036700D01*
X59250275Y22036700D01*
X59183236Y22056385D01*
X59162594Y22073019D01*
X59143830Y22091783D01*
X58990612Y22188057D01*
X58819812Y22247822D01*
X58819806Y22247823D01*
X58640004Y22268081D01*
X58639996Y22268081D01*
X58460193Y22247823D01*
X58460187Y22247822D01*
X58289387Y22188057D01*
X58136169Y22091783D01*
X58008217Y21963831D01*
X57911943Y21810613D01*
X57852178Y21639813D01*
X57852177Y21639807D01*
X57831919Y21460004D01*
X57831919Y21459997D01*
X57852177Y21280194D01*
X57852178Y21280188D01*
X57911944Y21109386D01*
X57950482Y21048054D01*
X57969483Y20980817D01*
X57949116Y20913982D01*
X57895848Y20868767D01*
X57845489Y20858081D01*
X57839996Y20858081D01*
X57660193Y20837823D01*
X57660187Y20837822D01*
X57489387Y20778057D01*
X57336169Y20681783D01*
X57297408Y20643021D01*
X57236085Y20609536D01*
X57209727Y20606702D01*
X49955062Y20606702D01*
X49888023Y20626387D01*
X49842268Y20679191D01*
X49832324Y20748349D01*
X49850069Y20796675D01*
X49856723Y20807266D01*
X49858056Y20809387D01*
X49917821Y20980185D01*
X49932378Y21109386D01*
X49938081Y21159997D01*
X49938081Y21160005D01*
X49917822Y21339807D01*
X49917821Y21339813D01*
X49917821Y21339815D01*
X49858056Y21510613D01*
X49761783Y21663830D01*
X49633830Y21791783D01*
X49603862Y21810613D01*
X49480612Y21888057D01*
X49309812Y21947822D01*
X49309806Y21947823D01*
X49130004Y21968081D01*
X49129996Y21968081D01*
X48950193Y21947823D01*
X48950187Y21947822D01*
X48779387Y21888057D01*
X48626169Y21791783D01*
X48498217Y21663831D01*
X48401943Y21510613D01*
X48342177Y21339810D01*
X48327727Y21211564D01*
X48300660Y21147150D01*
X48292189Y21137767D01*
X48107440Y20953018D01*
X48046120Y20919534D01*
X48019761Y20916700D01*
X47657401Y20916700D01*
X47590362Y20936385D01*
X47544607Y20989189D01*
X47534663Y21058347D01*
X47537626Y21072793D01*
X47572791Y21204035D01*
X47580635Y21233308D01*
X47600468Y21460000D01*
X47580635Y21686692D01*
X47521739Y21906496D01*
X47425568Y22112734D01*
X47295047Y22299139D01*
X47295045Y22299142D01*
X47134141Y22460046D01*
X46947734Y22590568D01*
X46947728Y22590571D01*
X46889725Y22617618D01*
X46837285Y22663790D01*
X46818133Y22730983D01*
X46838348Y22797865D01*
X46889725Y22842382D01*
X46947734Y22869432D01*
X47134139Y22999953D01*
X47295047Y23160861D01*
X47425568Y23347266D01*
X47521739Y23553504D01*
X47580635Y23773308D01*
X47600468Y24000000D01*
X47595758Y24053830D01*
X47588447Y24137399D01*
X47580635Y24226692D01*
X47521739Y24446496D01*
X47425568Y24652734D01*
X47414754Y24668178D01*
X47392427Y24734381D01*
X47409437Y24802149D01*
X47460384Y24849962D01*
X47516329Y24863300D01*
X52679725Y24863300D01*
X52746764Y24843615D01*
X52767406Y24826981D01*
X52786170Y24808217D01*
X52939387Y24711944D01*
X53110185Y24652179D01*
X53110191Y24652179D01*
X53110193Y24652178D01*
X53289996Y24631919D01*
X53290000Y24631919D01*
X53290004Y24631919D01*
X53469806Y24652178D01*
X53469805Y24652178D01*
X53469815Y24652179D01*
X53640613Y24711944D01*
X53793830Y24808217D01*
X53921783Y24936170D01*
X54018056Y25089387D01*
X54077821Y25260185D01*
X54086441Y25336692D01*
X54098081Y25439997D01*
X54098081Y25440004D01*
X54077822Y25619807D01*
X54077821Y25619813D01*
X54077821Y25619815D01*
X54018056Y25790613D01*
X53921783Y25943830D01*
X53793830Y26071783D01*
X53759249Y26093512D01*
X53640612Y26168057D01*
X53469812Y26227822D01*
X53469806Y26227823D01*
X53290004Y26248081D01*
X53289996Y26248081D01*
X53110193Y26227823D01*
X53110187Y26227822D01*
X52939387Y26168057D01*
X52786169Y26071783D01*
X52767406Y26053019D01*
X52706083Y26019534D01*
X52679725Y26016700D01*
X47662760Y26016700D01*
X47595721Y26036385D01*
X47549966Y26089189D01*
X47540022Y26158347D01*
X47542985Y26172793D01*
X47575768Y26295145D01*
X47580635Y26313308D01*
X47600468Y26540000D01*
X47599795Y26547687D01*
X47580635Y26766687D01*
X47580635Y26766692D01*
X47565873Y26821783D01*
X47521741Y26986489D01*
X47521738Y26986498D01*
X47495042Y27043747D01*
X47425568Y27192734D01*
X47309973Y27357822D01*
X47295045Y27379142D01*
X47134141Y27540046D01*
X46947734Y27670568D01*
X46947728Y27670571D01*
X46889725Y27697618D01*
X46837285Y27743790D01*
X46818133Y27810983D01*
X46838348Y27877865D01*
X46889725Y27922382D01*
X46947734Y27949432D01*
X47134139Y28079953D01*
X47295047Y28240861D01*
X47425568Y28427266D01*
X47521739Y28633504D01*
X47580635Y28853308D01*
X47600468Y29080000D01*
X47600277Y29082178D01*
X47592426Y29171919D01*
X47580635Y29306692D01*
X47525578Y29512170D01*
X47521741Y29526489D01*
X47521738Y29526498D01*
X47514697Y29541598D01*
X47425568Y29732734D01*
X47316794Y29888081D01*
X47295045Y29919142D01*
X47134141Y30080046D01*
X46947734Y30210568D01*
X46947728Y30210571D01*
X46889725Y30237618D01*
X46837285Y30283790D01*
X46818133Y30350983D01*
X46838348Y30417865D01*
X46889725Y30462382D01*
X46890319Y30462659D01*
X46947734Y30489432D01*
X47134139Y30619953D01*
X47295047Y30780861D01*
X47425568Y30967266D01*
X47521739Y31173504D01*
X47580635Y31393308D01*
X47600468Y31620000D01*
X47596968Y31660000D01*
X47592610Y31709815D01*
X47580635Y31846692D01*
X47548343Y31967208D01*
X47550006Y32037056D01*
X47589168Y32094919D01*
X47653397Y32122423D01*
X47668118Y32123300D01*
X54989725Y32123300D01*
X55056764Y32103615D01*
X55077406Y32086981D01*
X55096170Y32068217D01*
X55249387Y31971944D01*
X55420185Y31912179D01*
X55420191Y31912179D01*
X55420193Y31912178D01*
X55599996Y31891919D01*
X55600000Y31891919D01*
X55600004Y31891919D01*
X55779806Y31912178D01*
X55779805Y31912178D01*
X55779815Y31912179D01*
X55950613Y31971944D01*
X56103830Y32068217D01*
X56231783Y32196170D01*
X56328056Y32349387D01*
X56387821Y32520185D01*
X56391201Y32550185D01*
X56408081Y32699997D01*
X56408081Y32700004D01*
X56387822Y32879807D01*
X56387821Y32879813D01*
X56387821Y32879815D01*
X56328056Y33050613D01*
X56231783Y33203830D01*
X56103830Y33331783D01*
X56076129Y33349189D01*
X55950612Y33428057D01*
X55779812Y33487822D01*
X55779806Y33487823D01*
X55600004Y33508081D01*
X55599996Y33508081D01*
X55420193Y33487823D01*
X55420187Y33487822D01*
X55249387Y33428057D01*
X55096169Y33331783D01*
X55077406Y33313019D01*
X55016083Y33279534D01*
X54989725Y33276700D01*
X47502326Y33276700D01*
X47435287Y33296385D01*
X47389532Y33349189D01*
X47379588Y33418347D01*
X47400750Y33471822D01*
X47401702Y33473182D01*
X47425568Y33507266D01*
X47521739Y33713504D01*
X47580635Y33933308D01*
X47600468Y34160000D01*
X47580635Y34386692D01*
X47521739Y34606496D01*
X47425568Y34812734D01*
X47407751Y34838179D01*
X47385425Y34904385D01*
X47402437Y34972152D01*
X47453386Y35019964D01*
X47509328Y35033300D01*
X57549725Y35033300D01*
X57616764Y35013615D01*
X57637406Y34996981D01*
X57656170Y34978217D01*
X57809387Y34881944D01*
X57980185Y34822179D01*
X57980191Y34822179D01*
X57980193Y34822178D01*
X58159996Y34801919D01*
X58160000Y34801919D01*
X58160004Y34801919D01*
X58339806Y34822178D01*
X58339805Y34822178D01*
X58339815Y34822179D01*
X58510613Y34881944D01*
X58663830Y34978217D01*
X58791783Y35106170D01*
X58888056Y35259387D01*
X58947821Y35430185D01*
X58948630Y35437366D01*
X58968081Y35609997D01*
X58968081Y35610004D01*
X58947822Y35789807D01*
X58947821Y35789813D01*
X58947821Y35789815D01*
X58912141Y35891783D01*
X58888850Y35958346D01*
X58885289Y36028125D01*
X58920018Y36088752D01*
X58982012Y36120979D01*
X59005892Y36123300D01*
X60289980Y36123300D01*
X60357019Y36103615D01*
G37*
%TD.AperFunction*%
%TA.AperFunction,Conductor*%
G36*
X34486764Y24173615D02*
G01*
X34507406Y24156981D01*
X34526170Y24138217D01*
X34571149Y24109955D01*
X34646774Y24062436D01*
X34693065Y24010101D01*
X34704022Y23971326D01*
X34722177Y23810193D01*
X34722178Y23810188D01*
X34781943Y23639388D01*
X34844391Y23540004D01*
X34878217Y23486170D01*
X35006170Y23358217D01*
X35159387Y23261944D01*
X35330185Y23202179D01*
X35330191Y23202179D01*
X35330193Y23202178D01*
X35509996Y23181919D01*
X35510000Y23181919D01*
X35510004Y23181919D01*
X35689806Y23202178D01*
X35689805Y23202178D01*
X35689815Y23202179D01*
X35860613Y23261944D01*
X36013830Y23358217D01*
X36042594Y23386981D01*
X36103917Y23420466D01*
X36130275Y23423300D01*
X45049980Y23423300D01*
X45117019Y23403615D01*
X45162361Y23351708D01*
X45164432Y23347266D01*
X45294954Y23160859D01*
X45455858Y22999955D01*
X45455861Y22999953D01*
X45642266Y22869432D01*
X45700275Y22842382D01*
X45752714Y22796209D01*
X45771866Y22729016D01*
X45751650Y22662135D01*
X45700275Y22617618D01*
X45642267Y22590569D01*
X45642265Y22590568D01*
X45455858Y22460046D01*
X45294954Y22299142D01*
X45164432Y22112735D01*
X45162361Y22108292D01*
X45116187Y22055854D01*
X45049980Y22036700D01*
X35180275Y22036700D01*
X35113236Y22056385D01*
X35092594Y22073019D01*
X35073830Y22091783D01*
X34920612Y22188057D01*
X34749812Y22247822D01*
X34749806Y22247823D01*
X34570004Y22268081D01*
X34569996Y22268081D01*
X34390193Y22247823D01*
X34390187Y22247822D01*
X34219387Y22188057D01*
X34066169Y22091783D01*
X34047406Y22073019D01*
X33986083Y22039534D01*
X33959725Y22036700D01*
X33100239Y22036700D01*
X33033200Y22056385D01*
X33012558Y22073019D01*
X31567810Y23517767D01*
X31534325Y23579090D01*
X31532271Y23591565D01*
X31517822Y23719808D01*
X31517821Y23719813D01*
X31517821Y23719815D01*
X31458056Y23890613D01*
X31458055Y23890617D01*
X31387233Y24003328D01*
X31368232Y24070564D01*
X31388599Y24137399D01*
X31441867Y24182614D01*
X31492226Y24193300D01*
X34419725Y24193300D01*
X34486764Y24173615D01*
G37*
%TD.AperFunction*%
%TA.AperFunction,Conductor*%
G36*
X22668921Y25593615D02*
G01*
X22714676Y25540811D01*
X22724620Y25471653D01*
X22721658Y25457215D01*
X22708856Y25409433D01*
X22689365Y25336695D01*
X22689364Y25336687D01*
X22669532Y25110002D01*
X22669532Y25109999D01*
X22689364Y24883314D01*
X22689366Y24883303D01*
X22748258Y24663512D01*
X22748261Y24663503D01*
X22844431Y24457268D01*
X22844432Y24457266D01*
X22974954Y24270859D01*
X23135858Y24109955D01*
X23135861Y24109953D01*
X23322266Y23979432D01*
X23380275Y23952382D01*
X23432714Y23906209D01*
X23451866Y23839016D01*
X23431650Y23772135D01*
X23380275Y23727618D01*
X23322267Y23700569D01*
X23322265Y23700568D01*
X23135862Y23570049D01*
X23008313Y23442500D01*
X22946990Y23409016D01*
X22877298Y23414000D01*
X22821365Y23455872D01*
X22796948Y23521336D01*
X22797411Y23544061D01*
X22798081Y23550000D01*
X22777821Y23729815D01*
X22718056Y23900613D01*
X22621783Y24053830D01*
X22493830Y24181783D01*
X22422358Y24226692D01*
X22340612Y24278057D01*
X22169809Y24337823D01*
X22048616Y24351478D01*
X21984202Y24378545D01*
X21972488Y24390603D01*
X21972250Y24390364D01*
X21966507Y24396107D01*
X21929465Y24424530D01*
X21919508Y24432170D01*
X21846038Y24488546D01*
X21846037Y24488547D01*
X21846035Y24488548D01*
X21755347Y24526112D01*
X21705749Y24546656D01*
X21694446Y24548144D01*
X21592997Y24561500D01*
X21588964Y24562031D01*
X21555201Y24566476D01*
X21555199Y24566476D01*
X21542205Y24564766D01*
X21521434Y24562031D01*
X21513336Y24561500D01*
X18844360Y24561500D01*
X18777321Y24581185D01*
X18731566Y24633989D01*
X18721622Y24703147D01*
X18736109Y24742598D01*
X18735036Y24743114D01*
X18738054Y24749382D01*
X18743592Y24765209D01*
X18797821Y24920185D01*
X18810047Y25028693D01*
X18818081Y25099997D01*
X18818081Y25100004D01*
X18797822Y25279807D01*
X18797821Y25279813D01*
X18797821Y25279815D01*
X18741770Y25440000D01*
X18738850Y25448346D01*
X18735289Y25518125D01*
X18770018Y25578752D01*
X18832012Y25610979D01*
X18855892Y25613300D01*
X22601882Y25613300D01*
X22668921Y25593615D01*
G37*
%TD.AperFunction*%
%TA.AperFunction,Conductor*%
G36*
X35626843Y29583615D02*
G01*
X35664796Y29545274D01*
X35708217Y29476170D01*
X35836170Y29348217D01*
X35989387Y29251944D01*
X36160185Y29192179D01*
X36160191Y29192179D01*
X36160193Y29192178D01*
X36339996Y29171919D01*
X36340000Y29171919D01*
X36340004Y29171919D01*
X36519806Y29192178D01*
X36519805Y29192178D01*
X36519815Y29192179D01*
X36690613Y29251944D01*
X36690631Y29251956D01*
X36691187Y29252222D01*
X36691603Y29252291D01*
X36697186Y29254244D01*
X36697527Y29253267D01*
X36760127Y29263581D01*
X36792731Y29254008D01*
X36792814Y29254244D01*
X36797442Y29252625D01*
X36798813Y29252222D01*
X36799371Y29251954D01*
X36799387Y29251944D01*
X36970185Y29192179D01*
X36970191Y29192179D01*
X36970193Y29192178D01*
X37149996Y29171919D01*
X37150000Y29171919D01*
X37150004Y29171919D01*
X37329806Y29192178D01*
X37329805Y29192178D01*
X37329815Y29192179D01*
X37500613Y29251944D01*
X37653830Y29348217D01*
X37781783Y29476170D01*
X37808615Y29518874D01*
X37860948Y29565163D01*
X37913608Y29576900D01*
X39093109Y29576900D01*
X39160148Y29557215D01*
X39205903Y29504411D01*
X39215847Y29435253D01*
X39212884Y29420807D01*
X39194366Y29351698D01*
X39194364Y29351687D01*
X39174532Y29125002D01*
X39174532Y29124999D01*
X39194364Y28898314D01*
X39194366Y28898303D01*
X39253258Y28678512D01*
X39253261Y28678503D01*
X39349431Y28472268D01*
X39349432Y28472266D01*
X39479954Y28285859D01*
X39640858Y28124955D01*
X39640861Y28124953D01*
X39827266Y27994432D01*
X40033504Y27898261D01*
X40253308Y27839365D01*
X40415230Y27825199D01*
X40479998Y27819532D01*
X40480000Y27819532D01*
X40480002Y27819532D01*
X40536673Y27824491D01*
X40706692Y27839365D01*
X40926496Y27898261D01*
X41132734Y27994432D01*
X41319139Y28124953D01*
X41480047Y28285861D01*
X41610568Y28472266D01*
X41706739Y28678504D01*
X41765635Y28898308D01*
X41785468Y29125000D01*
X41765635Y29351692D01*
X41747116Y29420807D01*
X41748779Y29490657D01*
X41787942Y29548519D01*
X41852170Y29576023D01*
X41866891Y29576900D01*
X44920167Y29576900D01*
X44987206Y29557215D01*
X45032961Y29504411D01*
X45042905Y29435253D01*
X45039942Y29420811D01*
X45032531Y29393150D01*
X45009366Y29306698D01*
X45009364Y29306687D01*
X44989532Y29080002D01*
X44989532Y29079999D01*
X45009364Y28853314D01*
X45009366Y28853303D01*
X45068258Y28633512D01*
X45068261Y28633503D01*
X45164431Y28427268D01*
X45164432Y28427266D01*
X45294954Y28240859D01*
X45455858Y28079955D01*
X45455861Y28079953D01*
X45642266Y27949432D01*
X45700275Y27922382D01*
X45752714Y27876209D01*
X45771866Y27809016D01*
X45751650Y27742135D01*
X45700275Y27697618D01*
X45642267Y27670569D01*
X45642265Y27670568D01*
X45455858Y27540046D01*
X45294954Y27379142D01*
X45164432Y27192735D01*
X45162361Y27188292D01*
X45116187Y27135854D01*
X45049980Y27116700D01*
X40741862Y27116700D01*
X40733762Y27117231D01*
X40700000Y27121676D01*
X40699996Y27121676D01*
X40668287Y27117502D01*
X40668271Y27117499D01*
X40549451Y27101856D01*
X40549450Y27101856D01*
X40427718Y27051432D01*
X40409163Y27043747D01*
X40323247Y26977821D01*
X40288693Y26951308D01*
X40267960Y26924289D01*
X40262608Y26918187D01*
X40252233Y26907812D01*
X40190910Y26874327D01*
X40178436Y26872273D01*
X40050190Y26857823D01*
X39879387Y26798057D01*
X39726169Y26701783D01*
X39598217Y26573831D01*
X39501943Y26420613D01*
X39442178Y26249813D01*
X39442177Y26249807D01*
X39428320Y26126817D01*
X39401254Y26062403D01*
X39343659Y26022847D01*
X39305100Y26016700D01*
X28590239Y26016700D01*
X28523200Y26036385D01*
X28502558Y26053019D01*
X28292526Y26263051D01*
X28259041Y26324374D01*
X28264025Y26394066D01*
X28305897Y26449999D01*
X28371361Y26474416D01*
X28380207Y26474732D01*
X30629568Y26474732D01*
X30637666Y26474202D01*
X30658437Y26471467D01*
X30671431Y26469756D01*
X30671432Y26469756D01*
X30671433Y26469756D01*
X30718595Y26475965D01*
X30821981Y26489576D01*
X30962270Y26547686D01*
X30996342Y26573830D01*
X31052494Y26616917D01*
X31052494Y26616918D01*
X31063988Y26625738D01*
X31075437Y26634522D01*
X31082737Y26640123D01*
X31082739Y26640125D01*
X31103475Y26667151D01*
X31108817Y26673242D01*
X31247767Y26812192D01*
X31309088Y26845675D01*
X31321564Y26847729D01*
X31449809Y26862178D01*
X31449811Y26862179D01*
X31449815Y26862179D01*
X31449818Y26862181D01*
X31449822Y26862181D01*
X31620610Y26921943D01*
X31620609Y26921943D01*
X31620613Y26921944D01*
X31773830Y27018217D01*
X31901783Y27146170D01*
X31998056Y27299387D01*
X32057821Y27470185D01*
X32065692Y27540046D01*
X32078081Y27649997D01*
X32078081Y27650004D01*
X32057822Y27829807D01*
X32057821Y27829809D01*
X32057821Y27829815D01*
X32056773Y27832808D01*
X32056669Y27834860D01*
X32056272Y27836599D01*
X32056576Y27836669D01*
X32053210Y27902584D01*
X32087937Y27963213D01*
X32149929Y27995442D01*
X32219505Y27989039D01*
X32226219Y27986146D01*
X32413673Y27898734D01*
X32413682Y27898731D01*
X32609999Y27846128D01*
X32610000Y27846129D01*
X32610000Y28809314D01*
X32621955Y28797359D01*
X32734852Y28739835D01*
X32828519Y28725000D01*
X32891481Y28725000D01*
X32985148Y28739835D01*
X33098045Y28797359D01*
X33110000Y28809314D01*
X33110000Y27846128D01*
X33306317Y27898731D01*
X33306326Y27898735D01*
X33512482Y27994866D01*
X33698820Y28125343D01*
X33859657Y28286180D01*
X33990134Y28472518D01*
X34086265Y28678674D01*
X34086269Y28678683D01*
X34138872Y28875000D01*
X33175686Y28875000D01*
X33187641Y28886955D01*
X33245165Y28999852D01*
X33264986Y29125000D01*
X33245165Y29250148D01*
X33187641Y29363045D01*
X33175686Y29375000D01*
X34138872Y29375000D01*
X34138872Y29375001D01*
X34119525Y29447207D01*
X34121188Y29517057D01*
X34160351Y29574919D01*
X34224579Y29602423D01*
X34239300Y29603300D01*
X35559804Y29603300D01*
X35626843Y29583615D01*
G37*
%TD.AperFunction*%
%TA.AperFunction,Conductor*%
G36*
X12603712Y30440464D02*
G01*
X12659217Y30398026D01*
X12676240Y30365686D01*
X12681943Y30349388D01*
X12722987Y30284067D01*
X12778217Y30196170D01*
X12906170Y30068217D01*
X13059387Y29971944D01*
X13230185Y29912179D01*
X13230191Y29912179D01*
X13230193Y29912178D01*
X13409996Y29891919D01*
X13410000Y29891919D01*
X13410004Y29891919D01*
X13589806Y29912178D01*
X13589805Y29912178D01*
X13589815Y29912179D01*
X13760613Y29971944D01*
X13913830Y30068217D01*
X13932594Y30086981D01*
X13993917Y30120466D01*
X14020275Y30123300D01*
X21359725Y30123300D01*
X21426764Y30103615D01*
X21447406Y30086981D01*
X21466170Y30068217D01*
X21619387Y29971944D01*
X21790185Y29912179D01*
X21790191Y29912179D01*
X21790193Y29912178D01*
X21969996Y29891919D01*
X21970000Y29891919D01*
X21970004Y29891919D01*
X22149806Y29912178D01*
X22149805Y29912178D01*
X22149815Y29912179D01*
X22320613Y29971944D01*
X22473830Y30068217D01*
X22476009Y30070397D01*
X22477763Y30071355D01*
X22479273Y30072558D01*
X22479483Y30072294D01*
X22537327Y30103884D01*
X22607019Y30098905D01*
X22662956Y30057037D01*
X22687222Y29993530D01*
X22689858Y29963399D01*
X22689860Y29963390D01*
X22748730Y29743683D01*
X22748734Y29743674D01*
X22844865Y29537519D01*
X22844866Y29537517D01*
X22895973Y29464529D01*
X22895973Y29464528D01*
X23577045Y30145601D01*
X23589835Y30064852D01*
X23647359Y29951955D01*
X23736955Y29862359D01*
X23849852Y29804835D01*
X23930599Y29792047D01*
X23249526Y29110975D01*
X23249526Y29110974D01*
X23322512Y29059869D01*
X23322520Y29059865D01*
X23380865Y29032658D01*
X23433305Y28986486D01*
X23452457Y28919293D01*
X23432242Y28852411D01*
X23380867Y28807895D01*
X23322266Y28780568D01*
X23322264Y28780567D01*
X23135858Y28650046D01*
X22974954Y28489142D01*
X22844432Y28302735D01*
X22844431Y28302733D01*
X22748261Y28096498D01*
X22748258Y28096489D01*
X22689366Y27876698D01*
X22689364Y27876687D01*
X22669532Y27650002D01*
X22669532Y27649999D01*
X22689364Y27423314D01*
X22689366Y27423303D01*
X22737733Y27242793D01*
X22736070Y27172943D01*
X22696907Y27115081D01*
X22632679Y27087577D01*
X22617958Y27086700D01*
X18041565Y27086700D01*
X17974526Y27106385D01*
X17931770Y27154723D01*
X17931761Y27154717D01*
X17931725Y27154775D01*
X17929843Y27156902D01*
X17928055Y27160615D01*
X17847795Y27288347D01*
X17831783Y27313830D01*
X17703830Y27441783D01*
X17658624Y27470188D01*
X17550612Y27538057D01*
X17379812Y27597822D01*
X17379806Y27597823D01*
X17200004Y27618081D01*
X17199996Y27618081D01*
X17020193Y27597823D01*
X17020187Y27597822D01*
X16849387Y27538057D01*
X16696169Y27441783D01*
X16568217Y27313831D01*
X16471943Y27160613D01*
X16412178Y26989813D01*
X16412177Y26989808D01*
X16399447Y26876817D01*
X16372381Y26812403D01*
X16314786Y26772848D01*
X16276227Y26766700D01*
X15240275Y26766700D01*
X15173236Y26786385D01*
X15152594Y26803019D01*
X15133830Y26821783D01*
X14980612Y26918057D01*
X14809812Y26977822D01*
X14809806Y26977823D01*
X14630004Y26998081D01*
X14629996Y26998081D01*
X14450193Y26977823D01*
X14450188Y26977822D01*
X14279382Y26918055D01*
X14273115Y26915036D01*
X14271887Y26917584D01*
X14216858Y26902087D01*
X14150041Y26922514D01*
X14113240Y26960107D01*
X14105660Y26972170D01*
X14041783Y27073830D01*
X13913830Y27201783D01*
X13848563Y27242793D01*
X13760612Y27298057D01*
X13589812Y27357822D01*
X13589806Y27357823D01*
X13410004Y27378081D01*
X13409996Y27378081D01*
X13230193Y27357823D01*
X13230187Y27357822D01*
X13059387Y27298057D01*
X12906169Y27201783D01*
X12887406Y27183019D01*
X12826083Y27149534D01*
X12799725Y27146700D01*
X10107601Y27146700D01*
X10040562Y27166385D01*
X9994807Y27219189D01*
X9984863Y27288347D01*
X9987826Y27302793D01*
X10020139Y27423390D01*
X10020141Y27423401D01*
X10039966Y27649998D01*
X10039966Y27650003D01*
X10020141Y27876600D01*
X10020139Y27876611D01*
X9961267Y28096325D01*
X9961061Y28096892D01*
X9961044Y28097159D01*
X9959866Y28101555D01*
X9960749Y28101792D01*
X9956631Y28166622D01*
X9990603Y28227676D01*
X10052191Y28260672D01*
X10077584Y28263300D01*
X19019725Y28263300D01*
X19086764Y28243615D01*
X19107406Y28226981D01*
X19126170Y28208217D01*
X19279387Y28111944D01*
X19450185Y28052179D01*
X19450191Y28052179D01*
X19450193Y28052178D01*
X19629996Y28031919D01*
X19630000Y28031919D01*
X19630004Y28031919D01*
X19809806Y28052178D01*
X19809805Y28052178D01*
X19809815Y28052179D01*
X19980613Y28111944D01*
X20133830Y28208217D01*
X20261783Y28336170D01*
X20358056Y28489387D01*
X20417821Y28660185D01*
X20435685Y28818731D01*
X20438081Y28839997D01*
X20438081Y28840004D01*
X20417822Y29019807D01*
X20417821Y29019813D01*
X20417821Y29019815D01*
X20358056Y29190613D01*
X20261783Y29343830D01*
X20133830Y29471783D01*
X20058069Y29519387D01*
X19980612Y29568057D01*
X19809812Y29627822D01*
X19809806Y29627823D01*
X19630004Y29648081D01*
X19629996Y29648081D01*
X19450193Y29627823D01*
X19450187Y29627822D01*
X19279387Y29568057D01*
X19126169Y29471783D01*
X19107406Y29453019D01*
X19046083Y29419534D01*
X19019725Y29416700D01*
X11643468Y29416700D01*
X11576429Y29436385D01*
X11530674Y29489189D01*
X11520730Y29558347D01*
X11549755Y29621903D01*
X11596015Y29655261D01*
X11670838Y29686254D01*
X11675965Y29690188D01*
X11701553Y29709824D01*
X11763157Y29734670D01*
X11829815Y29742179D01*
X12000613Y29801944D01*
X12153830Y29898217D01*
X12281783Y30026170D01*
X12378056Y30179387D01*
X12437821Y30350185D01*
X12437822Y30350201D01*
X12438307Y30352318D01*
X12439000Y30353559D01*
X12440120Y30356757D01*
X12440680Y30356561D01*
X12472414Y30413297D01*
X12534074Y30446157D01*
X12603712Y30440464D01*
G37*
%TD.AperFunction*%
%TA.AperFunction,Conductor*%
G36*
X30986059Y30833615D02*
G01*
X31031814Y30780811D01*
X31041758Y30711653D01*
X31012733Y30648097D01*
X30959974Y30612258D01*
X30919387Y30598057D01*
X30766169Y30501783D01*
X30638217Y30373831D01*
X30541943Y30220613D01*
X30482178Y30049813D01*
X30482177Y30049807D01*
X30461919Y29870004D01*
X30461919Y29869997D01*
X30482177Y29690194D01*
X30482178Y29690188D01*
X30541943Y29519388D01*
X30603886Y29420807D01*
X30638217Y29366170D01*
X30766170Y29238217D01*
X30919387Y29141944D01*
X31090185Y29082179D01*
X31090191Y29082179D01*
X31090193Y29082178D01*
X31269996Y29061919D01*
X31270000Y29061919D01*
X31270004Y29061919D01*
X31431385Y29080102D01*
X31500207Y29068047D01*
X31551586Y29020698D01*
X31568796Y28967690D01*
X31574858Y28898400D01*
X31574860Y28898390D01*
X31633730Y28678683D01*
X31633735Y28678669D01*
X31679486Y28580556D01*
X31689978Y28511479D01*
X31661458Y28447695D01*
X31602981Y28409456D01*
X31533114Y28408902D01*
X31526150Y28411110D01*
X31479973Y28427268D01*
X31449815Y28437821D01*
X31449814Y28437822D01*
X31449812Y28437822D01*
X31449806Y28437823D01*
X31270004Y28458081D01*
X31269996Y28458081D01*
X31090193Y28437823D01*
X31090187Y28437822D01*
X30919387Y28378057D01*
X30766169Y28281783D01*
X30638217Y28153831D01*
X30541943Y28000613D01*
X30482177Y27829810D01*
X30471861Y27738248D01*
X30444794Y27673834D01*
X30387199Y27634279D01*
X30348641Y27628132D01*
X27981197Y27628132D01*
X27914158Y27647817D01*
X27868403Y27700621D01*
X27857669Y27741324D01*
X27854710Y27775148D01*
X27845063Y27885408D01*
X27798626Y28058715D01*
X27783905Y28113656D01*
X27783904Y28113657D01*
X27783903Y28113663D01*
X27684035Y28327829D01*
X27648866Y28378057D01*
X27548494Y28521403D01*
X27381402Y28688494D01*
X27381401Y28688495D01*
X27195405Y28818731D01*
X27151781Y28873308D01*
X27144588Y28942807D01*
X27176110Y29005161D01*
X27195405Y29021881D01*
X27271373Y29075075D01*
X26642533Y29703914D01*
X26652315Y29705320D01*
X26783100Y29765048D01*
X26891761Y29859202D01*
X26969493Y29980156D01*
X26993076Y30060476D01*
X27624925Y29428627D01*
X27624926Y29428627D01*
X27683598Y29512418D01*
X27683600Y29512422D01*
X27783429Y29726508D01*
X27783433Y29726517D01*
X27844567Y29954674D01*
X27844569Y29954685D01*
X27865157Y30189999D01*
X27865157Y30190002D01*
X27844569Y30425316D01*
X27844567Y30425327D01*
X27783433Y30653484D01*
X27783431Y30653488D01*
X27772517Y30676894D01*
X27762025Y30745971D01*
X27790544Y30809756D01*
X27849020Y30847996D01*
X27884899Y30853300D01*
X30919020Y30853300D01*
X30986059Y30833615D01*
G37*
%TD.AperFunction*%
%TA.AperFunction,Conductor*%
G36*
X25054025Y29464528D02*
G01*
X25105132Y29537516D01*
X25107489Y29541598D01*
X25158051Y29589818D01*
X25226657Y29603048D01*
X25291524Y29577086D01*
X25327263Y29532014D01*
X25336397Y29512427D01*
X25336402Y29512417D01*
X25395072Y29428627D01*
X25395073Y29428627D01*
X26026922Y30060477D01*
X26050507Y29980156D01*
X26128239Y29859202D01*
X26236900Y29765048D01*
X26367685Y29705320D01*
X26377466Y29703914D01*
X25748625Y29075075D01*
X25824594Y29021881D01*
X25868219Y28967304D01*
X25875413Y28897806D01*
X25843890Y28835451D01*
X25824595Y28818731D01*
X25638594Y28688492D01*
X25471505Y28521403D01*
X25335965Y28327831D01*
X25327216Y28309068D01*
X25281042Y28256630D01*
X25213848Y28237480D01*
X25146967Y28257698D01*
X25107444Y28299482D01*
X25105573Y28302722D01*
X25105568Y28302734D01*
X24990562Y28466981D01*
X24975045Y28489142D01*
X24814141Y28650046D01*
X24627735Y28780567D01*
X24627736Y28780567D01*
X24627734Y28780568D01*
X24569132Y28807895D01*
X24516694Y28854067D01*
X24497543Y28921261D01*
X24517759Y28988142D01*
X24569135Y29032659D01*
X24627482Y29059867D01*
X24700472Y29110975D01*
X24019401Y29792047D01*
X24100148Y29804835D01*
X24213045Y29862359D01*
X24302641Y29951955D01*
X24360165Y30064852D01*
X24372953Y30145600D01*
X25054025Y29464528D01*
G37*
%TD.AperFunction*%
%TA.AperFunction,Conductor*%
G36*
X22676959Y33243615D02*
G01*
X22722714Y33190811D01*
X22732658Y33121653D01*
X22729695Y33107207D01*
X22689366Y32956698D01*
X22689364Y32956687D01*
X22669532Y32730002D01*
X22669532Y32729999D01*
X22689364Y32503314D01*
X22689366Y32503303D01*
X22748258Y32283512D01*
X22748260Y32283508D01*
X22748261Y32283504D01*
X22775465Y32225165D01*
X22795078Y32183105D01*
X22805570Y32114027D01*
X22777050Y32050243D01*
X22718574Y32012004D01*
X22682696Y32006700D01*
X16902382Y32006700D01*
X16835343Y32026385D01*
X16789588Y32079189D01*
X16779644Y32148347D01*
X16802434Y32204092D01*
X16804382Y32206746D01*
X16806649Y32209833D01*
X16891605Y32394732D01*
X16920720Y32520194D01*
X16937602Y32592946D01*
X16942757Y32796358D01*
X16942756Y32796359D01*
X16942757Y32796363D01*
X16914019Y32956698D01*
X16906859Y32996649D01*
X16906857Y32996655D01*
X16893764Y33029432D01*
X16881113Y33061105D01*
X16868252Y33093302D01*
X16861664Y33162861D01*
X16893728Y33224939D01*
X16954264Y33259827D01*
X16983405Y33263300D01*
X22609920Y33263300D01*
X22676959Y33243615D01*
G37*
%TD.AperFunction*%
%TA.AperFunction,Conductor*%
G36*
X13498922Y36119784D02*
G01*
X13568099Y36091131D01*
X13599451Y36078144D01*
X13677862Y36067821D01*
X13749999Y36058324D01*
X13750000Y36058324D01*
X13750001Y36058324D01*
X13762994Y36060035D01*
X13783765Y36062770D01*
X13791864Y36063300D01*
X22715338Y36063300D01*
X22782377Y36043615D01*
X22828132Y35990811D01*
X22838076Y35921653D01*
X22827720Y35886896D01*
X22782450Y35789813D01*
X22748262Y35716498D01*
X22748258Y35716489D01*
X22689366Y35496698D01*
X22689364Y35496687D01*
X22669532Y35270002D01*
X22669532Y35269999D01*
X22689364Y35043314D01*
X22689366Y35043303D01*
X22748258Y34823512D01*
X22748261Y34823503D01*
X22809082Y34693073D01*
X22844432Y34617266D01*
X22848242Y34611824D01*
X22870571Y34545620D01*
X22853562Y34477853D01*
X22802616Y34430038D01*
X22746669Y34416700D01*
X15510275Y34416700D01*
X15443236Y34436385D01*
X15422594Y34453019D01*
X15403830Y34471783D01*
X15250612Y34568057D01*
X15079812Y34627822D01*
X15079806Y34627823D01*
X14900004Y34648081D01*
X14899996Y34648081D01*
X14720193Y34627823D01*
X14720187Y34627822D01*
X14549387Y34568057D01*
X14396169Y34471783D01*
X14268217Y34343831D01*
X14171943Y34190613D01*
X14112178Y34019813D01*
X14112177Y34019807D01*
X14091988Y33840617D01*
X14064922Y33776203D01*
X14007327Y33736648D01*
X13968768Y33730500D01*
X9612588Y33730500D01*
X9545549Y33750185D01*
X9541465Y33752925D01*
X9533497Y33758504D01*
X9387734Y33860568D01*
X9329724Y33887619D01*
X9277285Y33933790D01*
X9258133Y34000983D01*
X9278348Y34067865D01*
X9329725Y34112382D01*
X9387734Y34139432D01*
X9574139Y34269953D01*
X9735047Y34430861D01*
X9865568Y34617266D01*
X9867639Y34621709D01*
X9913813Y34674146D01*
X9980020Y34693300D01*
X11389725Y34693300D01*
X11456764Y34673615D01*
X11477406Y34656981D01*
X11496170Y34638217D01*
X11649387Y34541944D01*
X11820185Y34482179D01*
X11820191Y34482179D01*
X11820193Y34482178D01*
X11999996Y34461919D01*
X12000000Y34461919D01*
X12000004Y34461919D01*
X12179806Y34482178D01*
X12179805Y34482178D01*
X12179815Y34482179D01*
X12350613Y34541944D01*
X12503830Y34638217D01*
X12631783Y34766170D01*
X12728056Y34919387D01*
X12787821Y35090185D01*
X12795692Y35160046D01*
X12808081Y35269997D01*
X12808081Y35270004D01*
X12790164Y35429016D01*
X12787821Y35449815D01*
X12787816Y35449828D01*
X12787401Y35451651D01*
X12787476Y35452882D01*
X12787042Y35456735D01*
X12787716Y35456811D01*
X12791664Y35521391D01*
X12832955Y35577754D01*
X12867331Y35596302D01*
X12940613Y35621944D01*
X13093830Y35718217D01*
X13221783Y35846170D01*
X13318056Y35999387D01*
X13334428Y36046177D01*
X13375149Y36102953D01*
X13440101Y36128701D01*
X13498922Y36119784D01*
G37*
%TD.AperFunction*%
%TA.AperFunction,Conductor*%
G36*
X43486800Y38688615D02*
G01*
X43507442Y38671981D01*
X45010171Y37169252D01*
X45043656Y37107929D01*
X45042265Y37049478D01*
X45009367Y36926700D01*
X45009364Y36926687D01*
X44989532Y36700002D01*
X44989532Y36699999D01*
X45009364Y36473314D01*
X45009366Y36473303D01*
X45044336Y36342793D01*
X45042673Y36272943D01*
X45003510Y36215081D01*
X44939282Y36187577D01*
X44924561Y36186700D01*
X41838381Y36186700D01*
X41771342Y36206385D01*
X41725587Y36259189D01*
X41715643Y36328347D01*
X41718606Y36342793D01*
X41731091Y36389387D01*
X41765635Y36518308D01*
X41785468Y36745000D01*
X41765635Y36971692D01*
X41706739Y37191496D01*
X41610568Y37397734D01*
X41480856Y37582984D01*
X41480045Y37584142D01*
X41319141Y37745046D01*
X41132734Y37875568D01*
X41132728Y37875571D01*
X41074725Y37902618D01*
X41022285Y37948790D01*
X41003133Y38015983D01*
X41023348Y38082865D01*
X41074725Y38127382D01*
X41132734Y38154432D01*
X41319139Y38284953D01*
X41480047Y38445861D01*
X41610568Y38632266D01*
X41612639Y38636709D01*
X41658813Y38689146D01*
X41725020Y38708300D01*
X43419761Y38708300D01*
X43486800Y38688615D01*
G37*
%TD.AperFunction*%
%TA.AperFunction,Conductor*%
G36*
X57390145Y42294715D02*
G01*
X57435900Y42241911D01*
X57445844Y42172753D01*
X57434825Y42136596D01*
X57431944Y42130614D01*
X57372178Y41959813D01*
X57372177Y41959807D01*
X57351919Y41780004D01*
X57351919Y41779997D01*
X57372177Y41600194D01*
X57372178Y41600188D01*
X57431943Y41429388D01*
X57492192Y41333503D01*
X57528217Y41276170D01*
X57656170Y41148217D01*
X57809387Y41051944D01*
X57980185Y40992179D01*
X57980191Y40992179D01*
X57980193Y40992178D01*
X58159996Y40971919D01*
X58160000Y40971919D01*
X58160004Y40971919D01*
X58339806Y40992178D01*
X58339805Y40992178D01*
X58339815Y40992179D01*
X58510613Y41051944D01*
X58663830Y41148217D01*
X58682594Y41166981D01*
X58743917Y41200466D01*
X58770275Y41203300D01*
X60289980Y41203300D01*
X60357019Y41183615D01*
X60402361Y41131708D01*
X60404432Y41127266D01*
X60534954Y40940859D01*
X60695858Y40779955D01*
X60695861Y40779953D01*
X60882266Y40649432D01*
X60939239Y40622865D01*
X60940275Y40622382D01*
X60992714Y40576209D01*
X61011866Y40509016D01*
X60991650Y40442135D01*
X60940275Y40397618D01*
X60882267Y40370569D01*
X60882265Y40370568D01*
X60695858Y40240046D01*
X60534954Y40079142D01*
X60404432Y39892735D01*
X60404431Y39892733D01*
X60308261Y39686498D01*
X60308258Y39686489D01*
X60249366Y39466698D01*
X60249364Y39466687D01*
X60229532Y39240002D01*
X60229532Y39239999D01*
X60249364Y39013314D01*
X60249366Y39013303D01*
X60308258Y38793512D01*
X60308261Y38793503D01*
X60404431Y38587268D01*
X60404432Y38587266D01*
X60534954Y38400859D01*
X60695858Y38239955D01*
X60695861Y38239953D01*
X60882266Y38109432D01*
X60939239Y38082865D01*
X60940275Y38082382D01*
X60992714Y38036209D01*
X61011866Y37969016D01*
X60991650Y37902135D01*
X60940275Y37857618D01*
X60882267Y37830569D01*
X60882265Y37830568D01*
X60695858Y37700046D01*
X60534954Y37539142D01*
X60404432Y37352735D01*
X60402361Y37348292D01*
X60356187Y37295854D01*
X60289980Y37276700D01*
X57319175Y37276700D01*
X57252136Y37296385D01*
X57231494Y37313019D01*
X57212730Y37331783D01*
X57059512Y37428057D01*
X56888712Y37487822D01*
X56888706Y37487823D01*
X56708904Y37508081D01*
X56708896Y37508081D01*
X56529093Y37487823D01*
X56529087Y37487822D01*
X56358287Y37428057D01*
X56205069Y37331783D01*
X56077117Y37203831D01*
X55980843Y37050613D01*
X55921078Y36879813D01*
X55921077Y36879807D01*
X55900819Y36700004D01*
X55900819Y36699997D01*
X55921077Y36520194D01*
X55921078Y36520188D01*
X55980050Y36351654D01*
X55983611Y36281875D01*
X55948882Y36221248D01*
X55886888Y36189021D01*
X55863008Y36186700D01*
X47665439Y36186700D01*
X47598400Y36206385D01*
X47552645Y36259189D01*
X47542701Y36328347D01*
X47545664Y36342793D01*
X47554742Y36376672D01*
X47580635Y36473308D01*
X47600468Y36700000D01*
X47596968Y36740000D01*
X47581237Y36919807D01*
X47580635Y36926692D01*
X47579873Y36929534D01*
X47521741Y37146489D01*
X47521738Y37146498D01*
X47498197Y37196981D01*
X47425568Y37352734D01*
X47295047Y37539139D01*
X47295045Y37539142D01*
X47134141Y37700046D01*
X46947734Y37830568D01*
X46947728Y37830571D01*
X46889725Y37857618D01*
X46837285Y37903790D01*
X46818133Y37970983D01*
X46838348Y38037865D01*
X46889725Y38082382D01*
X46890761Y38082865D01*
X46947734Y38109432D01*
X47134139Y38239953D01*
X47295047Y38400861D01*
X47425568Y38587266D01*
X47521739Y38793504D01*
X47580635Y39013308D01*
X47600468Y39240000D01*
X47580635Y39466692D01*
X47521739Y39686496D01*
X47425568Y39892734D01*
X47321295Y40041653D01*
X47295045Y40079142D01*
X47134141Y40240046D01*
X46947734Y40370568D01*
X46947728Y40370571D01*
X46889725Y40397618D01*
X46837285Y40443790D01*
X46818133Y40510983D01*
X46838348Y40577865D01*
X46889725Y40622382D01*
X46890761Y40622865D01*
X46947734Y40649432D01*
X47134139Y40779953D01*
X47295047Y40940861D01*
X47425568Y41127266D01*
X47521739Y41333504D01*
X47580635Y41553308D01*
X47600468Y41780000D01*
X47580635Y42006692D01*
X47540010Y42158308D01*
X47541673Y42228156D01*
X47580836Y42286019D01*
X47645064Y42313523D01*
X47659785Y42314400D01*
X57323106Y42314400D01*
X57390145Y42294715D01*
G37*
%TD.AperFunction*%
%TA.AperFunction,Conductor*%
G36*
X14946572Y40843613D02*
G01*
X14992327Y40790809D01*
X15002271Y40721651D01*
X14998157Y40705453D01*
X14998517Y40705359D01*
X14996941Y40699274D01*
X14996940Y40699271D01*
X14961722Y40563250D01*
X14945937Y40502286D01*
X14935631Y40299064D01*
X14966442Y40097937D01*
X14966445Y40097925D01*
X15037111Y39907119D01*
X15037113Y39907116D01*
X15037114Y39907113D01*
X15063654Y39864534D01*
X15144745Y39734433D01*
X15144748Y39734429D01*
X15176069Y39701479D01*
X15284941Y39586947D01*
X15394257Y39510861D01*
X15451949Y39470706D01*
X15451950Y39470706D01*
X15451951Y39470705D01*
X15638942Y39390460D01*
X15838259Y39349500D01*
X17683388Y39349500D01*
X17750427Y39329815D01*
X17796182Y39277011D01*
X17806608Y39211616D01*
X17801919Y39170003D01*
X17801919Y39169997D01*
X17822177Y38990194D01*
X17822178Y38990188D01*
X17881943Y38819388D01*
X17911078Y38773021D01*
X17978217Y38666170D01*
X18106170Y38538217D01*
X18259387Y38441944D01*
X18430185Y38382179D01*
X18430191Y38382179D01*
X18430193Y38382178D01*
X18609996Y38361919D01*
X18610000Y38361919D01*
X18610004Y38361919D01*
X18789806Y38382178D01*
X18789805Y38382178D01*
X18789815Y38382179D01*
X18960613Y38441944D01*
X19113830Y38538217D01*
X19132594Y38556981D01*
X19193917Y38590466D01*
X19220275Y38593300D01*
X22710675Y38593300D01*
X22777714Y38573615D01*
X22823469Y38520811D01*
X22833413Y38451653D01*
X22823057Y38416897D01*
X22761532Y38284955D01*
X22748262Y38256498D01*
X22748258Y38256489D01*
X22689366Y38036698D01*
X22689364Y38036687D01*
X22669532Y37810002D01*
X22669532Y37809999D01*
X22689364Y37583314D01*
X22689366Y37583303D01*
X22745772Y37372793D01*
X22744109Y37302943D01*
X22704946Y37245081D01*
X22640718Y37217577D01*
X22625997Y37216700D01*
X14040239Y37216700D01*
X13973200Y37236385D01*
X13952558Y37253019D01*
X13417810Y37787767D01*
X13384325Y37849090D01*
X13382271Y37861565D01*
X13367822Y37989808D01*
X13367821Y37989813D01*
X13367821Y37989815D01*
X13308056Y38160613D01*
X13211783Y38313830D01*
X13083830Y38441783D01*
X13050485Y38462735D01*
X12930612Y38538057D01*
X12759812Y38597822D01*
X12759806Y38597823D01*
X12580004Y38618081D01*
X12579996Y38618081D01*
X12400193Y38597823D01*
X12400187Y38597822D01*
X12229387Y38538057D01*
X12076169Y38441783D01*
X12057406Y38423019D01*
X11996083Y38389534D01*
X11969725Y38386700D01*
X9980020Y38386700D01*
X9912981Y38406385D01*
X9867639Y38458292D01*
X9867537Y38458511D01*
X9865568Y38462734D01*
X9756794Y38618081D01*
X9735045Y38649142D01*
X9574141Y38810046D01*
X9387734Y38940568D01*
X9387728Y38940571D01*
X9329725Y38967618D01*
X9277285Y39013790D01*
X9258133Y39080983D01*
X9278348Y39147865D01*
X9329725Y39192382D01*
X9387734Y39219432D01*
X9574139Y39349953D01*
X9735047Y39510861D01*
X9865568Y39697266D01*
X9867639Y39701709D01*
X9913813Y39754146D01*
X9980020Y39773300D01*
X12539725Y39773300D01*
X12606764Y39753615D01*
X12627406Y39736981D01*
X12656170Y39708217D01*
X12809387Y39611944D01*
X12980185Y39552179D01*
X12980191Y39552179D01*
X12980193Y39552178D01*
X13159996Y39531919D01*
X13160000Y39531919D01*
X13160004Y39531919D01*
X13339806Y39552178D01*
X13339805Y39552178D01*
X13339815Y39552179D01*
X13510613Y39611944D01*
X13663830Y39708217D01*
X13791783Y39836170D01*
X13888056Y39989387D01*
X13947821Y40160185D01*
X13961889Y40285046D01*
X13968081Y40339997D01*
X13968081Y40340004D01*
X13947822Y40519807D01*
X13947821Y40519813D01*
X13947821Y40519815D01*
X13888056Y40690613D01*
X13885756Y40697187D01*
X13888438Y40698126D01*
X13879171Y40754453D01*
X13906901Y40818584D01*
X13964902Y40857543D01*
X14002241Y40863298D01*
X14879533Y40863298D01*
X14946572Y40843613D01*
G37*
%TD.AperFunction*%
%TA.AperFunction,Conductor*%
G36*
X43486800Y41228615D02*
G01*
X43507442Y41211981D01*
X45010171Y39709252D01*
X45043656Y39647929D01*
X45042265Y39589478D01*
X45009366Y39466698D01*
X45009364Y39466687D01*
X44989532Y39240002D01*
X44989532Y39239998D01*
X45000007Y39120267D01*
X44986240Y39051767D01*
X44937625Y39001584D01*
X44869596Y38985651D01*
X44803753Y39009026D01*
X44788798Y39021779D01*
X44480762Y39329815D01*
X44147383Y39663194D01*
X44142039Y39669289D01*
X44137027Y39675820D01*
X44121307Y39696307D01*
X44071625Y39734429D01*
X44000838Y39788746D01*
X44000834Y39788748D01*
X44000835Y39788748D01*
X43860549Y39846856D01*
X43860547Y39846857D01*
X43710001Y39866676D01*
X43709999Y39866676D01*
X43697005Y39864966D01*
X43676234Y39862231D01*
X43668136Y39861700D01*
X41725020Y39861700D01*
X41657981Y39881385D01*
X41612639Y39933292D01*
X41610568Y39937733D01*
X41610568Y39937734D01*
X41480047Y40124139D01*
X41480045Y40124142D01*
X41319141Y40285046D01*
X41132734Y40415568D01*
X41132728Y40415571D01*
X41074725Y40442618D01*
X41022285Y40488790D01*
X41003133Y40555983D01*
X41023348Y40622865D01*
X41074725Y40667382D01*
X41132734Y40694432D01*
X41319139Y40824953D01*
X41480047Y40985861D01*
X41610568Y41172266D01*
X41612639Y41176709D01*
X41658813Y41229146D01*
X41725020Y41248300D01*
X43419761Y41248300D01*
X43486800Y41228615D01*
G37*
%TD.AperFunction*%
%TA.AperFunction,Conductor*%
G36*
X52888969Y47775015D02*
G01*
X52934724Y47722211D01*
X52944668Y47653053D01*
X52915643Y47589497D01*
X52887903Y47565707D01*
X52786171Y47501785D01*
X52658217Y47373831D01*
X52561943Y47220613D01*
X52502178Y47049813D01*
X52502177Y47049807D01*
X52481919Y46870004D01*
X52481919Y46869997D01*
X52502177Y46690194D01*
X52502178Y46690188D01*
X52561943Y46519388D01*
X52640552Y46394284D01*
X52658217Y46366170D01*
X52786170Y46238217D01*
X52939387Y46141944D01*
X53110185Y46082179D01*
X53110191Y46082179D01*
X53110193Y46082178D01*
X53289996Y46061919D01*
X53290000Y46061919D01*
X53290004Y46061919D01*
X53469806Y46082178D01*
X53469805Y46082178D01*
X53469815Y46082179D01*
X53640613Y46141944D01*
X53793830Y46238217D01*
X53802594Y46246981D01*
X53863917Y46280466D01*
X53890275Y46283300D01*
X60289980Y46283300D01*
X60357019Y46263615D01*
X60402361Y46211708D01*
X60404432Y46207266D01*
X60534954Y46020859D01*
X60695858Y45859955D01*
X60695861Y45859953D01*
X60882266Y45729432D01*
X60940275Y45702382D01*
X60992714Y45656209D01*
X61011866Y45589016D01*
X60991650Y45522135D01*
X60940275Y45477618D01*
X60882267Y45450569D01*
X60882265Y45450568D01*
X60695858Y45320046D01*
X60534954Y45159142D01*
X60404432Y44972735D01*
X60402361Y44968292D01*
X60356187Y44915854D01*
X60289980Y44896700D01*
X49850275Y44896700D01*
X49783236Y44916385D01*
X49762594Y44933019D01*
X49743830Y44951783D01*
X49590612Y45048057D01*
X49419812Y45107822D01*
X49419806Y45107823D01*
X49240004Y45128081D01*
X49239996Y45128081D01*
X49060193Y45107823D01*
X49060187Y45107822D01*
X48889387Y45048057D01*
X48736169Y44951783D01*
X48608217Y44823831D01*
X48511943Y44670613D01*
X48452178Y44499813D01*
X48452177Y44499807D01*
X48431919Y44320004D01*
X48431919Y44319997D01*
X48452177Y44140194D01*
X48452178Y44140188D01*
X48511943Y43969388D01*
X48608217Y43816170D01*
X48741094Y43683293D01*
X48740060Y43682260D01*
X48775647Y43631558D01*
X48778496Y43561746D01*
X48743150Y43501476D01*
X48680830Y43469884D01*
X48658193Y43467800D01*
X47524102Y43467800D01*
X47457063Y43487485D01*
X47411308Y43540289D01*
X47401364Y43609447D01*
X47422525Y43662920D01*
X47422659Y43663113D01*
X47425568Y43667266D01*
X47521739Y43873504D01*
X47580635Y44093308D01*
X47600468Y44320000D01*
X47596968Y44360000D01*
X47583709Y44511553D01*
X47580635Y44546692D01*
X47521739Y44766496D01*
X47425568Y44972734D01*
X47316794Y45128081D01*
X47295045Y45159142D01*
X47134141Y45320046D01*
X46947734Y45450568D01*
X46947728Y45450571D01*
X46889725Y45477618D01*
X46837285Y45523790D01*
X46818133Y45590983D01*
X46838348Y45657865D01*
X46889725Y45702382D01*
X46947734Y45729432D01*
X47134139Y45859953D01*
X47295047Y46020861D01*
X47425568Y46207266D01*
X47521739Y46413504D01*
X47580635Y46633308D01*
X47600468Y46860000D01*
X47599593Y46869997D01*
X47588759Y46993830D01*
X47580635Y47086692D01*
X47521739Y47306496D01*
X47425568Y47512734D01*
X47364759Y47599579D01*
X47342433Y47665783D01*
X47359443Y47733550D01*
X47410392Y47781363D01*
X47466335Y47794700D01*
X52821930Y47794700D01*
X52888969Y47775015D01*
G37*
%TD.AperFunction*%
%TA.AperFunction,Conductor*%
G36*
X37301976Y47373615D02*
G01*
X37339931Y47335271D01*
X37358213Y47306175D01*
X37358215Y47306172D01*
X37358217Y47306170D01*
X37486170Y47178217D01*
X37639387Y47081944D01*
X37810185Y47022179D01*
X37810189Y47022179D01*
X37810192Y47022178D01*
X37884745Y47013778D01*
X37949159Y46986712D01*
X37988714Y46929117D01*
X37994082Y46904442D01*
X38014631Y46722063D01*
X38014632Y46722058D01*
X38063761Y46581654D01*
X38067322Y46511875D01*
X38032593Y46451248D01*
X37970599Y46419021D01*
X37946719Y46416700D01*
X34237138Y46416700D01*
X34170099Y46436385D01*
X34124344Y46489189D01*
X34114400Y46558347D01*
X34117363Y46572793D01*
X34133579Y46633314D01*
X34145635Y46678308D01*
X34165468Y46905000D01*
X34145635Y47131692D01*
X34122873Y47216641D01*
X34117363Y47237207D01*
X34119026Y47307057D01*
X34158189Y47364919D01*
X34222418Y47392423D01*
X34237138Y47393300D01*
X37234937Y47393300D01*
X37301976Y47373615D01*
G37*
%TD.AperFunction*%
%TA.AperFunction,Conductor*%
G36*
X45190704Y47775015D02*
G01*
X45236459Y47722211D01*
X45246403Y47653053D01*
X45225240Y47599579D01*
X45202125Y47566567D01*
X45164432Y47512735D01*
X45164431Y47512733D01*
X45068261Y47306498D01*
X45068258Y47306489D01*
X45009366Y47086698D01*
X45009364Y47086687D01*
X44989532Y46860002D01*
X44989532Y46859999D01*
X45009364Y46633314D01*
X45009366Y46633304D01*
X45025580Y46572793D01*
X45023917Y46502944D01*
X44984755Y46445081D01*
X44920526Y46417577D01*
X44905805Y46416700D01*
X41857138Y46416700D01*
X41790099Y46436385D01*
X41744344Y46489189D01*
X41734400Y46558347D01*
X41737363Y46572793D01*
X41753579Y46633314D01*
X41765635Y46678308D01*
X41785468Y46905000D01*
X41765635Y47131692D01*
X41714721Y47321708D01*
X41706741Y47351489D01*
X41706738Y47351498D01*
X41687245Y47393300D01*
X41610568Y47557734D01*
X41581268Y47599579D01*
X41558942Y47665783D01*
X41575952Y47733550D01*
X41626900Y47781363D01*
X41682844Y47794700D01*
X45123665Y47794700D01*
X45190704Y47775015D01*
G37*
%TD.AperFunction*%
%TA.AperFunction,Conductor*%
G36*
X58036800Y52453615D02*
G01*
X58057442Y52436981D01*
X58532188Y51962235D01*
X58565673Y51900912D01*
X58567727Y51888438D01*
X58582177Y51760191D01*
X58641943Y51589388D01*
X58702192Y51493503D01*
X58738217Y51436170D01*
X58866170Y51308217D01*
X59019387Y51211944D01*
X59190185Y51152179D01*
X59190191Y51152179D01*
X59190193Y51152178D01*
X59369996Y51131919D01*
X59370000Y51131919D01*
X59370004Y51131919D01*
X59549806Y51152178D01*
X59549805Y51152178D01*
X59549815Y51152179D01*
X59720613Y51211944D01*
X59873830Y51308217D01*
X60001783Y51436170D01*
X60076200Y51554605D01*
X60128532Y51600893D01*
X60197586Y51611542D01*
X60261434Y51583167D01*
X60299807Y51524777D01*
X60300967Y51520725D01*
X60308260Y51493507D01*
X60308261Y51493503D01*
X60404431Y51287268D01*
X60404432Y51287266D01*
X60534954Y51100859D01*
X60695858Y50939955D01*
X60695861Y50939953D01*
X60882266Y50809432D01*
X60940275Y50782382D01*
X60992714Y50736209D01*
X61011866Y50669016D01*
X60991650Y50602135D01*
X60940275Y50557618D01*
X60882267Y50530569D01*
X60882265Y50530568D01*
X60695858Y50400046D01*
X60534954Y50239142D01*
X60404432Y50052735D01*
X60404431Y50052733D01*
X60308261Y49846498D01*
X60308258Y49846489D01*
X60249366Y49626698D01*
X60249364Y49626687D01*
X60229532Y49400002D01*
X60229532Y49399999D01*
X60249364Y49173314D01*
X60249366Y49173303D01*
X60267884Y49104193D01*
X60266221Y49034343D01*
X60227058Y48976481D01*
X60162830Y48948977D01*
X60148109Y48948100D01*
X47681891Y48948100D01*
X47614852Y48967785D01*
X47569097Y49020589D01*
X47559153Y49089747D01*
X47562116Y49104193D01*
X47575768Y49155145D01*
X47580635Y49173308D01*
X47600468Y49400000D01*
X47580635Y49626692D01*
X47521739Y49846496D01*
X47425568Y50052734D01*
X47295047Y50239139D01*
X47295045Y50239142D01*
X47134143Y50400044D01*
X47109536Y50417274D01*
X47065912Y50471851D01*
X47058719Y50541350D01*
X47090241Y50603704D01*
X47150471Y50639118D01*
X47167404Y50642139D01*
X47202483Y50645909D01*
X47337331Y50696204D01*
X47452546Y50782454D01*
X47538796Y50897669D01*
X47589091Y51032517D01*
X47595500Y51092127D01*
X47595499Y52349301D01*
X47615184Y52416339D01*
X47667987Y52462094D01*
X47719499Y52473300D01*
X57969761Y52473300D01*
X58036800Y52453615D01*
G37*
%TD.AperFunction*%
%TA.AperFunction,Conductor*%
G36*
X39169901Y52453615D02*
G01*
X39215656Y52400811D01*
X39225600Y52331653D01*
X39222637Y52317207D01*
X39194366Y52211698D01*
X39194364Y52211687D01*
X39174532Y51985002D01*
X39174532Y51984999D01*
X39194364Y51758314D01*
X39194366Y51758303D01*
X39238714Y51592793D01*
X39237051Y51522943D01*
X39197888Y51465081D01*
X39133660Y51437577D01*
X39118939Y51436700D01*
X37227392Y51436700D01*
X37160353Y51456385D01*
X37114598Y51509189D01*
X37110351Y51519745D01*
X37068057Y51640611D01*
X37024578Y51709807D01*
X36971783Y51793830D01*
X36843830Y51921783D01*
X36814835Y51940002D01*
X36690612Y52018057D01*
X36519812Y52077822D01*
X36519806Y52077823D01*
X36340004Y52098081D01*
X36339996Y52098081D01*
X36160193Y52077823D01*
X36160187Y52077822D01*
X35989387Y52018057D01*
X35836169Y51921783D01*
X35708217Y51793831D01*
X35611943Y51640613D01*
X35552178Y51469813D01*
X35552177Y51469807D01*
X35531919Y51290004D01*
X35531919Y51289997D01*
X35539289Y51224583D01*
X35527234Y51155761D01*
X35479885Y51104382D01*
X35416069Y51086700D01*
X34284500Y51086700D01*
X34217461Y51106385D01*
X34171706Y51159189D01*
X34160500Y51210700D01*
X34160500Y51780000D01*
X34160499Y52349301D01*
X34180184Y52416339D01*
X34232987Y52462094D01*
X34284499Y52473300D01*
X39102862Y52473300D01*
X39169901Y52453615D01*
G37*
%TD.AperFunction*%
%TA.AperFunction,Conductor*%
G36*
X44937539Y52453615D02*
G01*
X44983294Y52400811D01*
X44994500Y52349300D01*
X44994500Y51560700D01*
X44974815Y51493661D01*
X44922011Y51447906D01*
X44870500Y51436700D01*
X41841061Y51436700D01*
X41774022Y51456385D01*
X41728267Y51509189D01*
X41718323Y51578347D01*
X41721286Y51592793D01*
X41737524Y51653399D01*
X41765635Y51758308D01*
X41785468Y51985000D01*
X41765635Y52211692D01*
X41748033Y52277384D01*
X41737363Y52317207D01*
X41739026Y52387057D01*
X41778189Y52444919D01*
X41842418Y52472423D01*
X41857138Y52473300D01*
X44870500Y52473300D01*
X44937539Y52453615D01*
G37*
%TD.AperFunction*%
%TA.AperFunction,Conductor*%
G36*
X36255394Y55592183D02*
G01*
X36301149Y55539379D01*
X36311093Y55470221D01*
X36308130Y55455775D01*
X36274860Y55331611D01*
X36274858Y55331600D01*
X36255034Y55105003D01*
X36255034Y55104998D01*
X36274858Y54878401D01*
X36274860Y54878390D01*
X36333730Y54658683D01*
X36333734Y54658674D01*
X36429865Y54452519D01*
X36429866Y54452517D01*
X36480973Y54379529D01*
X36480973Y54379528D01*
X37162045Y55060601D01*
X37174835Y54979852D01*
X37232359Y54866955D01*
X37321955Y54777359D01*
X37434852Y54719835D01*
X37515599Y54707047D01*
X36834526Y54025975D01*
X36834526Y54025974D01*
X36907512Y53974869D01*
X36907516Y53974867D01*
X37113673Y53878735D01*
X37113682Y53878731D01*
X37144493Y53870475D01*
X37204154Y53834110D01*
X37234683Y53771263D01*
X37226388Y53701887D01*
X37181903Y53648010D01*
X37115351Y53626735D01*
X37112400Y53626700D01*
X35672889Y53626700D01*
X35605850Y53646385D01*
X35560095Y53699189D01*
X35550151Y53768347D01*
X35555844Y53791647D01*
X35607821Y53940185D01*
X35611729Y53974869D01*
X35628081Y54119997D01*
X35628081Y54120004D01*
X35607822Y54299807D01*
X35607821Y54299813D01*
X35607821Y54299815D01*
X35548056Y54470613D01*
X35451783Y54623830D01*
X35323830Y54751783D01*
X35272070Y54784306D01*
X35170612Y54848057D01*
X34999812Y54907822D01*
X34999806Y54907823D01*
X34820004Y54928081D01*
X34819996Y54928081D01*
X34640193Y54907823D01*
X34640187Y54907822D01*
X34469387Y54848057D01*
X34310274Y54748078D01*
X34309143Y54749878D01*
X34253962Y54727345D01*
X34241328Y54726700D01*
X27791728Y54726700D01*
X27724689Y54746385D01*
X27678934Y54799189D01*
X27668990Y54868347D01*
X27682361Y54906977D01*
X27681747Y54907263D01*
X27695739Y54937270D01*
X27783903Y55126337D01*
X27845063Y55354592D01*
X27857669Y55498677D01*
X27883122Y55563744D01*
X27939713Y55604723D01*
X27981197Y55611868D01*
X36188355Y55611868D01*
X36255394Y55592183D01*
G37*
%TD.AperFunction*%
%TA.AperFunction,Conductor*%
G36*
X38639025Y54379528D02*
G01*
X38690134Y54452519D01*
X38697340Y54467972D01*
X38743511Y54520413D01*
X38810704Y54539567D01*
X38877585Y54519354D01*
X38922105Y54467978D01*
X38929430Y54452270D01*
X38929432Y54452266D01*
X39059954Y54265859D01*
X39220858Y54104955D01*
X39220861Y54104953D01*
X39407266Y53974432D01*
X39613504Y53878261D01*
X39613509Y53878260D01*
X39613511Y53878259D01*
X39642561Y53870475D01*
X39702222Y53834110D01*
X39732751Y53771263D01*
X39724457Y53701888D01*
X39679971Y53648010D01*
X39613420Y53626735D01*
X39610468Y53626700D01*
X38007600Y53626700D01*
X37940561Y53646385D01*
X37894806Y53699189D01*
X37884862Y53768347D01*
X37913887Y53831903D01*
X37972665Y53869677D01*
X37975507Y53870475D01*
X38006317Y53878731D01*
X38006331Y53878736D01*
X38212478Y53974864D01*
X38285472Y54025975D01*
X37604401Y54707047D01*
X37685148Y54719835D01*
X37798045Y54777359D01*
X37887641Y54866955D01*
X37945165Y54979852D01*
X37957953Y55060600D01*
X38639025Y54379528D01*
G37*
%TD.AperFunction*%
%TA.AperFunction,Conductor*%
G36*
X56116800Y57533615D02*
G01*
X56137442Y57516981D01*
X56402188Y57252235D01*
X56435673Y57190912D01*
X56437727Y57178438D01*
X56452177Y57050191D01*
X56507276Y56892726D01*
X56510837Y56822947D01*
X56476108Y56762320D01*
X56414114Y56730093D01*
X56344539Y56736499D01*
X56342783Y56737210D01*
X56310881Y56750424D01*
X56310879Y56750425D01*
X56198129Y56765268D01*
X56160333Y56770244D01*
X56160331Y56770244D01*
X56147337Y56768534D01*
X56126566Y56765799D01*
X56118468Y56765268D01*
X50117174Y56765268D01*
X50050135Y56784953D01*
X50004380Y56837757D01*
X49993954Y56875386D01*
X49987822Y56929809D01*
X49987821Y56929811D01*
X49987821Y56929815D01*
X49928056Y57100613D01*
X49831783Y57253830D01*
X49743994Y57341619D01*
X49710509Y57402942D01*
X49715493Y57472634D01*
X49757365Y57528567D01*
X49822829Y57552984D01*
X49831675Y57553300D01*
X56049761Y57553300D01*
X56116800Y57533615D01*
G37*
%TD.AperFunction*%
%TA.AperFunction,Conductor*%
G36*
X27556770Y62613615D02*
G01*
X27577412Y62596981D01*
X27596170Y62578223D01*
X27749387Y62481950D01*
X27920185Y62422185D01*
X27920191Y62422185D01*
X27920193Y62422184D01*
X28099996Y62401925D01*
X28100000Y62401925D01*
X28100004Y62401925D01*
X28279806Y62422184D01*
X28279805Y62422184D01*
X28279815Y62422185D01*
X28450613Y62481950D01*
X28474888Y62497204D01*
X28542124Y62516205D01*
X28608959Y62495839D01*
X28654175Y62442572D01*
X28662961Y62408556D01*
X28663426Y62408637D01*
X28664366Y62403303D01*
X28723258Y62183512D01*
X28723261Y62183503D01*
X28819431Y61977268D01*
X28819432Y61977266D01*
X28949954Y61790859D01*
X29110858Y61629955D01*
X29110861Y61629953D01*
X29297266Y61499432D01*
X29503504Y61403261D01*
X29503509Y61403260D01*
X29503511Y61403259D01*
X29556415Y61389084D01*
X29723308Y61344365D01*
X29885230Y61330199D01*
X29949998Y61324532D01*
X29950000Y61324532D01*
X29950002Y61324532D01*
X30006673Y61329491D01*
X30176692Y61344365D01*
X30299477Y61377266D01*
X30369326Y61375603D01*
X30419251Y61345172D01*
X31162603Y60601820D01*
X31167956Y60595717D01*
X31179483Y60580696D01*
X31188693Y60568693D01*
X31213111Y60549957D01*
X31217292Y60546748D01*
X31217302Y60546740D01*
X31218938Y60545485D01*
X31261036Y60513182D01*
X31309162Y60476254D01*
X31449451Y60418144D01*
X31562203Y60403300D01*
X31562205Y60403300D01*
X31600000Y60398324D01*
X31633762Y60402770D01*
X31641862Y60403300D01*
X36329542Y60403300D01*
X36396581Y60383615D01*
X36442336Y60330811D01*
X36452280Y60261653D01*
X36441924Y60226895D01*
X36343734Y60016327D01*
X36343730Y60016318D01*
X36284860Y59796611D01*
X36284858Y59796600D01*
X36265034Y59570003D01*
X36265034Y59569998D01*
X36284858Y59343401D01*
X36284860Y59343390D01*
X36343730Y59123683D01*
X36343734Y59123674D01*
X36439866Y58917517D01*
X36439870Y58917511D01*
X36450854Y58901824D01*
X36473182Y58835618D01*
X36456172Y58767851D01*
X36405225Y58720038D01*
X36349280Y58706700D01*
X31171329Y58706700D01*
X31104290Y58726385D01*
X31058535Y58779189D01*
X31048591Y58848347D01*
X31069755Y58901824D01*
X31080568Y58917266D01*
X31176739Y59123504D01*
X31235635Y59343308D01*
X31255468Y59570000D01*
X31235635Y59796692D01*
X31176739Y60016496D01*
X31080568Y60222734D01*
X30954507Y60402769D01*
X30950045Y60409142D01*
X30789141Y60570046D01*
X30602734Y60700568D01*
X30602732Y60700569D01*
X30396497Y60796739D01*
X30396488Y60796742D01*
X30176697Y60855634D01*
X30176693Y60855635D01*
X30176692Y60855635D01*
X30176691Y60855636D01*
X30176686Y60855636D01*
X29950002Y60875468D01*
X29949998Y60875468D01*
X29723313Y60855636D01*
X29723302Y60855634D01*
X29503511Y60796742D01*
X29503502Y60796739D01*
X29297267Y60700569D01*
X29297265Y60700568D01*
X29110858Y60570046D01*
X28949954Y60409142D01*
X28819432Y60222735D01*
X28817361Y60218292D01*
X28771187Y60165854D01*
X28704980Y60146700D01*
X28642240Y60146700D01*
X28575201Y60166385D01*
X28529446Y60219189D01*
X28519502Y60288347D01*
X28526840Y60312434D01*
X28525756Y60312813D01*
X28544364Y60365992D01*
X28587821Y60490185D01*
X28598019Y60580696D01*
X28608081Y60669997D01*
X28608081Y60670004D01*
X28587822Y60849807D01*
X28587821Y60849813D01*
X28587821Y60849815D01*
X28528056Y61020613D01*
X28431783Y61173830D01*
X28303830Y61301783D01*
X28277556Y61318292D01*
X28150612Y61398057D01*
X27979812Y61457822D01*
X27979806Y61457823D01*
X27800004Y61478081D01*
X27799996Y61478081D01*
X27620193Y61457823D01*
X27620187Y61457822D01*
X27449387Y61398057D01*
X27296169Y61301783D01*
X27277406Y61283019D01*
X27216083Y61249534D01*
X27189725Y61246700D01*
X25220020Y61246700D01*
X25152981Y61266385D01*
X25107639Y61318292D01*
X25105568Y61322733D01*
X25105568Y61322734D01*
X24975047Y61509139D01*
X24975045Y61509142D01*
X24814141Y61670046D01*
X24627734Y61800568D01*
X24627728Y61800571D01*
X24569725Y61827618D01*
X24517285Y61873790D01*
X24498133Y61940983D01*
X24518348Y62007865D01*
X24569725Y62052382D01*
X24627734Y62079432D01*
X24814139Y62209953D01*
X24975047Y62370861D01*
X25105568Y62557266D01*
X25107639Y62561709D01*
X25153813Y62614146D01*
X25220020Y62633300D01*
X27489731Y62633300D01*
X27556770Y62613615D01*
G37*
%TD.AperFunction*%
%TA.AperFunction,Conductor*%
G36*
X34581256Y64199815D02*
G01*
X34601898Y64183181D01*
X36243111Y62541968D01*
X36276596Y62480645D01*
X36278958Y62465097D01*
X36284364Y62403312D01*
X36284366Y62403303D01*
X36302884Y62334193D01*
X36301221Y62264343D01*
X36262058Y62206481D01*
X36197830Y62178977D01*
X36183109Y62178100D01*
X32858839Y62178100D01*
X32791800Y62197785D01*
X32771158Y62214419D01*
X30977758Y64007819D01*
X30944273Y64069142D01*
X30949257Y64138834D01*
X30991129Y64194767D01*
X31056593Y64219184D01*
X31065439Y64219500D01*
X34514217Y64219500D01*
X34581256Y64199815D01*
G37*
%TD.AperFunction*%
%TA.AperFunction,Conductor*%
G36*
X63002208Y66699343D02*
G01*
X63233020Y66682835D01*
X63250529Y66680317D01*
X63470144Y66632542D01*
X63487103Y66627563D01*
X63697694Y66549017D01*
X63713777Y66541673D01*
X63911036Y66433960D01*
X63925919Y66424395D01*
X64105836Y66289711D01*
X64119207Y66278125D01*
X64278124Y66119208D01*
X64289710Y66105837D01*
X64424394Y65925920D01*
X64433959Y65911037D01*
X64541669Y65713783D01*
X64549019Y65697689D01*
X64627559Y65487113D01*
X64632543Y65470138D01*
X64680316Y65250530D01*
X64682834Y65233018D01*
X64696637Y65040030D01*
X64698541Y65013402D01*
X64699342Y65002211D01*
X64699500Y64997787D01*
X64699500Y2002214D01*
X64699342Y1997790D01*
X64682834Y1766983D01*
X64680316Y1749471D01*
X64632543Y1529863D01*
X64627559Y1512888D01*
X64549019Y1302312D01*
X64541669Y1286218D01*
X64433959Y1088964D01*
X64424394Y1074081D01*
X64289710Y894164D01*
X64278124Y880793D01*
X64119207Y721876D01*
X64105836Y710290D01*
X63925919Y575606D01*
X63911036Y566041D01*
X63713782Y458331D01*
X63697688Y450981D01*
X63487112Y372441D01*
X63470137Y367457D01*
X63250529Y319684D01*
X63233017Y317166D01*
X63019172Y301872D01*
X63002208Y300658D01*
X62997786Y300500D01*
X2002214Y300500D01*
X1997791Y300658D01*
X1979142Y301992D01*
X1766982Y317166D01*
X1749470Y319684D01*
X1529862Y367457D01*
X1512887Y372441D01*
X1302311Y450981D01*
X1286217Y458331D01*
X1088963Y566041D01*
X1074080Y575606D01*
X894163Y710290D01*
X880792Y721876D01*
X721875Y880793D01*
X710289Y894164D01*
X575605Y1074081D01*
X566040Y1088964D01*
X458330Y1286218D01*
X450983Y1302306D01*
X372437Y1512897D01*
X367458Y1529856D01*
X319683Y1749471D01*
X317165Y1766983D01*
X313329Y1820613D01*
X300657Y1997792D01*
X300500Y2002214D01*
X300500Y34339999D01*
X1579532Y34339999D01*
X1599364Y34113314D01*
X1599366Y34113303D01*
X1658258Y33893512D01*
X1658261Y33893503D01*
X1754431Y33687268D01*
X1754432Y33687266D01*
X1884954Y33500859D01*
X2045858Y33339955D01*
X2045861Y33339953D01*
X2232266Y33209432D01*
X2247975Y33202107D01*
X2300414Y33155936D01*
X2319567Y33088743D01*
X2299352Y33021862D01*
X2247979Y32977344D01*
X2232512Y32970132D01*
X2159526Y32919027D01*
X2840599Y32237954D01*
X2759852Y32225165D01*
X2646955Y32167641D01*
X2557359Y32078045D01*
X2499835Y31965148D01*
X2487046Y31884401D01*
X1805973Y32565474D01*
X1805972Y32565473D01*
X1754868Y32492487D01*
X1658734Y32286327D01*
X1658730Y32286318D01*
X1599860Y32066611D01*
X1599858Y32066600D01*
X1580034Y31840003D01*
X1580034Y31839998D01*
X1599858Y31613401D01*
X1599860Y31613390D01*
X1658730Y31393683D01*
X1658734Y31393674D01*
X1754865Y31187519D01*
X1754866Y31187517D01*
X1805973Y31114529D01*
X1805974Y31114528D01*
X2487046Y31795601D01*
X2499835Y31714852D01*
X2557359Y31601955D01*
X2646955Y31512359D01*
X2759852Y31454835D01*
X2840599Y31442047D01*
X2159526Y30760975D01*
X2159526Y30760974D01*
X2232512Y30709869D01*
X2232516Y30709867D01*
X2438673Y30613735D01*
X2438682Y30613731D01*
X2658389Y30554861D01*
X2658400Y30554859D01*
X2884998Y30535034D01*
X2885002Y30535034D01*
X3111599Y30554859D01*
X3111610Y30554861D01*
X3331317Y30613731D01*
X3331331Y30613736D01*
X3537478Y30709864D01*
X3610472Y30760975D01*
X2929401Y31442047D01*
X3010148Y31454835D01*
X3123045Y31512359D01*
X3212641Y31601955D01*
X3270165Y31714852D01*
X3282953Y31795600D01*
X3964025Y31114528D01*
X4015136Y31187522D01*
X4111264Y31393669D01*
X4111269Y31393683D01*
X4170139Y31613391D01*
X4171503Y31628981D01*
X4196953Y31694051D01*
X4253542Y31735032D01*
X4311245Y31739767D01*
X4311308Y31740590D01*
X4316481Y31740197D01*
X4316918Y31740232D01*
X4317575Y31740115D01*
X4317582Y31740113D01*
X4351839Y31737505D01*
X4359614Y31736414D01*
X4393255Y31729500D01*
X4393259Y31729500D01*
X4454598Y31729500D01*
X4459304Y31729322D01*
X4494062Y31726675D01*
X4520475Y31724663D01*
X4520475Y31724664D01*
X4520476Y31724663D01*
X4554559Y31729004D01*
X4562389Y31729500D01*
X5229242Y31729500D01*
X5296281Y31709815D01*
X5316923Y31693181D01*
X5318597Y31691507D01*
X5318603Y31691502D01*
X5504158Y31561575D01*
X5547783Y31506998D01*
X5554977Y31437500D01*
X5523454Y31375145D01*
X5504158Y31358425D01*
X5318597Y31228495D01*
X5151505Y31061403D01*
X5015965Y30867831D01*
X5015964Y30867829D01*
X4916098Y30653665D01*
X4916094Y30653656D01*
X4854938Y30425414D01*
X4854936Y30425404D01*
X4834341Y30190001D01*
X4834341Y30190000D01*
X4854936Y29954597D01*
X4854938Y29954587D01*
X4916094Y29726345D01*
X4916096Y29726341D01*
X4916097Y29726337D01*
X5004146Y29537516D01*
X5015965Y29512170D01*
X5015967Y29512166D01*
X5151501Y29318605D01*
X5151506Y29318598D01*
X5318597Y29151507D01*
X5318603Y29151502D01*
X5504158Y29021575D01*
X5547783Y28966998D01*
X5554977Y28897500D01*
X5523454Y28835145D01*
X5504158Y28818425D01*
X5318597Y28688495D01*
X5151505Y28521403D01*
X5015965Y28327831D01*
X5015964Y28327829D01*
X4916098Y28113665D01*
X4916094Y28113656D01*
X4854938Y27885414D01*
X4854936Y27885404D01*
X4834341Y27650001D01*
X4834341Y27650000D01*
X4854936Y27414597D01*
X4854938Y27414587D01*
X4916094Y27186345D01*
X4916096Y27186341D01*
X4916097Y27186337D01*
X5007737Y26989815D01*
X5015965Y26972170D01*
X5015967Y26972166D01*
X5151501Y26778605D01*
X5151506Y26778598D01*
X5318597Y26611507D01*
X5318603Y26611502D01*
X5504158Y26481575D01*
X5547783Y26426998D01*
X5554977Y26357500D01*
X5523454Y26295145D01*
X5504158Y26278425D01*
X5318597Y26148495D01*
X5151505Y25981403D01*
X5015965Y25787831D01*
X5015964Y25787829D01*
X4916098Y25573665D01*
X4916094Y25573656D01*
X4854938Y25345414D01*
X4854936Y25345404D01*
X4834341Y25110001D01*
X4834341Y25110000D01*
X4854936Y24874597D01*
X4854938Y24874587D01*
X4916094Y24646345D01*
X4916096Y24646341D01*
X4916097Y24646337D01*
X5004262Y24457268D01*
X5015965Y24432170D01*
X5015967Y24432166D01*
X5151501Y24238605D01*
X5151506Y24238598D01*
X5318597Y24071507D01*
X5318603Y24071502D01*
X5504158Y23941575D01*
X5547783Y23886998D01*
X5554977Y23817500D01*
X5523454Y23755145D01*
X5504158Y23738425D01*
X5318597Y23608495D01*
X5151505Y23441403D01*
X5015965Y23247831D01*
X5015964Y23247829D01*
X4916098Y23033665D01*
X4916094Y23033656D01*
X4854938Y22805414D01*
X4854936Y22805404D01*
X4834341Y22570001D01*
X4834341Y22570000D01*
X4854936Y22334597D01*
X4854938Y22334587D01*
X4916094Y22106345D01*
X4916096Y22106341D01*
X4916097Y22106337D01*
X5009284Y21906498D01*
X5015965Y21892170D01*
X5015967Y21892166D01*
X5151501Y21698605D01*
X5151506Y21698598D01*
X5318597Y21531507D01*
X5318603Y21531502D01*
X5504158Y21401575D01*
X5547783Y21346998D01*
X5554977Y21277500D01*
X5523454Y21215145D01*
X5504158Y21198425D01*
X5318597Y21068495D01*
X5151505Y20901403D01*
X5015965Y20707831D01*
X5015964Y20707829D01*
X4916098Y20493665D01*
X4916094Y20493656D01*
X4854938Y20265414D01*
X4854936Y20265404D01*
X4834341Y20030001D01*
X4834341Y20030000D01*
X4854936Y19794597D01*
X4854938Y19794587D01*
X4916094Y19566345D01*
X4916096Y19566341D01*
X4916097Y19566337D01*
X5002661Y19380700D01*
X5015965Y19352170D01*
X5015967Y19352166D01*
X5151501Y19158605D01*
X5151506Y19158598D01*
X5318597Y18991507D01*
X5318603Y18991502D01*
X5504158Y18861575D01*
X5547783Y18806998D01*
X5554977Y18737500D01*
X5523454Y18675145D01*
X5504158Y18658425D01*
X5318597Y18528495D01*
X5151505Y18361403D01*
X5015965Y18167831D01*
X5015964Y18167829D01*
X4916098Y17953665D01*
X4916094Y17953656D01*
X4854938Y17725414D01*
X4854936Y17725404D01*
X4834341Y17490001D01*
X4834341Y17490000D01*
X4854936Y17254597D01*
X4854938Y17254587D01*
X4916094Y17026345D01*
X4916096Y17026341D01*
X4916097Y17026337D01*
X4998673Y16849252D01*
X5015965Y16812170D01*
X5015967Y16812166D01*
X5151501Y16618605D01*
X5151506Y16618598D01*
X5318597Y16451507D01*
X5318603Y16451502D01*
X5504158Y16321575D01*
X5547783Y16266998D01*
X5554977Y16197500D01*
X5523454Y16135145D01*
X5504158Y16118425D01*
X5318597Y15988495D01*
X5151505Y15821403D01*
X5015965Y15627831D01*
X5015964Y15627829D01*
X4916098Y15413665D01*
X4916094Y15413656D01*
X4854938Y15185414D01*
X4854936Y15185404D01*
X4834341Y14950001D01*
X4834341Y14950000D01*
X4854936Y14714597D01*
X4854938Y14714587D01*
X4916094Y14486345D01*
X4916096Y14486341D01*
X4916097Y14486337D01*
X4959234Y14393830D01*
X5015965Y14272170D01*
X5015967Y14272166D01*
X5151501Y14078605D01*
X5151506Y14078598D01*
X5318597Y13911507D01*
X5318603Y13911502D01*
X5504158Y13781575D01*
X5547783Y13726998D01*
X5554977Y13657500D01*
X5523454Y13595145D01*
X5504158Y13578425D01*
X5318597Y13448495D01*
X5151505Y13281403D01*
X5015965Y13087831D01*
X5015964Y13087829D01*
X4916098Y12873665D01*
X4916094Y12873656D01*
X4854938Y12645414D01*
X4854936Y12645404D01*
X4834341Y12410001D01*
X4834341Y12410000D01*
X4854936Y12174597D01*
X4854938Y12174587D01*
X4916094Y11946345D01*
X4916096Y11946341D01*
X4916097Y11946337D01*
X5002136Y11761826D01*
X5015965Y11732170D01*
X5015967Y11732166D01*
X5095363Y11618778D01*
X5131828Y11566700D01*
X5151501Y11538605D01*
X5151506Y11538598D01*
X5318597Y11371507D01*
X5318603Y11371502D01*
X5504158Y11241575D01*
X5547783Y11186998D01*
X5554977Y11117500D01*
X5523454Y11055145D01*
X5504158Y11038425D01*
X5318597Y10908495D01*
X5151505Y10741403D01*
X5015965Y10547831D01*
X5015964Y10547829D01*
X4916098Y10333665D01*
X4916094Y10333656D01*
X4854938Y10105414D01*
X4854936Y10105404D01*
X4834341Y9870001D01*
X4834341Y9870000D01*
X4854936Y9634597D01*
X4854938Y9634587D01*
X4916094Y9406345D01*
X4916099Y9406331D01*
X4939401Y9356360D01*
X4949893Y9287283D01*
X4921373Y9223499D01*
X4862896Y9185260D01*
X4793028Y9184706D01*
X4739338Y9216275D01*
X4643830Y9311783D01*
X4490612Y9408057D01*
X4319812Y9467822D01*
X4319806Y9467823D01*
X4140004Y9488081D01*
X4139996Y9488081D01*
X3960193Y9467823D01*
X3960187Y9467822D01*
X3789387Y9408057D01*
X3636169Y9311783D01*
X3508217Y9183831D01*
X3411943Y9030613D01*
X3352178Y8859813D01*
X3352177Y8859807D01*
X3331919Y8680004D01*
X3331919Y8679997D01*
X3352177Y8500194D01*
X3352178Y8500188D01*
X3411943Y8329388D01*
X3419210Y8317823D01*
X3508217Y8176170D01*
X3636170Y8048217D01*
X3789387Y7951944D01*
X3960185Y7892179D01*
X3960191Y7892179D01*
X3960193Y7892178D01*
X4139996Y7871919D01*
X4140000Y7871919D01*
X4140002Y7871919D01*
X4249289Y7884234D01*
X4288188Y7888616D01*
X4318258Y7888335D01*
X4354799Y7883524D01*
X4354800Y7883524D01*
X4354801Y7883524D01*
X4367794Y7885235D01*
X4388565Y7887970D01*
X4396664Y7888500D01*
X7376672Y7888500D01*
X7443711Y7868815D01*
X7489466Y7816011D01*
X7499410Y7746853D01*
X7496447Y7732407D01*
X7449366Y7556698D01*
X7449364Y7556687D01*
X7429532Y7330002D01*
X7429532Y7329999D01*
X7449364Y7103314D01*
X7449366Y7103303D01*
X7508258Y6883512D01*
X7508261Y6883503D01*
X7604431Y6677268D01*
X7604432Y6677266D01*
X7734954Y6490859D01*
X7895858Y6329955D01*
X7895861Y6329953D01*
X8082266Y6199432D01*
X8140275Y6172382D01*
X8192714Y6126209D01*
X8211866Y6059016D01*
X8191650Y5992135D01*
X8140275Y5947618D01*
X8082267Y5920569D01*
X8082265Y5920568D01*
X7895858Y5790046D01*
X7734954Y5629142D01*
X7604432Y5442735D01*
X7604431Y5442733D01*
X7508261Y5236498D01*
X7508258Y5236489D01*
X7449366Y5016698D01*
X7449364Y5016687D01*
X7429532Y4790002D01*
X7429532Y4789999D01*
X7449364Y4563314D01*
X7449366Y4563303D01*
X7508258Y4343512D01*
X7508261Y4343503D01*
X7604431Y4137268D01*
X7604432Y4137266D01*
X7734954Y3950859D01*
X7895858Y3789955D01*
X7895861Y3789953D01*
X8082266Y3659432D01*
X8288504Y3563261D01*
X8508308Y3504365D01*
X8670230Y3490199D01*
X8734998Y3484532D01*
X8735000Y3484532D01*
X8735002Y3484532D01*
X8791673Y3489491D01*
X8961692Y3504365D01*
X9181496Y3563261D01*
X9387734Y3659432D01*
X9574139Y3789953D01*
X9735047Y3950861D01*
X9865568Y4137266D01*
X9961739Y4343504D01*
X10020635Y4563308D01*
X10040468Y4790000D01*
X10020635Y5016692D01*
X9991022Y5127208D01*
X9992685Y5197056D01*
X10031847Y5254919D01*
X10096075Y5282423D01*
X10110797Y5283300D01*
X15114103Y5283300D01*
X15181142Y5263615D01*
X15226897Y5210811D01*
X15236841Y5141653D01*
X15207816Y5078097D01*
X15197230Y5067290D01*
X15193791Y5064184D01*
X15193787Y5064179D01*
X15073353Y4900172D01*
X15073349Y4900165D01*
X14988397Y4715275D01*
X14988393Y4715263D01*
X14942396Y4517055D01*
X14937242Y4313642D01*
X14973140Y4113352D01*
X14973142Y4113346D01*
X15004700Y4034342D01*
X15038047Y3950859D01*
X15048623Y3924384D01*
X15048629Y3924372D01*
X15160596Y3754483D01*
X15160599Y3754479D01*
X16663568Y2251511D01*
X16669106Y2245684D01*
X16701024Y2183531D01*
X16694273Y2113988D01*
X16650996Y2059135D01*
X16584933Y2036387D01*
X16579228Y2036256D01*
X13980719Y2036256D01*
X13913680Y2055941D01*
X13893038Y2072575D01*
X13863830Y2101783D01*
X13710612Y2198057D01*
X13539812Y2257822D01*
X13539806Y2257823D01*
X13360004Y2278081D01*
X13359996Y2278081D01*
X13180193Y2257823D01*
X13180187Y2257822D01*
X13009387Y2198057D01*
X12856169Y2101783D01*
X12728217Y1973831D01*
X12631943Y1820613D01*
X12572178Y1649813D01*
X12572177Y1649807D01*
X12551919Y1470004D01*
X12551919Y1469997D01*
X12572177Y1290194D01*
X12572178Y1290188D01*
X12631943Y1119388D01*
X12672954Y1054120D01*
X12728217Y966170D01*
X12856170Y838217D01*
X13009387Y741944D01*
X13180185Y682179D01*
X13180191Y682179D01*
X13180193Y682178D01*
X13359996Y661919D01*
X13360000Y661919D01*
X13360004Y661919D01*
X13539806Y682178D01*
X13539805Y682178D01*
X13539815Y682179D01*
X13710613Y741944D01*
X13863830Y838217D01*
X13872150Y846537D01*
X13933473Y880022D01*
X13959831Y882856D01*
X45337692Y882856D01*
X45345790Y882326D01*
X45363286Y880022D01*
X45379555Y877880D01*
X45379556Y877880D01*
X45379557Y877880D01*
X45449316Y887064D01*
X45530105Y897700D01*
X45670394Y955810D01*
X45760618Y1025041D01*
X45760618Y1025042D01*
X45783556Y1042642D01*
X45783561Y1042646D01*
X45790861Y1048247D01*
X45790863Y1048249D01*
X45811599Y1075275D01*
X45816941Y1081366D01*
X48738758Y4003182D01*
X48800081Y4036667D01*
X48826439Y4039501D01*
X50207871Y4039501D01*
X50207872Y4039501D01*
X50267483Y4045909D01*
X50402331Y4096204D01*
X50517546Y4182454D01*
X50603796Y4297669D01*
X50654091Y4432517D01*
X50660500Y4492127D01*
X50660499Y6287872D01*
X50654091Y6347483D01*
X50652810Y6350917D01*
X50603797Y6482329D01*
X50603793Y6482336D01*
X50517547Y6597545D01*
X50517544Y6597548D01*
X50402335Y6683794D01*
X50402328Y6683798D01*
X50267482Y6734092D01*
X50267483Y6734092D01*
X50207883Y6740499D01*
X50207881Y6740500D01*
X50207873Y6740500D01*
X50207864Y6740500D01*
X48412129Y6740500D01*
X48412123Y6740499D01*
X48352516Y6734092D01*
X48217671Y6683798D01*
X48217664Y6683794D01*
X48102455Y6597548D01*
X48102452Y6597545D01*
X48016206Y6482336D01*
X48016203Y6482331D01*
X47967189Y6350917D01*
X47925317Y6294984D01*
X47859853Y6270567D01*
X47791580Y6285419D01*
X47763326Y6306570D01*
X47641402Y6428494D01*
X47641395Y6428499D01*
X47447834Y6564033D01*
X47447830Y6564035D01*
X47395695Y6588346D01*
X47233663Y6663903D01*
X47233659Y6663904D01*
X47233655Y6663906D01*
X47005413Y6725062D01*
X47005403Y6725064D01*
X46770001Y6745659D01*
X46769999Y6745659D01*
X46534596Y6725064D01*
X46534586Y6725062D01*
X46379697Y6683560D01*
X46309847Y6685223D01*
X46259923Y6715654D01*
X45627758Y7347819D01*
X45594273Y7409142D01*
X45599257Y7478834D01*
X45641129Y7534767D01*
X45706593Y7559184D01*
X45715439Y7559500D01*
X50600743Y7559500D01*
X50752439Y7574926D01*
X50946579Y7635838D01*
X50946580Y7635839D01*
X50946588Y7635841D01*
X51124502Y7734591D01*
X51278895Y7867134D01*
X51403448Y8028042D01*
X51493060Y8210729D01*
X51544063Y8407715D01*
X51554369Y8610936D01*
X51523556Y8812071D01*
X51452886Y9002887D01*
X51452883Y9002891D01*
X51452004Y9004684D01*
X51451815Y9005777D01*
X51450702Y9008784D01*
X51451262Y9008992D01*
X51440148Y9073540D01*
X51467402Y9137876D01*
X51525111Y9177264D01*
X51563328Y9183300D01*
X56499725Y9183300D01*
X56566764Y9163615D01*
X56587406Y9146981D01*
X56606170Y9128217D01*
X56759387Y9031944D01*
X56930185Y8972179D01*
X56930191Y8972179D01*
X56930193Y8972178D01*
X57109996Y8951919D01*
X57110000Y8951919D01*
X57110004Y8951919D01*
X57289806Y8972178D01*
X57289805Y8972178D01*
X57289815Y8972179D01*
X57460613Y9031944D01*
X57613830Y9128217D01*
X57741783Y9256170D01*
X57838056Y9409387D01*
X57897821Y9580185D01*
X57906061Y9653314D01*
X57918081Y9759997D01*
X57918081Y9760004D01*
X57897822Y9939807D01*
X57897821Y9939813D01*
X57897821Y9939815D01*
X57838056Y10110613D01*
X57741783Y10263830D01*
X57613830Y10391783D01*
X57526068Y10446928D01*
X57460612Y10488057D01*
X57289812Y10547822D01*
X57289806Y10547823D01*
X57110004Y10568081D01*
X57109996Y10568081D01*
X56930193Y10547823D01*
X56930187Y10547822D01*
X56759387Y10488057D01*
X56606169Y10391783D01*
X56587406Y10373019D01*
X56526083Y10339534D01*
X56499725Y10336700D01*
X38570275Y10336700D01*
X38503236Y10356385D01*
X38482594Y10373019D01*
X38463830Y10391783D01*
X38310612Y10488057D01*
X38139809Y10547823D01*
X38011562Y10562273D01*
X37947148Y10589340D01*
X37937765Y10597812D01*
X37627078Y10908499D01*
X37167383Y11368194D01*
X37162039Y11374289D01*
X37157027Y11380820D01*
X37141307Y11401307D01*
X37077249Y11450460D01*
X37020838Y11493746D01*
X37020834Y11493748D01*
X36880549Y11551856D01*
X36880547Y11551857D01*
X36730001Y11571676D01*
X36729999Y11571676D01*
X36723809Y11570861D01*
X36696234Y11567231D01*
X36688136Y11566700D01*
X31289331Y11566700D01*
X31222292Y11586385D01*
X31176537Y11639189D01*
X31166593Y11708347D01*
X31187756Y11761824D01*
X31191568Y11767266D01*
X31287739Y11973504D01*
X31346635Y12193308D01*
X31365593Y12410002D01*
X31366468Y12419999D01*
X31366468Y12420001D01*
X31359909Y12494964D01*
X31373675Y12563464D01*
X31422290Y12613647D01*
X31490319Y12629581D01*
X31556162Y12606206D01*
X31588429Y12571747D01*
X31598217Y12556170D01*
X31726170Y12428217D01*
X31879387Y12331944D01*
X32050185Y12272179D01*
X32050191Y12272179D01*
X32050193Y12272178D01*
X32229997Y12251919D01*
X32229999Y12251919D01*
X32229999Y12251920D01*
X32230000Y12251919D01*
X32235872Y12252581D01*
X32297213Y12243924D01*
X32359451Y12218144D01*
X32434725Y12208234D01*
X32509999Y12198324D01*
X32510000Y12198324D01*
X32510001Y12198324D01*
X32526270Y12200466D01*
X32543765Y12202770D01*
X32551864Y12203300D01*
X42449725Y12203300D01*
X42516764Y12183615D01*
X42537406Y12166981D01*
X42556170Y12148217D01*
X42709387Y12051944D01*
X42880185Y11992179D01*
X42880191Y11992179D01*
X42880193Y11992178D01*
X43059996Y11971919D01*
X43060000Y11971919D01*
X43060004Y11971919D01*
X43239806Y11992178D01*
X43239805Y11992178D01*
X43239815Y11992179D01*
X43410613Y12051944D01*
X43563830Y12148217D01*
X43582594Y12166981D01*
X43643917Y12200466D01*
X43670275Y12203300D01*
X47088136Y12203300D01*
X47096234Y12202770D01*
X47113730Y12200466D01*
X47129999Y12198324D01*
X47130000Y12198324D01*
X47130001Y12198324D01*
X47180183Y12204931D01*
X47280549Y12218144D01*
X47420838Y12276254D01*
X47511062Y12345485D01*
X47511062Y12345486D01*
X47534000Y12363086D01*
X47534005Y12363090D01*
X47541305Y12368691D01*
X47541307Y12368693D01*
X47562043Y12395719D01*
X47567385Y12401810D01*
X48052558Y12886981D01*
X48113881Y12920466D01*
X48140239Y12923300D01*
X54901635Y12923300D01*
X54968674Y12903615D01*
X54981116Y12893589D01*
X54981157Y12893641D01*
X54987602Y12888696D01*
X54987604Y12888693D01*
X55007189Y12873665D01*
X55017849Y12865485D01*
X55108071Y12796254D01*
X55108072Y12796254D01*
X55108073Y12796253D01*
X55173478Y12769162D01*
X55248362Y12738144D01*
X55361114Y12723300D01*
X55398910Y12718324D01*
X55398911Y12718324D01*
X55398912Y12718324D01*
X55411905Y12720035D01*
X55432676Y12722770D01*
X55440775Y12723300D01*
X59322357Y12723300D01*
X59388330Y12704293D01*
X59507232Y12629581D01*
X59519387Y12621944D01*
X59690185Y12562179D01*
X59690191Y12562179D01*
X59690193Y12562178D01*
X59869996Y12541919D01*
X59870000Y12541919D01*
X59870004Y12541919D01*
X60049806Y12562178D01*
X60049805Y12562178D01*
X60049815Y12562179D01*
X60220613Y12621944D01*
X60373830Y12718217D01*
X60501783Y12846170D01*
X60501783Y12846171D01*
X60506707Y12851094D01*
X60508603Y12849198D01*
X60555742Y12882320D01*
X60625552Y12885207D01*
X60683244Y12852569D01*
X60695858Y12839955D01*
X60695861Y12839953D01*
X60882266Y12709432D01*
X61088504Y12613261D01*
X61308308Y12554365D01*
X61470230Y12540199D01*
X61534998Y12534532D01*
X61535000Y12534532D01*
X61535002Y12534532D01*
X61591673Y12539491D01*
X61761692Y12554365D01*
X61981496Y12613261D01*
X62187734Y12709432D01*
X62374139Y12839953D01*
X62535047Y13000861D01*
X62665568Y13187266D01*
X62761739Y13393504D01*
X62820635Y13613308D01*
X62840468Y13840000D01*
X62820635Y14066692D01*
X62761739Y14286496D01*
X62665568Y14492734D01*
X62535047Y14679139D01*
X62535045Y14679142D01*
X62374141Y14840046D01*
X62187734Y14970568D01*
X62187728Y14970571D01*
X62129725Y14997618D01*
X62077285Y15043790D01*
X62058133Y15110983D01*
X62078348Y15177865D01*
X62129725Y15222382D01*
X62187734Y15249432D01*
X62374139Y15379953D01*
X62535047Y15540861D01*
X62665568Y15727266D01*
X62761739Y15933504D01*
X62820635Y16153308D01*
X62840468Y16380000D01*
X62839993Y16385424D01*
X62830848Y16489955D01*
X62820635Y16606692D01*
X62765578Y16812170D01*
X62761741Y16826489D01*
X62761738Y16826498D01*
X62751128Y16849252D01*
X62665568Y17032734D01*
X62535047Y17219139D01*
X62535045Y17219142D01*
X62374141Y17380046D01*
X62187734Y17510568D01*
X62187728Y17510571D01*
X62129725Y17537618D01*
X62077285Y17583790D01*
X62058133Y17650983D01*
X62078348Y17717865D01*
X62129725Y17762382D01*
X62136890Y17765723D01*
X62187734Y17789432D01*
X62374139Y17919953D01*
X62535047Y18080861D01*
X62665568Y18267266D01*
X62761739Y18473504D01*
X62820635Y18693308D01*
X62840468Y18920000D01*
X62820635Y19146692D01*
X62761739Y19366496D01*
X62665568Y19572734D01*
X62535047Y19759139D01*
X62535045Y19759142D01*
X62374141Y19920046D01*
X62187734Y20050568D01*
X62187728Y20050571D01*
X62129725Y20077618D01*
X62077285Y20123790D01*
X62058133Y20190983D01*
X62078348Y20257865D01*
X62129725Y20302382D01*
X62187734Y20329432D01*
X62374139Y20459953D01*
X62535047Y20620861D01*
X62665568Y20807266D01*
X62761739Y21013504D01*
X62820635Y21233308D01*
X62840468Y21460000D01*
X62820635Y21686692D01*
X62761739Y21906496D01*
X62665568Y22112734D01*
X62535047Y22299139D01*
X62535045Y22299142D01*
X62374141Y22460046D01*
X62187734Y22590568D01*
X62187728Y22590571D01*
X62129725Y22617618D01*
X62077285Y22663790D01*
X62058133Y22730983D01*
X62078348Y22797865D01*
X62129725Y22842382D01*
X62187734Y22869432D01*
X62374139Y22999953D01*
X62535047Y23160861D01*
X62665568Y23347266D01*
X62761739Y23553504D01*
X62820635Y23773308D01*
X62840468Y24000000D01*
X62835758Y24053830D01*
X62828447Y24137399D01*
X62820635Y24226692D01*
X62761739Y24446496D01*
X62665568Y24652734D01*
X62535047Y24839139D01*
X62535045Y24839142D01*
X62374141Y25000046D01*
X62187734Y25130568D01*
X62187728Y25130571D01*
X62129725Y25157618D01*
X62077285Y25203790D01*
X62058133Y25270983D01*
X62078348Y25337865D01*
X62129725Y25382382D01*
X62187734Y25409432D01*
X62374139Y25539953D01*
X62535047Y25700861D01*
X62665568Y25887266D01*
X62761739Y26093504D01*
X62820635Y26313308D01*
X62840468Y26540000D01*
X62839795Y26547687D01*
X62820635Y26766687D01*
X62820635Y26766692D01*
X62805873Y26821783D01*
X62761741Y26986489D01*
X62761738Y26986498D01*
X62735042Y27043747D01*
X62665568Y27192734D01*
X62549973Y27357822D01*
X62535045Y27379142D01*
X62374141Y27540046D01*
X62187734Y27670568D01*
X62187728Y27670571D01*
X62129725Y27697618D01*
X62077285Y27743790D01*
X62058133Y27810983D01*
X62078348Y27877865D01*
X62129725Y27922382D01*
X62187734Y27949432D01*
X62374139Y28079953D01*
X62535047Y28240861D01*
X62665568Y28427266D01*
X62761739Y28633504D01*
X62820635Y28853308D01*
X62840468Y29080000D01*
X62840277Y29082178D01*
X62832426Y29171919D01*
X62820635Y29306692D01*
X62765578Y29512170D01*
X62761741Y29526489D01*
X62761738Y29526498D01*
X62754697Y29541598D01*
X62665568Y29732734D01*
X62556794Y29888081D01*
X62535045Y29919142D01*
X62374141Y30080046D01*
X62217107Y30190001D01*
X62187734Y30210568D01*
X62129132Y30237895D01*
X62076694Y30284067D01*
X62057543Y30351261D01*
X62077759Y30418142D01*
X62129135Y30462659D01*
X62187482Y30489867D01*
X62260472Y30540975D01*
X61579401Y31222047D01*
X61660148Y31234835D01*
X61773045Y31292359D01*
X61862641Y31381955D01*
X61920165Y31494852D01*
X61932953Y31575600D01*
X62614025Y30894528D01*
X62665136Y30967522D01*
X62761264Y31173669D01*
X62761269Y31173683D01*
X62820139Y31393390D01*
X62820141Y31393401D01*
X62839966Y31619998D01*
X62839966Y31620003D01*
X62820141Y31846600D01*
X62820139Y31846611D01*
X62761269Y32066318D01*
X62761265Y32066327D01*
X62665133Y32272484D01*
X62665131Y32272488D01*
X62614026Y32345474D01*
X62614025Y32345474D01*
X61932953Y31664402D01*
X61920165Y31745148D01*
X61862641Y31858045D01*
X61773045Y31947641D01*
X61660148Y32005165D01*
X61579400Y32017954D01*
X62260472Y32699026D01*
X62260471Y32699027D01*
X62187483Y32750134D01*
X62187481Y32750135D01*
X62129133Y32777343D01*
X62076694Y32823516D01*
X62057542Y32890709D01*
X62077758Y32957590D01*
X62129129Y33002105D01*
X62187734Y33029432D01*
X62374139Y33159953D01*
X62535047Y33320861D01*
X62665568Y33507266D01*
X62761739Y33713504D01*
X62820635Y33933308D01*
X62840468Y34160000D01*
X62820635Y34386692D01*
X62761739Y34606496D01*
X62665568Y34812734D01*
X62541621Y34989750D01*
X62535045Y34999142D01*
X62374141Y35160046D01*
X62187734Y35290568D01*
X62187728Y35290571D01*
X62129725Y35317618D01*
X62077285Y35363790D01*
X62058133Y35430983D01*
X62078348Y35497865D01*
X62129725Y35542382D01*
X62187734Y35569432D01*
X62374139Y35699953D01*
X62535047Y35860861D01*
X62665568Y36047266D01*
X62761739Y36253504D01*
X62820635Y36473308D01*
X62840468Y36700000D01*
X62836968Y36740000D01*
X62821237Y36919807D01*
X62820635Y36926692D01*
X62819873Y36929534D01*
X62761741Y37146489D01*
X62761738Y37146498D01*
X62738197Y37196981D01*
X62665568Y37352734D01*
X62535047Y37539139D01*
X62535045Y37539142D01*
X62374141Y37700046D01*
X62187734Y37830568D01*
X62187728Y37830571D01*
X62129725Y37857618D01*
X62077285Y37903790D01*
X62058133Y37970983D01*
X62078348Y38037865D01*
X62129725Y38082382D01*
X62130761Y38082865D01*
X62187734Y38109432D01*
X62374139Y38239953D01*
X62535047Y38400861D01*
X62665568Y38587266D01*
X62761739Y38793504D01*
X62820635Y39013308D01*
X62840468Y39240000D01*
X62820635Y39466692D01*
X62761739Y39686496D01*
X62665568Y39892734D01*
X62561295Y40041653D01*
X62535045Y40079142D01*
X62374141Y40240046D01*
X62187734Y40370568D01*
X62187728Y40370571D01*
X62129725Y40397618D01*
X62077285Y40443790D01*
X62058133Y40510983D01*
X62078348Y40577865D01*
X62129725Y40622382D01*
X62130761Y40622865D01*
X62187734Y40649432D01*
X62374139Y40779953D01*
X62535047Y40940861D01*
X62665568Y41127266D01*
X62761739Y41333504D01*
X62820635Y41553308D01*
X62840468Y41780000D01*
X62820635Y42006692D01*
X62761739Y42226496D01*
X62665568Y42432734D01*
X62535047Y42619139D01*
X62535045Y42619142D01*
X62374141Y42780046D01*
X62187734Y42910568D01*
X62187728Y42910571D01*
X62129725Y42937618D01*
X62077285Y42983790D01*
X62058133Y43050983D01*
X62078348Y43117865D01*
X62129725Y43162382D01*
X62187734Y43189432D01*
X62374139Y43319953D01*
X62535047Y43480861D01*
X62665568Y43667266D01*
X62761739Y43873504D01*
X62820635Y44093308D01*
X62840468Y44320000D01*
X62836968Y44360000D01*
X62823709Y44511553D01*
X62820635Y44546692D01*
X62761739Y44766496D01*
X62665568Y44972734D01*
X62556794Y45128081D01*
X62535045Y45159142D01*
X62374141Y45320046D01*
X62187734Y45450568D01*
X62187728Y45450571D01*
X62129725Y45477618D01*
X62077285Y45523790D01*
X62058133Y45590983D01*
X62078348Y45657865D01*
X62129725Y45702382D01*
X62187734Y45729432D01*
X62374139Y45859953D01*
X62535047Y46020861D01*
X62665568Y46207266D01*
X62761739Y46413504D01*
X62820635Y46633308D01*
X62840468Y46860000D01*
X62839593Y46869997D01*
X62828759Y46993830D01*
X62820635Y47086692D01*
X62761739Y47306496D01*
X62665568Y47512734D01*
X62535047Y47699139D01*
X62535045Y47699142D01*
X62374141Y47860046D01*
X62187734Y47990568D01*
X62187728Y47990571D01*
X62129725Y48017618D01*
X62077285Y48063790D01*
X62058133Y48130983D01*
X62078348Y48197865D01*
X62129725Y48242382D01*
X62187734Y48269432D01*
X62374139Y48399953D01*
X62535047Y48560861D01*
X62665568Y48747266D01*
X62761739Y48953504D01*
X62820635Y49173308D01*
X62840468Y49400000D01*
X62820635Y49626692D01*
X62761739Y49846496D01*
X62665568Y50052734D01*
X62535047Y50239139D01*
X62535045Y50239142D01*
X62374141Y50400046D01*
X62187734Y50530568D01*
X62187728Y50530571D01*
X62129725Y50557618D01*
X62077285Y50603790D01*
X62058133Y50670983D01*
X62078348Y50737865D01*
X62129725Y50782382D01*
X62187734Y50809432D01*
X62374139Y50939953D01*
X62535047Y51100861D01*
X62665568Y51287266D01*
X62761739Y51493504D01*
X62820635Y51713308D01*
X62840468Y51940000D01*
X62820635Y52166692D01*
X62761739Y52386496D01*
X62665568Y52592734D01*
X62535047Y52779139D01*
X62535045Y52779142D01*
X62374141Y52940046D01*
X62187734Y53070568D01*
X62187732Y53070569D01*
X61981497Y53166739D01*
X61981488Y53166742D01*
X61761697Y53225634D01*
X61761693Y53225635D01*
X61761692Y53225635D01*
X61761691Y53225636D01*
X61761686Y53225636D01*
X61535002Y53245468D01*
X61534998Y53245468D01*
X61308313Y53225636D01*
X61308302Y53225634D01*
X61088511Y53166742D01*
X61088502Y53166739D01*
X60882267Y53070569D01*
X60882265Y53070568D01*
X60695858Y52940046D01*
X60534954Y52779142D01*
X60404432Y52592735D01*
X60404431Y52592733D01*
X60308261Y52386498D01*
X60308257Y52386486D01*
X60300966Y52359275D01*
X60264600Y52299616D01*
X60201753Y52269088D01*
X60132377Y52277384D01*
X60078500Y52321870D01*
X60076198Y52325399D01*
X60072268Y52331653D01*
X60001783Y52443830D01*
X59873830Y52571783D01*
X59843967Y52590547D01*
X59720612Y52668057D01*
X59549809Y52727823D01*
X59421562Y52742273D01*
X59357148Y52769340D01*
X59347765Y52777812D01*
X59055008Y53070569D01*
X58697383Y53428194D01*
X58692039Y53434289D01*
X58686914Y53440967D01*
X58671307Y53461307D01*
X58617323Y53502730D01*
X58550838Y53553746D01*
X58550834Y53553748D01*
X58550835Y53553748D01*
X58410549Y53611856D01*
X58410547Y53611857D01*
X58260001Y53631676D01*
X58259999Y53631676D01*
X58247005Y53629966D01*
X58226234Y53627231D01*
X58218136Y53626700D01*
X40509532Y53626700D01*
X40442493Y53646385D01*
X40396738Y53699189D01*
X40386794Y53768347D01*
X40415819Y53831903D01*
X40474597Y53869677D01*
X40477439Y53870475D01*
X40505895Y53878100D01*
X40506496Y53878261D01*
X40712734Y53974432D01*
X40899139Y54104953D01*
X41060047Y54265861D01*
X41190568Y54452266D01*
X41286739Y54658504D01*
X41345635Y54878308D01*
X41365468Y55105000D01*
X41345635Y55331692D01*
X41312387Y55455776D01*
X41314050Y55525624D01*
X41353212Y55583487D01*
X41417441Y55610991D01*
X41432162Y55611868D01*
X55793175Y55611868D01*
X55860214Y55592183D01*
X55905969Y55539379D01*
X55916395Y55501751D01*
X55921077Y55460191D01*
X55921080Y55460178D01*
X55980842Y55289390D01*
X56044806Y55187593D01*
X56077117Y55136170D01*
X56205070Y55008217D01*
X56358287Y54911944D01*
X56529085Y54852179D01*
X56529091Y54852179D01*
X56529093Y54852178D01*
X56708896Y54831919D01*
X56708900Y54831919D01*
X56708904Y54831919D01*
X56888706Y54852178D01*
X56888705Y54852178D01*
X56888715Y54852179D01*
X57059513Y54911944D01*
X57212730Y55008217D01*
X57340683Y55136170D01*
X57436956Y55289387D01*
X57496721Y55460185D01*
X57511347Y55589997D01*
X57516981Y55639997D01*
X57516981Y55640004D01*
X57496722Y55819807D01*
X57496721Y55819813D01*
X57496721Y55819815D01*
X57436956Y55990613D01*
X57340683Y56143830D01*
X57262630Y56221883D01*
X57229145Y56283206D01*
X57234129Y56352898D01*
X57276001Y56408831D01*
X57336428Y56432784D01*
X57419815Y56442179D01*
X57590613Y56501944D01*
X57743830Y56598217D01*
X57871783Y56726170D01*
X57968056Y56879387D01*
X57990396Y56943234D01*
X58031117Y57000009D01*
X58096069Y57025757D01*
X58164631Y57012302D01*
X58195119Y56989960D01*
X58672460Y56512619D01*
X58705945Y56451296D01*
X58700961Y56381604D01*
X58659089Y56325671D01*
X58616874Y56305164D01*
X58583688Y56296272D01*
X58583673Y56296266D01*
X58377513Y56200132D01*
X58304526Y56149027D01*
X58985599Y55467954D01*
X58904852Y55455165D01*
X58791955Y55397641D01*
X58702359Y55308045D01*
X58644835Y55195148D01*
X58632046Y55114401D01*
X57950973Y55795474D01*
X57950972Y55795473D01*
X57899868Y55722487D01*
X57803734Y55516327D01*
X57803730Y55516318D01*
X57744860Y55296611D01*
X57744858Y55296600D01*
X57725034Y55070003D01*
X57725034Y55069998D01*
X57744858Y54843401D01*
X57744860Y54843390D01*
X57803730Y54623683D01*
X57803734Y54623674D01*
X57899865Y54417519D01*
X57899866Y54417517D01*
X57950973Y54344529D01*
X57950974Y54344528D01*
X58632046Y55025601D01*
X58644835Y54944852D01*
X58702359Y54831955D01*
X58791955Y54742359D01*
X58904852Y54684835D01*
X58985599Y54672047D01*
X58304526Y53990975D01*
X58304526Y53990974D01*
X58377512Y53939869D01*
X58377516Y53939867D01*
X58583673Y53843735D01*
X58583682Y53843731D01*
X58803389Y53784861D01*
X58803400Y53784859D01*
X59029998Y53765034D01*
X59030002Y53765034D01*
X59256599Y53784859D01*
X59256610Y53784861D01*
X59476317Y53843731D01*
X59476331Y53843736D01*
X59682478Y53939864D01*
X59755472Y53990975D01*
X59074401Y54672047D01*
X59155148Y54684835D01*
X59268045Y54742359D01*
X59357641Y54831955D01*
X59415165Y54944852D01*
X59427953Y55025600D01*
X60109025Y54344528D01*
X60160134Y54417519D01*
X60167340Y54432972D01*
X60213511Y54485413D01*
X60280704Y54504567D01*
X60347585Y54484354D01*
X60392105Y54432978D01*
X60399430Y54417270D01*
X60399432Y54417266D01*
X60529954Y54230859D01*
X60690858Y54069955D01*
X60690861Y54069953D01*
X60877266Y53939432D01*
X61083504Y53843261D01*
X61303308Y53784365D01*
X61465230Y53770199D01*
X61529998Y53764532D01*
X61530000Y53764532D01*
X61530002Y53764532D01*
X61586673Y53769491D01*
X61756692Y53784365D01*
X61976496Y53843261D01*
X62182734Y53939432D01*
X62369139Y54069953D01*
X62530047Y54230861D01*
X62660568Y54417266D01*
X62756739Y54623504D01*
X62815635Y54843308D01*
X62834327Y55056960D01*
X62835468Y55069999D01*
X62835468Y55070002D01*
X62821457Y55230148D01*
X62815635Y55296692D01*
X62756739Y55516496D01*
X62660568Y55722734D01*
X62530047Y55909139D01*
X62530045Y55909142D01*
X62369141Y56070046D01*
X62182734Y56200568D01*
X62182732Y56200569D01*
X61976497Y56296739D01*
X61976488Y56296742D01*
X61756697Y56355634D01*
X61756687Y56355636D01*
X61694905Y56361041D01*
X61629836Y56386494D01*
X61618032Y56396888D01*
X57896452Y60118468D01*
X57835061Y60183051D01*
X57835060Y60183052D01*
X57835059Y60183053D01*
X57807204Y60202441D01*
X57784709Y60218098D01*
X57780946Y60220936D01*
X57733413Y60259695D01*
X57733406Y60259700D01*
X57702959Y60275603D01*
X57696251Y60279666D01*
X57668049Y60299295D01*
X57668046Y60299297D01*
X57668045Y60299297D01*
X57668041Y60299299D01*
X57611680Y60323486D01*
X57607424Y60325507D01*
X57553057Y60353906D01*
X57553050Y60353909D01*
X57553049Y60353909D01*
X57547008Y60355638D01*
X57520030Y60363358D01*
X57512630Y60365992D01*
X57481057Y60379541D01*
X57481058Y60379541D01*
X57420966Y60391891D01*
X57416391Y60393014D01*
X57357420Y60409887D01*
X57357425Y60409887D01*
X57323158Y60412497D01*
X57315380Y60413588D01*
X57281742Y60420500D01*
X57281741Y60420500D01*
X57220402Y60420500D01*
X57215695Y60420679D01*
X57210121Y60421104D01*
X57154524Y60425338D01*
X57134589Y60422799D01*
X57120440Y60420997D01*
X57112611Y60420500D01*
X56759863Y60420500D01*
X56694586Y60439073D01*
X56597404Y60499246D01*
X56597398Y60499249D01*
X56467967Y60549390D01*
X56402784Y60574642D01*
X56347385Y60617214D01*
X56323794Y60682981D01*
X56339505Y60751061D01*
X56389529Y60799840D01*
X56402786Y60805895D01*
X56597177Y60881203D01*
X56597181Y60881205D01*
X56713326Y60953121D01*
X56104401Y61562047D01*
X56185148Y61574835D01*
X56298045Y61632359D01*
X56387641Y61721955D01*
X56445165Y61834852D01*
X56457953Y61915600D01*
X57068861Y61304692D01*
X57084631Y61325575D01*
X57084633Y61325578D01*
X57183759Y61524650D01*
X57244621Y61738561D01*
X57265141Y61960000D01*
X57265141Y61960001D01*
X57244621Y62181440D01*
X57183759Y62395351D01*
X57084635Y62594420D01*
X57084630Y62594428D01*
X57068860Y62615310D01*
X56457953Y62004402D01*
X56445165Y62085148D01*
X56387641Y62198045D01*
X56298045Y62287641D01*
X56185148Y62345165D01*
X56104401Y62357954D01*
X56713327Y62966881D01*
X56597178Y63038798D01*
X56597177Y63038799D01*
X56389804Y63119135D01*
X56171193Y63160000D01*
X55948807Y63160000D01*
X55730195Y63119135D01*
X55522824Y63038800D01*
X55522823Y63038799D01*
X55406671Y62966881D01*
X56015599Y62357954D01*
X55934852Y62345165D01*
X55821955Y62287641D01*
X55732359Y62198045D01*
X55674835Y62085148D01*
X55662046Y62004401D01*
X55051138Y62615309D01*
X55051137Y62615309D01*
X55035368Y62594426D01*
X54936240Y62395351D01*
X54875378Y62181440D01*
X54854859Y61960001D01*
X54854859Y61960000D01*
X54875378Y61738561D01*
X54936240Y61524650D01*
X55035369Y61325572D01*
X55051137Y61304692D01*
X55051138Y61304692D01*
X55662046Y61915600D01*
X55674835Y61834852D01*
X55732359Y61721955D01*
X55821955Y61632359D01*
X55934852Y61574835D01*
X56015599Y61562047D01*
X55406672Y60953121D01*
X55406672Y60953120D01*
X55522821Y60881203D01*
X55522822Y60881202D01*
X55717213Y60805895D01*
X55772614Y60763322D01*
X55796205Y60697555D01*
X55780494Y60629475D01*
X55730470Y60580696D01*
X55717213Y60574641D01*
X55522601Y60499249D01*
X55522595Y60499246D01*
X55425414Y60439073D01*
X55360137Y60420500D01*
X51887180Y60420500D01*
X51820141Y60440185D01*
X51787913Y60470189D01*
X51772942Y60490188D01*
X51707546Y60577546D01*
X51675120Y60601820D01*
X51592335Y60663794D01*
X51592328Y60663798D01*
X51457482Y60714092D01*
X51457483Y60714092D01*
X51397883Y60720499D01*
X51397881Y60720500D01*
X51397873Y60720500D01*
X51397864Y60720500D01*
X51394548Y60720678D01*
X51394627Y60722153D01*
X51333215Y60740185D01*
X51287460Y60792989D01*
X51279969Y60836478D01*
X50594401Y61522047D01*
X50675148Y61534835D01*
X50788045Y61592359D01*
X50877641Y61681955D01*
X50935165Y61794852D01*
X50947953Y61875600D01*
X51629025Y61194528D01*
X51680136Y61267522D01*
X51776264Y61473669D01*
X51776269Y61473683D01*
X51835139Y61693390D01*
X51835141Y61693401D01*
X51854966Y61919998D01*
X51854966Y61920003D01*
X51835141Y62146600D01*
X51835139Y62146611D01*
X51776269Y62366318D01*
X51776265Y62366327D01*
X51680133Y62572484D01*
X51680131Y62572488D01*
X51629026Y62645474D01*
X51629025Y62645474D01*
X50947953Y61964402D01*
X50935165Y62045148D01*
X50877641Y62158045D01*
X50788045Y62247641D01*
X50675148Y62305165D01*
X50594400Y62317954D01*
X51275472Y62999026D01*
X51275471Y62999027D01*
X51202483Y63050134D01*
X51202481Y63050135D01*
X50996326Y63146266D01*
X50996317Y63146270D01*
X50776610Y63205140D01*
X50776599Y63205142D01*
X50550002Y63224966D01*
X50549998Y63224966D01*
X50323400Y63205142D01*
X50323389Y63205140D01*
X50103682Y63146270D01*
X50103673Y63146266D01*
X49897513Y63050132D01*
X49824527Y62999028D01*
X49824526Y62999027D01*
X50505600Y62317954D01*
X50424852Y62305165D01*
X50311955Y62247641D01*
X50222359Y62158045D01*
X50164835Y62045148D01*
X50152046Y61964401D01*
X49470973Y62645474D01*
X49470972Y62645473D01*
X49419868Y62572487D01*
X49323734Y62366327D01*
X49323730Y62366318D01*
X49264860Y62146611D01*
X49264858Y62146600D01*
X49245034Y61920003D01*
X49245034Y61919998D01*
X49264858Y61693401D01*
X49264860Y61693390D01*
X49323730Y61473683D01*
X49323734Y61473674D01*
X49419865Y61267519D01*
X49419866Y61267517D01*
X49470973Y61194529D01*
X49470974Y61194528D01*
X50152046Y61875601D01*
X50164835Y61794852D01*
X50222359Y61681955D01*
X50311955Y61592359D01*
X50424852Y61534835D01*
X50505599Y61522047D01*
X49819351Y60835800D01*
X49809505Y60786806D01*
X49760889Y60736624D01*
X49705367Y60721952D01*
X49705423Y60720901D01*
X49705429Y60720854D01*
X49705426Y60720854D01*
X49705436Y60720676D01*
X49702123Y60720499D01*
X49642516Y60714092D01*
X49507671Y60663798D01*
X49507664Y60663794D01*
X49392456Y60577548D01*
X49392455Y60577547D01*
X49392454Y60577546D01*
X49327058Y60490188D01*
X49312087Y60470189D01*
X49256153Y60428318D01*
X49212820Y60420500D01*
X42620438Y60420500D01*
X42553399Y60440185D01*
X42507644Y60492989D01*
X42497700Y60562147D01*
X42526725Y60625703D01*
X42532757Y60632181D01*
X42663898Y60763322D01*
X42805104Y60904529D01*
X42866425Y60938012D01*
X42933045Y60934128D01*
X43010019Y60907702D01*
X43238951Y60869500D01*
X43238952Y60869500D01*
X43471048Y60869500D01*
X43471049Y60869500D01*
X43699981Y60907702D01*
X43919503Y60983064D01*
X44123626Y61093530D01*
X44153136Y61116498D01*
X44226797Y61173831D01*
X44306784Y61236087D01*
X44463979Y61406847D01*
X44590924Y61601151D01*
X44684157Y61813700D01*
X44741134Y62038695D01*
X44742274Y62052454D01*
X44760300Y62269994D01*
X44760300Y62270007D01*
X44741135Y62501298D01*
X44741133Y62501309D01*
X44684157Y62726301D01*
X44590924Y62938849D01*
X44463983Y63133148D01*
X44463980Y63133151D01*
X44463979Y63133153D01*
X44306784Y63303913D01*
X44306779Y63303917D01*
X44306777Y63303919D01*
X44123634Y63446465D01*
X44123628Y63446469D01*
X43919504Y63556936D01*
X43919495Y63556939D01*
X43699984Y63632298D01*
X43509450Y63664092D01*
X43471049Y63670500D01*
X43238951Y63670500D01*
X43200550Y63664092D01*
X43010015Y63632298D01*
X42790504Y63556939D01*
X42790495Y63556936D01*
X42586371Y63446469D01*
X42586365Y63446465D01*
X42403222Y63303919D01*
X42403218Y63303915D01*
X42394866Y63294842D01*
X42334979Y63258852D01*
X42265141Y63260953D01*
X42207525Y63300478D01*
X42187455Y63335493D01*
X42158797Y63412329D01*
X42158793Y63412336D01*
X42072547Y63527545D01*
X42072544Y63527548D01*
X41957335Y63613794D01*
X41957328Y63613798D01*
X41822482Y63664092D01*
X41822483Y63664092D01*
X41762883Y63670499D01*
X41762881Y63670500D01*
X41762873Y63670500D01*
X41762864Y63670500D01*
X39867129Y63670500D01*
X39867123Y63670499D01*
X39807516Y63664092D01*
X39672671Y63613798D01*
X39672664Y63613794D01*
X39557455Y63527548D01*
X39557452Y63527545D01*
X39471206Y63412336D01*
X39471202Y63412329D01*
X39420908Y63277483D01*
X39414501Y63217884D01*
X39414500Y63217873D01*
X39414500Y62702178D01*
X39414501Y62302100D01*
X39394817Y62235061D01*
X39342013Y62189306D01*
X39290501Y62178100D01*
X38956891Y62178100D01*
X38889852Y62197785D01*
X38844097Y62250589D01*
X38834153Y62319747D01*
X38837116Y62334193D01*
X38844603Y62362136D01*
X38855635Y62403308D01*
X38872896Y62600600D01*
X38875468Y62629999D01*
X38875468Y62630002D01*
X38861927Y62784773D01*
X38855635Y62856692D01*
X38796739Y63076496D01*
X38700568Y63282734D01*
X38570047Y63469139D01*
X38570045Y63469142D01*
X38409141Y63630046D01*
X38222734Y63760568D01*
X38222732Y63760569D01*
X38016497Y63856739D01*
X38016488Y63856742D01*
X37796697Y63915634D01*
X37796688Y63915636D01*
X37734903Y63921042D01*
X37669835Y63946496D01*
X37658032Y63956889D01*
X35696452Y65918468D01*
X35635061Y65983051D01*
X35635060Y65983052D01*
X35635059Y65983053D01*
X35607204Y66002441D01*
X35584709Y66018098D01*
X35580946Y66020936D01*
X35533413Y66059695D01*
X35533406Y66059700D01*
X35502959Y66075603D01*
X35496251Y66079666D01*
X35468049Y66099295D01*
X35468046Y66099297D01*
X35468045Y66099297D01*
X35468041Y66099299D01*
X35411680Y66123486D01*
X35407424Y66125507D01*
X35353057Y66153906D01*
X35353050Y66153909D01*
X35353049Y66153909D01*
X35347008Y66155638D01*
X35320030Y66163358D01*
X35312630Y66165992D01*
X35281057Y66179541D01*
X35281058Y66179541D01*
X35220966Y66191891D01*
X35216391Y66193014D01*
X35157420Y66209887D01*
X35157425Y66209887D01*
X35123158Y66212497D01*
X35115380Y66213588D01*
X35081742Y66220500D01*
X35081741Y66220500D01*
X35020402Y66220500D01*
X35015695Y66220679D01*
X35010121Y66221104D01*
X34954524Y66225338D01*
X34934589Y66222799D01*
X34920440Y66220997D01*
X34912611Y66220500D01*
X19672676Y66220500D01*
X19628155Y66221628D01*
X19583636Y66222756D01*
X19583635Y66222756D01*
X19583626Y66222756D01*
X19523263Y66211936D01*
X19518597Y66211282D01*
X19457564Y66205075D01*
X19424780Y66194790D01*
X19417153Y66192918D01*
X19383349Y66186859D01*
X19326381Y66164105D01*
X19321945Y66162526D01*
X19263414Y66144160D01*
X19263410Y66144158D01*
X19233378Y66127490D01*
X19226284Y66124121D01*
X19194382Y66111377D01*
X19194377Y66111375D01*
X19143156Y66077619D01*
X19139128Y66075178D01*
X19085501Y66045412D01*
X19059434Y66023035D01*
X19053165Y66018308D01*
X19024484Y65999405D01*
X19024478Y65999400D01*
X18981110Y65956033D01*
X18977656Y65952832D01*
X18931102Y65912864D01*
X18910076Y65885702D01*
X18904885Y65879808D01*
X18201531Y65176453D01*
X18136946Y65115058D01*
X18101899Y65064706D01*
X18099062Y65060944D01*
X18060302Y65013408D01*
X18060298Y65013402D01*
X18049205Y64992167D01*
X18026981Y64961904D01*
X17116662Y64051583D01*
X17024093Y63938056D01*
X17020302Y63933407D01*
X16945149Y63789534D01*
X16926090Y63753047D01*
X16870112Y63557416D01*
X16854662Y63354526D01*
X16854662Y63354523D01*
X16880368Y63152679D01*
X16880370Y63152671D01*
X16946183Y62960130D01*
X16946189Y62960118D01*
X17007076Y62856687D01*
X17049410Y62784773D01*
X17185821Y62633787D01*
X17213292Y62613615D01*
X17349828Y62513354D01*
X17349835Y62513350D01*
X17421014Y62480645D01*
X17534732Y62428395D01*
X17600456Y62413143D01*
X17732945Y62382397D01*
X17936358Y62377243D01*
X17936358Y62377244D01*
X17936363Y62377243D01*
X18115853Y62409414D01*
X18136648Y62413141D01*
X18136648Y62413142D01*
X18136653Y62413142D01*
X18325617Y62488623D01*
X18495519Y62600598D01*
X19598468Y63703549D01*
X19650540Y63753047D01*
X19663052Y63764940D01*
X19663052Y63764941D01*
X19663053Y63764941D01*
X19698099Y63815294D01*
X19700938Y63819059D01*
X19719467Y63841783D01*
X19739698Y63866593D01*
X19750788Y63887827D01*
X19773012Y63918093D01*
X20038103Y64183184D01*
X20099425Y64216666D01*
X20125783Y64219500D01*
X21264525Y64219500D01*
X21331564Y64199815D01*
X21377319Y64147011D01*
X21387263Y64077853D01*
X21358238Y64014297D01*
X21352206Y64007819D01*
X21338217Y63993831D01*
X21241943Y63840613D01*
X21182178Y63669813D01*
X21182177Y63669807D01*
X21161919Y63490004D01*
X21161919Y63489997D01*
X21182177Y63310194D01*
X21182178Y63310188D01*
X21241943Y63139388D01*
X21310560Y63030185D01*
X21338217Y62986170D01*
X21466170Y62858217D01*
X21619387Y62761944D01*
X21790185Y62702179D01*
X21790191Y62702179D01*
X21790193Y62702178D01*
X21969996Y62681919D01*
X21970000Y62681919D01*
X21970004Y62681919D01*
X22149806Y62702178D01*
X22149805Y62702178D01*
X22149815Y62702179D01*
X22320613Y62761944D01*
X22473830Y62858217D01*
X22518384Y62902772D01*
X22579705Y62936256D01*
X22649396Y62931272D01*
X22705330Y62889401D01*
X22725839Y62847183D01*
X22748258Y62763512D01*
X22748261Y62763503D01*
X22844431Y62557268D01*
X22844432Y62557266D01*
X22974954Y62370859D01*
X23135858Y62209955D01*
X23153239Y62197785D01*
X23322266Y62079432D01*
X23380275Y62052382D01*
X23432714Y62006209D01*
X23451866Y61939016D01*
X23431650Y61872135D01*
X23380275Y61827618D01*
X23322267Y61800569D01*
X23322265Y61800568D01*
X23135858Y61670046D01*
X22974954Y61509142D01*
X22844432Y61322735D01*
X22844431Y61322733D01*
X22748261Y61116498D01*
X22748258Y61116489D01*
X22689366Y60896698D01*
X22689364Y60896688D01*
X22680992Y60800992D01*
X22655539Y60735923D01*
X22598948Y60694945D01*
X22557464Y60687800D01*
X15816889Y60687800D01*
X15749850Y60707485D01*
X15704095Y60760289D01*
X15693669Y60797917D01*
X15687822Y60849810D01*
X15687819Y60849823D01*
X15628057Y61020611D01*
X15582239Y61093530D01*
X15531783Y61173830D01*
X15403830Y61301783D01*
X15377556Y61318292D01*
X15250612Y61398057D01*
X15079812Y61457822D01*
X15079806Y61457823D01*
X14900004Y61478081D01*
X14899996Y61478081D01*
X14720193Y61457823D01*
X14720187Y61457822D01*
X14549387Y61398057D01*
X14396169Y61301783D01*
X14377406Y61283019D01*
X14316083Y61249534D01*
X14289725Y61246700D01*
X9980020Y61246700D01*
X9912981Y61266385D01*
X9867639Y61318292D01*
X9865568Y61322733D01*
X9865568Y61322734D01*
X9735047Y61509139D01*
X9735045Y61509142D01*
X9574143Y61670044D01*
X9549536Y61687274D01*
X9505912Y61741851D01*
X9498719Y61811350D01*
X9530241Y61873704D01*
X9590471Y61909118D01*
X9607404Y61912139D01*
X9642483Y61915909D01*
X9777331Y61966204D01*
X9892546Y62052454D01*
X9978796Y62167669D01*
X10029091Y62302517D01*
X10035500Y62362127D01*
X10035500Y62509300D01*
X10055185Y62576339D01*
X10107989Y62622094D01*
X10159500Y62633300D01*
X13749725Y62633300D01*
X13816764Y62613615D01*
X13837406Y62596981D01*
X13856170Y62578217D01*
X14009387Y62481944D01*
X14180185Y62422179D01*
X14180191Y62422179D01*
X14180193Y62422178D01*
X14359996Y62401919D01*
X14360000Y62401919D01*
X14360004Y62401919D01*
X14539806Y62422178D01*
X14539805Y62422178D01*
X14539815Y62422179D01*
X14710613Y62481944D01*
X14863830Y62578217D01*
X14991783Y62706170D01*
X15088056Y62859387D01*
X15147821Y63030185D01*
X15160900Y63146266D01*
X15168081Y63209997D01*
X15168081Y63210004D01*
X15147822Y63389807D01*
X15147821Y63389813D01*
X15147821Y63389815D01*
X15088056Y63560613D01*
X14991783Y63713830D01*
X14863830Y63841783D01*
X14754150Y63910700D01*
X14710612Y63938057D01*
X14539812Y63997822D01*
X14539806Y63997823D01*
X14360004Y64018081D01*
X14359996Y64018081D01*
X14180193Y63997823D01*
X14180187Y63997822D01*
X14009387Y63938057D01*
X13856169Y63841783D01*
X13837406Y63823019D01*
X13776083Y63789534D01*
X13749725Y63786700D01*
X10159499Y63786700D01*
X10092460Y63806385D01*
X10046705Y63859189D01*
X10035499Y63910700D01*
X10035499Y64057871D01*
X10035498Y64057877D01*
X10035497Y64057884D01*
X10029091Y64117483D01*
X10027487Y64121783D01*
X9978797Y64252329D01*
X9978793Y64252336D01*
X9892547Y64367545D01*
X9892544Y64367548D01*
X9777335Y64453794D01*
X9777328Y64453798D01*
X9642482Y64504092D01*
X9642483Y64504092D01*
X9582883Y64510499D01*
X9582881Y64510500D01*
X9582873Y64510500D01*
X9582864Y64510500D01*
X7887129Y64510500D01*
X7887123Y64510499D01*
X7827516Y64504092D01*
X7692671Y64453798D01*
X7692664Y64453794D01*
X7577455Y64367548D01*
X7577452Y64367545D01*
X7491206Y64252336D01*
X7491202Y64252329D01*
X7440908Y64117483D01*
X7434501Y64057884D01*
X7434501Y64057877D01*
X7434500Y64057865D01*
X7434500Y62362130D01*
X7434501Y62362124D01*
X7440908Y62302517D01*
X7491202Y62167672D01*
X7491206Y62167665D01*
X7577452Y62052456D01*
X7577455Y62052453D01*
X7692664Y61966207D01*
X7692671Y61966203D01*
X7737618Y61949439D01*
X7827517Y61915909D01*
X7862596Y61912138D01*
X7927144Y61885401D01*
X7966993Y61828009D01*
X7969488Y61758184D01*
X7933836Y61698095D01*
X7920464Y61687275D01*
X7895858Y61670046D01*
X7734954Y61509142D01*
X7604432Y61322735D01*
X7604431Y61322733D01*
X7508261Y61116498D01*
X7508258Y61116489D01*
X7449366Y60896698D01*
X7449364Y60896687D01*
X7429532Y60670002D01*
X7429532Y60669999D01*
X7449364Y60443314D01*
X7449366Y60443303D01*
X7508258Y60223512D01*
X7508261Y60223503D01*
X7589168Y60050000D01*
X7604432Y60017266D01*
X7605089Y60016327D01*
X7615245Y60001824D01*
X7637572Y59935618D01*
X7620560Y59867851D01*
X7569612Y59820038D01*
X7513669Y59806702D01*
X7331866Y59806702D01*
X7323767Y59807233D01*
X7302996Y59809968D01*
X7290003Y59811678D01*
X7290001Y59811678D01*
X7139454Y59791859D01*
X7139449Y59791857D01*
X6999165Y59733751D01*
X6999162Y59733749D01*
X6909108Y59664646D01*
X6878694Y59641309D01*
X6857962Y59614291D01*
X6852610Y59608189D01*
X6761240Y59516819D01*
X6699917Y59483334D01*
X6673559Y59480500D01*
X5292129Y59480500D01*
X5292123Y59480499D01*
X5232516Y59474092D01*
X5097671Y59423798D01*
X5097664Y59423794D01*
X4982455Y59337548D01*
X4982452Y59337545D01*
X4896206Y59222336D01*
X4896202Y59222329D01*
X4845908Y59087483D01*
X4839501Y59027884D01*
X4839500Y59027865D01*
X4839500Y57232130D01*
X4839501Y57232124D01*
X4845908Y57172517D01*
X4896202Y57037672D01*
X4896206Y57037665D01*
X4982452Y56922456D01*
X4982455Y56922453D01*
X5097664Y56836207D01*
X5097671Y56836203D01*
X5229081Y56787190D01*
X5285015Y56745319D01*
X5309432Y56679855D01*
X5294580Y56611582D01*
X5273430Y56583327D01*
X5151503Y56461400D01*
X5015965Y56267831D01*
X5015964Y56267829D01*
X4916098Y56053665D01*
X4916094Y56053656D01*
X4854938Y55825414D01*
X4854936Y55825404D01*
X4834341Y55590001D01*
X4834341Y55590000D01*
X4854936Y55354597D01*
X4854938Y55354587D01*
X4916094Y55126345D01*
X4916096Y55126341D01*
X4916097Y55126337D01*
X5004261Y54937270D01*
X5015965Y54912170D01*
X5015967Y54912166D01*
X5151501Y54718605D01*
X5151506Y54718598D01*
X5318597Y54551507D01*
X5318603Y54551502D01*
X5504158Y54421575D01*
X5547783Y54366998D01*
X5554977Y54297500D01*
X5523454Y54235145D01*
X5504158Y54218425D01*
X5318597Y54088495D01*
X5151505Y53921403D01*
X5015965Y53727831D01*
X5015964Y53727829D01*
X4916098Y53513665D01*
X4916094Y53513656D01*
X4854938Y53285414D01*
X4854936Y53285404D01*
X4834341Y53050001D01*
X4834341Y53050000D01*
X4854936Y52814597D01*
X4854938Y52814587D01*
X4916094Y52586345D01*
X4916096Y52586341D01*
X4916097Y52586337D01*
X5004262Y52397268D01*
X5015965Y52372170D01*
X5015967Y52372166D01*
X5151501Y52178605D01*
X5151506Y52178598D01*
X5318597Y52011507D01*
X5318603Y52011502D01*
X5504158Y51881575D01*
X5547783Y51826998D01*
X5554977Y51757500D01*
X5523454Y51695145D01*
X5504158Y51678425D01*
X5318597Y51548495D01*
X5151505Y51381403D01*
X5015965Y51187831D01*
X5015964Y51187829D01*
X4916098Y50973665D01*
X4916094Y50973656D01*
X4854938Y50745414D01*
X4854936Y50745404D01*
X4834341Y50510001D01*
X4834341Y50510000D01*
X4854936Y50274597D01*
X4854938Y50274587D01*
X4916094Y50046345D01*
X4916096Y50046341D01*
X4916097Y50046337D01*
X5003031Y49859908D01*
X5015965Y49832170D01*
X5015967Y49832166D01*
X5151501Y49638605D01*
X5151506Y49638598D01*
X5318597Y49471507D01*
X5318603Y49471502D01*
X5504158Y49341575D01*
X5547783Y49286998D01*
X5554977Y49217500D01*
X5523454Y49155145D01*
X5504158Y49138425D01*
X5318597Y49008495D01*
X5151505Y48841403D01*
X5015965Y48647831D01*
X5015964Y48647829D01*
X4916098Y48433665D01*
X4916094Y48433656D01*
X4854938Y48205414D01*
X4854936Y48205404D01*
X4834341Y47970001D01*
X4834341Y47970000D01*
X4854936Y47734597D01*
X4854938Y47734587D01*
X4916094Y47506345D01*
X4916096Y47506341D01*
X4916097Y47506337D01*
X5004263Y47317266D01*
X5015965Y47292170D01*
X5015967Y47292166D01*
X5151501Y47098605D01*
X5151506Y47098598D01*
X5318597Y46931507D01*
X5318603Y46931502D01*
X5504158Y46801575D01*
X5547783Y46746998D01*
X5554977Y46677500D01*
X5523454Y46615145D01*
X5504158Y46598425D01*
X5318597Y46468495D01*
X5151505Y46301403D01*
X5015965Y46107831D01*
X5015964Y46107829D01*
X4916098Y45893665D01*
X4916094Y45893656D01*
X4854938Y45665414D01*
X4854936Y45665404D01*
X4834341Y45430001D01*
X4834341Y45430000D01*
X4854936Y45194597D01*
X4854938Y45194587D01*
X4916094Y44966345D01*
X4916096Y44966341D01*
X4916097Y44966337D01*
X4982549Y44823831D01*
X5015965Y44752170D01*
X5015967Y44752166D01*
X5151501Y44558605D01*
X5151506Y44558598D01*
X5318597Y44391507D01*
X5318603Y44391502D01*
X5504158Y44261575D01*
X5547783Y44206998D01*
X5554977Y44137500D01*
X5523454Y44075145D01*
X5504158Y44058425D01*
X5318597Y43928495D01*
X5151505Y43761403D01*
X5015965Y43567831D01*
X5015964Y43567829D01*
X4916098Y43353665D01*
X4916094Y43353656D01*
X4854938Y43125414D01*
X4854936Y43125404D01*
X4834341Y42890001D01*
X4834341Y42890000D01*
X4854936Y42654597D01*
X4854938Y42654587D01*
X4916094Y42426345D01*
X4916096Y42426341D01*
X4916097Y42426337D01*
X5004263Y42237266D01*
X5015965Y42212170D01*
X5015967Y42212166D01*
X5122196Y42060456D01*
X5149065Y42022083D01*
X5151501Y42018605D01*
X5151506Y42018598D01*
X5318597Y41851507D01*
X5318603Y41851502D01*
X5504158Y41721575D01*
X5547783Y41666998D01*
X5554977Y41597500D01*
X5523454Y41535145D01*
X5504158Y41518425D01*
X5318597Y41388495D01*
X5151505Y41221403D01*
X5015965Y41027831D01*
X5015964Y41027829D01*
X4916098Y40813665D01*
X4916094Y40813656D01*
X4854938Y40585414D01*
X4854936Y40585404D01*
X4834341Y40350001D01*
X4834341Y40350000D01*
X4854936Y40114597D01*
X4854938Y40114587D01*
X4916094Y39886345D01*
X4916096Y39886341D01*
X4916097Y39886337D01*
X4999156Y39708217D01*
X5015965Y39672170D01*
X5015967Y39672166D01*
X5151501Y39478605D01*
X5151506Y39478598D01*
X5318597Y39311507D01*
X5318603Y39311502D01*
X5504158Y39181575D01*
X5547783Y39126998D01*
X5554977Y39057500D01*
X5523454Y38995145D01*
X5504158Y38978425D01*
X5318597Y38848495D01*
X5151505Y38681403D01*
X5015965Y38487831D01*
X5015964Y38487829D01*
X4916098Y38273665D01*
X4916094Y38273656D01*
X4854938Y38045414D01*
X4854936Y38045404D01*
X4834341Y37810001D01*
X4834341Y37810000D01*
X4854936Y37574597D01*
X4854938Y37574587D01*
X4916094Y37346345D01*
X4916096Y37346341D01*
X4916097Y37346337D01*
X4994493Y37178217D01*
X5015965Y37132170D01*
X5015967Y37132166D01*
X5151501Y36938605D01*
X5151506Y36938598D01*
X5318597Y36771507D01*
X5318603Y36771502D01*
X5504158Y36641575D01*
X5547783Y36586998D01*
X5554977Y36517500D01*
X5523454Y36455145D01*
X5504158Y36438425D01*
X5318597Y36308495D01*
X5151505Y36141403D01*
X5015965Y35947831D01*
X5015964Y35947829D01*
X4916098Y35733665D01*
X4916094Y35733656D01*
X4854938Y35505414D01*
X4854936Y35505404D01*
X4834341Y35270001D01*
X4834341Y35270000D01*
X4854936Y35034597D01*
X4854938Y35034587D01*
X4916094Y34806345D01*
X4916096Y34806341D01*
X4916097Y34806337D01*
X4999156Y34628217D01*
X5015965Y34592170D01*
X5015967Y34592166D01*
X5151501Y34398605D01*
X5151506Y34398598D01*
X5318597Y34231507D01*
X5318603Y34231502D01*
X5504158Y34101575D01*
X5547783Y34046998D01*
X5554977Y33977500D01*
X5523454Y33915145D01*
X5504158Y33898425D01*
X5318597Y33768495D01*
X5316922Y33766819D01*
X5316000Y33766316D01*
X5314449Y33765014D01*
X5314187Y33765326D01*
X5255599Y33733334D01*
X5229241Y33730500D01*
X4960782Y33730500D01*
X4893743Y33750185D01*
X4873101Y33766819D01*
X4211887Y34428033D01*
X4178402Y34489356D01*
X4176040Y34504907D01*
X4175464Y34511487D01*
X4170635Y34566692D01*
X4123748Y34741676D01*
X4111741Y34786489D01*
X4111738Y34786498D01*
X4095100Y34822178D01*
X4015568Y34992734D01*
X3885047Y35179139D01*
X3885045Y35179142D01*
X3724141Y35340046D01*
X3537734Y35470568D01*
X3537732Y35470569D01*
X3331497Y35566739D01*
X3331488Y35566742D01*
X3111697Y35625634D01*
X3111693Y35625635D01*
X3111692Y35625635D01*
X3111691Y35625636D01*
X3111686Y35625636D01*
X2885002Y35645468D01*
X2884998Y35645468D01*
X2658313Y35625636D01*
X2658302Y35625634D01*
X2438511Y35566742D01*
X2438502Y35566739D01*
X2232267Y35470569D01*
X2232265Y35470568D01*
X2045858Y35340046D01*
X1884954Y35179142D01*
X1754432Y34992735D01*
X1754431Y34992733D01*
X1658261Y34786498D01*
X1658258Y34786489D01*
X1599366Y34566698D01*
X1599364Y34566687D01*
X1579532Y34340002D01*
X1579532Y34339999D01*
X300500Y34339999D01*
X300500Y64997787D01*
X300658Y65002211D01*
X317165Y65233023D01*
X319683Y65250530D01*
X367459Y65470149D01*
X372436Y65487100D01*
X450985Y65697701D01*
X458325Y65713773D01*
X566044Y65911044D01*
X575600Y65925914D01*
X710294Y66105844D01*
X721868Y66119201D01*
X880799Y66278132D01*
X894156Y66289706D01*
X1074086Y66424400D01*
X1088956Y66433956D01*
X1286227Y66541675D01*
X1302299Y66549015D01*
X1512900Y66627564D01*
X1529851Y66632541D01*
X1749472Y66680318D01*
X1766977Y66682835D01*
X1997791Y66699343D01*
X2002214Y66699500D01*
X2047595Y66699500D01*
X62952405Y66699500D01*
X62997786Y66699500D01*
X63002208Y66699343D01*
G37*
%TD.AperFunction*%
M02*
