M48
; DRILL file {KiCad 7.0.8} date Fri May  3 21:11:05 2024
; FORMAT={-:-/ absolute / metric / decimal}
; #@! TF.CreationDate,2024-05-03T21:11:05+09:00
; #@! TF.GenerationSoftware,Kicad,Pcbnew,7.0.8
; #@! TF.FileFunction,MixedPlating,1,2
FMAT,2
METRIC
; #@! TA.AperFunction,Plated,PTH,ViaDrill
T1C0.300
; #@! TA.AperFunction,Plated,PTH,ComponentDrill
T2C0.800
; #@! TA.AperFunction,Plated,PTH,ComponentDrill
T3C0.900
; #@! TA.AperFunction,Plated,PTH,ComponentDrill
T4C1.000
%
G90
G05
T1
X1.77Y34.86
X1.77Y19.61
X1.77Y1.88
X2.79Y39.37
X2.93Y50.47
X3.36Y56.9
X3.62Y47.19
X3.8Y44.76
X3.97Y41.79
X5.54Y3.46
X6.0Y21.55
X11.97Y8.5
X13.59Y31.05
X13.82Y49.99
X14.01Y25.77
X14.32Y29.68
X14.34Y41.34
X14.61Y11.89
X14.62Y16.98
X14.68Y47.47
X14.7Y60.6
X14.73Y63.55
X14.97Y36.19
X15.097Y19.512
X15.155Y42.385
X15.22Y53.72
X15.22Y44.21
X15.81Y8.7
X15.83Y20.59
X15.84Y38.26
X15.84Y35.34
X15.87Y42.84
X15.94Y58.41
X16.13Y54.9
X16.28Y47.42
X16.35Y49.81
X16.46Y40.43
X16.46Y28.174
X17.27Y33.27
X17.52Y29.84
X17.68Y25.78
X17.68Y16.99
X17.73Y18.86
X18.04Y37.55
X18.1Y14.43
X18.11Y36.33
X18.16Y49.76
X18.62Y54.83
X18.62Y23.95
X18.95Y47.47
X18.95Y34.75
X19.255Y59.345
X19.27Y1.88
X19.6Y11.87
X19.725Y63.285
X19.8Y45.68
X19.8Y32.23
X19.8Y28.72
X19.95Y47.0
X20.0Y57.62
X20.0Y51.03
X20.56Y39.85
X20.56Y33.9
X20.59Y20.72
X20.63Y8.05
X20.865Y16.985
X21.45Y42.39
X21.45Y65.63
X21.64Y29.88
X21.71Y37.94
X21.71Y33.9
X22.13Y23.19
X22.6Y24.61
X22.62Y36.24
X23.32Y55.08
X23.32Y13.44
X23.5Y9.94
X23.87Y52.54
X23.87Y18.33
X23.87Y15.66
X24.62Y49.91
X24.62Y30.75
X24.695Y59.345
X24.72Y24.61
X24.75Y27.13
X25.58Y46.35
X25.6Y38.56
X27.2Y65.63
X28.26Y8.54
X31.13Y8.77
X31.24Y3.58
X31.52Y37.18
X31.59Y29.53
X31.65Y26.77
X31.72Y46.03
X31.74Y44.36
X31.76Y6.91
X32.25Y34.77
X32.26Y55.0
X32.3Y31.25
X32.3Y23.19
X32.43Y13.37
X32.85Y63.08
X33.92Y34.46
X33.99Y29.5
X34.065Y32.225
X35.47Y40.91
X35.64Y22.96
X35.65Y30.69
X35.76Y53.4
X35.89Y21.25
X35.91Y17.69
X36.001Y42.3
X36.01Y45.34
X36.06Y52.01
X36.18Y55.86
X36.39Y52.8
X36.54Y38.26
X36.7Y6.26
X36.81Y10.36
X37.06Y59.25
X37.06Y13.88
X37.28Y3.59
X37.719Y55.82
X37.72Y16.41
X38.25Y57.54
X38.43Y31.79
X38.52Y4.98
X38.78Y49.92
X38.82Y13.75
X38.9Y9.6
X38.935Y60.205
X38.94Y18.97
X38.95Y21.5
X39.2Y26.48
X39.27Y33.99
X39.36Y32.41
X39.37Y48.409
X39.37Y44.84
X39.49Y52.46
X39.49Y50.949
X39.61Y37.1
X39.91Y47.38
X39.91Y41.2
X41.54Y65.63
X43.11Y37.78
X43.12Y27.01
X43.52Y47.38
X43.52Y44.8
X43.71Y60.03
X43.72Y5.0
X43.84Y49.91
X43.98Y32.39
X44.0Y29.61
X44.05Y41.13
X44.14Y37.18
X45.54Y1.88
X45.72Y19.34
X47.43Y11.75
X47.46Y55.73
X47.55Y13.91
X48.09Y56.46
X48.36Y29.51
X48.46Y24.16
X48.51Y26.81
X48.56Y37.52
X48.65Y41.03
X48.9Y34.15
X48.94Y44.49
X48.97Y47.23
X49.12Y49.83
X49.16Y63.18
X49.81Y3.81
X49.91Y52.17
X50.39Y42.96
X50.46Y22.15
X51.14Y57.49
X51.14Y25.95
X51.22Y14.23
X51.44Y11.75
X51.9Y47.95
X53.22Y7.01
X53.34Y55.73
X53.34Y32.11
X53.42Y12.5
X53.73Y27.22
X53.92Y33.58
X54.33Y21.27
X54.38Y24.85
X54.41Y52.42
X54.63Y30.12
X54.67Y18.82
X55.37Y48.85
X55.37Y42.26
X55.82Y33.58
X56.35Y60.86
X56.36Y37.17
X57.05Y50.95
X57.07Y29.55
X57.65Y36.1
X58.14Y43.77
X58.15Y47.33
X58.3Y13.44
X58.44Y28.33
X58.52Y56.83
X58.61Y49.67
X58.71Y33.86
X58.74Y40.12
X58.9Y24.86
X59.07Y45.15
X59.2Y53.09
X61.04Y65.62
X61.05Y7.01
X63.17Y19.39
X63.44Y38.0
X63.49Y61.48
T2
X3.08Y64.47
X5.62Y64.47
X5.99Y48.38
X5.99Y45.84
X5.99Y43.3
X5.99Y40.76
X5.99Y38.22
X5.99Y34.77
X5.99Y32.23
X5.99Y29.69
X5.99Y27.15
X5.99Y24.61
X9.07Y3.407
X11.61Y3.407
X11.955Y60.165
X11.955Y57.625
X11.955Y55.085
X11.955Y52.545
X11.955Y50.005
X11.955Y47.465
X11.955Y44.925
X11.955Y42.385
X11.955Y39.845
X11.955Y37.305
X11.955Y34.765
X11.955Y32.225
X11.955Y29.685
X11.955Y27.145
X11.955Y24.605
X11.955Y22.065
X11.955Y19.525
X11.955Y16.985
X11.955Y14.445
X11.955Y11.905
X24.695Y63.285
X27.195Y63.285
X27.195Y60.165
X27.195Y57.625
X27.195Y55.085
X27.195Y52.545
X27.195Y50.005
X27.195Y47.465
X27.195Y44.925
X27.195Y42.385
X27.195Y39.845
X27.195Y37.305
X27.195Y34.765
X27.195Y32.225
X27.195Y29.685
X27.195Y27.145
X27.195Y24.605
X27.195Y22.065
X27.195Y19.525
X27.195Y16.985
X27.195Y14.445
X27.195Y11.905
X33.92Y60.08
X33.92Y57.54
X33.92Y55.0
X33.92Y52.46
X33.92Y49.92
X33.92Y47.38
X33.92Y44.84
X33.92Y42.3
X33.92Y39.76
X33.92Y37.22
X34.08Y26.575
X34.08Y24.035
X34.08Y21.495
X34.08Y18.955
X34.08Y16.415
X34.08Y13.875
X34.08Y11.335
X34.08Y8.795
X34.08Y6.255
X34.08Y3.715
X39.04Y63.2
X39.2Y29.68
X41.54Y63.2
X41.54Y60.08
X41.54Y57.54
X41.54Y55.0
X41.54Y52.46
X41.54Y49.92
X41.54Y47.38
X41.54Y44.84
X41.54Y42.3
X41.54Y39.76
X41.54Y37.22
X41.7Y29.68
X41.7Y26.575
X41.7Y24.035
X41.7Y21.495
X41.7Y18.955
X41.7Y16.415
X41.7Y13.875
X41.7Y11.335
X41.7Y8.795
X41.7Y6.255
X41.7Y3.715
X45.8Y60.04
X45.8Y57.5
X45.8Y54.96
X45.8Y52.42
X45.8Y49.88
X45.8Y47.34
X45.8Y44.8
X45.8Y42.26
X45.8Y39.72
X45.8Y37.18
X45.8Y34.64
X45.8Y32.1
X45.8Y29.56
X45.8Y27.02
X45.8Y24.48
X45.8Y21.94
X45.8Y17.35
X45.8Y9.73
X45.8Y7.04
X45.8Y3.95
X48.3Y7.04
X48.34Y17.35
X48.34Y9.73
X50.88Y17.35
X50.88Y9.73
X53.42Y17.35
X53.42Y9.73
X53.42Y3.95
X55.96Y17.35
X55.96Y9.73
X58.5Y17.35
X58.5Y9.73
X58.54Y63.16
X61.04Y63.16
X61.04Y60.04
X61.04Y57.5
X61.04Y54.96
X61.04Y52.42
X61.04Y49.88
X61.04Y47.34
X61.04Y44.8
X61.04Y42.26
X61.04Y39.72
X61.04Y37.18
X61.04Y34.64
X61.04Y32.1
X61.04Y29.56
X61.04Y27.02
X61.04Y24.48
X61.04Y21.94
X61.04Y17.35
X61.04Y9.73
T3
X55.76Y3.95
X58.3Y3.95
T4
X5.75Y17.58
X5.75Y15.04
X5.75Y12.5
X5.75Y9.96
X5.75Y7.42
X5.83Y58.17
X5.83Y55.63
X5.83Y53.09
X9.415Y60.165
X9.415Y57.625
X9.415Y55.085
X9.415Y52.545
X9.415Y50.005
X9.415Y47.465
X9.415Y44.925
X9.415Y42.385
X9.415Y39.845
X9.415Y37.305
X9.415Y34.765
X9.415Y32.225
X9.415Y29.685
X9.415Y27.145
X9.415Y24.605
X9.415Y22.065
X9.415Y19.525
X9.415Y16.985
X9.415Y14.445
X9.415Y11.905
X12.21Y63.63
X15.56Y5.83
X17.29Y63.63
X18.1Y5.83
X20.64Y5.83
X23.18Y5.83
X25.72Y5.83
X28.26Y5.83
X29.735Y60.165
X29.735Y57.625
X29.735Y55.085
X29.735Y52.545
X29.735Y50.005
X29.735Y47.465
X29.735Y44.925
X29.735Y42.385
X29.735Y39.845
X29.735Y37.305
X29.735Y34.765
X29.735Y32.225
X29.735Y29.685
X29.735Y27.145
X29.735Y24.605
X29.735Y22.065
X29.735Y19.525
X29.735Y16.985
X29.735Y14.445
X29.735Y11.905
T0
M30
