%TF.GenerationSoftware,KiCad,Pcbnew,7.0.8*%
%TF.CreationDate,2024-05-03T21:11:10+09:00*%
%TF.ProjectId,MEZ88_RAM,4d455a38-385f-4524-914d-2e6b69636164,Rev 1.2*%
%TF.SameCoordinates,PX65317e4PY8319cac*%
%TF.FileFunction,Legend,Top*%
%TF.FilePolarity,Positive*%
%FSLAX46Y46*%
G04 Gerber Fmt 4.6, Leading zero omitted, Abs format (unit mm)*
G04 Created by KiCad (PCBNEW 7.0.8) date 2024-05-03 21:11:10*
%MOMM*%
%LPD*%
G01*
G04 APERTURE LIST*
%ADD10C,0.589004*%
%ADD11C,0.140000*%
%ADD12C,0.160000*%
%ADD13C,0.150000*%
%ADD14C,0.120000*%
%ADD15C,0.125000*%
%ADD16C,0.100000*%
%ADD17C,0.112500*%
G04 APERTURE END LIST*
D10*
X3944502Y34880000D02*
G75*
G03*
X3944502Y34880000I-294502J0D01*
G01*
X3944502Y38250000D02*
G75*
G03*
X3944502Y38250000I-294502J0D01*
G01*
D11*
X2668771Y66209614D02*
X2902105Y66209614D01*
X3002105Y65842947D02*
X2668771Y65842947D01*
X2668771Y65842947D02*
X2668771Y66542947D01*
X2668771Y66542947D02*
X3002105Y66542947D01*
X3235438Y66542947D02*
X3702104Y65842947D01*
X3702104Y66542947D02*
X3235438Y65842947D01*
X3868771Y66542947D02*
X4268771Y66542947D01*
X4068771Y65842947D02*
X4068771Y66542947D01*
X5035437Y65842947D02*
X5035437Y66542947D01*
X5035437Y66542947D02*
X5202104Y66542947D01*
X5202104Y66542947D02*
X5302104Y66509614D01*
X5302104Y66509614D02*
X5368771Y66442947D01*
X5368771Y66442947D02*
X5402104Y66376280D01*
X5402104Y66376280D02*
X5435437Y66242947D01*
X5435437Y66242947D02*
X5435437Y66142947D01*
X5435437Y66142947D02*
X5402104Y66009614D01*
X5402104Y66009614D02*
X5368771Y65942947D01*
X5368771Y65942947D02*
X5302104Y65876280D01*
X5302104Y65876280D02*
X5202104Y65842947D01*
X5202104Y65842947D02*
X5035437Y65842947D01*
X6135437Y65909614D02*
X6102104Y65876280D01*
X6102104Y65876280D02*
X6002104Y65842947D01*
X6002104Y65842947D02*
X5935437Y65842947D01*
X5935437Y65842947D02*
X5835437Y65876280D01*
X5835437Y65876280D02*
X5768771Y65942947D01*
X5768771Y65942947D02*
X5735437Y66009614D01*
X5735437Y66009614D02*
X5702104Y66142947D01*
X5702104Y66142947D02*
X5702104Y66242947D01*
X5702104Y66242947D02*
X5735437Y66376280D01*
X5735437Y66376280D02*
X5768771Y66442947D01*
X5768771Y66442947D02*
X5835437Y66509614D01*
X5835437Y66509614D02*
X5935437Y66542947D01*
X5935437Y66542947D02*
X6002104Y66542947D01*
X6002104Y66542947D02*
X6102104Y66509614D01*
X6102104Y66509614D02*
X6135437Y66476280D01*
D12*
X48317643Y19664797D02*
X48698596Y19664797D01*
X48241453Y19436225D02*
X48508120Y20236225D01*
X48508120Y20236225D02*
X48774786Y19436225D01*
X49003357Y19474320D02*
X49117643Y19436225D01*
X49117643Y19436225D02*
X49308119Y19436225D01*
X49308119Y19436225D02*
X49384310Y19474320D01*
X49384310Y19474320D02*
X49422405Y19512416D01*
X49422405Y19512416D02*
X49460500Y19588606D01*
X49460500Y19588606D02*
X49460500Y19664797D01*
X49460500Y19664797D02*
X49422405Y19740987D01*
X49422405Y19740987D02*
X49384310Y19779082D01*
X49384310Y19779082D02*
X49308119Y19817178D01*
X49308119Y19817178D02*
X49155738Y19855273D01*
X49155738Y19855273D02*
X49079548Y19893368D01*
X49079548Y19893368D02*
X49041453Y19931463D01*
X49041453Y19931463D02*
X49003357Y20007654D01*
X49003357Y20007654D02*
X49003357Y20083844D01*
X49003357Y20083844D02*
X49041453Y20160035D01*
X49041453Y20160035D02*
X49079548Y20198130D01*
X49079548Y20198130D02*
X49155738Y20236225D01*
X49155738Y20236225D02*
X49346215Y20236225D01*
X49346215Y20236225D02*
X49460500Y20198130D01*
X50146215Y20236225D02*
X49993834Y20236225D01*
X49993834Y20236225D02*
X49917643Y20198130D01*
X49917643Y20198130D02*
X49879548Y20160035D01*
X49879548Y20160035D02*
X49803358Y20045749D01*
X49803358Y20045749D02*
X49765262Y19893368D01*
X49765262Y19893368D02*
X49765262Y19588606D01*
X49765262Y19588606D02*
X49803358Y19512416D01*
X49803358Y19512416D02*
X49841453Y19474320D01*
X49841453Y19474320D02*
X49917643Y19436225D01*
X49917643Y19436225D02*
X50070024Y19436225D01*
X50070024Y19436225D02*
X50146215Y19474320D01*
X50146215Y19474320D02*
X50184310Y19512416D01*
X50184310Y19512416D02*
X50222405Y19588606D01*
X50222405Y19588606D02*
X50222405Y19779082D01*
X50222405Y19779082D02*
X50184310Y19855273D01*
X50184310Y19855273D02*
X50146215Y19893368D01*
X50146215Y19893368D02*
X50070024Y19931463D01*
X50070024Y19931463D02*
X49917643Y19931463D01*
X49917643Y19931463D02*
X49841453Y19893368D01*
X49841453Y19893368D02*
X49803358Y19855273D01*
X49803358Y19855273D02*
X49765262Y19779082D01*
X51022406Y19512416D02*
X50984310Y19474320D01*
X50984310Y19474320D02*
X50870025Y19436225D01*
X50870025Y19436225D02*
X50793834Y19436225D01*
X50793834Y19436225D02*
X50679548Y19474320D01*
X50679548Y19474320D02*
X50603358Y19550511D01*
X50603358Y19550511D02*
X50565263Y19626701D01*
X50565263Y19626701D02*
X50527167Y19779082D01*
X50527167Y19779082D02*
X50527167Y19893368D01*
X50527167Y19893368D02*
X50565263Y20045749D01*
X50565263Y20045749D02*
X50603358Y20121940D01*
X50603358Y20121940D02*
X50679548Y20198130D01*
X50679548Y20198130D02*
X50793834Y20236225D01*
X50793834Y20236225D02*
X50870025Y20236225D01*
X50870025Y20236225D02*
X50984310Y20198130D01*
X50984310Y20198130D02*
X51022406Y20160035D01*
X51708120Y19969559D02*
X51708120Y19436225D01*
X51517644Y20274320D02*
X51327167Y19702892D01*
X51327167Y19702892D02*
X51822406Y19702892D01*
X52279549Y20236225D02*
X52355739Y20236225D01*
X52355739Y20236225D02*
X52431930Y20198130D01*
X52431930Y20198130D02*
X52470025Y20160035D01*
X52470025Y20160035D02*
X52508120Y20083844D01*
X52508120Y20083844D02*
X52546215Y19931463D01*
X52546215Y19931463D02*
X52546215Y19740987D01*
X52546215Y19740987D02*
X52508120Y19588606D01*
X52508120Y19588606D02*
X52470025Y19512416D01*
X52470025Y19512416D02*
X52431930Y19474320D01*
X52431930Y19474320D02*
X52355739Y19436225D01*
X52355739Y19436225D02*
X52279549Y19436225D01*
X52279549Y19436225D02*
X52203358Y19474320D01*
X52203358Y19474320D02*
X52165263Y19512416D01*
X52165263Y19512416D02*
X52127168Y19588606D01*
X52127168Y19588606D02*
X52089072Y19740987D01*
X52089072Y19740987D02*
X52089072Y19931463D01*
X52089072Y19931463D02*
X52127168Y20083844D01*
X52127168Y20083844D02*
X52165263Y20160035D01*
X52165263Y20160035D02*
X52203358Y20198130D01*
X52203358Y20198130D02*
X52279549Y20236225D01*
X53041454Y20236225D02*
X53117644Y20236225D01*
X53117644Y20236225D02*
X53193835Y20198130D01*
X53193835Y20198130D02*
X53231930Y20160035D01*
X53231930Y20160035D02*
X53270025Y20083844D01*
X53270025Y20083844D02*
X53308120Y19931463D01*
X53308120Y19931463D02*
X53308120Y19740987D01*
X53308120Y19740987D02*
X53270025Y19588606D01*
X53270025Y19588606D02*
X53231930Y19512416D01*
X53231930Y19512416D02*
X53193835Y19474320D01*
X53193835Y19474320D02*
X53117644Y19436225D01*
X53117644Y19436225D02*
X53041454Y19436225D01*
X53041454Y19436225D02*
X52965263Y19474320D01*
X52965263Y19474320D02*
X52927168Y19512416D01*
X52927168Y19512416D02*
X52889073Y19588606D01*
X52889073Y19588606D02*
X52850977Y19740987D01*
X52850977Y19740987D02*
X52850977Y19931463D01*
X52850977Y19931463D02*
X52889073Y20083844D01*
X52889073Y20083844D02*
X52927168Y20160035D01*
X52927168Y20160035D02*
X52965263Y20198130D01*
X52965263Y20198130D02*
X53041454Y20236225D01*
X53765263Y19893368D02*
X53689073Y19931463D01*
X53689073Y19931463D02*
X53650978Y19969559D01*
X53650978Y19969559D02*
X53612882Y20045749D01*
X53612882Y20045749D02*
X53612882Y20083844D01*
X53612882Y20083844D02*
X53650978Y20160035D01*
X53650978Y20160035D02*
X53689073Y20198130D01*
X53689073Y20198130D02*
X53765263Y20236225D01*
X53765263Y20236225D02*
X53917644Y20236225D01*
X53917644Y20236225D02*
X53993835Y20198130D01*
X53993835Y20198130D02*
X54031930Y20160035D01*
X54031930Y20160035D02*
X54070025Y20083844D01*
X54070025Y20083844D02*
X54070025Y20045749D01*
X54070025Y20045749D02*
X54031930Y19969559D01*
X54031930Y19969559D02*
X53993835Y19931463D01*
X53993835Y19931463D02*
X53917644Y19893368D01*
X53917644Y19893368D02*
X53765263Y19893368D01*
X53765263Y19893368D02*
X53689073Y19855273D01*
X53689073Y19855273D02*
X53650978Y19817178D01*
X53650978Y19817178D02*
X53612882Y19740987D01*
X53612882Y19740987D02*
X53612882Y19588606D01*
X53612882Y19588606D02*
X53650978Y19512416D01*
X53650978Y19512416D02*
X53689073Y19474320D01*
X53689073Y19474320D02*
X53765263Y19436225D01*
X53765263Y19436225D02*
X53917644Y19436225D01*
X53917644Y19436225D02*
X53993835Y19474320D01*
X53993835Y19474320D02*
X54031930Y19512416D01*
X54031930Y19512416D02*
X54070025Y19588606D01*
X54070025Y19588606D02*
X54070025Y19740987D01*
X54070025Y19740987D02*
X54031930Y19817178D01*
X54031930Y19817178D02*
X53993835Y19855273D01*
X53993835Y19855273D02*
X53917644Y19893368D01*
X54412883Y19740987D02*
X55022407Y19740987D01*
X55784311Y20236225D02*
X55403359Y20236225D01*
X55403359Y20236225D02*
X55365263Y19855273D01*
X55365263Y19855273D02*
X55403359Y19893368D01*
X55403359Y19893368D02*
X55479549Y19931463D01*
X55479549Y19931463D02*
X55670025Y19931463D01*
X55670025Y19931463D02*
X55746216Y19893368D01*
X55746216Y19893368D02*
X55784311Y19855273D01*
X55784311Y19855273D02*
X55822406Y19779082D01*
X55822406Y19779082D02*
X55822406Y19588606D01*
X55822406Y19588606D02*
X55784311Y19512416D01*
X55784311Y19512416D02*
X55746216Y19474320D01*
X55746216Y19474320D02*
X55670025Y19436225D01*
X55670025Y19436225D02*
X55479549Y19436225D01*
X55479549Y19436225D02*
X55403359Y19474320D01*
X55403359Y19474320D02*
X55365263Y19512416D01*
X56546216Y20236225D02*
X56165264Y20236225D01*
X56165264Y20236225D02*
X56127168Y19855273D01*
X56127168Y19855273D02*
X56165264Y19893368D01*
X56165264Y19893368D02*
X56241454Y19931463D01*
X56241454Y19931463D02*
X56431930Y19931463D01*
X56431930Y19931463D02*
X56508121Y19893368D01*
X56508121Y19893368D02*
X56546216Y19855273D01*
X56546216Y19855273D02*
X56584311Y19779082D01*
X56584311Y19779082D02*
X56584311Y19588606D01*
X56584311Y19588606D02*
X56546216Y19512416D01*
X56546216Y19512416D02*
X56508121Y19474320D01*
X56508121Y19474320D02*
X56431930Y19436225D01*
X56431930Y19436225D02*
X56241454Y19436225D01*
X56241454Y19436225D02*
X56165264Y19474320D01*
X56165264Y19474320D02*
X56127168Y19512416D01*
X56927169Y19436225D02*
X56927169Y20236225D01*
X56927169Y20236225D02*
X57231931Y20236225D01*
X57231931Y20236225D02*
X57308121Y20198130D01*
X57308121Y20198130D02*
X57346216Y20160035D01*
X57346216Y20160035D02*
X57384312Y20083844D01*
X57384312Y20083844D02*
X57384312Y19969559D01*
X57384312Y19969559D02*
X57346216Y19893368D01*
X57346216Y19893368D02*
X57308121Y19855273D01*
X57308121Y19855273D02*
X57231931Y19817178D01*
X57231931Y19817178D02*
X56927169Y19817178D01*
X58184312Y19512416D02*
X58146216Y19474320D01*
X58146216Y19474320D02*
X58031931Y19436225D01*
X58031931Y19436225D02*
X57955740Y19436225D01*
X57955740Y19436225D02*
X57841454Y19474320D01*
X57841454Y19474320D02*
X57765264Y19550511D01*
X57765264Y19550511D02*
X57727169Y19626701D01*
X57727169Y19626701D02*
X57689073Y19779082D01*
X57689073Y19779082D02*
X57689073Y19893368D01*
X57689073Y19893368D02*
X57727169Y20045749D01*
X57727169Y20045749D02*
X57765264Y20121940D01*
X57765264Y20121940D02*
X57841454Y20198130D01*
X57841454Y20198130D02*
X57955740Y20236225D01*
X57955740Y20236225D02*
X58031931Y20236225D01*
X58031931Y20236225D02*
X58146216Y20198130D01*
X58146216Y20198130D02*
X58184312Y20160035D01*
X58527169Y19436225D02*
X58527169Y20236225D01*
X58527169Y20236225D02*
X58984312Y19436225D01*
X58984312Y19436225D02*
X58984312Y20236225D01*
X2192882Y55136225D02*
X1926215Y55517178D01*
X1735739Y55136225D02*
X1735739Y55936225D01*
X1735739Y55936225D02*
X2040501Y55936225D01*
X2040501Y55936225D02*
X2116691Y55898130D01*
X2116691Y55898130D02*
X2154786Y55860035D01*
X2154786Y55860035D02*
X2192882Y55783844D01*
X2192882Y55783844D02*
X2192882Y55669559D01*
X2192882Y55669559D02*
X2154786Y55593368D01*
X2154786Y55593368D02*
X2116691Y55555273D01*
X2116691Y55555273D02*
X2040501Y55517178D01*
X2040501Y55517178D02*
X1735739Y55517178D01*
X2459548Y55936225D02*
X2992882Y55136225D01*
X2992882Y55936225D02*
X2459548Y55136225D01*
X3297644Y55136225D02*
X3297644Y55936225D01*
X3297644Y55936225D02*
X3488120Y55936225D01*
X3488120Y55936225D02*
X3602406Y55898130D01*
X3602406Y55898130D02*
X3678596Y55821940D01*
X3678596Y55821940D02*
X3716691Y55745749D01*
X3716691Y55745749D02*
X3754787Y55593368D01*
X3754787Y55593368D02*
X3754787Y55479082D01*
X3754787Y55479082D02*
X3716691Y55326701D01*
X3716691Y55326701D02*
X3678596Y55250511D01*
X3678596Y55250511D02*
X3602406Y55174320D01*
X3602406Y55174320D02*
X3488120Y55136225D01*
X3488120Y55136225D02*
X3297644Y55136225D01*
X35329548Y2006225D02*
X35862882Y2006225D01*
X35862882Y2006225D02*
X35520024Y1206225D01*
X36510501Y1739559D02*
X36510501Y1206225D01*
X36320025Y2044320D02*
X36129548Y1472892D01*
X36129548Y1472892D02*
X36624787Y1472892D01*
X37310501Y1206225D02*
X36929549Y1206225D01*
X36929549Y1206225D02*
X36929549Y2006225D01*
X37539072Y1244320D02*
X37653358Y1206225D01*
X37653358Y1206225D02*
X37843834Y1206225D01*
X37843834Y1206225D02*
X37920025Y1244320D01*
X37920025Y1244320D02*
X37958120Y1282416D01*
X37958120Y1282416D02*
X37996215Y1358606D01*
X37996215Y1358606D02*
X37996215Y1434797D01*
X37996215Y1434797D02*
X37958120Y1510987D01*
X37958120Y1510987D02*
X37920025Y1549082D01*
X37920025Y1549082D02*
X37843834Y1587178D01*
X37843834Y1587178D02*
X37691453Y1625273D01*
X37691453Y1625273D02*
X37615263Y1663368D01*
X37615263Y1663368D02*
X37577168Y1701463D01*
X37577168Y1701463D02*
X37539072Y1777654D01*
X37539072Y1777654D02*
X37539072Y1853844D01*
X37539072Y1853844D02*
X37577168Y1930035D01*
X37577168Y1930035D02*
X37615263Y1968130D01*
X37615263Y1968130D02*
X37691453Y2006225D01*
X37691453Y2006225D02*
X37881930Y2006225D01*
X37881930Y2006225D02*
X37996215Y1968130D01*
X38262882Y2006225D02*
X38758120Y2006225D01*
X38758120Y2006225D02*
X38491454Y1701463D01*
X38491454Y1701463D02*
X38605739Y1701463D01*
X38605739Y1701463D02*
X38681930Y1663368D01*
X38681930Y1663368D02*
X38720025Y1625273D01*
X38720025Y1625273D02*
X38758120Y1549082D01*
X38758120Y1549082D02*
X38758120Y1358606D01*
X38758120Y1358606D02*
X38720025Y1282416D01*
X38720025Y1282416D02*
X38681930Y1244320D01*
X38681930Y1244320D02*
X38605739Y1206225D01*
X38605739Y1206225D02*
X38377168Y1206225D01*
X38377168Y1206225D02*
X38300977Y1244320D01*
X38300977Y1244320D02*
X38262882Y1282416D01*
X39024787Y2006225D02*
X39558121Y2006225D01*
X39558121Y2006225D02*
X39215263Y1206225D01*
X39786692Y2006225D02*
X40281930Y2006225D01*
X40281930Y2006225D02*
X40015264Y1701463D01*
X40015264Y1701463D02*
X40129549Y1701463D01*
X40129549Y1701463D02*
X40205740Y1663368D01*
X40205740Y1663368D02*
X40243835Y1625273D01*
X40243835Y1625273D02*
X40281930Y1549082D01*
X40281930Y1549082D02*
X40281930Y1358606D01*
X40281930Y1358606D02*
X40243835Y1282416D01*
X40243835Y1282416D02*
X40205740Y1244320D01*
X40205740Y1244320D02*
X40129549Y1206225D01*
X40129549Y1206225D02*
X39900978Y1206225D01*
X39900978Y1206225D02*
X39824787Y1244320D01*
X39824787Y1244320D02*
X39786692Y1282416D01*
X1988120Y7866225D02*
X2140501Y7866225D01*
X2140501Y7866225D02*
X2216691Y7828130D01*
X2216691Y7828130D02*
X2292882Y7751940D01*
X2292882Y7751940D02*
X2330977Y7599559D01*
X2330977Y7599559D02*
X2330977Y7332892D01*
X2330977Y7332892D02*
X2292882Y7180511D01*
X2292882Y7180511D02*
X2216691Y7104320D01*
X2216691Y7104320D02*
X2140501Y7066225D01*
X2140501Y7066225D02*
X1988120Y7066225D01*
X1988120Y7066225D02*
X1911929Y7104320D01*
X1911929Y7104320D02*
X1835739Y7180511D01*
X1835739Y7180511D02*
X1797643Y7332892D01*
X1797643Y7332892D02*
X1797643Y7599559D01*
X1797643Y7599559D02*
X1835739Y7751940D01*
X1835739Y7751940D02*
X1911929Y7828130D01*
X1911929Y7828130D02*
X1988120Y7866225D01*
X2673834Y7066225D02*
X2673834Y7866225D01*
X2673834Y7866225D02*
X2978596Y7866225D01*
X2978596Y7866225D02*
X3054786Y7828130D01*
X3054786Y7828130D02*
X3092881Y7790035D01*
X3092881Y7790035D02*
X3130977Y7713844D01*
X3130977Y7713844D02*
X3130977Y7599559D01*
X3130977Y7599559D02*
X3092881Y7523368D01*
X3092881Y7523368D02*
X3054786Y7485273D01*
X3054786Y7485273D02*
X2978596Y7447178D01*
X2978596Y7447178D02*
X2673834Y7447178D01*
X3359548Y7866225D02*
X3816691Y7866225D01*
X3588119Y7066225D02*
X3588119Y7866225D01*
X1797643Y12154320D02*
X1911929Y12116225D01*
X1911929Y12116225D02*
X2102405Y12116225D01*
X2102405Y12116225D02*
X2178596Y12154320D01*
X2178596Y12154320D02*
X2216691Y12192416D01*
X2216691Y12192416D02*
X2254786Y12268606D01*
X2254786Y12268606D02*
X2254786Y12344797D01*
X2254786Y12344797D02*
X2216691Y12420987D01*
X2216691Y12420987D02*
X2178596Y12459082D01*
X2178596Y12459082D02*
X2102405Y12497178D01*
X2102405Y12497178D02*
X1950024Y12535273D01*
X1950024Y12535273D02*
X1873834Y12573368D01*
X1873834Y12573368D02*
X1835739Y12611463D01*
X1835739Y12611463D02*
X1797643Y12687654D01*
X1797643Y12687654D02*
X1797643Y12763844D01*
X1797643Y12763844D02*
X1835739Y12840035D01*
X1835739Y12840035D02*
X1873834Y12878130D01*
X1873834Y12878130D02*
X1950024Y12916225D01*
X1950024Y12916225D02*
X2140501Y12916225D01*
X2140501Y12916225D02*
X2254786Y12878130D01*
X3054787Y12192416D02*
X3016691Y12154320D01*
X3016691Y12154320D02*
X2902406Y12116225D01*
X2902406Y12116225D02*
X2826215Y12116225D01*
X2826215Y12116225D02*
X2711929Y12154320D01*
X2711929Y12154320D02*
X2635739Y12230511D01*
X2635739Y12230511D02*
X2597644Y12306701D01*
X2597644Y12306701D02*
X2559548Y12459082D01*
X2559548Y12459082D02*
X2559548Y12573368D01*
X2559548Y12573368D02*
X2597644Y12725749D01*
X2597644Y12725749D02*
X2635739Y12801940D01*
X2635739Y12801940D02*
X2711929Y12878130D01*
X2711929Y12878130D02*
X2826215Y12916225D01*
X2826215Y12916225D02*
X2902406Y12916225D01*
X2902406Y12916225D02*
X3016691Y12878130D01*
X3016691Y12878130D02*
X3054787Y12840035D01*
X3778596Y12116225D02*
X3397644Y12116225D01*
X3397644Y12116225D02*
X3397644Y12916225D01*
X35569548Y35386225D02*
X36102882Y35386225D01*
X36102882Y35386225D02*
X35760024Y34586225D01*
X36750501Y35119559D02*
X36750501Y34586225D01*
X36560025Y35424320D02*
X36369548Y34852892D01*
X36369548Y34852892D02*
X36864787Y34852892D01*
X37550501Y34586225D02*
X37169549Y34586225D01*
X37169549Y34586225D02*
X37169549Y35386225D01*
X37779072Y34624320D02*
X37893358Y34586225D01*
X37893358Y34586225D02*
X38083834Y34586225D01*
X38083834Y34586225D02*
X38160025Y34624320D01*
X38160025Y34624320D02*
X38198120Y34662416D01*
X38198120Y34662416D02*
X38236215Y34738606D01*
X38236215Y34738606D02*
X38236215Y34814797D01*
X38236215Y34814797D02*
X38198120Y34890987D01*
X38198120Y34890987D02*
X38160025Y34929082D01*
X38160025Y34929082D02*
X38083834Y34967178D01*
X38083834Y34967178D02*
X37931453Y35005273D01*
X37931453Y35005273D02*
X37855263Y35043368D01*
X37855263Y35043368D02*
X37817168Y35081463D01*
X37817168Y35081463D02*
X37779072Y35157654D01*
X37779072Y35157654D02*
X37779072Y35233844D01*
X37779072Y35233844D02*
X37817168Y35310035D01*
X37817168Y35310035D02*
X37855263Y35348130D01*
X37855263Y35348130D02*
X37931453Y35386225D01*
X37931453Y35386225D02*
X38121930Y35386225D01*
X38121930Y35386225D02*
X38236215Y35348130D01*
X38502882Y35386225D02*
X38998120Y35386225D01*
X38998120Y35386225D02*
X38731454Y35081463D01*
X38731454Y35081463D02*
X38845739Y35081463D01*
X38845739Y35081463D02*
X38921930Y35043368D01*
X38921930Y35043368D02*
X38960025Y35005273D01*
X38960025Y35005273D02*
X38998120Y34929082D01*
X38998120Y34929082D02*
X38998120Y34738606D01*
X38998120Y34738606D02*
X38960025Y34662416D01*
X38960025Y34662416D02*
X38921930Y34624320D01*
X38921930Y34624320D02*
X38845739Y34586225D01*
X38845739Y34586225D02*
X38617168Y34586225D01*
X38617168Y34586225D02*
X38540977Y34624320D01*
X38540977Y34624320D02*
X38502882Y34662416D01*
X39264787Y35386225D02*
X39798121Y35386225D01*
X39798121Y35386225D02*
X39455263Y34586225D01*
X40026692Y35386225D02*
X40521930Y35386225D01*
X40521930Y35386225D02*
X40255264Y35081463D01*
X40255264Y35081463D02*
X40369549Y35081463D01*
X40369549Y35081463D02*
X40445740Y35043368D01*
X40445740Y35043368D02*
X40483835Y35005273D01*
X40483835Y35005273D02*
X40521930Y34929082D01*
X40521930Y34929082D02*
X40521930Y34738606D01*
X40521930Y34738606D02*
X40483835Y34662416D01*
X40483835Y34662416D02*
X40445740Y34624320D01*
X40445740Y34624320D02*
X40369549Y34586225D01*
X40369549Y34586225D02*
X40140978Y34586225D01*
X40140978Y34586225D02*
X40064787Y34624320D01*
X40064787Y34624320D02*
X40026692Y34662416D01*
X59685739Y3506225D02*
X59685739Y4306225D01*
X60142882Y3506225D02*
X59800024Y3963368D01*
X60142882Y4306225D02*
X59685739Y3849082D01*
X2174786Y58568130D02*
X2098596Y58606225D01*
X2098596Y58606225D02*
X1984310Y58606225D01*
X1984310Y58606225D02*
X1870024Y58568130D01*
X1870024Y58568130D02*
X1793834Y58491940D01*
X1793834Y58491940D02*
X1755739Y58415749D01*
X1755739Y58415749D02*
X1717643Y58263368D01*
X1717643Y58263368D02*
X1717643Y58149082D01*
X1717643Y58149082D02*
X1755739Y57996701D01*
X1755739Y57996701D02*
X1793834Y57920511D01*
X1793834Y57920511D02*
X1870024Y57844320D01*
X1870024Y57844320D02*
X1984310Y57806225D01*
X1984310Y57806225D02*
X2060501Y57806225D01*
X2060501Y57806225D02*
X2174786Y57844320D01*
X2174786Y57844320D02*
X2212882Y57882416D01*
X2212882Y57882416D02*
X2212882Y58149082D01*
X2212882Y58149082D02*
X2060501Y58149082D01*
X2555739Y57806225D02*
X2555739Y58606225D01*
X2555739Y58606225D02*
X3012882Y57806225D01*
X3012882Y57806225D02*
X3012882Y58606225D01*
X3393834Y57806225D02*
X3393834Y58606225D01*
X3393834Y58606225D02*
X3584310Y58606225D01*
X3584310Y58606225D02*
X3698596Y58568130D01*
X3698596Y58568130D02*
X3774786Y58491940D01*
X3774786Y58491940D02*
X3812881Y58415749D01*
X3812881Y58415749D02*
X3850977Y58263368D01*
X3850977Y58263368D02*
X3850977Y58149082D01*
X3850977Y58149082D02*
X3812881Y57996701D01*
X3812881Y57996701D02*
X3774786Y57920511D01*
X3774786Y57920511D02*
X3698596Y57844320D01*
X3698596Y57844320D02*
X3584310Y57806225D01*
X3584310Y57806225D02*
X3393834Y57806225D01*
X62933775Y10769549D02*
X62933775Y11302883D01*
X62933775Y11302883D02*
X63733775Y10960025D01*
X63200441Y11950502D02*
X63733775Y11950502D01*
X62895680Y11760026D02*
X63467108Y11569549D01*
X63467108Y11569549D02*
X63467108Y12064788D01*
X63733775Y12369550D02*
X62933775Y12369550D01*
X63314727Y12369550D02*
X63314727Y12826693D01*
X63733775Y12826693D02*
X62933775Y12826693D01*
X63657584Y13664788D02*
X63695680Y13626692D01*
X63695680Y13626692D02*
X63733775Y13512407D01*
X63733775Y13512407D02*
X63733775Y13436216D01*
X63733775Y13436216D02*
X63695680Y13321930D01*
X63695680Y13321930D02*
X63619489Y13245740D01*
X63619489Y13245740D02*
X63543299Y13207645D01*
X63543299Y13207645D02*
X63390918Y13169549D01*
X63390918Y13169549D02*
X63276632Y13169549D01*
X63276632Y13169549D02*
X63124251Y13207645D01*
X63124251Y13207645D02*
X63048060Y13245740D01*
X63048060Y13245740D02*
X62971870Y13321930D01*
X62971870Y13321930D02*
X62933775Y13436216D01*
X62933775Y13436216D02*
X62933775Y13512407D01*
X62933775Y13512407D02*
X62971870Y13626692D01*
X62971870Y13626692D02*
X63009965Y13664788D01*
X63733775Y14426692D02*
X63733775Y13969549D01*
X63733775Y14198121D02*
X62933775Y14198121D01*
X62933775Y14198121D02*
X63048060Y14121930D01*
X63048060Y14121930D02*
X63124251Y14045740D01*
X63124251Y14045740D02*
X63162346Y13969549D01*
X63009965Y14731454D02*
X62971870Y14769550D01*
X62971870Y14769550D02*
X62933775Y14845740D01*
X62933775Y14845740D02*
X62933775Y15036216D01*
X62933775Y15036216D02*
X62971870Y15112407D01*
X62971870Y15112407D02*
X63009965Y15150502D01*
X63009965Y15150502D02*
X63086156Y15188597D01*
X63086156Y15188597D02*
X63162346Y15188597D01*
X63162346Y15188597D02*
X63276632Y15150502D01*
X63276632Y15150502D02*
X63733775Y14693359D01*
X63733775Y14693359D02*
X63733775Y15188597D01*
X62933775Y15912407D02*
X62933775Y15531455D01*
X62933775Y15531455D02*
X63314727Y15493359D01*
X63314727Y15493359D02*
X63276632Y15531455D01*
X63276632Y15531455D02*
X63238537Y15607645D01*
X63238537Y15607645D02*
X63238537Y15798121D01*
X63238537Y15798121D02*
X63276632Y15874312D01*
X63276632Y15874312D02*
X63314727Y15912407D01*
X63314727Y15912407D02*
X63390918Y15950502D01*
X63390918Y15950502D02*
X63581394Y15950502D01*
X63581394Y15950502D02*
X63657584Y15912407D01*
X63657584Y15912407D02*
X63695680Y15874312D01*
X63695680Y15874312D02*
X63733775Y15798121D01*
X63733775Y15798121D02*
X63733775Y15607645D01*
X63733775Y15607645D02*
X63695680Y15531455D01*
X63695680Y15531455D02*
X63657584Y15493359D01*
X16930024Y9783368D02*
X16853834Y9821463D01*
X16853834Y9821463D02*
X16815739Y9859559D01*
X16815739Y9859559D02*
X16777643Y9935749D01*
X16777643Y9935749D02*
X16777643Y9973844D01*
X16777643Y9973844D02*
X16815739Y10050035D01*
X16815739Y10050035D02*
X16853834Y10088130D01*
X16853834Y10088130D02*
X16930024Y10126225D01*
X16930024Y10126225D02*
X17082405Y10126225D01*
X17082405Y10126225D02*
X17158596Y10088130D01*
X17158596Y10088130D02*
X17196691Y10050035D01*
X17196691Y10050035D02*
X17234786Y9973844D01*
X17234786Y9973844D02*
X17234786Y9935749D01*
X17234786Y9935749D02*
X17196691Y9859559D01*
X17196691Y9859559D02*
X17158596Y9821463D01*
X17158596Y9821463D02*
X17082405Y9783368D01*
X17082405Y9783368D02*
X16930024Y9783368D01*
X16930024Y9783368D02*
X16853834Y9745273D01*
X16853834Y9745273D02*
X16815739Y9707178D01*
X16815739Y9707178D02*
X16777643Y9630987D01*
X16777643Y9630987D02*
X16777643Y9478606D01*
X16777643Y9478606D02*
X16815739Y9402416D01*
X16815739Y9402416D02*
X16853834Y9364320D01*
X16853834Y9364320D02*
X16930024Y9326225D01*
X16930024Y9326225D02*
X17082405Y9326225D01*
X17082405Y9326225D02*
X17158596Y9364320D01*
X17158596Y9364320D02*
X17196691Y9402416D01*
X17196691Y9402416D02*
X17234786Y9478606D01*
X17234786Y9478606D02*
X17234786Y9630987D01*
X17234786Y9630987D02*
X17196691Y9707178D01*
X17196691Y9707178D02*
X17158596Y9745273D01*
X17158596Y9745273D02*
X17082405Y9783368D01*
X17730025Y10126225D02*
X17806215Y10126225D01*
X17806215Y10126225D02*
X17882406Y10088130D01*
X17882406Y10088130D02*
X17920501Y10050035D01*
X17920501Y10050035D02*
X17958596Y9973844D01*
X17958596Y9973844D02*
X17996691Y9821463D01*
X17996691Y9821463D02*
X17996691Y9630987D01*
X17996691Y9630987D02*
X17958596Y9478606D01*
X17958596Y9478606D02*
X17920501Y9402416D01*
X17920501Y9402416D02*
X17882406Y9364320D01*
X17882406Y9364320D02*
X17806215Y9326225D01*
X17806215Y9326225D02*
X17730025Y9326225D01*
X17730025Y9326225D02*
X17653834Y9364320D01*
X17653834Y9364320D02*
X17615739Y9402416D01*
X17615739Y9402416D02*
X17577644Y9478606D01*
X17577644Y9478606D02*
X17539548Y9630987D01*
X17539548Y9630987D02*
X17539548Y9821463D01*
X17539548Y9821463D02*
X17577644Y9973844D01*
X17577644Y9973844D02*
X17615739Y10050035D01*
X17615739Y10050035D02*
X17653834Y10088130D01*
X17653834Y10088130D02*
X17730025Y10126225D01*
X18453834Y9783368D02*
X18377644Y9821463D01*
X18377644Y9821463D02*
X18339549Y9859559D01*
X18339549Y9859559D02*
X18301453Y9935749D01*
X18301453Y9935749D02*
X18301453Y9973844D01*
X18301453Y9973844D02*
X18339549Y10050035D01*
X18339549Y10050035D02*
X18377644Y10088130D01*
X18377644Y10088130D02*
X18453834Y10126225D01*
X18453834Y10126225D02*
X18606215Y10126225D01*
X18606215Y10126225D02*
X18682406Y10088130D01*
X18682406Y10088130D02*
X18720501Y10050035D01*
X18720501Y10050035D02*
X18758596Y9973844D01*
X18758596Y9973844D02*
X18758596Y9935749D01*
X18758596Y9935749D02*
X18720501Y9859559D01*
X18720501Y9859559D02*
X18682406Y9821463D01*
X18682406Y9821463D02*
X18606215Y9783368D01*
X18606215Y9783368D02*
X18453834Y9783368D01*
X18453834Y9783368D02*
X18377644Y9745273D01*
X18377644Y9745273D02*
X18339549Y9707178D01*
X18339549Y9707178D02*
X18301453Y9630987D01*
X18301453Y9630987D02*
X18301453Y9478606D01*
X18301453Y9478606D02*
X18339549Y9402416D01*
X18339549Y9402416D02*
X18377644Y9364320D01*
X18377644Y9364320D02*
X18453834Y9326225D01*
X18453834Y9326225D02*
X18606215Y9326225D01*
X18606215Y9326225D02*
X18682406Y9364320D01*
X18682406Y9364320D02*
X18720501Y9402416D01*
X18720501Y9402416D02*
X18758596Y9478606D01*
X18758596Y9478606D02*
X18758596Y9630987D01*
X18758596Y9630987D02*
X18720501Y9707178D01*
X18720501Y9707178D02*
X18682406Y9745273D01*
X18682406Y9745273D02*
X18606215Y9783368D01*
X19215739Y9783368D02*
X19139549Y9821463D01*
X19139549Y9821463D02*
X19101454Y9859559D01*
X19101454Y9859559D02*
X19063358Y9935749D01*
X19063358Y9935749D02*
X19063358Y9973844D01*
X19063358Y9973844D02*
X19101454Y10050035D01*
X19101454Y10050035D02*
X19139549Y10088130D01*
X19139549Y10088130D02*
X19215739Y10126225D01*
X19215739Y10126225D02*
X19368120Y10126225D01*
X19368120Y10126225D02*
X19444311Y10088130D01*
X19444311Y10088130D02*
X19482406Y10050035D01*
X19482406Y10050035D02*
X19520501Y9973844D01*
X19520501Y9973844D02*
X19520501Y9935749D01*
X19520501Y9935749D02*
X19482406Y9859559D01*
X19482406Y9859559D02*
X19444311Y9821463D01*
X19444311Y9821463D02*
X19368120Y9783368D01*
X19368120Y9783368D02*
X19215739Y9783368D01*
X19215739Y9783368D02*
X19139549Y9745273D01*
X19139549Y9745273D02*
X19101454Y9707178D01*
X19101454Y9707178D02*
X19063358Y9630987D01*
X19063358Y9630987D02*
X19063358Y9478606D01*
X19063358Y9478606D02*
X19101454Y9402416D01*
X19101454Y9402416D02*
X19139549Y9364320D01*
X19139549Y9364320D02*
X19215739Y9326225D01*
X19215739Y9326225D02*
X19368120Y9326225D01*
X19368120Y9326225D02*
X19444311Y9364320D01*
X19444311Y9364320D02*
X19482406Y9402416D01*
X19482406Y9402416D02*
X19520501Y9478606D01*
X19520501Y9478606D02*
X19520501Y9630987D01*
X19520501Y9630987D02*
X19482406Y9707178D01*
X19482406Y9707178D02*
X19444311Y9745273D01*
X19444311Y9745273D02*
X19368120Y9783368D01*
X20434787Y10164320D02*
X19749073Y9135749D01*
X20587168Y10126225D02*
X20853835Y9326225D01*
X20853835Y9326225D02*
X21120501Y10126225D01*
X21349072Y10050035D02*
X21387168Y10088130D01*
X21387168Y10088130D02*
X21463358Y10126225D01*
X21463358Y10126225D02*
X21653834Y10126225D01*
X21653834Y10126225D02*
X21730025Y10088130D01*
X21730025Y10088130D02*
X21768120Y10050035D01*
X21768120Y10050035D02*
X21806215Y9973844D01*
X21806215Y9973844D02*
X21806215Y9897654D01*
X21806215Y9897654D02*
X21768120Y9783368D01*
X21768120Y9783368D02*
X21310977Y9326225D01*
X21310977Y9326225D02*
X21806215Y9326225D01*
X22301454Y10126225D02*
X22377644Y10126225D01*
X22377644Y10126225D02*
X22453835Y10088130D01*
X22453835Y10088130D02*
X22491930Y10050035D01*
X22491930Y10050035D02*
X22530025Y9973844D01*
X22530025Y9973844D02*
X22568120Y9821463D01*
X22568120Y9821463D02*
X22568120Y9630987D01*
X22568120Y9630987D02*
X22530025Y9478606D01*
X22530025Y9478606D02*
X22491930Y9402416D01*
X22491930Y9402416D02*
X22453835Y9364320D01*
X22453835Y9364320D02*
X22377644Y9326225D01*
X22377644Y9326225D02*
X22301454Y9326225D01*
X22301454Y9326225D02*
X22225263Y9364320D01*
X22225263Y9364320D02*
X22187168Y9402416D01*
X22187168Y9402416D02*
X22149073Y9478606D01*
X22149073Y9478606D02*
X22110977Y9630987D01*
X22110977Y9630987D02*
X22110977Y9821463D01*
X22110977Y9821463D02*
X22149073Y9973844D01*
X22149073Y9973844D02*
X22187168Y10050035D01*
X22187168Y10050035D02*
X22225263Y10088130D01*
X22225263Y10088130D02*
X22301454Y10126225D01*
D13*
X15122390Y2268208D02*
X15084295Y2192018D01*
X15084295Y2192018D02*
X15084295Y2077732D01*
X15084295Y2077732D02*
X15122390Y1963446D01*
X15122390Y1963446D02*
X15198580Y1887256D01*
X15198580Y1887256D02*
X15274771Y1849161D01*
X15274771Y1849161D02*
X15427152Y1811065D01*
X15427152Y1811065D02*
X15541438Y1811065D01*
X15541438Y1811065D02*
X15693819Y1849161D01*
X15693819Y1849161D02*
X15770009Y1887256D01*
X15770009Y1887256D02*
X15846200Y1963446D01*
X15846200Y1963446D02*
X15884295Y2077732D01*
X15884295Y2077732D02*
X15884295Y2153923D01*
X15884295Y2153923D02*
X15846200Y2268208D01*
X15846200Y2268208D02*
X15808104Y2306304D01*
X15808104Y2306304D02*
X15541438Y2306304D01*
X15541438Y2306304D02*
X15541438Y2153923D01*
X15884295Y2649161D02*
X15084295Y2649161D01*
X15084295Y2649161D02*
X15884295Y3106304D01*
X15884295Y3106304D02*
X15084295Y3106304D01*
X15884295Y3487256D02*
X15084295Y3487256D01*
X15084295Y3487256D02*
X15084295Y3677732D01*
X15084295Y3677732D02*
X15122390Y3792018D01*
X15122390Y3792018D02*
X15198580Y3868208D01*
X15198580Y3868208D02*
X15274771Y3906303D01*
X15274771Y3906303D02*
X15427152Y3944399D01*
X15427152Y3944399D02*
X15541438Y3944399D01*
X15541438Y3944399D02*
X15693819Y3906303D01*
X15693819Y3906303D02*
X15770009Y3868208D01*
X15770009Y3868208D02*
X15846200Y3792018D01*
X15846200Y3792018D02*
X15884295Y3677732D01*
X15884295Y3677732D02*
X15884295Y3487256D01*
X23444295Y1379161D02*
X22644295Y1379161D01*
X22644295Y1379161D02*
X23215723Y1645827D01*
X23215723Y1645827D02*
X22644295Y1912494D01*
X22644295Y1912494D02*
X23444295Y1912494D01*
X22644295Y2445828D02*
X22644295Y2598209D01*
X22644295Y2598209D02*
X22682390Y2674399D01*
X22682390Y2674399D02*
X22758580Y2750590D01*
X22758580Y2750590D02*
X22910961Y2788685D01*
X22910961Y2788685D02*
X23177628Y2788685D01*
X23177628Y2788685D02*
X23330009Y2750590D01*
X23330009Y2750590D02*
X23406200Y2674399D01*
X23406200Y2674399D02*
X23444295Y2598209D01*
X23444295Y2598209D02*
X23444295Y2445828D01*
X23444295Y2445828D02*
X23406200Y2369637D01*
X23406200Y2369637D02*
X23330009Y2293447D01*
X23330009Y2293447D02*
X23177628Y2255351D01*
X23177628Y2255351D02*
X22910961Y2255351D01*
X22910961Y2255351D02*
X22758580Y2293447D01*
X22758580Y2293447D02*
X22682390Y2369637D01*
X22682390Y2369637D02*
X22644295Y2445828D01*
X23406200Y3093446D02*
X23444295Y3207732D01*
X23444295Y3207732D02*
X23444295Y3398208D01*
X23444295Y3398208D02*
X23406200Y3474399D01*
X23406200Y3474399D02*
X23368104Y3512494D01*
X23368104Y3512494D02*
X23291914Y3550589D01*
X23291914Y3550589D02*
X23215723Y3550589D01*
X23215723Y3550589D02*
X23139533Y3512494D01*
X23139533Y3512494D02*
X23101438Y3474399D01*
X23101438Y3474399D02*
X23063342Y3398208D01*
X23063342Y3398208D02*
X23025247Y3245827D01*
X23025247Y3245827D02*
X22987152Y3169637D01*
X22987152Y3169637D02*
X22949057Y3131542D01*
X22949057Y3131542D02*
X22872866Y3093446D01*
X22872866Y3093446D02*
X22796676Y3093446D01*
X22796676Y3093446D02*
X22720485Y3131542D01*
X22720485Y3131542D02*
X22682390Y3169637D01*
X22682390Y3169637D02*
X22644295Y3245827D01*
X22644295Y3245827D02*
X22644295Y3436304D01*
X22644295Y3436304D02*
X22682390Y3550589D01*
X23444295Y3893447D02*
X22644295Y3893447D01*
X28388104Y3066304D02*
X28426200Y3028208D01*
X28426200Y3028208D02*
X28464295Y2913923D01*
X28464295Y2913923D02*
X28464295Y2837732D01*
X28464295Y2837732D02*
X28426200Y2723446D01*
X28426200Y2723446D02*
X28350009Y2647256D01*
X28350009Y2647256D02*
X28273819Y2609161D01*
X28273819Y2609161D02*
X28121438Y2571065D01*
X28121438Y2571065D02*
X28007152Y2571065D01*
X28007152Y2571065D02*
X27854771Y2609161D01*
X27854771Y2609161D02*
X27778580Y2647256D01*
X27778580Y2647256D02*
X27702390Y2723446D01*
X27702390Y2723446D02*
X27664295Y2837732D01*
X27664295Y2837732D02*
X27664295Y2913923D01*
X27664295Y2913923D02*
X27702390Y3028208D01*
X27702390Y3028208D02*
X27740485Y3066304D01*
X28426200Y3371065D02*
X28464295Y3485351D01*
X28464295Y3485351D02*
X28464295Y3675827D01*
X28464295Y3675827D02*
X28426200Y3752018D01*
X28426200Y3752018D02*
X28388104Y3790113D01*
X28388104Y3790113D02*
X28311914Y3828208D01*
X28311914Y3828208D02*
X28235723Y3828208D01*
X28235723Y3828208D02*
X28159533Y3790113D01*
X28159533Y3790113D02*
X28121438Y3752018D01*
X28121438Y3752018D02*
X28083342Y3675827D01*
X28083342Y3675827D02*
X28045247Y3523446D01*
X28045247Y3523446D02*
X28007152Y3447256D01*
X28007152Y3447256D02*
X27969057Y3409161D01*
X27969057Y3409161D02*
X27892866Y3371065D01*
X27892866Y3371065D02*
X27816676Y3371065D01*
X27816676Y3371065D02*
X27740485Y3409161D01*
X27740485Y3409161D02*
X27702390Y3447256D01*
X27702390Y3447256D02*
X27664295Y3523446D01*
X27664295Y3523446D02*
X27664295Y3713923D01*
X27664295Y3713923D02*
X27702390Y3828208D01*
X25609160Y7907800D02*
X25752017Y7860181D01*
X25752017Y7860181D02*
X25990112Y7860181D01*
X25990112Y7860181D02*
X26085350Y7907800D01*
X26085350Y7907800D02*
X26132969Y7955420D01*
X26132969Y7955420D02*
X26180588Y8050658D01*
X26180588Y8050658D02*
X26180588Y8145896D01*
X26180588Y8145896D02*
X26132969Y8241134D01*
X26132969Y8241134D02*
X26085350Y8288753D01*
X26085350Y8288753D02*
X25990112Y8336372D01*
X25990112Y8336372D02*
X25799636Y8383991D01*
X25799636Y8383991D02*
X25704398Y8431610D01*
X25704398Y8431610D02*
X25656779Y8479229D01*
X25656779Y8479229D02*
X25609160Y8574467D01*
X25609160Y8574467D02*
X25609160Y8669705D01*
X25609160Y8669705D02*
X25656779Y8764943D01*
X25656779Y8764943D02*
X25704398Y8812562D01*
X25704398Y8812562D02*
X25799636Y8860181D01*
X25799636Y8860181D02*
X26037731Y8860181D01*
X26037731Y8860181D02*
X26180588Y8812562D01*
X26609160Y7860181D02*
X26609160Y8860181D01*
X26609160Y8860181D02*
X26990112Y8860181D01*
X26990112Y8860181D02*
X27085350Y8812562D01*
X27085350Y8812562D02*
X27132969Y8764943D01*
X27132969Y8764943D02*
X27180588Y8669705D01*
X27180588Y8669705D02*
X27180588Y8526848D01*
X27180588Y8526848D02*
X27132969Y8431610D01*
X27132969Y8431610D02*
X27085350Y8383991D01*
X27085350Y8383991D02*
X26990112Y8336372D01*
X26990112Y8336372D02*
X26609160Y8336372D01*
X27609160Y7860181D02*
X27609160Y8860181D01*
X20864295Y1469161D02*
X20064295Y1469161D01*
X20064295Y1469161D02*
X20635723Y1735827D01*
X20635723Y1735827D02*
X20064295Y2002494D01*
X20064295Y2002494D02*
X20864295Y2002494D01*
X20864295Y2383447D02*
X20064295Y2383447D01*
X20826200Y2726303D02*
X20864295Y2840589D01*
X20864295Y2840589D02*
X20864295Y3031065D01*
X20864295Y3031065D02*
X20826200Y3107256D01*
X20826200Y3107256D02*
X20788104Y3145351D01*
X20788104Y3145351D02*
X20711914Y3183446D01*
X20711914Y3183446D02*
X20635723Y3183446D01*
X20635723Y3183446D02*
X20559533Y3145351D01*
X20559533Y3145351D02*
X20521438Y3107256D01*
X20521438Y3107256D02*
X20483342Y3031065D01*
X20483342Y3031065D02*
X20445247Y2878684D01*
X20445247Y2878684D02*
X20407152Y2802494D01*
X20407152Y2802494D02*
X20369057Y2764399D01*
X20369057Y2764399D02*
X20292866Y2726303D01*
X20292866Y2726303D02*
X20216676Y2726303D01*
X20216676Y2726303D02*
X20140485Y2764399D01*
X20140485Y2764399D02*
X20102390Y2802494D01*
X20102390Y2802494D02*
X20064295Y2878684D01*
X20064295Y2878684D02*
X20064295Y3069161D01*
X20064295Y3069161D02*
X20102390Y3183446D01*
X20064295Y3678685D02*
X20064295Y3831066D01*
X20064295Y3831066D02*
X20102390Y3907256D01*
X20102390Y3907256D02*
X20178580Y3983447D01*
X20178580Y3983447D02*
X20330961Y4021542D01*
X20330961Y4021542D02*
X20597628Y4021542D01*
X20597628Y4021542D02*
X20750009Y3983447D01*
X20750009Y3983447D02*
X20826200Y3907256D01*
X20826200Y3907256D02*
X20864295Y3831066D01*
X20864295Y3831066D02*
X20864295Y3678685D01*
X20864295Y3678685D02*
X20826200Y3602494D01*
X20826200Y3602494D02*
X20750009Y3526304D01*
X20750009Y3526304D02*
X20597628Y3488208D01*
X20597628Y3488208D02*
X20330961Y3488208D01*
X20330961Y3488208D02*
X20178580Y3526304D01*
X20178580Y3526304D02*
X20102390Y3602494D01*
X20102390Y3602494D02*
X20064295Y3678685D01*
D12*
X1871453Y53596225D02*
X2328596Y53596225D01*
X2100024Y52796225D02*
X2100024Y53596225D01*
X2519072Y53596225D02*
X3052406Y52796225D01*
X3052406Y53596225D02*
X2519072Y52796225D01*
X3357168Y52796225D02*
X3357168Y53596225D01*
X3357168Y53596225D02*
X3547644Y53596225D01*
X3547644Y53596225D02*
X3661930Y53558130D01*
X3661930Y53558130D02*
X3738120Y53481940D01*
X3738120Y53481940D02*
X3776215Y53405749D01*
X3776215Y53405749D02*
X3814311Y53253368D01*
X3814311Y53253368D02*
X3814311Y53139082D01*
X3814311Y53139082D02*
X3776215Y52986701D01*
X3776215Y52986701D02*
X3738120Y52910511D01*
X3738120Y52910511D02*
X3661930Y52834320D01*
X3661930Y52834320D02*
X3547644Y52796225D01*
X3547644Y52796225D02*
X3357168Y52796225D01*
D13*
X17574295Y1924875D02*
X18374295Y2191542D01*
X18374295Y2191542D02*
X17574295Y2458208D01*
X18298104Y3182018D02*
X18336200Y3143922D01*
X18336200Y3143922D02*
X18374295Y3029637D01*
X18374295Y3029637D02*
X18374295Y2953446D01*
X18374295Y2953446D02*
X18336200Y2839160D01*
X18336200Y2839160D02*
X18260009Y2762970D01*
X18260009Y2762970D02*
X18183819Y2724875D01*
X18183819Y2724875D02*
X18031438Y2686779D01*
X18031438Y2686779D02*
X17917152Y2686779D01*
X17917152Y2686779D02*
X17764771Y2724875D01*
X17764771Y2724875D02*
X17688580Y2762970D01*
X17688580Y2762970D02*
X17612390Y2839160D01*
X17612390Y2839160D02*
X17574295Y2953446D01*
X17574295Y2953446D02*
X17574295Y3029637D01*
X17574295Y3029637D02*
X17612390Y3143922D01*
X17612390Y3143922D02*
X17650485Y3182018D01*
X18298104Y3982018D02*
X18336200Y3943922D01*
X18336200Y3943922D02*
X18374295Y3829637D01*
X18374295Y3829637D02*
X18374295Y3753446D01*
X18374295Y3753446D02*
X18336200Y3639160D01*
X18336200Y3639160D02*
X18260009Y3562970D01*
X18260009Y3562970D02*
X18183819Y3524875D01*
X18183819Y3524875D02*
X18031438Y3486779D01*
X18031438Y3486779D02*
X17917152Y3486779D01*
X17917152Y3486779D02*
X17764771Y3524875D01*
X17764771Y3524875D02*
X17688580Y3562970D01*
X17688580Y3562970D02*
X17612390Y3639160D01*
X17612390Y3639160D02*
X17574295Y3753446D01*
X17574295Y3753446D02*
X17574295Y3829637D01*
X17574295Y3829637D02*
X17612390Y3943922D01*
X17612390Y3943922D02*
X17650485Y3982018D01*
D14*
X4681804Y60499669D02*
X4681804Y60013955D01*
X4681804Y60013955D02*
X4710375Y59956812D01*
X4710375Y59956812D02*
X4738947Y59928240D01*
X4738947Y59928240D02*
X4796089Y59899669D01*
X4796089Y59899669D02*
X4910375Y59899669D01*
X4910375Y59899669D02*
X4967518Y59928240D01*
X4967518Y59928240D02*
X4996089Y59956812D01*
X4996089Y59956812D02*
X5024661Y60013955D01*
X5024661Y60013955D02*
X5024661Y60499669D01*
X5281803Y60071098D02*
X5567518Y60071098D01*
X5224660Y59899669D02*
X5424660Y60499669D01*
X5424660Y60499669D02*
X5624660Y59899669D01*
X6167518Y59899669D02*
X5967518Y60185383D01*
X5824661Y59899669D02*
X5824661Y60499669D01*
X5824661Y60499669D02*
X6053232Y60499669D01*
X6053232Y60499669D02*
X6110375Y60471098D01*
X6110375Y60471098D02*
X6138946Y60442526D01*
X6138946Y60442526D02*
X6167518Y60385383D01*
X6167518Y60385383D02*
X6167518Y60299669D01*
X6167518Y60299669D02*
X6138946Y60242526D01*
X6138946Y60242526D02*
X6110375Y60213955D01*
X6110375Y60213955D02*
X6053232Y60185383D01*
X6053232Y60185383D02*
X5824661Y60185383D01*
X6338946Y60499669D02*
X6681804Y60499669D01*
X6510375Y59899669D02*
X6510375Y60499669D01*
X7167518Y60499669D02*
X6881804Y60499669D01*
X6881804Y60499669D02*
X6853232Y60213955D01*
X6853232Y60213955D02*
X6881804Y60242526D01*
X6881804Y60242526D02*
X6938947Y60271098D01*
X6938947Y60271098D02*
X7081804Y60271098D01*
X7081804Y60271098D02*
X7138947Y60242526D01*
X7138947Y60242526D02*
X7167518Y60213955D01*
X7167518Y60213955D02*
X7196089Y60156812D01*
X7196089Y60156812D02*
X7196089Y60013955D01*
X7196089Y60013955D02*
X7167518Y59956812D01*
X7167518Y59956812D02*
X7138947Y59928240D01*
X7138947Y59928240D02*
X7081804Y59899669D01*
X7081804Y59899669D02*
X6938947Y59899669D01*
X6938947Y59899669D02*
X6881804Y59928240D01*
X6881804Y59928240D02*
X6853232Y59956812D01*
D11*
X2265438Y62999614D02*
X2198771Y63032947D01*
X2198771Y63032947D02*
X2098771Y63032947D01*
X2098771Y63032947D02*
X1998771Y62999614D01*
X1998771Y62999614D02*
X1932105Y62932947D01*
X1932105Y62932947D02*
X1898771Y62866280D01*
X1898771Y62866280D02*
X1865438Y62732947D01*
X1865438Y62732947D02*
X1865438Y62632947D01*
X1865438Y62632947D02*
X1898771Y62499614D01*
X1898771Y62499614D02*
X1932105Y62432947D01*
X1932105Y62432947D02*
X1998771Y62366280D01*
X1998771Y62366280D02*
X2098771Y62332947D01*
X2098771Y62332947D02*
X2165438Y62332947D01*
X2165438Y62332947D02*
X2265438Y62366280D01*
X2265438Y62366280D02*
X2298771Y62399614D01*
X2298771Y62399614D02*
X2298771Y62632947D01*
X2298771Y62632947D02*
X2165438Y62632947D01*
X2598771Y62332947D02*
X2598771Y63032947D01*
X2598771Y63032947D02*
X2998771Y62332947D01*
X2998771Y62332947D02*
X2998771Y63032947D01*
X3332104Y62332947D02*
X3332104Y63032947D01*
X3332104Y63032947D02*
X3498771Y63032947D01*
X3498771Y63032947D02*
X3598771Y62999614D01*
X3598771Y62999614D02*
X3665438Y62932947D01*
X3665438Y62932947D02*
X3698771Y62866280D01*
X3698771Y62866280D02*
X3732104Y62732947D01*
X3732104Y62732947D02*
X3732104Y62632947D01*
X3732104Y62632947D02*
X3698771Y62499614D01*
X3698771Y62499614D02*
X3665438Y62432947D01*
X3665438Y62432947D02*
X3598771Y62366280D01*
X3598771Y62366280D02*
X3498771Y62332947D01*
X3498771Y62332947D02*
X3332104Y62332947D01*
D12*
X5115739Y19716225D02*
X5115739Y20516225D01*
X5458595Y20440035D02*
X5496691Y20478130D01*
X5496691Y20478130D02*
X5572881Y20516225D01*
X5572881Y20516225D02*
X5763357Y20516225D01*
X5763357Y20516225D02*
X5839548Y20478130D01*
X5839548Y20478130D02*
X5877643Y20440035D01*
X5877643Y20440035D02*
X5915738Y20363844D01*
X5915738Y20363844D02*
X5915738Y20287654D01*
X5915738Y20287654D02*
X5877643Y20173368D01*
X5877643Y20173368D02*
X5420500Y19716225D01*
X5420500Y19716225D02*
X5915738Y19716225D01*
X6715739Y19792416D02*
X6677643Y19754320D01*
X6677643Y19754320D02*
X6563358Y19716225D01*
X6563358Y19716225D02*
X6487167Y19716225D01*
X6487167Y19716225D02*
X6372881Y19754320D01*
X6372881Y19754320D02*
X6296691Y19830511D01*
X6296691Y19830511D02*
X6258596Y19906701D01*
X6258596Y19906701D02*
X6220500Y20059082D01*
X6220500Y20059082D02*
X6220500Y20173368D01*
X6220500Y20173368D02*
X6258596Y20325749D01*
X6258596Y20325749D02*
X6296691Y20401940D01*
X6296691Y20401940D02*
X6372881Y20478130D01*
X6372881Y20478130D02*
X6487167Y20516225D01*
X6487167Y20516225D02*
X6563358Y20516225D01*
X6563358Y20516225D02*
X6677643Y20478130D01*
X6677643Y20478130D02*
X6715739Y20440035D01*
D13*
X25866200Y1811065D02*
X25904295Y1925351D01*
X25904295Y1925351D02*
X25904295Y2115827D01*
X25904295Y2115827D02*
X25866200Y2192018D01*
X25866200Y2192018D02*
X25828104Y2230113D01*
X25828104Y2230113D02*
X25751914Y2268208D01*
X25751914Y2268208D02*
X25675723Y2268208D01*
X25675723Y2268208D02*
X25599533Y2230113D01*
X25599533Y2230113D02*
X25561438Y2192018D01*
X25561438Y2192018D02*
X25523342Y2115827D01*
X25523342Y2115827D02*
X25485247Y1963446D01*
X25485247Y1963446D02*
X25447152Y1887256D01*
X25447152Y1887256D02*
X25409057Y1849161D01*
X25409057Y1849161D02*
X25332866Y1811065D01*
X25332866Y1811065D02*
X25256676Y1811065D01*
X25256676Y1811065D02*
X25180485Y1849161D01*
X25180485Y1849161D02*
X25142390Y1887256D01*
X25142390Y1887256D02*
X25104295Y1963446D01*
X25104295Y1963446D02*
X25104295Y2153923D01*
X25104295Y2153923D02*
X25142390Y2268208D01*
X25828104Y3068209D02*
X25866200Y3030113D01*
X25866200Y3030113D02*
X25904295Y2915828D01*
X25904295Y2915828D02*
X25904295Y2839637D01*
X25904295Y2839637D02*
X25866200Y2725351D01*
X25866200Y2725351D02*
X25790009Y2649161D01*
X25790009Y2649161D02*
X25713819Y2611066D01*
X25713819Y2611066D02*
X25561438Y2572970D01*
X25561438Y2572970D02*
X25447152Y2572970D01*
X25447152Y2572970D02*
X25294771Y2611066D01*
X25294771Y2611066D02*
X25218580Y2649161D01*
X25218580Y2649161D02*
X25142390Y2725351D01*
X25142390Y2725351D02*
X25104295Y2839637D01*
X25104295Y2839637D02*
X25104295Y2915828D01*
X25104295Y2915828D02*
X25142390Y3030113D01*
X25142390Y3030113D02*
X25180485Y3068209D01*
X25904295Y3411066D02*
X25104295Y3411066D01*
X25904295Y3868209D02*
X25447152Y3525351D01*
X25104295Y3868209D02*
X25561438Y3411066D01*
D12*
X1777643Y9484320D02*
X1891929Y9446225D01*
X1891929Y9446225D02*
X2082405Y9446225D01*
X2082405Y9446225D02*
X2158596Y9484320D01*
X2158596Y9484320D02*
X2196691Y9522416D01*
X2196691Y9522416D02*
X2234786Y9598606D01*
X2234786Y9598606D02*
X2234786Y9674797D01*
X2234786Y9674797D02*
X2196691Y9750987D01*
X2196691Y9750987D02*
X2158596Y9789082D01*
X2158596Y9789082D02*
X2082405Y9827178D01*
X2082405Y9827178D02*
X1930024Y9865273D01*
X1930024Y9865273D02*
X1853834Y9903368D01*
X1853834Y9903368D02*
X1815739Y9941463D01*
X1815739Y9941463D02*
X1777643Y10017654D01*
X1777643Y10017654D02*
X1777643Y10093844D01*
X1777643Y10093844D02*
X1815739Y10170035D01*
X1815739Y10170035D02*
X1853834Y10208130D01*
X1853834Y10208130D02*
X1930024Y10246225D01*
X1930024Y10246225D02*
X2120501Y10246225D01*
X2120501Y10246225D02*
X2234786Y10208130D01*
X2577644Y9446225D02*
X2577644Y10246225D01*
X2577644Y10246225D02*
X2768120Y10246225D01*
X2768120Y10246225D02*
X2882406Y10208130D01*
X2882406Y10208130D02*
X2958596Y10131940D01*
X2958596Y10131940D02*
X2996691Y10055749D01*
X2996691Y10055749D02*
X3034787Y9903368D01*
X3034787Y9903368D02*
X3034787Y9789082D01*
X3034787Y9789082D02*
X2996691Y9636701D01*
X2996691Y9636701D02*
X2958596Y9560511D01*
X2958596Y9560511D02*
X2882406Y9484320D01*
X2882406Y9484320D02*
X2768120Y9446225D01*
X2768120Y9446225D02*
X2577644Y9446225D01*
X3339548Y9674797D02*
X3720501Y9674797D01*
X3263358Y9446225D02*
X3530025Y10246225D01*
X3530025Y10246225D02*
X3796691Y9446225D01*
X9759048Y6064225D02*
X9759048Y6864225D01*
X10101904Y6788035D02*
X10140000Y6826130D01*
X10140000Y6826130D02*
X10216190Y6864225D01*
X10216190Y6864225D02*
X10406666Y6864225D01*
X10406666Y6864225D02*
X10482857Y6826130D01*
X10482857Y6826130D02*
X10520952Y6788035D01*
X10520952Y6788035D02*
X10559047Y6711844D01*
X10559047Y6711844D02*
X10559047Y6635654D01*
X10559047Y6635654D02*
X10520952Y6521368D01*
X10520952Y6521368D02*
X10063809Y6064225D01*
X10063809Y6064225D02*
X10559047Y6064225D01*
X11359048Y6140416D02*
X11320952Y6102320D01*
X11320952Y6102320D02*
X11206667Y6064225D01*
X11206667Y6064225D02*
X11130476Y6064225D01*
X11130476Y6064225D02*
X11016190Y6102320D01*
X11016190Y6102320D02*
X10940000Y6178511D01*
X10940000Y6178511D02*
X10901905Y6254701D01*
X10901905Y6254701D02*
X10863809Y6407082D01*
X10863809Y6407082D02*
X10863809Y6521368D01*
X10863809Y6521368D02*
X10901905Y6673749D01*
X10901905Y6673749D02*
X10940000Y6749940D01*
X10940000Y6749940D02*
X11016190Y6826130D01*
X11016190Y6826130D02*
X11130476Y6864225D01*
X11130476Y6864225D02*
X11206667Y6864225D01*
X11206667Y6864225D02*
X11320952Y6826130D01*
X11320952Y6826130D02*
X11359048Y6788035D01*
X8730477Y5576225D02*
X8882858Y5576225D01*
X8882858Y5576225D02*
X8959048Y5538130D01*
X8959048Y5538130D02*
X9035239Y5461940D01*
X9035239Y5461940D02*
X9073334Y5309559D01*
X9073334Y5309559D02*
X9073334Y5042892D01*
X9073334Y5042892D02*
X9035239Y4890511D01*
X9035239Y4890511D02*
X8959048Y4814320D01*
X8959048Y4814320D02*
X8882858Y4776225D01*
X8882858Y4776225D02*
X8730477Y4776225D01*
X8730477Y4776225D02*
X8654286Y4814320D01*
X8654286Y4814320D02*
X8578096Y4890511D01*
X8578096Y4890511D02*
X8540000Y5042892D01*
X8540000Y5042892D02*
X8540000Y5309559D01*
X8540000Y5309559D02*
X8578096Y5461940D01*
X8578096Y5461940D02*
X8654286Y5538130D01*
X8654286Y5538130D02*
X8730477Y5576225D01*
X9416191Y4776225D02*
X9416191Y5576225D01*
X9416191Y5576225D02*
X9720953Y5576225D01*
X9720953Y5576225D02*
X9797143Y5538130D01*
X9797143Y5538130D02*
X9835238Y5500035D01*
X9835238Y5500035D02*
X9873334Y5423844D01*
X9873334Y5423844D02*
X9873334Y5309559D01*
X9873334Y5309559D02*
X9835238Y5233368D01*
X9835238Y5233368D02*
X9797143Y5195273D01*
X9797143Y5195273D02*
X9720953Y5157178D01*
X9720953Y5157178D02*
X9416191Y5157178D01*
X10101905Y5576225D02*
X10559048Y5576225D01*
X10330476Y4776225D02*
X10330476Y5576225D01*
X10825715Y4776225D02*
X10825715Y5576225D01*
X11359048Y5576225D02*
X11511429Y5576225D01*
X11511429Y5576225D02*
X11587619Y5538130D01*
X11587619Y5538130D02*
X11663810Y5461940D01*
X11663810Y5461940D02*
X11701905Y5309559D01*
X11701905Y5309559D02*
X11701905Y5042892D01*
X11701905Y5042892D02*
X11663810Y4890511D01*
X11663810Y4890511D02*
X11587619Y4814320D01*
X11587619Y4814320D02*
X11511429Y4776225D01*
X11511429Y4776225D02*
X11359048Y4776225D01*
X11359048Y4776225D02*
X11282857Y4814320D01*
X11282857Y4814320D02*
X11206667Y4890511D01*
X11206667Y4890511D02*
X11168571Y5042892D01*
X11168571Y5042892D02*
X11168571Y5309559D01*
X11168571Y5309559D02*
X11206667Y5461940D01*
X11206667Y5461940D02*
X11282857Y5538130D01*
X11282857Y5538130D02*
X11359048Y5576225D01*
X12044762Y4776225D02*
X12044762Y5576225D01*
X12044762Y5576225D02*
X12501905Y4776225D01*
X12501905Y4776225D02*
X12501905Y5576225D01*
D15*
X63711119Y22634379D02*
X62711119Y22759379D01*
X62711119Y22759379D02*
X63425404Y23003427D01*
X63425404Y23003427D02*
X62711119Y23426046D01*
X62711119Y23426046D02*
X63711119Y23301046D01*
X63187309Y23842713D02*
X63187309Y24176046D01*
X63711119Y24253427D02*
X63711119Y23777236D01*
X63711119Y23777236D02*
X62711119Y23902236D01*
X62711119Y23902236D02*
X62711119Y24378427D01*
X62711119Y24711760D02*
X62711119Y25378427D01*
X62711119Y25378427D02*
X63711119Y24586760D01*
X63711119Y24586760D02*
X63711119Y25253427D01*
X63139690Y25848665D02*
X63092071Y25759379D01*
X63092071Y25759379D02*
X63044452Y25717713D01*
X63044452Y25717713D02*
X62949214Y25681998D01*
X62949214Y25681998D02*
X62901595Y25687951D01*
X62901595Y25687951D02*
X62806357Y25747475D01*
X62806357Y25747475D02*
X62758738Y25801046D01*
X62758738Y25801046D02*
X62711119Y25902236D01*
X62711119Y25902236D02*
X62711119Y26092713D01*
X62711119Y26092713D02*
X62758738Y26181998D01*
X62758738Y26181998D02*
X62806357Y26223665D01*
X62806357Y26223665D02*
X62901595Y26259379D01*
X62901595Y26259379D02*
X62949214Y26253427D01*
X62949214Y26253427D02*
X63044452Y26193903D01*
X63044452Y26193903D02*
X63092071Y26140332D01*
X63092071Y26140332D02*
X63139690Y26039141D01*
X63139690Y26039141D02*
X63139690Y25848665D01*
X63139690Y25848665D02*
X63187309Y25747475D01*
X63187309Y25747475D02*
X63234928Y25693903D01*
X63234928Y25693903D02*
X63330166Y25634379D01*
X63330166Y25634379D02*
X63520642Y25610570D01*
X63520642Y25610570D02*
X63615880Y25646284D01*
X63615880Y25646284D02*
X63663500Y25687951D01*
X63663500Y25687951D02*
X63711119Y25777236D01*
X63711119Y25777236D02*
X63711119Y25967713D01*
X63711119Y25967713D02*
X63663500Y26068903D01*
X63663500Y26068903D02*
X63615880Y26122475D01*
X63615880Y26122475D02*
X63520642Y26181998D01*
X63520642Y26181998D02*
X63330166Y26205808D01*
X63330166Y26205808D02*
X63234928Y26170094D01*
X63234928Y26170094D02*
X63187309Y26128427D01*
X63187309Y26128427D02*
X63139690Y26039141D01*
X63139690Y26801046D02*
X63092071Y26711760D01*
X63092071Y26711760D02*
X63044452Y26670094D01*
X63044452Y26670094D02*
X62949214Y26634379D01*
X62949214Y26634379D02*
X62901595Y26640332D01*
X62901595Y26640332D02*
X62806357Y26699856D01*
X62806357Y26699856D02*
X62758738Y26753427D01*
X62758738Y26753427D02*
X62711119Y26854617D01*
X62711119Y26854617D02*
X62711119Y27045094D01*
X62711119Y27045094D02*
X62758738Y27134379D01*
X62758738Y27134379D02*
X62806357Y27176046D01*
X62806357Y27176046D02*
X62901595Y27211760D01*
X62901595Y27211760D02*
X62949214Y27205808D01*
X62949214Y27205808D02*
X63044452Y27146284D01*
X63044452Y27146284D02*
X63092071Y27092713D01*
X63092071Y27092713D02*
X63139690Y26991522D01*
X63139690Y26991522D02*
X63139690Y26801046D01*
X63139690Y26801046D02*
X63187309Y26699856D01*
X63187309Y26699856D02*
X63234928Y26646284D01*
X63234928Y26646284D02*
X63330166Y26586760D01*
X63330166Y26586760D02*
X63520642Y26562951D01*
X63520642Y26562951D02*
X63615880Y26598665D01*
X63615880Y26598665D02*
X63663500Y26640332D01*
X63663500Y26640332D02*
X63711119Y26729617D01*
X63711119Y26729617D02*
X63711119Y26920094D01*
X63711119Y26920094D02*
X63663500Y27021284D01*
X63663500Y27021284D02*
X63615880Y27074856D01*
X63615880Y27074856D02*
X63520642Y27134379D01*
X63520642Y27134379D02*
X63330166Y27158189D01*
X63330166Y27158189D02*
X63234928Y27122475D01*
X63234928Y27122475D02*
X63187309Y27080808D01*
X63187309Y27080808D02*
X63139690Y26991522D01*
X63806357Y27289141D02*
X63806357Y28051046D01*
X63711119Y28872475D02*
X63234928Y28598665D01*
X63711119Y28301046D02*
X62711119Y28426046D01*
X62711119Y28426046D02*
X62711119Y28806999D01*
X62711119Y28806999D02*
X62758738Y28896284D01*
X62758738Y28896284D02*
X62806357Y28937951D01*
X62806357Y28937951D02*
X62901595Y28973665D01*
X62901595Y28973665D02*
X63044452Y28955808D01*
X63044452Y28955808D02*
X63139690Y28896284D01*
X63139690Y28896284D02*
X63187309Y28842713D01*
X63187309Y28842713D02*
X63234928Y28741523D01*
X63234928Y28741523D02*
X63234928Y28360570D01*
X63425404Y29289142D02*
X63425404Y29765332D01*
X63711119Y29158189D02*
X62711119Y29616523D01*
X62711119Y29616523D02*
X63711119Y29824856D01*
X63711119Y30158189D02*
X62711119Y30283189D01*
X62711119Y30283189D02*
X63425404Y30527237D01*
X63425404Y30527237D02*
X62711119Y30949856D01*
X62711119Y30949856D02*
X63711119Y30824856D01*
X63711119Y32634380D02*
X63234928Y32360570D01*
X63711119Y32062951D02*
X62711119Y32187951D01*
X62711119Y32187951D02*
X62711119Y32568904D01*
X62711119Y32568904D02*
X62758738Y32658189D01*
X62758738Y32658189D02*
X62806357Y32699856D01*
X62806357Y32699856D02*
X62901595Y32735570D01*
X62901595Y32735570D02*
X63044452Y32717713D01*
X63044452Y32717713D02*
X63139690Y32658189D01*
X63139690Y32658189D02*
X63187309Y32604618D01*
X63187309Y32604618D02*
X63234928Y32503428D01*
X63234928Y32503428D02*
X63234928Y32122475D01*
X63663500Y33449856D02*
X63711119Y33348666D01*
X63711119Y33348666D02*
X63711119Y33158189D01*
X63711119Y33158189D02*
X63663500Y33068904D01*
X63663500Y33068904D02*
X63568261Y33033189D01*
X63568261Y33033189D02*
X63187309Y33080808D01*
X63187309Y33080808D02*
X63092071Y33140332D01*
X63092071Y33140332D02*
X63044452Y33241523D01*
X63044452Y33241523D02*
X63044452Y33431999D01*
X63044452Y33431999D02*
X63092071Y33521285D01*
X63092071Y33521285D02*
X63187309Y33556999D01*
X63187309Y33556999D02*
X63282547Y33545094D01*
X63282547Y33545094D02*
X63377785Y33056999D01*
X63044452Y33908190D02*
X63711119Y34062951D01*
X63711119Y34062951D02*
X63044452Y34384380D01*
X63711119Y35967714D02*
X63711119Y35396285D01*
X63711119Y35682000D02*
X62711119Y35807000D01*
X62711119Y35807000D02*
X62853976Y35693904D01*
X62853976Y35693904D02*
X62949214Y35586761D01*
X62949214Y35586761D02*
X62996833Y35485571D01*
X63615880Y36408190D02*
X63663500Y36449857D01*
X63663500Y36449857D02*
X63711119Y36396285D01*
X63711119Y36396285D02*
X63663500Y36354619D01*
X63663500Y36354619D02*
X63615880Y36408190D01*
X63615880Y36408190D02*
X63711119Y36396285D01*
X62806357Y36937952D02*
X62758738Y36991523D01*
X62758738Y36991523D02*
X62711119Y37092713D01*
X62711119Y37092713D02*
X62711119Y37330809D01*
X62711119Y37330809D02*
X62758738Y37420094D01*
X62758738Y37420094D02*
X62806357Y37461761D01*
X62806357Y37461761D02*
X62901595Y37497475D01*
X62901595Y37497475D02*
X62996833Y37485571D01*
X62996833Y37485571D02*
X63139690Y37420094D01*
X63139690Y37420094D02*
X63711119Y36777237D01*
X63711119Y36777237D02*
X63711119Y37396285D01*
X63711119Y38586761D02*
X62711119Y38711761D01*
X63711119Y39015333D02*
X63187309Y39080809D01*
X63187309Y39080809D02*
X63092071Y39045095D01*
X63092071Y39045095D02*
X63044452Y38955809D01*
X63044452Y38955809D02*
X63044452Y38812952D01*
X63044452Y38812952D02*
X63092071Y38711761D01*
X63092071Y38711761D02*
X63139690Y38658190D01*
X63044452Y39432000D02*
X63044452Y39812952D01*
X62711119Y39616523D02*
X63568261Y39509380D01*
X63568261Y39509380D02*
X63663500Y39545095D01*
X63663500Y39545095D02*
X63711119Y39634380D01*
X63711119Y39634380D02*
X63711119Y39729619D01*
X63044452Y40003429D02*
X63044452Y40384381D01*
X62711119Y40187952D02*
X63568261Y40080809D01*
X63568261Y40080809D02*
X63663500Y40116524D01*
X63663500Y40116524D02*
X63711119Y40205809D01*
X63711119Y40205809D02*
X63711119Y40301048D01*
X63044452Y40717715D02*
X64044452Y40592715D01*
X63092071Y40711762D02*
X63044452Y40812953D01*
X63044452Y40812953D02*
X63044452Y41003429D01*
X63044452Y41003429D02*
X63092071Y41092715D01*
X63092071Y41092715D02*
X63139690Y41134381D01*
X63139690Y41134381D02*
X63234928Y41170096D01*
X63234928Y41170096D02*
X63520642Y41134381D01*
X63520642Y41134381D02*
X63615880Y41074858D01*
X63615880Y41074858D02*
X63663500Y41021286D01*
X63663500Y41021286D02*
X63711119Y40920096D01*
X63711119Y40920096D02*
X63711119Y40729619D01*
X63711119Y40729619D02*
X63663500Y40640334D01*
X63663500Y41497477D02*
X63711119Y41586762D01*
X63711119Y41586762D02*
X63711119Y41777239D01*
X63711119Y41777239D02*
X63663500Y41878429D01*
X63663500Y41878429D02*
X63568261Y41937953D01*
X63568261Y41937953D02*
X63520642Y41943905D01*
X63520642Y41943905D02*
X63425404Y41908191D01*
X63425404Y41908191D02*
X63377785Y41818905D01*
X63377785Y41818905D02*
X63377785Y41676048D01*
X63377785Y41676048D02*
X63330166Y41586762D01*
X63330166Y41586762D02*
X63234928Y41551048D01*
X63234928Y41551048D02*
X63187309Y41557000D01*
X63187309Y41557000D02*
X63092071Y41616524D01*
X63092071Y41616524D02*
X63044452Y41717715D01*
X63044452Y41717715D02*
X63044452Y41860572D01*
X63044452Y41860572D02*
X63092071Y41949858D01*
X63615880Y42360572D02*
X63663500Y42402239D01*
X63663500Y42402239D02*
X63711119Y42348667D01*
X63711119Y42348667D02*
X63663500Y42307001D01*
X63663500Y42307001D02*
X63615880Y42360572D01*
X63615880Y42360572D02*
X63711119Y42348667D01*
X63092071Y42426048D02*
X63139690Y42467715D01*
X63139690Y42467715D02*
X63187309Y42414144D01*
X63187309Y42414144D02*
X63139690Y42372477D01*
X63139690Y42372477D02*
X63092071Y42426048D01*
X63092071Y42426048D02*
X63187309Y42414144D01*
X62663500Y43670095D02*
X63949214Y42652238D01*
X62663500Y44717714D02*
X63949214Y43699857D01*
X63044452Y44860572D02*
X63044452Y45241524D01*
X62711119Y45045095D02*
X63568261Y44937952D01*
X63568261Y44937952D02*
X63663500Y44973667D01*
X63663500Y44973667D02*
X63711119Y45062952D01*
X63711119Y45062952D02*
X63711119Y45158191D01*
X63044452Y45479620D02*
X63711119Y45586762D01*
X63711119Y45586762D02*
X63234928Y45836762D01*
X63234928Y45836762D02*
X63711119Y45967715D01*
X63711119Y45967715D02*
X63044452Y46241524D01*
X63711119Y46539143D02*
X63044452Y46622477D01*
X62711119Y46664143D02*
X62758738Y46610572D01*
X62758738Y46610572D02*
X62806357Y46652239D01*
X62806357Y46652239D02*
X62758738Y46705810D01*
X62758738Y46705810D02*
X62711119Y46664143D01*
X62711119Y46664143D02*
X62806357Y46652239D01*
X63044452Y46955810D02*
X63044452Y47336762D01*
X62711119Y47140333D02*
X63568261Y47033190D01*
X63568261Y47033190D02*
X63663500Y47068905D01*
X63663500Y47068905D02*
X63711119Y47158190D01*
X63711119Y47158190D02*
X63711119Y47253429D01*
X63044452Y47527239D02*
X63044452Y47908191D01*
X62711119Y47711762D02*
X63568261Y47604619D01*
X63568261Y47604619D02*
X63663500Y47640334D01*
X63663500Y47640334D02*
X63711119Y47729619D01*
X63711119Y47729619D02*
X63711119Y47824858D01*
X63663500Y48545096D02*
X63711119Y48443906D01*
X63711119Y48443906D02*
X63711119Y48253429D01*
X63711119Y48253429D02*
X63663500Y48164144D01*
X63663500Y48164144D02*
X63568261Y48128429D01*
X63568261Y48128429D02*
X63187309Y48176048D01*
X63187309Y48176048D02*
X63092071Y48235572D01*
X63092071Y48235572D02*
X63044452Y48336763D01*
X63044452Y48336763D02*
X63044452Y48527239D01*
X63044452Y48527239D02*
X63092071Y48616525D01*
X63092071Y48616525D02*
X63187309Y48652239D01*
X63187309Y48652239D02*
X63282547Y48640334D01*
X63282547Y48640334D02*
X63377785Y48152239D01*
X63711119Y49015334D02*
X63044452Y49098668D01*
X63234928Y49074858D02*
X63139690Y49134382D01*
X63139690Y49134382D02*
X63092071Y49187953D01*
X63092071Y49187953D02*
X63044452Y49289144D01*
X63044452Y49289144D02*
X63044452Y49384382D01*
X63615880Y49646287D02*
X63663500Y49687954D01*
X63663500Y49687954D02*
X63711119Y49634382D01*
X63711119Y49634382D02*
X63663500Y49592716D01*
X63663500Y49592716D02*
X63615880Y49646287D01*
X63615880Y49646287D02*
X63711119Y49634382D01*
X63663500Y50545096D02*
X63711119Y50443906D01*
X63711119Y50443906D02*
X63711119Y50253429D01*
X63711119Y50253429D02*
X63663500Y50164144D01*
X63663500Y50164144D02*
X63615880Y50122477D01*
X63615880Y50122477D02*
X63520642Y50086763D01*
X63520642Y50086763D02*
X63234928Y50122477D01*
X63234928Y50122477D02*
X63139690Y50182001D01*
X63139690Y50182001D02*
X63092071Y50235572D01*
X63092071Y50235572D02*
X63044452Y50336763D01*
X63044452Y50336763D02*
X63044452Y50527239D01*
X63044452Y50527239D02*
X63092071Y50616525D01*
X63711119Y51110572D02*
X63663500Y51021287D01*
X63663500Y51021287D02*
X63615880Y50979620D01*
X63615880Y50979620D02*
X63520642Y50943906D01*
X63520642Y50943906D02*
X63234928Y50979620D01*
X63234928Y50979620D02*
X63139690Y51039144D01*
X63139690Y51039144D02*
X63092071Y51092715D01*
X63092071Y51092715D02*
X63044452Y51193906D01*
X63044452Y51193906D02*
X63044452Y51336763D01*
X63044452Y51336763D02*
X63092071Y51426049D01*
X63092071Y51426049D02*
X63139690Y51467715D01*
X63139690Y51467715D02*
X63234928Y51503430D01*
X63234928Y51503430D02*
X63520642Y51467715D01*
X63520642Y51467715D02*
X63615880Y51408192D01*
X63615880Y51408192D02*
X63663500Y51354620D01*
X63663500Y51354620D02*
X63711119Y51253430D01*
X63711119Y51253430D02*
X63711119Y51110572D01*
X63711119Y51872477D02*
X63044452Y51955811D01*
X63139690Y51943906D02*
X63092071Y51997477D01*
X63092071Y51997477D02*
X63044452Y52098668D01*
X63044452Y52098668D02*
X63044452Y52241525D01*
X63044452Y52241525D02*
X63092071Y52330811D01*
X63092071Y52330811D02*
X63187309Y52366525D01*
X63187309Y52366525D02*
X63711119Y52301049D01*
X63187309Y52366525D02*
X63092071Y52426049D01*
X63092071Y52426049D02*
X63044452Y52527239D01*
X63044452Y52527239D02*
X63044452Y52670096D01*
X63044452Y52670096D02*
X63092071Y52759382D01*
X63092071Y52759382D02*
X63187309Y52795096D01*
X63187309Y52795096D02*
X63711119Y52729620D01*
X62663500Y54051048D02*
X63949214Y53033191D01*
X63711119Y54682001D02*
X63187309Y54747477D01*
X63187309Y54747477D02*
X63092071Y54711763D01*
X63092071Y54711763D02*
X63044452Y54622477D01*
X63044452Y54622477D02*
X63044452Y54432001D01*
X63044452Y54432001D02*
X63092071Y54330810D01*
X63663500Y54687953D02*
X63711119Y54586763D01*
X63711119Y54586763D02*
X63711119Y54348667D01*
X63711119Y54348667D02*
X63663500Y54259382D01*
X63663500Y54259382D02*
X63568261Y54223667D01*
X63568261Y54223667D02*
X63473023Y54235572D01*
X63473023Y54235572D02*
X63377785Y54295096D01*
X63377785Y54295096D02*
X63330166Y54396286D01*
X63330166Y54396286D02*
X63330166Y54634382D01*
X63330166Y54634382D02*
X63282547Y54735572D01*
X63711119Y55158191D02*
X62711119Y55283191D01*
X63330166Y55301048D02*
X63711119Y55539144D01*
X63044452Y55622477D02*
X63425404Y55193906D01*
X63711119Y55967715D02*
X63044452Y56051049D01*
X62711119Y56092715D02*
X62758738Y56039144D01*
X62758738Y56039144D02*
X62806357Y56080811D01*
X62806357Y56080811D02*
X62758738Y56134382D01*
X62758738Y56134382D02*
X62711119Y56092715D01*
X62711119Y56092715D02*
X62806357Y56080811D01*
X63711119Y56443905D02*
X62711119Y56568905D01*
X63711119Y56872477D02*
X63187309Y56937953D01*
X63187309Y56937953D02*
X63092071Y56902239D01*
X63092071Y56902239D02*
X63044452Y56812953D01*
X63044452Y56812953D02*
X63044452Y56670096D01*
X63044452Y56670096D02*
X63092071Y56568905D01*
X63092071Y56568905D02*
X63139690Y56515334D01*
X63806357Y57098667D02*
X63806357Y57860572D01*
X63663500Y58068906D02*
X63711119Y58158191D01*
X63711119Y58158191D02*
X63711119Y58348668D01*
X63711119Y58348668D02*
X63663500Y58449858D01*
X63663500Y58449858D02*
X63568261Y58509382D01*
X63568261Y58509382D02*
X63520642Y58515334D01*
X63520642Y58515334D02*
X63425404Y58479620D01*
X63425404Y58479620D02*
X63377785Y58390334D01*
X63377785Y58390334D02*
X63377785Y58247477D01*
X63377785Y58247477D02*
X63330166Y58158191D01*
X63330166Y58158191D02*
X63234928Y58122477D01*
X63234928Y58122477D02*
X63187309Y58128429D01*
X63187309Y58128429D02*
X63092071Y58187953D01*
X63092071Y58187953D02*
X63044452Y58289144D01*
X63044452Y58289144D02*
X63044452Y58432001D01*
X63044452Y58432001D02*
X63092071Y58521287D01*
X63711119Y59348668D02*
X63187309Y59414144D01*
X63187309Y59414144D02*
X63092071Y59378430D01*
X63092071Y59378430D02*
X63044452Y59289144D01*
X63044452Y59289144D02*
X63044452Y59098668D01*
X63044452Y59098668D02*
X63092071Y58997477D01*
X63663500Y59354620D02*
X63711119Y59253430D01*
X63711119Y59253430D02*
X63711119Y59015334D01*
X63711119Y59015334D02*
X63663500Y58926049D01*
X63663500Y58926049D02*
X63568261Y58890334D01*
X63568261Y58890334D02*
X63473023Y58902239D01*
X63473023Y58902239D02*
X63377785Y58961763D01*
X63377785Y58961763D02*
X63330166Y59062953D01*
X63330166Y59062953D02*
X63330166Y59301049D01*
X63330166Y59301049D02*
X63282547Y59402239D01*
X63044452Y59908192D02*
X63711119Y59824858D01*
X63139690Y59896287D02*
X63092071Y59949858D01*
X63092071Y59949858D02*
X63044452Y60051049D01*
X63044452Y60051049D02*
X63044452Y60193906D01*
X63044452Y60193906D02*
X63092071Y60283192D01*
X63092071Y60283192D02*
X63187309Y60318906D01*
X63187309Y60318906D02*
X63711119Y60253430D01*
D12*
X2264786Y15278130D02*
X2188596Y15316225D01*
X2188596Y15316225D02*
X2074310Y15316225D01*
X2074310Y15316225D02*
X1960024Y15278130D01*
X1960024Y15278130D02*
X1883834Y15201940D01*
X1883834Y15201940D02*
X1845739Y15125749D01*
X1845739Y15125749D02*
X1807643Y14973368D01*
X1807643Y14973368D02*
X1807643Y14859082D01*
X1807643Y14859082D02*
X1845739Y14706701D01*
X1845739Y14706701D02*
X1883834Y14630511D01*
X1883834Y14630511D02*
X1960024Y14554320D01*
X1960024Y14554320D02*
X2074310Y14516225D01*
X2074310Y14516225D02*
X2150501Y14516225D01*
X2150501Y14516225D02*
X2264786Y14554320D01*
X2264786Y14554320D02*
X2302882Y14592416D01*
X2302882Y14592416D02*
X2302882Y14859082D01*
X2302882Y14859082D02*
X2150501Y14859082D01*
X2645739Y14516225D02*
X2645739Y15316225D01*
X2645739Y15316225D02*
X3102882Y14516225D01*
X3102882Y14516225D02*
X3102882Y15316225D01*
X3483834Y14516225D02*
X3483834Y15316225D01*
X3483834Y15316225D02*
X3674310Y15316225D01*
X3674310Y15316225D02*
X3788596Y15278130D01*
X3788596Y15278130D02*
X3864786Y15201940D01*
X3864786Y15201940D02*
X3902881Y15125749D01*
X3902881Y15125749D02*
X3940977Y14973368D01*
X3940977Y14973368D02*
X3940977Y14859082D01*
X3940977Y14859082D02*
X3902881Y14706701D01*
X3902881Y14706701D02*
X3864786Y14630511D01*
X3864786Y14630511D02*
X3788596Y14554320D01*
X3788596Y14554320D02*
X3674310Y14516225D01*
X3674310Y14516225D02*
X3483834Y14516225D01*
X1721453Y17966225D02*
X1988120Y17166225D01*
X1988120Y17166225D02*
X2254786Y17966225D01*
X2978596Y17242416D02*
X2940500Y17204320D01*
X2940500Y17204320D02*
X2826215Y17166225D01*
X2826215Y17166225D02*
X2750024Y17166225D01*
X2750024Y17166225D02*
X2635738Y17204320D01*
X2635738Y17204320D02*
X2559548Y17280511D01*
X2559548Y17280511D02*
X2521453Y17356701D01*
X2521453Y17356701D02*
X2483357Y17509082D01*
X2483357Y17509082D02*
X2483357Y17623368D01*
X2483357Y17623368D02*
X2521453Y17775749D01*
X2521453Y17775749D02*
X2559548Y17851940D01*
X2559548Y17851940D02*
X2635738Y17928130D01*
X2635738Y17928130D02*
X2750024Y17966225D01*
X2750024Y17966225D02*
X2826215Y17966225D01*
X2826215Y17966225D02*
X2940500Y17928130D01*
X2940500Y17928130D02*
X2978596Y17890035D01*
X3778596Y17242416D02*
X3740500Y17204320D01*
X3740500Y17204320D02*
X3626215Y17166225D01*
X3626215Y17166225D02*
X3550024Y17166225D01*
X3550024Y17166225D02*
X3435738Y17204320D01*
X3435738Y17204320D02*
X3359548Y17280511D01*
X3359548Y17280511D02*
X3321453Y17356701D01*
X3321453Y17356701D02*
X3283357Y17509082D01*
X3283357Y17509082D02*
X3283357Y17623368D01*
X3283357Y17623368D02*
X3321453Y17775749D01*
X3321453Y17775749D02*
X3359548Y17851940D01*
X3359548Y17851940D02*
X3435738Y17928130D01*
X3435738Y17928130D02*
X3550024Y17966225D01*
X3550024Y17966225D02*
X3626215Y17966225D01*
X3626215Y17966225D02*
X3740500Y17928130D01*
X3740500Y17928130D02*
X3778596Y17890035D01*
D11*
X4608771Y62699614D02*
X5142105Y62699614D01*
X4875438Y62432947D02*
X4875438Y62966280D01*
X5808772Y63132947D02*
X5475438Y63132947D01*
X5475438Y63132947D02*
X5442105Y62799614D01*
X5442105Y62799614D02*
X5475438Y62832947D01*
X5475438Y62832947D02*
X5542105Y62866280D01*
X5542105Y62866280D02*
X5708772Y62866280D01*
X5708772Y62866280D02*
X5775438Y62832947D01*
X5775438Y62832947D02*
X5808772Y62799614D01*
X5808772Y62799614D02*
X5842105Y62732947D01*
X5842105Y62732947D02*
X5842105Y62566280D01*
X5842105Y62566280D02*
X5808772Y62499614D01*
X5808772Y62499614D02*
X5775438Y62466280D01*
X5775438Y62466280D02*
X5708772Y62432947D01*
X5708772Y62432947D02*
X5542105Y62432947D01*
X5542105Y62432947D02*
X5475438Y62466280D01*
X5475438Y62466280D02*
X5442105Y62499614D01*
X6042105Y63132947D02*
X6275439Y62432947D01*
X6275439Y62432947D02*
X6508772Y63132947D01*
D16*
X43030476Y14145105D02*
X43030476Y13497486D01*
X43030476Y13497486D02*
X43068571Y13421296D01*
X43068571Y13421296D02*
X43106666Y13383200D01*
X43106666Y13383200D02*
X43182857Y13345105D01*
X43182857Y13345105D02*
X43335238Y13345105D01*
X43335238Y13345105D02*
X43411428Y13383200D01*
X43411428Y13383200D02*
X43449523Y13421296D01*
X43449523Y13421296D02*
X43487619Y13497486D01*
X43487619Y13497486D02*
X43487619Y14145105D01*
X44287618Y13345105D02*
X43830475Y13345105D01*
X44059047Y13345105D02*
X44059047Y14145105D01*
X44059047Y14145105D02*
X43982856Y14030820D01*
X43982856Y14030820D02*
X43906666Y13954629D01*
X43906666Y13954629D02*
X43830475Y13916534D01*
D17*
X5350000Y51399493D02*
X5350000Y50756636D01*
X5350000Y50756636D02*
X5307143Y50628065D01*
X5307143Y50628065D02*
X5221429Y50542350D01*
X5221429Y50542350D02*
X5092857Y50499493D01*
X5092857Y50499493D02*
X5007143Y50499493D01*
X5692857Y51399493D02*
X6250000Y51399493D01*
X6250000Y51399493D02*
X5950000Y51056636D01*
X5950000Y51056636D02*
X6078571Y51056636D01*
X6078571Y51056636D02*
X6164286Y51013779D01*
X6164286Y51013779D02*
X6207143Y50970922D01*
X6207143Y50970922D02*
X6250000Y50885208D01*
X6250000Y50885208D02*
X6250000Y50670922D01*
X6250000Y50670922D02*
X6207143Y50585208D01*
X6207143Y50585208D02*
X6164286Y50542350D01*
X6164286Y50542350D02*
X6078571Y50499493D01*
X6078571Y50499493D02*
X5821428Y50499493D01*
X5821428Y50499493D02*
X5735714Y50542350D01*
X5735714Y50542350D02*
X5692857Y50585208D01*
D13*
X2229523Y29935181D02*
X1896190Y30411372D01*
X1658095Y29935181D02*
X1658095Y30935181D01*
X1658095Y30935181D02*
X2039047Y30935181D01*
X2039047Y30935181D02*
X2134285Y30887562D01*
X2134285Y30887562D02*
X2181904Y30839943D01*
X2181904Y30839943D02*
X2229523Y30744705D01*
X2229523Y30744705D02*
X2229523Y30601848D01*
X2229523Y30601848D02*
X2181904Y30506610D01*
X2181904Y30506610D02*
X2134285Y30458991D01*
X2134285Y30458991D02*
X2039047Y30411372D01*
X2039047Y30411372D02*
X1658095Y30411372D01*
X2658095Y29935181D02*
X2658095Y30935181D01*
X2658095Y30935181D02*
X3229523Y29935181D01*
X3229523Y29935181D02*
X3229523Y30935181D01*
X4229523Y29935181D02*
X3658095Y29935181D01*
X3943809Y29935181D02*
X3943809Y30935181D01*
X3943809Y30935181D02*
X3848571Y30792324D01*
X3848571Y30792324D02*
X3753333Y30697086D01*
X3753333Y30697086D02*
X3658095Y30649467D01*
X30526666Y6285181D02*
X30526666Y5570896D01*
X30526666Y5570896D02*
X30479047Y5428039D01*
X30479047Y5428039D02*
X30383809Y5332800D01*
X30383809Y5332800D02*
X30240952Y5285181D01*
X30240952Y5285181D02*
X30145714Y5285181D01*
X31431428Y5951848D02*
X31431428Y5285181D01*
X31193333Y6332800D02*
X30955238Y5618515D01*
X30955238Y5618515D02*
X31574285Y5618515D01*
D11*
X7356666Y64823447D02*
X7356666Y64323447D01*
X7356666Y64323447D02*
X7323333Y64223447D01*
X7323333Y64223447D02*
X7256666Y64156780D01*
X7256666Y64156780D02*
X7156666Y64123447D01*
X7156666Y64123447D02*
X7090000Y64123447D01*
X7989999Y64823447D02*
X7856666Y64823447D01*
X7856666Y64823447D02*
X7789999Y64790114D01*
X7789999Y64790114D02*
X7756666Y64756780D01*
X7756666Y64756780D02*
X7689999Y64656780D01*
X7689999Y64656780D02*
X7656666Y64523447D01*
X7656666Y64523447D02*
X7656666Y64256780D01*
X7656666Y64256780D02*
X7689999Y64190114D01*
X7689999Y64190114D02*
X7723333Y64156780D01*
X7723333Y64156780D02*
X7789999Y64123447D01*
X7789999Y64123447D02*
X7923333Y64123447D01*
X7923333Y64123447D02*
X7989999Y64156780D01*
X7989999Y64156780D02*
X8023333Y64190114D01*
X8023333Y64190114D02*
X8056666Y64256780D01*
X8056666Y64256780D02*
X8056666Y64423447D01*
X8056666Y64423447D02*
X8023333Y64490114D01*
X8023333Y64490114D02*
X7989999Y64523447D01*
X7989999Y64523447D02*
X7923333Y64556780D01*
X7923333Y64556780D02*
X7789999Y64556780D01*
X7789999Y64556780D02*
X7723333Y64523447D01*
X7723333Y64523447D02*
X7689999Y64490114D01*
X7689999Y64490114D02*
X7656666Y64423447D01*
D13*
X59543333Y64950420D02*
X59495714Y64902800D01*
X59495714Y64902800D02*
X59352857Y64855181D01*
X59352857Y64855181D02*
X59257619Y64855181D01*
X59257619Y64855181D02*
X59114762Y64902800D01*
X59114762Y64902800D02*
X59019524Y64998039D01*
X59019524Y64998039D02*
X58971905Y65093277D01*
X58971905Y65093277D02*
X58924286Y65283753D01*
X58924286Y65283753D02*
X58924286Y65426610D01*
X58924286Y65426610D02*
X58971905Y65617086D01*
X58971905Y65617086D02*
X59019524Y65712324D01*
X59019524Y65712324D02*
X59114762Y65807562D01*
X59114762Y65807562D02*
X59257619Y65855181D01*
X59257619Y65855181D02*
X59352857Y65855181D01*
X59352857Y65855181D02*
X59495714Y65807562D01*
X59495714Y65807562D02*
X59543333Y65759943D01*
X60400476Y65521848D02*
X60400476Y64855181D01*
X60162381Y65902800D02*
X59924286Y65188515D01*
X59924286Y65188515D02*
X60543333Y65188515D01*
X14261905Y65355181D02*
X14261905Y66355181D01*
X14261905Y66355181D02*
X14500000Y66355181D01*
X14500000Y66355181D02*
X14642857Y66307562D01*
X14642857Y66307562D02*
X14738095Y66212324D01*
X14738095Y66212324D02*
X14785714Y66117086D01*
X14785714Y66117086D02*
X14833333Y65926610D01*
X14833333Y65926610D02*
X14833333Y65783753D01*
X14833333Y65783753D02*
X14785714Y65593277D01*
X14785714Y65593277D02*
X14738095Y65498039D01*
X14738095Y65498039D02*
X14642857Y65402800D01*
X14642857Y65402800D02*
X14500000Y65355181D01*
X14500000Y65355181D02*
X14261905Y65355181D01*
X15785714Y65355181D02*
X15214286Y65355181D01*
X15500000Y65355181D02*
X15500000Y66355181D01*
X15500000Y66355181D02*
X15404762Y66212324D01*
X15404762Y66212324D02*
X15309524Y66117086D01*
X15309524Y66117086D02*
X15214286Y66069467D01*
X10278095Y64345181D02*
X10278095Y65345181D01*
X10849523Y64345181D02*
X10420952Y64916610D01*
X10849523Y65345181D02*
X10278095Y64773753D01*
X56391905Y615181D02*
X56391905Y1615181D01*
X56391905Y1615181D02*
X56630000Y1615181D01*
X56630000Y1615181D02*
X56772857Y1567562D01*
X56772857Y1567562D02*
X56868095Y1472324D01*
X56868095Y1472324D02*
X56915714Y1377086D01*
X56915714Y1377086D02*
X56963333Y1186610D01*
X56963333Y1186610D02*
X56963333Y1043753D01*
X56963333Y1043753D02*
X56915714Y853277D01*
X56915714Y853277D02*
X56868095Y758039D01*
X56868095Y758039D02*
X56772857Y662800D01*
X56772857Y662800D02*
X56630000Y615181D01*
X56630000Y615181D02*
X56391905Y615181D01*
X57344286Y1519943D02*
X57391905Y1567562D01*
X57391905Y1567562D02*
X57487143Y1615181D01*
X57487143Y1615181D02*
X57725238Y1615181D01*
X57725238Y1615181D02*
X57820476Y1567562D01*
X57820476Y1567562D02*
X57868095Y1519943D01*
X57868095Y1519943D02*
X57915714Y1424705D01*
X57915714Y1424705D02*
X57915714Y1329467D01*
X57915714Y1329467D02*
X57868095Y1186610D01*
X57868095Y1186610D02*
X57296667Y615181D01*
X57296667Y615181D02*
X57915714Y615181D01*
X35378095Y29565181D02*
X35378095Y28755658D01*
X35378095Y28755658D02*
X35425714Y28660420D01*
X35425714Y28660420D02*
X35473333Y28612800D01*
X35473333Y28612800D02*
X35568571Y28565181D01*
X35568571Y28565181D02*
X35759047Y28565181D01*
X35759047Y28565181D02*
X35854285Y28612800D01*
X35854285Y28612800D02*
X35901904Y28660420D01*
X35901904Y28660420D02*
X35949523Y28755658D01*
X35949523Y28755658D02*
X35949523Y29565181D01*
X36330476Y29565181D02*
X36949523Y29565181D01*
X36949523Y29565181D02*
X36616190Y29184229D01*
X36616190Y29184229D02*
X36759047Y29184229D01*
X36759047Y29184229D02*
X36854285Y29136610D01*
X36854285Y29136610D02*
X36901904Y29088991D01*
X36901904Y29088991D02*
X36949523Y28993753D01*
X36949523Y28993753D02*
X36949523Y28755658D01*
X36949523Y28755658D02*
X36901904Y28660420D01*
X36901904Y28660420D02*
X36854285Y28612800D01*
X36854285Y28612800D02*
X36759047Y28565181D01*
X36759047Y28565181D02*
X36473333Y28565181D01*
X36473333Y28565181D02*
X36378095Y28612800D01*
X36378095Y28612800D02*
X36330476Y28660420D01*
X50623333Y6750420D02*
X50575714Y6702800D01*
X50575714Y6702800D02*
X50432857Y6655181D01*
X50432857Y6655181D02*
X50337619Y6655181D01*
X50337619Y6655181D02*
X50194762Y6702800D01*
X50194762Y6702800D02*
X50099524Y6798039D01*
X50099524Y6798039D02*
X50051905Y6893277D01*
X50051905Y6893277D02*
X50004286Y7083753D01*
X50004286Y7083753D02*
X50004286Y7226610D01*
X50004286Y7226610D02*
X50051905Y7417086D01*
X50051905Y7417086D02*
X50099524Y7512324D01*
X50099524Y7512324D02*
X50194762Y7607562D01*
X50194762Y7607562D02*
X50337619Y7655181D01*
X50337619Y7655181D02*
X50432857Y7655181D01*
X50432857Y7655181D02*
X50575714Y7607562D01*
X50575714Y7607562D02*
X50623333Y7559943D01*
X51528095Y7655181D02*
X51051905Y7655181D01*
X51051905Y7655181D02*
X51004286Y7178991D01*
X51004286Y7178991D02*
X51051905Y7226610D01*
X51051905Y7226610D02*
X51147143Y7274229D01*
X51147143Y7274229D02*
X51385238Y7274229D01*
X51385238Y7274229D02*
X51480476Y7226610D01*
X51480476Y7226610D02*
X51528095Y7178991D01*
X51528095Y7178991D02*
X51575714Y7083753D01*
X51575714Y7083753D02*
X51575714Y6845658D01*
X51575714Y6845658D02*
X51528095Y6750420D01*
X51528095Y6750420D02*
X51480476Y6702800D01*
X51480476Y6702800D02*
X51385238Y6655181D01*
X51385238Y6655181D02*
X51147143Y6655181D01*
X51147143Y6655181D02*
X51051905Y6702800D01*
X51051905Y6702800D02*
X51004286Y6750420D01*
X41593333Y31460420D02*
X41545714Y31412800D01*
X41545714Y31412800D02*
X41402857Y31365181D01*
X41402857Y31365181D02*
X41307619Y31365181D01*
X41307619Y31365181D02*
X41164762Y31412800D01*
X41164762Y31412800D02*
X41069524Y31508039D01*
X41069524Y31508039D02*
X41021905Y31603277D01*
X41021905Y31603277D02*
X40974286Y31793753D01*
X40974286Y31793753D02*
X40974286Y31936610D01*
X40974286Y31936610D02*
X41021905Y32127086D01*
X41021905Y32127086D02*
X41069524Y32222324D01*
X41069524Y32222324D02*
X41164762Y32317562D01*
X41164762Y32317562D02*
X41307619Y32365181D01*
X41307619Y32365181D02*
X41402857Y32365181D01*
X41402857Y32365181D02*
X41545714Y32317562D01*
X41545714Y32317562D02*
X41593333Y32269943D01*
X41926667Y32365181D02*
X42545714Y32365181D01*
X42545714Y32365181D02*
X42212381Y31984229D01*
X42212381Y31984229D02*
X42355238Y31984229D01*
X42355238Y31984229D02*
X42450476Y31936610D01*
X42450476Y31936610D02*
X42498095Y31888991D01*
X42498095Y31888991D02*
X42545714Y31793753D01*
X42545714Y31793753D02*
X42545714Y31555658D01*
X42545714Y31555658D02*
X42498095Y31460420D01*
X42498095Y31460420D02*
X42450476Y31412800D01*
X42450476Y31412800D02*
X42355238Y31365181D01*
X42355238Y31365181D02*
X42069524Y31365181D01*
X42069524Y31365181D02*
X41974286Y31412800D01*
X41974286Y31412800D02*
X41926667Y31460420D01*
X25728333Y65125420D02*
X25680714Y65077800D01*
X25680714Y65077800D02*
X25537857Y65030181D01*
X25537857Y65030181D02*
X25442619Y65030181D01*
X25442619Y65030181D02*
X25299762Y65077800D01*
X25299762Y65077800D02*
X25204524Y65173039D01*
X25204524Y65173039D02*
X25156905Y65268277D01*
X25156905Y65268277D02*
X25109286Y65458753D01*
X25109286Y65458753D02*
X25109286Y65601610D01*
X25109286Y65601610D02*
X25156905Y65792086D01*
X25156905Y65792086D02*
X25204524Y65887324D01*
X25204524Y65887324D02*
X25299762Y65982562D01*
X25299762Y65982562D02*
X25442619Y66030181D01*
X25442619Y66030181D02*
X25537857Y66030181D01*
X25537857Y66030181D02*
X25680714Y65982562D01*
X25680714Y65982562D02*
X25728333Y65934943D01*
X26680714Y65030181D02*
X26109286Y65030181D01*
X26395000Y65030181D02*
X26395000Y66030181D01*
X26395000Y66030181D02*
X26299762Y65887324D01*
X26299762Y65887324D02*
X26204524Y65792086D01*
X26204524Y65792086D02*
X26109286Y65744467D01*
X52658095Y62915181D02*
X52658095Y62105658D01*
X52658095Y62105658D02*
X52705714Y62010420D01*
X52705714Y62010420D02*
X52753333Y61962800D01*
X52753333Y61962800D02*
X52848571Y61915181D01*
X52848571Y61915181D02*
X53039047Y61915181D01*
X53039047Y61915181D02*
X53134285Y61962800D01*
X53134285Y61962800D02*
X53181904Y62010420D01*
X53181904Y62010420D02*
X53229523Y62105658D01*
X53229523Y62105658D02*
X53229523Y62915181D01*
X54134285Y62581848D02*
X54134285Y61915181D01*
X53896190Y62962800D02*
X53658095Y62248515D01*
X53658095Y62248515D02*
X54277142Y62248515D01*
X18918095Y62815181D02*
X18918095Y62005658D01*
X18918095Y62005658D02*
X18965714Y61910420D01*
X18965714Y61910420D02*
X19013333Y61862800D01*
X19013333Y61862800D02*
X19108571Y61815181D01*
X19108571Y61815181D02*
X19299047Y61815181D01*
X19299047Y61815181D02*
X19394285Y61862800D01*
X19394285Y61862800D02*
X19441904Y61910420D01*
X19441904Y61910420D02*
X19489523Y62005658D01*
X19489523Y62005658D02*
X19489523Y62815181D01*
X20441904Y62815181D02*
X19965714Y62815181D01*
X19965714Y62815181D02*
X19918095Y62338991D01*
X19918095Y62338991D02*
X19965714Y62386610D01*
X19965714Y62386610D02*
X20060952Y62434229D01*
X20060952Y62434229D02*
X20299047Y62434229D01*
X20299047Y62434229D02*
X20394285Y62386610D01*
X20394285Y62386610D02*
X20441904Y62338991D01*
X20441904Y62338991D02*
X20489523Y62243753D01*
X20489523Y62243753D02*
X20489523Y62005658D01*
X20489523Y62005658D02*
X20441904Y61910420D01*
X20441904Y61910420D02*
X20394285Y61862800D01*
X20394285Y61862800D02*
X20299047Y61815181D01*
X20299047Y61815181D02*
X20060952Y61815181D01*
X20060952Y61815181D02*
X19965714Y61862800D01*
X19965714Y61862800D02*
X19918095Y61910420D01*
X2119523Y42915181D02*
X1786190Y43391372D01*
X1548095Y42915181D02*
X1548095Y43915181D01*
X1548095Y43915181D02*
X1929047Y43915181D01*
X1929047Y43915181D02*
X2024285Y43867562D01*
X2024285Y43867562D02*
X2071904Y43819943D01*
X2071904Y43819943D02*
X2119523Y43724705D01*
X2119523Y43724705D02*
X2119523Y43581848D01*
X2119523Y43581848D02*
X2071904Y43486610D01*
X2071904Y43486610D02*
X2024285Y43438991D01*
X2024285Y43438991D02*
X1929047Y43391372D01*
X1929047Y43391372D02*
X1548095Y43391372D01*
X2548095Y42915181D02*
X2548095Y43915181D01*
X2548095Y43915181D02*
X3119523Y42915181D01*
X3119523Y42915181D02*
X3119523Y43915181D01*
X3548095Y43819943D02*
X3595714Y43867562D01*
X3595714Y43867562D02*
X3690952Y43915181D01*
X3690952Y43915181D02*
X3929047Y43915181D01*
X3929047Y43915181D02*
X4024285Y43867562D01*
X4024285Y43867562D02*
X4071904Y43819943D01*
X4071904Y43819943D02*
X4119523Y43724705D01*
X4119523Y43724705D02*
X4119523Y43629467D01*
X4119523Y43629467D02*
X4071904Y43486610D01*
X4071904Y43486610D02*
X3500476Y42915181D01*
X3500476Y42915181D02*
X4119523Y42915181D01*
X49393333Y1095181D02*
X49060000Y1571372D01*
X48821905Y1095181D02*
X48821905Y2095181D01*
X48821905Y2095181D02*
X49202857Y2095181D01*
X49202857Y2095181D02*
X49298095Y2047562D01*
X49298095Y2047562D02*
X49345714Y1999943D01*
X49345714Y1999943D02*
X49393333Y1904705D01*
X49393333Y1904705D02*
X49393333Y1761848D01*
X49393333Y1761848D02*
X49345714Y1666610D01*
X49345714Y1666610D02*
X49298095Y1618991D01*
X49298095Y1618991D02*
X49202857Y1571372D01*
X49202857Y1571372D02*
X48821905Y1571372D01*
X50345714Y1095181D02*
X49774286Y1095181D01*
X50060000Y1095181D02*
X50060000Y2095181D01*
X50060000Y2095181D02*
X49964762Y1952324D01*
X49964762Y1952324D02*
X49869524Y1857086D01*
X49869524Y1857086D02*
X49774286Y1809467D01*
X35448095Y62955181D02*
X35448095Y62145658D01*
X35448095Y62145658D02*
X35495714Y62050420D01*
X35495714Y62050420D02*
X35543333Y62002800D01*
X35543333Y62002800D02*
X35638571Y61955181D01*
X35638571Y61955181D02*
X35829047Y61955181D01*
X35829047Y61955181D02*
X35924285Y62002800D01*
X35924285Y62002800D02*
X35971904Y62050420D01*
X35971904Y62050420D02*
X36019523Y62145658D01*
X36019523Y62145658D02*
X36019523Y62955181D01*
X36448095Y62859943D02*
X36495714Y62907562D01*
X36495714Y62907562D02*
X36590952Y62955181D01*
X36590952Y62955181D02*
X36829047Y62955181D01*
X36829047Y62955181D02*
X36924285Y62907562D01*
X36924285Y62907562D02*
X36971904Y62859943D01*
X36971904Y62859943D02*
X37019523Y62764705D01*
X37019523Y62764705D02*
X37019523Y62669467D01*
X37019523Y62669467D02*
X36971904Y62526610D01*
X36971904Y62526610D02*
X36400476Y61955181D01*
X36400476Y61955181D02*
X37019523Y61955181D01*
X5436666Y5295181D02*
X5436666Y4580896D01*
X5436666Y4580896D02*
X5389047Y4438039D01*
X5389047Y4438039D02*
X5293809Y4342800D01*
X5293809Y4342800D02*
X5150952Y4295181D01*
X5150952Y4295181D02*
X5055714Y4295181D01*
X6389047Y5295181D02*
X5912857Y5295181D01*
X5912857Y5295181D02*
X5865238Y4818991D01*
X5865238Y4818991D02*
X5912857Y4866610D01*
X5912857Y4866610D02*
X6008095Y4914229D01*
X6008095Y4914229D02*
X6246190Y4914229D01*
X6246190Y4914229D02*
X6341428Y4866610D01*
X6341428Y4866610D02*
X6389047Y4818991D01*
X6389047Y4818991D02*
X6436666Y4723753D01*
X6436666Y4723753D02*
X6436666Y4485658D01*
X6436666Y4485658D02*
X6389047Y4390420D01*
X6389047Y4390420D02*
X6341428Y4342800D01*
X6341428Y4342800D02*
X6246190Y4295181D01*
X6246190Y4295181D02*
X6008095Y4295181D01*
X6008095Y4295181D02*
X5912857Y4342800D01*
X5912857Y4342800D02*
X5865238Y4390420D01*
X39443333Y65180420D02*
X39395714Y65132800D01*
X39395714Y65132800D02*
X39252857Y65085181D01*
X39252857Y65085181D02*
X39157619Y65085181D01*
X39157619Y65085181D02*
X39014762Y65132800D01*
X39014762Y65132800D02*
X38919524Y65228039D01*
X38919524Y65228039D02*
X38871905Y65323277D01*
X38871905Y65323277D02*
X38824286Y65513753D01*
X38824286Y65513753D02*
X38824286Y65656610D01*
X38824286Y65656610D02*
X38871905Y65847086D01*
X38871905Y65847086D02*
X38919524Y65942324D01*
X38919524Y65942324D02*
X39014762Y66037562D01*
X39014762Y66037562D02*
X39157619Y66085181D01*
X39157619Y66085181D02*
X39252857Y66085181D01*
X39252857Y66085181D02*
X39395714Y66037562D01*
X39395714Y66037562D02*
X39443333Y65989943D01*
X39824286Y65989943D02*
X39871905Y66037562D01*
X39871905Y66037562D02*
X39967143Y66085181D01*
X39967143Y66085181D02*
X40205238Y66085181D01*
X40205238Y66085181D02*
X40300476Y66037562D01*
X40300476Y66037562D02*
X40348095Y65989943D01*
X40348095Y65989943D02*
X40395714Y65894705D01*
X40395714Y65894705D02*
X40395714Y65799467D01*
X40395714Y65799467D02*
X40348095Y65656610D01*
X40348095Y65656610D02*
X39776667Y65085181D01*
X39776667Y65085181D02*
X40395714Y65085181D01*
D16*
X9853333Y2155105D02*
X9853333Y1583677D01*
X9853333Y1583677D02*
X9815238Y1469391D01*
X9815238Y1469391D02*
X9739047Y1393200D01*
X9739047Y1393200D02*
X9624762Y1355105D01*
X9624762Y1355105D02*
X9548571Y1355105D01*
X10234286Y1355105D02*
X10234286Y2155105D01*
X10234286Y2155105D02*
X10539048Y2155105D01*
X10539048Y2155105D02*
X10615238Y2117010D01*
X10615238Y2117010D02*
X10653333Y2078915D01*
X10653333Y2078915D02*
X10691429Y2002724D01*
X10691429Y2002724D02*
X10691429Y1888439D01*
X10691429Y1888439D02*
X10653333Y1812248D01*
X10653333Y1812248D02*
X10615238Y1774153D01*
X10615238Y1774153D02*
X10539048Y1736058D01*
X10539048Y1736058D02*
X10234286Y1736058D01*
X11453333Y1355105D02*
X10996190Y1355105D01*
X11224762Y1355105D02*
X11224762Y2155105D01*
X11224762Y2155105D02*
X11148571Y2040820D01*
X11148571Y2040820D02*
X11072381Y1964629D01*
X11072381Y1964629D02*
X10996190Y1926534D01*
D13*
X29366666Y10285181D02*
X29366666Y9570896D01*
X29366666Y9570896D02*
X29319047Y9428039D01*
X29319047Y9428039D02*
X29223809Y9332800D01*
X29223809Y9332800D02*
X29080952Y9285181D01*
X29080952Y9285181D02*
X28985714Y9285181D01*
X29795238Y10189943D02*
X29842857Y10237562D01*
X29842857Y10237562D02*
X29938095Y10285181D01*
X29938095Y10285181D02*
X30176190Y10285181D01*
X30176190Y10285181D02*
X30271428Y10237562D01*
X30271428Y10237562D02*
X30319047Y10189943D01*
X30319047Y10189943D02*
X30366666Y10094705D01*
X30366666Y10094705D02*
X30366666Y9999467D01*
X30366666Y9999467D02*
X30319047Y9856610D01*
X30319047Y9856610D02*
X29747619Y9285181D01*
X29747619Y9285181D02*
X30366666Y9285181D01*
X9126666Y10215181D02*
X9126666Y9500896D01*
X9126666Y9500896D02*
X9079047Y9358039D01*
X9079047Y9358039D02*
X8983809Y9262800D01*
X8983809Y9262800D02*
X8840952Y9215181D01*
X8840952Y9215181D02*
X8745714Y9215181D01*
X10126666Y9215181D02*
X9555238Y9215181D01*
X9840952Y9215181D02*
X9840952Y10215181D01*
X9840952Y10215181D02*
X9745714Y10072324D01*
X9745714Y10072324D02*
X9650476Y9977086D01*
X9650476Y9977086D02*
X9555238Y9929467D01*
D14*
X44470000Y10890000D02*
X62370000Y10890000D01*
X62370000Y10890000D02*
X62370000Y16190000D01*
X44470000Y12540000D02*
X44470000Y10890000D01*
X44470000Y16190000D02*
X44470000Y14540000D01*
X62370000Y16190000D02*
X44470000Y16190000D01*
X44470000Y12540000D02*
G75*
G03*
X44470000Y14540000I0J1000000D01*
G01*
X7160000Y51760000D02*
X5830000Y51760000D01*
X7160000Y53090000D02*
X7160000Y51760000D01*
X7160000Y54360000D02*
X7160000Y59500000D01*
X7160000Y54360000D02*
X4500000Y54360000D01*
X7160000Y59500000D02*
X4500000Y59500000D01*
X4500000Y54360000D02*
X4500000Y59500000D01*
X7390000Y36210000D02*
X4590000Y36210000D01*
X4590000Y36210000D02*
X4590000Y23170000D01*
X7390000Y33500000D02*
X4590000Y33500000D01*
X7390000Y23170000D02*
X7390000Y36210000D01*
X4590000Y23170000D02*
X7390000Y23170000D01*
X29590000Y7160000D02*
X29590000Y5830000D01*
X28260000Y7160000D02*
X29590000Y7160000D01*
X26990000Y7160000D02*
X14230000Y7160000D01*
X26990000Y7160000D02*
X26990000Y4500000D01*
X14230000Y7160000D02*
X14230000Y4500000D01*
X26990000Y4500000D02*
X14230000Y4500000D01*
D13*
X6650000Y64070000D02*
X6150000Y63570000D01*
X6650000Y64870000D02*
X6650000Y64070000D01*
X6150000Y63570000D02*
X2550000Y63570000D01*
X6150000Y65370000D02*
X6650000Y64870000D01*
X2550000Y63570000D02*
X2050000Y64070000D01*
X2550000Y65370000D02*
X6150000Y65370000D01*
X2050000Y64070000D02*
X2050000Y64870000D01*
X2050000Y64870000D02*
X2550000Y65370000D01*
D14*
X62410000Y61790000D02*
X62410000Y64530000D01*
X62410000Y61790000D02*
X57170000Y61790000D01*
X62410000Y64530000D02*
X57170000Y64530000D01*
X57170000Y61790000D02*
X57170000Y64530000D01*
X13030000Y65050000D02*
X16470000Y65050000D01*
X13030000Y64870000D02*
X13030000Y65050000D01*
X13030000Y62390000D02*
X13030000Y62210000D01*
X13030000Y62210000D02*
X16470000Y62210000D01*
X13510000Y65050000D02*
X13510000Y62210000D01*
X13630000Y65050000D02*
X13630000Y62210000D01*
X13750000Y65050000D02*
X13750000Y62210000D01*
X16470000Y65050000D02*
X16470000Y64870000D01*
X16470000Y62210000D02*
X16470000Y62390000D01*
X58590000Y2714000D02*
X58590000Y2870000D01*
X58590000Y5030000D02*
X58590000Y5186000D01*
X55357666Y2871392D02*
G75*
G03*
X58589999Y2714485I1672334J1078608D01*
G01*
X55988871Y2870164D02*
G75*
G03*
X58070960Y2870001I1041129J1079836D01*
G01*
X58070960Y5029999D02*
G75*
G03*
X55988871Y5029836I-1040960J-1079999D01*
G01*
X58589999Y5185515D02*
G75*
G03*
X55357666Y5028608I-1559999J-1235515D01*
G01*
X35240000Y27905000D02*
X35240000Y2385000D01*
X35240000Y2385000D02*
X40540000Y2385000D01*
X36890000Y27905000D02*
X35240000Y27905000D01*
X40540000Y27905000D02*
X38890000Y27905000D01*
X40540000Y2385000D02*
X40540000Y27905000D01*
X36890000Y27905000D02*
G75*
G03*
X38890000Y27905000I1000000J0D01*
G01*
X44430000Y8410000D02*
X44430000Y5670000D01*
X44430000Y8410000D02*
X49670000Y8410000D01*
X44430000Y5670000D02*
X49670000Y5670000D01*
X49670000Y8410000D02*
X49670000Y5670000D01*
X43070000Y28310000D02*
X43070000Y31050000D01*
X43070000Y28310000D02*
X37830000Y28310000D01*
X43070000Y31050000D02*
X37830000Y31050000D01*
X37830000Y28310000D02*
X37830000Y31050000D01*
X28565000Y61915000D02*
X28565000Y64655000D01*
X28565000Y61915000D02*
X23325000Y61915000D01*
X28565000Y64655000D02*
X23325000Y64655000D01*
X23325000Y61915000D02*
X23325000Y64655000D01*
X46960000Y61370000D02*
X46960000Y20610000D01*
X46960000Y20610000D02*
X59880000Y20610000D01*
X52420000Y61370000D02*
X46960000Y61370000D01*
X59880000Y61370000D02*
X54420000Y61370000D01*
X59880000Y20610000D02*
X59880000Y61370000D01*
X52420000Y61370000D02*
G75*
G03*
X54420000Y61370000I1000000J0D01*
G01*
X13115000Y61495000D02*
X13115000Y10575000D01*
X13115000Y10575000D02*
X26035000Y10575000D01*
X18575000Y61495000D02*
X13115000Y61495000D01*
X26035000Y61495000D02*
X20575000Y61495000D01*
X26035000Y10575000D02*
X26035000Y61495000D01*
X18575000Y61495000D02*
G75*
G03*
X20575000Y61495000I1000000J0D01*
G01*
X4590000Y36780000D02*
X7390000Y36780000D01*
X7390000Y36780000D02*
X7390000Y49820000D01*
X4590000Y39490000D02*
X7390000Y39490000D01*
X4590000Y49820000D02*
X4590000Y36780000D01*
X7390000Y49820000D02*
X4590000Y49820000D01*
X46340000Y5320000D02*
X52880000Y5320000D01*
X46340000Y4990000D02*
X46340000Y5320000D01*
X46340000Y2910000D02*
X46340000Y2580000D01*
X46340000Y2580000D02*
X52880000Y2580000D01*
X52880000Y5320000D02*
X52880000Y4990000D01*
X52880000Y2580000D02*
X52880000Y2910000D01*
X35080000Y61410000D02*
X35080000Y35890000D01*
X35080000Y35890000D02*
X40380000Y35890000D01*
X36730000Y61410000D02*
X35080000Y61410000D01*
X40380000Y61410000D02*
X38730000Y61410000D01*
X40380000Y35890000D02*
X40380000Y61410000D01*
X36730000Y61410000D02*
G75*
G03*
X38730000Y61410000I1000000J0D01*
G01*
X7080000Y6090000D02*
X5750000Y6090000D01*
X7080000Y7420000D02*
X7080000Y6090000D01*
X7080000Y8690000D02*
X7080000Y18910000D01*
X7080000Y8690000D02*
X4420000Y8690000D01*
X7080000Y18910000D02*
X4420000Y18910000D01*
X4420000Y8690000D02*
X4420000Y18910000D01*
X42910000Y61830000D02*
X42910000Y64570000D01*
X42910000Y61830000D02*
X37670000Y61830000D01*
X42910000Y64570000D02*
X37670000Y64570000D01*
X37670000Y61830000D02*
X37670000Y64570000D01*
D13*
X8040367Y3807033D02*
X8540367Y4307033D01*
X8040367Y3007033D02*
X8040367Y3807033D01*
X8540367Y4307033D02*
X12140367Y4307033D01*
X8540367Y2507033D02*
X8040367Y3007033D01*
X12140367Y4307033D02*
X12640367Y3807033D01*
X12140367Y2507033D02*
X8540367Y2507033D01*
X12640367Y3807033D02*
X12640367Y3007033D01*
X12640367Y3007033D02*
X12140367Y2507033D01*
M02*
