%TF.GenerationSoftware,KiCad,Pcbnew,7.0.8*%
%TF.CreationDate,2024-05-03T21:11:10+09:00*%
%TF.ProjectId,MEZ88_RAM,4d455a38-385f-4524-914d-2e6b69636164,Rev 1.2*%
%TF.SameCoordinates,PX65317e4PY8319cac*%
%TF.FileFunction,Soldermask,Bot*%
%TF.FilePolarity,Negative*%
%FSLAX46Y46*%
G04 Gerber Fmt 4.6, Leading zero omitted, Abs format (unit mm)*
G04 Created by KiCad (PCBNEW 7.0.8) date 2024-05-03 21:11:10*
%MOMM*%
%LPD*%
G01*
G04 APERTURE LIST*
%ADD10R,1.600000X1.600000*%
%ADD11O,1.600000X1.600000*%
%ADD12R,1.700000X1.700000*%
%ADD13O,1.700000X1.700000*%
%ADD14C,1.400000*%
%ADD15C,1.600000*%
%ADD16R,2.000000X2.000000*%
%ADD17O,2.000000X2.000000*%
%ADD18R,1.800000X1.800000*%
%ADD19C,1.800000*%
%ADD20C,0.605000*%
G04 APERTURE END LIST*
D10*
X45800000Y9730000D03*
D11*
X48340000Y9730000D03*
X50880000Y9730000D03*
X53420000Y9730000D03*
X55960000Y9730000D03*
X58500000Y9730000D03*
X61040000Y9730000D03*
X61040000Y17350000D03*
X58500000Y17350000D03*
X55960000Y17350000D03*
X53420000Y17350000D03*
X50880000Y17350000D03*
X48340000Y17350000D03*
X45800000Y17350000D03*
D12*
X5830000Y53090000D03*
D13*
X5830000Y55630000D03*
X5830000Y58170000D03*
D10*
X5990000Y34770000D03*
D11*
X5990000Y32230000D03*
X5990000Y29690000D03*
X5990000Y27150000D03*
X5990000Y24610000D03*
D12*
X28260000Y5830000D03*
D13*
X25720000Y5830000D03*
X23180000Y5830000D03*
X20640000Y5830000D03*
X18100000Y5830000D03*
X15560000Y5830000D03*
D14*
X5620000Y64470000D03*
X3080000Y64470000D03*
D15*
X61040000Y63160000D03*
X58540000Y63160000D03*
D16*
X12210000Y63630000D03*
D17*
X17290000Y63630000D03*
D18*
X58300000Y3950000D03*
D19*
X55760000Y3950000D03*
D10*
X34080000Y26575000D03*
D11*
X34080000Y24035000D03*
X34080000Y21495000D03*
X34080000Y18955000D03*
X34080000Y16415000D03*
X34080000Y13875000D03*
X34080000Y11335000D03*
X34080000Y8795000D03*
X34080000Y6255000D03*
X34080000Y3715000D03*
X41700000Y3715000D03*
X41700000Y6255000D03*
X41700000Y8795000D03*
X41700000Y11335000D03*
X41700000Y13875000D03*
X41700000Y16415000D03*
X41700000Y18955000D03*
X41700000Y21495000D03*
X41700000Y24035000D03*
X41700000Y26575000D03*
D15*
X45800000Y7040000D03*
X48300000Y7040000D03*
X41700000Y29680000D03*
X39200000Y29680000D03*
X27195000Y63285000D03*
X24695000Y63285000D03*
D10*
X45800000Y60040000D03*
D11*
X45800000Y57500000D03*
X45800000Y54960000D03*
X45800000Y52420000D03*
X45800000Y49880000D03*
X45800000Y47340000D03*
X45800000Y44800000D03*
X45800000Y42260000D03*
X45800000Y39720000D03*
X45800000Y37180000D03*
X45800000Y34640000D03*
X45800000Y32100000D03*
X45800000Y29560000D03*
X45800000Y27020000D03*
X45800000Y24480000D03*
X45800000Y21940000D03*
X61040000Y21940000D03*
X61040000Y24480000D03*
X61040000Y27020000D03*
X61040000Y29560000D03*
X61040000Y32100000D03*
X61040000Y34640000D03*
X61040000Y37180000D03*
X61040000Y39720000D03*
X61040000Y42260000D03*
X61040000Y44800000D03*
X61040000Y47340000D03*
X61040000Y49880000D03*
X61040000Y52420000D03*
X61040000Y54960000D03*
X61040000Y57500000D03*
X61040000Y60040000D03*
D10*
X11955000Y60165000D03*
D11*
X11955000Y57625000D03*
X11955000Y55085000D03*
X11955000Y52545000D03*
X11955000Y50005000D03*
X11955000Y47465000D03*
X11955000Y44925000D03*
X11955000Y42385000D03*
X11955000Y39845000D03*
X11955000Y37305000D03*
X11955000Y34765000D03*
X11955000Y32225000D03*
X11955000Y29685000D03*
X11955000Y27145000D03*
X11955000Y24605000D03*
X11955000Y22065000D03*
X11955000Y19525000D03*
X11955000Y16985000D03*
X11955000Y14445000D03*
X11955000Y11905000D03*
X27195000Y11905000D03*
X27195000Y14445000D03*
X27195000Y16985000D03*
X27195000Y19525000D03*
X27195000Y22065000D03*
X27195000Y24605000D03*
X27195000Y27145000D03*
X27195000Y29685000D03*
X27195000Y32225000D03*
X27195000Y34765000D03*
X27195000Y37305000D03*
X27195000Y39845000D03*
X27195000Y42385000D03*
X27195000Y44925000D03*
X27195000Y47465000D03*
X27195000Y50005000D03*
X27195000Y52545000D03*
X27195000Y55085000D03*
X27195000Y57625000D03*
X27195000Y60165000D03*
D10*
X5990000Y38220000D03*
D11*
X5990000Y40760000D03*
X5990000Y43300000D03*
X5990000Y45840000D03*
X5990000Y48380000D03*
D15*
X45800000Y3950000D03*
D11*
X53420000Y3950000D03*
D10*
X33920000Y60080000D03*
D11*
X33920000Y57540000D03*
X33920000Y55000000D03*
X33920000Y52460000D03*
X33920000Y49920000D03*
X33920000Y47380000D03*
X33920000Y44840000D03*
X33920000Y42300000D03*
X33920000Y39760000D03*
X33920000Y37220000D03*
X41540000Y37220000D03*
X41540000Y39760000D03*
X41540000Y42300000D03*
X41540000Y44840000D03*
X41540000Y47380000D03*
X41540000Y49920000D03*
X41540000Y52460000D03*
X41540000Y55000000D03*
X41540000Y57540000D03*
X41540000Y60080000D03*
D12*
X5750000Y7420000D03*
D13*
X5750000Y9960000D03*
X5750000Y12500000D03*
X5750000Y15040000D03*
X5750000Y17580000D03*
D15*
X41540000Y63200000D03*
X39040000Y63200000D03*
D14*
X9070367Y3407033D03*
X11610367Y3407033D03*
D12*
X29735000Y60165000D03*
D13*
X29735000Y57625000D03*
X29735000Y55085000D03*
X29735000Y52545000D03*
X29735000Y50005000D03*
X29735000Y47465000D03*
X29735000Y44925000D03*
X29735000Y42385000D03*
X29735000Y39845000D03*
X29735000Y37305000D03*
X29735000Y34765000D03*
X29735000Y32225000D03*
X29735000Y29685000D03*
X29735000Y27145000D03*
X29735000Y24605000D03*
X29735000Y22065000D03*
X29735000Y19525000D03*
X29735000Y16985000D03*
X29735000Y14445000D03*
X29735000Y11905000D03*
D12*
X9415000Y60165000D03*
D13*
X9415000Y57625000D03*
X9415000Y55085000D03*
X9415000Y52545000D03*
X9415000Y50005000D03*
X9415000Y47465000D03*
X9415000Y44925000D03*
X9415000Y42385000D03*
X9415000Y39845000D03*
X9415000Y37305000D03*
X9415000Y34765000D03*
X9415000Y32225000D03*
X9415000Y29685000D03*
X9415000Y27145000D03*
X9415000Y24605000D03*
X9415000Y22065000D03*
X9415000Y19525000D03*
X9415000Y16985000D03*
X9415000Y14445000D03*
X9415000Y11905000D03*
D20*
X58710000Y33860000D03*
X58440000Y28330000D03*
X1770000Y1880000D03*
X27200000Y65630000D03*
X1770000Y34860000D03*
X45540026Y1880000D03*
X1770000Y19610000D03*
X21449989Y42390011D03*
X19270000Y1880000D03*
X41540000Y65630000D03*
X61040000Y65620000D03*
X21450000Y65630000D03*
X18100000Y14430000D03*
X14730000Y63550000D03*
X48970000Y47230000D03*
X45720000Y19340000D03*
X34065001Y32225001D03*
X16280000Y47420000D03*
X47550000Y13910000D03*
X31240000Y3580000D03*
X31650000Y26770000D03*
X25580000Y46350000D03*
X31590000Y29530000D03*
X43720000Y5000000D03*
X48510000Y26810000D03*
X58610000Y49670000D03*
X58900000Y24860000D03*
X21640000Y29880000D03*
X24695001Y59344999D03*
X63490000Y61480000D03*
X21710000Y33900000D03*
X25600000Y38560000D03*
X17680000Y25780000D03*
X48650000Y41030000D03*
X36700000Y6260000D03*
X14610000Y11890000D03*
X51220000Y14230000D03*
X49810000Y3810000D03*
X58520000Y56830000D03*
X17520000Y29840000D03*
X48560000Y37520000D03*
X49910000Y52170000D03*
X32850000Y63080000D03*
X44000000Y29610000D03*
X38820000Y13750000D03*
X13820000Y49990000D03*
X6000000Y21550000D03*
X39200000Y26480000D03*
X63440000Y38000000D03*
X38950000Y21500000D03*
X49120000Y49830000D03*
X13590000Y31050000D03*
X48460000Y24160000D03*
X54670000Y18820000D03*
X35910000Y17690000D03*
X49160000Y63180000D03*
X58740000Y40120000D03*
X17680000Y16990000D03*
X2930000Y50470000D03*
X19255000Y59345000D03*
X47430000Y11750000D03*
X19950000Y47000000D03*
X48360000Y29510000D03*
X16350000Y49810000D03*
X5540000Y3460000D03*
X14620000Y16980000D03*
X54330000Y21270000D03*
X21710000Y37940000D03*
X11970000Y8500000D03*
X18620000Y54830000D03*
X20865001Y16985002D03*
X35890000Y21250000D03*
X3360000Y56900000D03*
X3620000Y47190000D03*
X17730000Y18860000D03*
X48940000Y44490000D03*
X36810000Y10360000D03*
X37280000Y3590000D03*
X19725001Y63284999D03*
X61050000Y7010000D03*
X54630000Y30120000D03*
X39610000Y37100000D03*
X63170000Y19390000D03*
X14010000Y25770000D03*
X16130000Y54900000D03*
X33920000Y34460000D03*
X55820000Y33580000D03*
X38935082Y60204918D03*
X58300000Y13440000D03*
X59070000Y45150000D03*
X33990000Y29500000D03*
X15940000Y58410000D03*
X18110000Y36330000D03*
X43980000Y32390000D03*
X39360000Y32410000D03*
X31130000Y8770000D03*
X53220000Y7010000D03*
X23500000Y9940000D03*
X43710000Y60030000D03*
X54380000Y24850000D03*
X2790000Y39370000D03*
X38940000Y18970000D03*
X31520000Y37180000D03*
X31760000Y6910000D03*
X51440000Y11750000D03*
X36180000Y55860000D03*
X36390000Y52800000D03*
X59200000Y53090000D03*
X20000000Y51030000D03*
X20000000Y57620000D03*
X32300000Y23190000D03*
X32250000Y34770000D03*
X22130000Y23190000D03*
X32300000Y31250000D03*
X32260000Y55000000D03*
X36060000Y52010000D03*
X36540000Y38260000D03*
X43110000Y37780000D03*
X24720000Y24610000D03*
X22600000Y24610000D03*
X22620000Y36240000D03*
X43120000Y27010000D03*
X31740000Y44360000D03*
X24750000Y27130000D03*
X50390000Y42960000D03*
X14320000Y29680000D03*
X14340000Y41340000D03*
X50460000Y22150000D03*
X35760000Y53400000D03*
X35470000Y40910000D03*
X47460000Y55730000D03*
X53340000Y55730000D03*
X53340000Y32110000D03*
X18040000Y37550000D03*
X39490000Y52460000D03*
X39490000Y50948600D03*
X18160000Y49760000D03*
X57070000Y29550000D03*
X57050000Y50950000D03*
X19800000Y32230000D03*
X54410000Y52420000D03*
X19800000Y28720000D03*
X53920000Y33580000D03*
X19800000Y45680000D03*
X35650000Y30690000D03*
X36001100Y42300000D03*
X35640000Y22960000D03*
X36010000Y45340000D03*
X18950000Y47470000D03*
X39370000Y44840000D03*
X53730000Y27220000D03*
X18950000Y34750000D03*
X51900000Y47950000D03*
X39370000Y48408600D03*
X53420000Y12500000D03*
X24620000Y49910000D03*
X24620000Y30749998D03*
X55370000Y48850000D03*
X55370000Y42260000D03*
X56350000Y60860000D03*
X56360000Y37170000D03*
X14680000Y47470000D03*
X14700000Y60600000D03*
X31720000Y46030000D03*
X15220000Y53720000D03*
X58140000Y43770000D03*
X15155001Y42384999D03*
X15220000Y44210000D03*
X58150000Y47330000D03*
X14969998Y36190000D03*
X15096553Y19512272D03*
X15840000Y35340000D03*
X15840000Y38260000D03*
X57650000Y36100000D03*
X15870000Y42840000D03*
X3800000Y44760000D03*
X3970000Y41790000D03*
X17269998Y33270000D03*
X16460000Y28173600D03*
X16460000Y40430000D03*
X23870000Y18330000D03*
X23870000Y15660000D03*
X23870000Y52540000D03*
X20560000Y39850000D03*
X20560000Y33900000D03*
X20590002Y20720000D03*
X32430000Y13370000D03*
X23320000Y13440000D03*
X23320000Y55080000D03*
X48900000Y34150000D03*
X37060000Y59250000D03*
X37060000Y13880000D03*
X37718900Y55820000D03*
X37720000Y16410000D03*
X51140000Y25950000D03*
X51140000Y57490000D03*
X38520000Y4980000D03*
X15810000Y8700000D03*
X28260002Y8540000D03*
X15830000Y20590000D03*
X38900000Y9600000D03*
X18620000Y23950000D03*
X19600000Y11870000D03*
X38430000Y31790000D03*
X38250000Y57540000D03*
X38780000Y49920000D03*
X39270000Y33990000D03*
X44050000Y41130000D03*
X44140000Y37180000D03*
X39910000Y47380000D03*
X39910000Y41200000D03*
X43520000Y44800000D03*
X43520000Y47380000D03*
X43840000Y49910000D03*
X48090000Y56460000D03*
X20630000Y8050000D03*
M02*
